<?xml version="1.0" encoding="UTF-8" standalone="no"?>
<svg width="179px" height="26px" viewBox="0 0 179 26" version="1.1" xmlns="http://www.w3.org/2000/svg" xmlns:xlink="http://www.w3.org/1999/xlink">
    <!-- Generator: Sketch 40.3 (33839) - http://www.bohemiancoding.com/sketch -->
    <title>supported by</title>
    <desc>Created with Sketch.</desc>
    <defs>
        <polygon id="path-1" points="1.28278545e-20 0.158100291 1.28278545e-20 25.3451122 7.58480185 25.3451122 7.58480185 0.158100291 0 0.158100291"></polygon>
        <polygon id="path-3" points="96.7953274 19.9099386 96.7953274 14.6285514 91.583315 14.6285514 91.583315 19.9099386 96.7953274 19.9099386"></polygon>
    </defs>
    <g id="Page-1" stroke="none" stroke-width="1" fill="none" fill-rule="evenodd">
        <g id="house-ad,-m" transform="translate(-15.000000, -373.000000)">
            <g id="flex-frame,-m">
                <g id="contents" transform="translate(0.000000, 12.000000)">
                    <g id="supported-by" transform="translate(14.000000, 361.000000)">
                        <g id="logo" transform="translate(82.849998, 0.000000)">
                            <mask id="mask-2" fill="white">
                                <use xlink:href="#path-1"></use>
                            </mask>
                            <g id="Clip-2"></g>
                            <polygon id="Fill-5" fill="#313131" points="23.6162987 5.90271111 22.0119327 5.90271111 22.0119327 4.83132683 26.3806355 4.83132683 26.3806355 5.90271111 24.7764273 5.90271111 24.7764273 10.1127141 23.6162987 10.1127141"></polygon>
                            <polygon id="Fill-6" fill="#313131" points="27.4646631 4.83135843 28.6244762 4.83135843 28.6244762 6.92134788 30.7636308 6.92134788 30.7636308 4.83135843 31.9234439 4.83135843 31.9234439 10.1125876 30.7636308 10.1125876 30.7636308 7.99257414 28.6244762 7.99257414 28.6244762 10.1125876 27.4646631 10.1125876"></polygon>
                            <polygon id="Fill-7" fill="#313131" points="33.5271157 4.83135843 37.5039556 4.83135843 37.5039556 5.86497562 34.6795143 5.86497562 34.6795143 6.93635991 37.1650984 6.93635991 37.1650984 7.9699771 34.6795143 7.9699771 34.6795143 9.07897045 37.5415012 9.07897045 37.5415012 10.1125876 33.5271157 10.1125876"></polygon>
                            <polygon id="Fill-8" fill="#313131" points="40.847 4.83135843 42.0071285 4.83135843 42.0071285 9.0563734 44.6356384 9.0563734 44.6356384 10.1125876 40.847 10.1125876"></polygon>
                            <polygon id="Fill-9" fill="#313131" points="45.7195399 10.1125718 46.8796684 10.1125718 46.8796684 4.83134263 45.7195399 4.83134263"></polygon>
                            <polygon id="Fill-10" fill="#313131" points="48.491023 4.83135843 49.5604425 4.83135843 52.0308822 8.08312034 52.0308822 4.83135843 53.1758663 4.83135843 53.1758663 10.1125876 52.1889524 10.1125876 49.6356915 6.75526752 49.6356915 10.1125876 48.491023 10.1125876"></polygon>
                            <path d="M5.77330386,23.0771908 C5.64189414,23.7091179 5.47751368,23.7257101 4.9950996,23.7881285 C4.90454836,23.79919 4.82046507,23.8089873 4.73559301,23.8186266 L4.73480423,23.8192587 C4.6742264,23.8284239 4.65671563,23.8462803 4.63731179,23.9706431 C4.59913514,24.2135218 4.57783824,24.3310896 4.50164269,24.7877711 C4.50164269,24.7877711 4.48665599,24.9639648 4.29529946,25.0050504 C4.44469322,21.0655799 4.50747962,14.7069616 4.50747962,14.3420904 C4.50747962,13.56668 4.59424474,13.3113176 5.63006253,13.2534818 C6.12509699,13.225038 6.85108443,13.1665701 7.36836231,13.1297512 C7.3349183,13.2468449 7.30368285,13.2812936 7.2505195,13.3029425 C7.14293075,13.3481366 7.06799723,13.3697855 6.89777984,13.43331 C6.81006819,13.4657044 6.75769361,13.4969926 6.75927115,13.5794797 L6.75927115,13.6191431 L6.75769361,13.6191431 C6.67503011,18.668081 5.87063855,22.6088157 5.77330386,23.0771908 M3.08500489,24.7877711 C3.00959811,24.3310896 2.98798571,24.2135218 2.94980905,23.9706431 C2.93040522,23.8448581 2.91242117,23.8284239 2.84963478,23.8192587 L2.84963478,23.8186266 C2.76428945,23.8089873 2.68020616,23.79919 2.58997043,23.7881285 C2.1073986,23.7257101 1.94238711,23.7091179 1.81208168,23.0771908 C1.71443148,22.6088157 0.909724412,18.668081 0.827060914,13.6191431 L0.825956631,13.6191431 C0.825641121,13.610926 0.825641121,13.5989163 0.825641121,13.5794797 C0.827060914,13.4969926 0.775159596,13.4657044 0.687290191,13.43331 C0.517072798,13.3697855 0.441823775,13.3481366 0.334550533,13.3029425 C0.282018196,13.2812936 0.250309488,13.247477 0.217338742,13.1337017 C0.735878659,13.1703626 1.46833404,13.2258281 1.95753157,13.2534818 C2.99240284,13.3113176 3.07916796,13.56668 3.07916796,14.3420904 C3.07916796,14.7060134 3.14274313,21.0575208 3.29371444,25.0059985 C3.10046485,24.9657031 3.08500489,24.7877711 3.08500489,24.7877711 M1.81208168,2.42554764 C1.94238711,1.7933045 2.1073986,1.7762382 2.58997043,1.71555803 C2.68020616,1.70339039 2.76428945,1.69359307 2.84963478,1.6841118 C2.91242117,1.67494656 2.93040522,1.65851235 2.94980905,1.53272741 C2.98798571,1.29000672 3.00959811,1.17228087 3.08500489,0.715283326 C3.08500489,0.715283326 3.10046485,0.538615534 3.29308342,0.498162086 C3.14526721,4.48409086 3.07916796,10.8220084 3.07916796,11.16049 C3.07916796,11.9360584 2.99240284,12.1906307 1.95753157,12.2489405 C1.43583656,12.2781745 0.675616338,12.3380645 0.216549968,12.371249 C0.250309488,12.2549453 0.281702687,12.2212868 0.334550533,12.1990058 C0.441823775,12.1546018 0.517072798,12.1329529 0.687290191,12.0692703 C0.775159596,12.0362439 0.827060914,12.0047977 0.825641121,11.9224686 C0.825641121,11.903664 0.825641121,11.8918124 0.825956631,11.8834373 L0.827060914,11.8828052 C0.909724412,6.8338673 1.71443148,2.89313261 1.81208168,2.42554764 M4.50164269,0.715283326 C4.57783824,1.17228087 4.59913514,1.29000672 4.63731179,1.53272741 C4.65671563,1.65709016 4.6742264,1.67494656 4.73480423,1.68332169 L4.73559301,1.6841118 C4.82046507,1.69359307 4.90454836,1.70339039 4.9950996,1.71555803 C5.47751368,1.7762382 5.64189414,1.7933045 5.77330386,2.42554764 C5.87063855,2.89313261 6.67503011,6.8338673 6.75769361,11.8828052 L6.75927115,11.8834373 L6.75927115,11.9224686 C6.75769361,12.0047977 6.81006819,12.0362439 6.89777984,12.0692703 C7.06799723,12.1329529 7.14293075,12.1546018 7.2505195,12.1990058 C7.30368285,12.2212868 7.3349183,12.2557355 7.36867782,12.3733033 C6.95488706,12.3424891 6.14718266,12.2781745 5.63006253,12.2489405 C4.59424474,12.1906307 4.50747962,11.9360584 4.50747962,11.16049 C4.50747962,10.8002014 4.44469322,4.47808605 4.29451068,0.498162086 C4.48665599,0.538615534 4.50164269,0.715283326 4.50164269,0.715283326 M7.58480185,12.7508161 C7.57596758,12.2318742 7.57628309,12.2497306 7.57407452,12.0572607 C7.57407452,12.0564706 7.57360126,12.0564706 7.57360126,12.0558385 C7.51807158,7.14042859 6.89146965,3.07580521 6.59015804,1.24797306 C6.4661628,0.498162086 6.40984435,0.42326 5.61113196,0.305692167 C5.21122363,0.246434187 4.85154276,0.205348654 4.50811064,0.179907228 L4.50811064,0.180539313 L4.50842615,0.181329419 C4.19938456,0.159522483 3.79332379,0.158100291 3.79332379,0.158100291 C3.79332379,0.158100291 3.3848967,0.159522483 3.07695939,0.181329419 L3.07695939,0.180539313 L3.07695939,0.179907228 C2.73336951,0.205348654 2.37400415,0.246434187 1.97314929,0.305692167 C1.17475242,0.42326 1.11827621,0.498162086 0.995069741,1.24797306 C0.693600382,3.07580521 0.0668406946,7.14042859 0.0116265263,12.0558385 C0.0116265263,12.0564706 0.0108377525,12.0564706 0.0108377525,12.0572607 C0.00878694049,12.2497306 0.00878694049,12.2318742 -4.73264299e-05,12.7508161 C0.00878694049,13.2700741 0.00878694049,13.2528497 0.0108377525,13.4451616 L0.0116265263,13.4461098 C0.0668406946,18.3621518 0.693600382,22.4259851 0.995069741,24.2547653 C1.11827621,25.0042603 1.17475242,25.0785303 1.97314929,25.1968882 C2.33472322,25.2501414 2.66143334,25.2882245 2.97457655,25.3130339 C2.97599634,25.313824 2.97662736,25.313824 2.97741614,25.3146141 C3.28929731,25.3428999 3.79332379,25.3451122 3.79332379,25.3451122 C3.79332379,25.3451122 4.29861231,25.3428999 4.60875818,25.3146141 C4.61065123,25.313824 4.61222878,25.3130339 4.61364857,25.3130339 C4.92552975,25.2882245 5.2514511,25.2501414 5.61113196,25.1968882 C6.40984435,25.0785303 6.4661628,25.0042603 6.59015804,24.2547653 C6.89146965,22.4259851 7.51807158,18.3621518 7.57360126,13.4461098 L7.57407452,13.4451616 C7.57628309,13.2528497 7.57596758,13.2700741 7.58480185,12.7508161" id="Fill-1" fill="#313131"></path>
                            <polygon id="Fill-4" fill="#313131" points="14.9444245 25.0142946 15.397654 25.0142946 15.397654 0.489865969 14.9444245 0.489865969"></polygon>
                            <path d="M54.5005015,7.48709567 L54.5005015,7.47208365 C54.5005015,5.97056544 55.6303411,4.74084384 57.2498516,4.74084384 C58.2440221,4.74084384 58.8390731,5.07284655 59.3285861,5.55560156 L58.5904516,6.40812637 C58.1837598,6.03851459 57.7696535,5.81222812 57.2421216,5.81222812 C56.353489,5.81222812 55.7131624,6.55160969 55.7131624,7.45691361 L55.7131624,7.47208365 C55.7131624,8.37738757 56.3383445,9.13178116 57.2421216,9.13178116 C57.8447448,9.13178116 58.2138909,8.89032464 58.6279972,8.51312785 L59.3662895,9.26009444 C58.8239286,9.84098067 58.2213054,10.2031654 57.2045759,10.2031654 C55.6529001,10.2031654 54.5005015,9.0036259 54.5005015,7.48709567" id="Fill-11" fill="#313131"></path>
                            <path d="M64.5173139,7.48709567 L64.5173139,7.47208365 C64.5173139,6.56662171 63.8545861,5.81222812 62.9206779,5.81222812 C61.9867697,5.81222812 61.3390286,6.55160969 61.3390286,7.45691361 L61.3390286,7.47208365 C61.3390286,8.37738757 62.0019142,9.13178116 62.9358224,9.13178116 C63.8697306,9.13178116 64.5173139,8.39239959 64.5173139,7.48709567 M60.1263677,7.48709567 L60.1263677,7.47208365 C60.1263677,5.97056544 61.3088975,4.74084384 62.9358224,4.74084384 C64.5625895,4.74084384 65.7299748,5.95555342 65.7299748,7.45691361 L65.7299748,7.47208365 C65.7299748,8.97344384 64.5474451,10.2031654 62.9206779,10.2031654 C61.293753,10.2031654 60.1263677,8.98845586 60.1263677,7.48709567" id="Fill-13" fill="#313131"></path>
                            <polygon id="Fill-15" fill="#313131" points="67.0549413 4.83135843 68.2147544 4.83135843 68.2147544 9.0563734 70.8435798 9.0563734 70.8435798 10.1125876 67.0549413 10.1125876"></polygon>
                            <polygon id="Fill-17" fill="#313131" points="71.9271657 4.83135843 72.9965853 4.83135843 75.4670249 8.08312034 75.4670249 4.83135843 76.612009 4.83135843 76.612009 10.1125876 75.6254107 10.1125876 73.0721498 6.75526752 73.0721498 10.1125876 71.9271657 10.1125876"></polygon>
                            <polygon id="Fill-19" fill="#313131" points="22.614619 14.6286146 23.8649833 14.6286146 25.2508589 16.8617713 26.6367346 14.6286146 27.8870988 14.6286146 27.8870988 19.9098438 26.7347003 19.9098438 26.7347003 16.4619775 25.2508589 18.7177313 25.2207278 18.7177313 23.7518732 16.4847326 23.7518732 19.9098438 22.614619 19.9098438"></polygon>
                            <path d="M33.6029169,17.284336 L33.6029169,17.269166 C33.6029169,16.3638621 32.9401891,15.6093105 32.0062809,15.6093105 C31.0720572,15.6093105 30.4244738,16.3488501 30.4244738,17.254154 L30.4244738,17.269166 C30.4244738,18.1746279 31.0872016,18.9290215 32.0211098,18.9290215 C32.9553336,18.9290215 33.6029169,18.18964 33.6029169,17.284336 M29.2116552,17.284336 L29.2116552,17.269166 C29.2116552,15.7678058 30.3941849,14.5380842 32.0211098,14.5380842 C33.6481925,14.5380842 34.8155778,15.7527938 34.8155778,17.254154 L34.8155778,17.269166 C34.8155778,18.7706842 33.633048,20.0004058 32.0062809,20.0004058 C30.3790405,20.0004058 29.2116552,18.7856962 29.2116552,17.284336" id="Fill-21" fill="#313131"></path>
                            <polygon id="Fill-23" fill="#313131" points="37.1798169 15.6999515 35.5754509 15.6999515 35.5754509 14.6285672 39.9438382 14.6285672 39.9438382 15.6999515 38.3396299 15.6999515 38.3396299 19.9099544 37.1798169 19.9099544"></polygon>
                            <path d="M45.0875901,17.284336 L45.0875901,17.269166 C45.0875901,16.3638621 44.4248623,15.6093105 43.4909541,15.6093105 C42.5570459,15.6093105 41.9093048,16.3488501 41.9093048,17.254154 L41.9093048,17.269166 C41.9093048,18.1746279 42.5721903,18.9290215 43.5060985,18.9290215 C44.4400068,18.9290215 45.0875901,18.18964 45.0875901,17.284336 M40.6966439,17.284336 L40.6966439,17.269166 C40.6966439,15.7678058 41.8791736,14.5380842 43.5060985,14.5380842 C45.1328657,14.5380842 46.300251,15.7527938 46.300251,17.254154 L46.300251,17.269166 C46.300251,18.7706842 45.1177212,20.0004058 43.4909541,20.0004058 C41.8640292,20.0004058 40.6966439,18.7856962 40.6966439,17.284336" id="Fill-25" fill="#313131"></path>
                            <path d="M49.9524158,17.1937582 C50.5174934,17.1937582 50.8413639,16.8920956 50.8413639,16.4467917 L50.8413639,16.4317796 C50.8413639,15.9338546 50.4947767,15.677228 49.9298569,15.677228 L48.777616,15.677228 L48.777616,17.1937582 L49.9524158,17.1937582 Z M47.6174875,14.6285988 L50.0278226,14.6285988 C50.6981226,14.6285988 51.2177668,14.8172762 51.5645117,15.1642909 C51.8580934,15.4586846 52.0161636,15.8734905 52.0161636,16.3714155 L52.0161636,16.3865855 C52.0161636,17.2391104 51.5567818,17.7748025 50.886324,18.023686 L52.1745494,19.909828 L50.8184895,19.909828 L49.6889653,18.2197904 L48.777616,18.2197904 L48.777616,19.909828 L47.6174875,19.909828 L47.6174875,14.6285988 Z" id="Fill-27" fill="#313131"></path>
                            <path d="M55.4044994,17.284336 L55.4044994,17.269166 C55.4044994,15.7678058 56.534339,14.5380842 58.153534,14.5380842 C59.1478623,14.5380842 59.7427555,14.8700869 60.2324263,15.3528419 L59.4944495,16.2055248 C59.0877577,15.835755 58.6733359,15.6093105 58.1461195,15.6093105 C57.2571714,15.6093105 56.6171603,16.3488501 56.6171603,17.254154 L56.6171603,17.269166 C56.6171603,18.1746279 57.2423424,18.9290215 58.1461195,18.9290215 C58.7487427,18.9290215 59.1175733,18.687723 59.5319951,18.3103682 L60.2702874,19.0573348 C59.727611,19.638221 59.1253033,20.0004058 58.1085738,20.0004058 C56.556898,20.0004058 55.4044994,18.8008663 55.4044994,17.284336" id="Fill-29" fill="#313131"></path>
                            <path d="M65.4210121,17.284336 L65.4210121,17.269166 C65.4210121,16.3638621 64.7582843,15.6093105 63.8243761,15.6093105 C62.8904679,15.6093105 62.2428846,16.3488501 62.2428846,17.254154 L62.2428846,17.269166 C62.2428846,18.1746279 62.9056123,18.9290215 63.8395206,18.9290215 C64.7734288,18.9290215 65.4210121,18.18964 65.4210121,17.284336 M61.0300659,17.284336 L61.0300659,17.269166 C61.0300659,15.7678058 62.2125957,14.5380842 63.8395206,14.5380842 C65.4662877,14.5380842 66.633673,15.7527938 66.633673,17.254154 L66.633673,17.269166 C66.633673,18.7706842 65.4511433,20.0004058 63.8243761,20.0004058 C62.1974512,20.0004058 61.0300659,18.7856962 61.0300659,17.284336" id="Fill-31" fill="#313131"></path>
                            <polygon id="Fill-33" fill="#313131" points="67.9509411 14.6286146 69.2013053 14.6286146 70.587181 16.8617713 71.9730566 14.6286146 73.2234209 14.6286146 73.2234209 19.9098438 72.0710223 19.9098438 72.0710223 16.4619775 70.587181 18.7177313 70.5570498 18.7177313 69.0881952 16.4847326 69.0881952 19.9098438 67.9509411 19.9098438"></polygon>
                            <path d="M76.9056695,17.2919053 C77.485576,17.2919053 77.8244333,16.9448905 77.8244333,16.4921596 L77.8244333,16.4771475 C77.8244333,15.9564674 77.4630171,15.6772438 76.8832683,15.6772438 L75.9869058,15.6772438 L75.9869058,17.2919053 L76.9056695,17.2919053 Z M74.8267772,14.6286146 L76.9812341,14.6286146 C78.2388551,14.6286146 78.9997063,15.3755812 78.9997063,16.4543925 L78.9997063,16.4695625 C78.9997063,17.6916991 78.0506536,18.3255225 76.8681239,18.3255225 L75.9869058,18.3255225 L75.9869058,19.9098438 L74.8267772,19.9098438 L74.8267772,14.6286146 Z" id="Fill-35" fill="#313131"></path>
                            <path d="M82.7047032,17.6992999 L82.0041143,15.9866653 L81.3036831,17.6992999 L82.7047032,17.6992999 Z M81.4846278,14.5908633 L82.5540474,14.5908633 L84.8134111,19.9098596 L83.6010658,19.9098596 L83.1188094,18.7253321 L80.8892613,18.7253321 L80.4074783,19.9098596 L79.2247908,19.9098596 L81.4846278,14.5908633 Z" id="Fill-37" fill="#313131"></path>
                            <polygon id="Fill-39" fill="#313131" points="85.8748956 14.6286146 86.9443152 14.6286146 89.4147549 17.8803765 89.4147549 14.6286146 90.5597389 14.6286146 90.5597389 19.9098438 89.5728251 19.9098438 87.0195642 16.5525237 87.0195642 19.9098438 85.8748956 19.9098438"></polygon>
                            <mask id="mask-4" fill="white">
                                <use xlink:href="#path-3"></use>
                            </mask>
                            <g id="Clip-42"></g>
                            <polygon id="Fill-41" fill="#313131" mask="url(#mask-4)" points="93.6092017 17.8275342 91.583315 14.6285514 92.9390594 14.6285514 94.1968382 16.7487229 95.4773336 14.6285514 96.7953747 14.6285514 94.7693302 17.8049372 94.7693302 19.9099386 93.6092017 19.9099386"></polygon>
                        </g>
                        <text id="SUPPORTED-BY" font-family="NYTFranklin-Medium, NYTFranklin" font-size="9" font-weight="400" letter-spacing="0.620000005" fill="#000000">
                            <tspan x="0.899999619" y="16.5">SUPPORTED B</tspan>
                            <tspan x="65.4009997" y="16.5">Y</tspan>
                        </text>
                    </g>
                </g>
            </g>
        </g>
    </g>
</svg>