<?xml version="1.0" encoding="utf-8"?>
<!-- Generator: Adobe Illustrator 16.0.4, SVG Export Plug-In . SVG Version: 6.00 Build 0)  -->
<!DOCTYPE svg PUBLIC "-//W3C//DTD SVG 1.1//EN" "http://www.w3.org/Graphics/SVG/1.1/DTD/svg11.dtd">
<svg version="1.1" id="Layer_1" xmlns="http://www.w3.org/2000/svg" xmlns:xlink="http://www.w3.org/1999/xlink" x="0px" y="0px"
	 width="22px" height="22px" viewBox="0 0 22 22" enable-background="new 0 0 22 22" xml:space="preserve">
<path fill="#FFFFFF" d="M22,19.09l-6.252-6.249c0.768-1.277,1.219-2.763,1.219-4.358C16.969,3.806,13.163,0,8.483,0
	C3.805,0,0,3.806,0,8.483c0,4.677,3.805,8.479,8.483,8.479c1.596,0,3.083-0.45,4.358-1.218l6.253,6.253L22,19.09z M2.74,8.483
	c0-3.167,2.577-5.744,5.744-5.744c3.167,0,5.745,2.577,5.745,5.744c0,3.167-2.578,5.742-5.745,5.742
	C5.316,14.225,2.74,11.65,2.74,8.483z"/>
</svg>
