<?xml version="1.0" encoding="utf-8"?>
<!-- Generator: Adobe Illustrator 19.0.0, SVG Export Plug-In . SVG Version: 6.00 Build 0)  -->
<svg version="1.1" id="Layer_1" xmlns="http://www.w3.org/2000/svg" xmlns:xlink="http://www.w3.org/1999/xlink" x="0px" y="0px"
	 viewBox="0 0 56 36" style="enable-background:new 0 0 56 36;" xml:space="preserve">
<style type="text/css">
	.st0{fill:#FFFFFF;}
</style>
<g id="XMLID_1_">
	<g id="_x37_30-envelope-selected_x40_2x.png">
		<g id="XMLID_38_">
			<path id="XMLID_39_" class="st0" d="M29.4,24.4L53.8,0H2.1l24.4,24.4C27.3,25.2,28.6,25.2,29.4,24.4z M0.3,0.9C0.1,1.2,0,1.6,0,2
				v32c0,0.4,0.1,0.8,0.3,1.1L17.4,18L0.3,0.9z M30.8,25.8c-1.5,1.5-4,1.5-5.6,0l-6.4-6.4L2.1,36h51.7L37.2,19.4L30.8,25.8z
				 M55.7,0.9L38.6,18l17.1,17.1c0.2-0.3,0.3-0.7,0.3-1.1V2C56,1.6,55.9,1.2,55.7,0.9z"/>
		</g>
	</g>
</g>
</svg>
