<?xml version="1.0" encoding="utf-8"?>
<!-- Generator: Adobe Illustrator 19.0.0, SVG Export Plug-In . SVG Version: 6.00 Build 0)  -->
<!DOCTYPE svg PUBLIC "-//W3C//DTD SVG 1.1//EN" "http://www.w3.org/Graphics/SVG/1.1/DTD/svg11.dtd">
<svg version="1.1" id="Layer_1" xmlns="http://www.w3.org/2000/svg" xmlns:xlink="http://www.w3.org/1999/xlink" x="0px" y="0px"
	 viewBox="422.9 344.8 103.1 102.9" style="enable-background:new 422.9 344.8 103.1 102.9;" xml:space="preserve">
<style type="text/css">
	.st0{fill:#FFFFFF;}
</style>
<g>
	<g>
		<g>
			<g>
				<path class="st0" d="M424.6,379H446v68.7h-21.4V379z M435.3,344.8c6.8,0,12.4,5.5,12.4,12.4c0,6.8-5.5,12.4-12.4,12.4
					c-6.8,0-12.4-5.5-12.4-12.4C422.9,350.4,428.5,344.8,435.3,344.8"/>
				<path class="st0" d="M459.4,379h20.5v9.4h0.3c2.9-5.4,9.8-11.1,20.2-11.1c21.6,0,25.6,14.2,25.6,32.7v37.7h-21.3v-33.4
					c0-8-0.1-18.2-11.1-18.2c-11.1,0-12.8,8.7-12.8,17.6v34h-21.3L459.4,379L459.4,379z"/>
			</g>
		</g>
	</g>
</g>
</svg>
