<?xml version="1.0" encoding="utf-8"?>
<!-- Generator: Adobe Illustrator 19.0.0, SVG Export Plug-In . SVG Version: 6.00 Build 0)  -->
<svg version="1.1" id="Layer_1" xmlns="http://www.w3.org/2000/svg" xmlns:xlink="http://www.w3.org/1999/xlink" x="0px" y="0px"
	 viewBox="-219 327.6 171.5 139.4" style="enable-background:new -219 327.6 171.5 139.4;" xml:space="preserve">
<style type="text/css">
	.st0{fill:#FFFFFF;}
</style>
<g transform="translate(-282.32053,-396.30734)">
	<path class="st0" d="M234.8,740.4c-6.3,2.8-13.1,4.7-20.2,5.5c7.3-4.4,12.8-11.2,15.5-19.5c-6.8,4-14.3,7-22.3,8.5
		c-6.4-6.8-15.6-11.1-25.7-11.1c-19.4,0-35.2,15.8-35.2,35.2c0,2.8,0.3,5.4,0.9,8c-29.2-1.5-55.2-15.5-72.5-36.8
		c-3,5.2-4.8,11.2-4.8,17.7c0,12.2,6.2,23,15.7,29.3c-5.8-0.2-11.2-1.8-15.9-4.4c0,0.1,0,0.3,0,0.4c0,17,12.1,31.3,28.2,34.5
		c-3,0.8-6.1,1.2-9.3,1.2c-2.3,0-4.5-0.2-6.6-0.6c4.5,14,17.5,24.2,32.9,24.4c-12,9.4-27.2,15.1-43.7,15.1c-2.8,0-5.6-0.2-8.4-0.5
		c15.6,10,34.1,15.8,53.9,15.8c64.7,0,100.1-53.6,100.1-100.1c0-1.5,0-3-0.1-4.6C224.1,753.7,230.1,747.5,234.8,740.4L234.8,740.4z"
		/>
</g>
</svg>
