<?xml version="1.0" encoding="utf-8"?>
<!-- Generator: Adobe Illustrator 19.1.0, SVG Export Plug-In . SVG Version: 6.00 Build 0)  -->
<svg version="1.1" id="Layer_1" xmlns="http://www.w3.org/2000/svg" xmlns:xlink="http://www.w3.org/1999/xlink" x="0px" y="0px"
	 width="90px" height="30px" viewBox="0 0 90 30" enable-background="new 0 0 90 30" xml:space="preserve">
<path fill="#005495" d="M111.99-756.6v31.95H55.32v153.4H19.51v-153.4h-56.66v-31.95H111.99z M127.22-571.25h35.82v-92.68v-92.67
	h-35.82v92.67V-571.25z M348.19-571.25h-36.86l-19.05-45.61h-62.79l-18.83,45.61h-36.04l78.96-187.83h15.66L348.19-571.25z
	 M521.77-571.25h-36.86l-19.05-45.61h-62.8l-18.83,45.61h-36.03l78.96-187.83h15.65L521.77-571.25z M280-647.14l-18.94-46.16
	l-19.08,46.16H280z M453.57-647.14l-18.94-46.16l-19.08,46.16H453.57z"/>
<path fill="#FFE525" d="M90,15L90,15c0-8.28-6.72-15-15-15H15C6.71,0-0.01,6.72,0,15.01l0,0C0.01,23.29,6.72,30,15,30h60
	C83.28,30,90,23.28,90,15z"/>
<linearGradient id="SVGID_1_" gradientUnits="userSpaceOnUse" x1="-184.6445" y1="-677.9027" x2="-77.9214" y2="-784.6259">
	<stop  offset="0.1" style="stop-color:#9CDBF8"/>
	<stop  offset="0.9" style="stop-color:#009DDA"/>
</linearGradient>
<path fill="url(#SVGID_1_)" d="M-186.43-784.63c-24.76,0-44.84,20.03-44.95,44.76v15.22h93.51v93.47h15
	c24.83,0,44.95-20.13,44.95-44.94v-108.52H-186.43z"/>
<linearGradient id="SVGID_2_" gradientUnits="userSpaceOnUse" x1="-291.2915" y1="-598.6803" x2="-94.529" y2="-598.6803">
	<stop  offset="0" style="stop-color:#10B0E6"/>
	<stop  offset="0.1611" style="stop-color:#0FAAE1"/>
	<stop  offset="0.3719" style="stop-color:#0C9AD2"/>
	<stop  offset="0.6102" style="stop-color:#077FBA"/>
	<stop  offset="0.8672" style="stop-color:#015999"/>
	<stop  offset="0.9" style="stop-color:#005494"/>
</linearGradient>
<path fill="url(#SVGID_2_)" d="M-95.58-626.11c-8.1,4.45-17.41,6.98-27.3,6.98h-120.54l-47.88,47.89h124.42
	c12.11,0,23.49-4.8,32.06-13.53l40.29-40.29L-95.58-626.11z"/>
<linearGradient id="SVGID_3_" gradientUnits="userSpaceOnUse" x1="-263.8624" y1="-571.2498" x2="-263.8624" y2="-768.0149">
	<stop  offset="0" style="stop-color:#0081BD"/>
	<stop  offset="0.3934" style="stop-color:#006FAC"/>
	<stop  offset="0.85" style="stop-color:#005494"/>
</linearGradient>
<path fill="url(#SVGID_3_)" d="M-236.43-766.97c-4.45,8.11-6.98,17.41-6.98,27.3v120.54l-47.88,47.89v-124.42
	c0-12.1,4.8-23.49,13.52-32.06l40.29-40.29L-236.43-766.97z"/>
<rect x="131.56" y="-50.22" fill="none" width="128.67" height="28.16"/>
<text transform="matrix(1 0 0 1 153.0487 -37.4072)" fill="#231F20" font-family="'Agenda-Bold'" font-size="18px">Learn More</text>
<rect x="124.31" y="13.36" fill="none" width="128.67" height="28.16"/>
<text transform="matrix(1 0 0 1 170.8226 19.7665)" fill="#231F20" font-family="'Agenda-Bold'" font-size="9px">SEE HOW</text>
<g>
	<path fill="#005495" d="M20.43,19.6c-1.01,0-1.98-0.29-2.51-0.62l-0.21-2.03c0.73,0.5,1.68,0.85,2.58,0.85
		c0.77,0,1.26-0.35,1.26-0.9c0-0.52-0.32-0.81-1.15-1.04c-1.75-0.48-2.56-1.44-2.56-2.8c0-1.48,1.11-2.68,3.04-2.68
		c1.02,0,1.88,0.29,2.24,0.5l-0.39,1.75c-0.36-0.21-1.08-0.46-1.69-0.46c-0.76,0-1.11,0.34-1.11,0.77c0,0.45,0.38,0.69,1.06,0.88
		c1.71,0.48,2.73,1.36,2.73,2.94C23.73,18.51,22.61,19.6,20.43,19.6z"/>
	<path fill="#005495" d="M24.9,19.48v-8.94h5.13v1.78h-3v1.76h2.47v1.82h-2.47v1.79h3.42v1.78H24.9z"/>
	<path fill="#005495" d="M31.26,19.48v-8.94h5.13v1.78h-3v1.76h2.47v1.82h-2.47v1.79h3.42v1.78H31.26z"/>
	<path fill="#005495" d="M46.39,19.48v-3.54h-3.45v3.54h-2.17v-8.94h2.17v3.52h3.45v-3.52h2.17v8.94H46.39z"/>
	<path fill="#005495" d="M54.55,19.69c-2.46,0-4.82-1.81-4.82-4.69c0-2.86,2.34-4.68,4.82-4.68c2.47,0,4.8,1.81,4.8,4.68
		S57.03,19.69,54.55,19.69z M54.55,12.26c-1.34,0-2.61,1.09-2.61,2.76c0,1.67,1.26,2.76,2.61,2.76c1.33,0,2.61-1.09,2.61-2.76
		C57.16,13.35,55.89,12.26,54.55,12.26z"/>
	<path fill="#005495" d="M69.3,19.53h-1.39l-1.3-3.95c-0.2-0.59-0.38-1.2-0.59-1.99h-0.03c-0.2,0.77-0.39,1.42-0.59,1.99l-1.3,3.95
		h-1.36l-2.98-8.99h2.12l1.16,3.61c0.17,0.55,0.35,1.12,0.49,1.79h0.03c0.13-0.67,0.29-1.23,0.48-1.79l1.18-3.61h1.86l1.16,3.6
		c0.17,0.5,0.34,1.15,0.48,1.81h0.03c0.11-0.64,0.31-1.29,0.48-1.79l1.19-3.61h1.88L69.3,19.53z"/>
</g>
</svg>
