<?xml version="1.0" standalone="no"?>
<!DOCTYPE svg PUBLIC "-//W3C//DTD SVG 1.1//EN" "http://www.w3.org/Graphics/SVG/1.1/DTD/svg11.dtd" >
<svg xmlns="http://www.w3.org/2000/svg">
<metadata></metadata>
<defs>
<font id="effralight_italic" horiz-adv-x="1116" >
<font-face units-per-em="2048" ascent="1638" descent="-410" />
<missing-glyph horiz-adv-x="356" />
<glyph unicode="&#xfb01;" horiz-adv-x="1005" d="M133 860l17 82h182l24 131q29 154 131.5 240t260.5 86q88 0 155.5 -31t118.5 -98l-66 -49q-51 59 -100 77.5t-115 18.5q-43 0 -88 -9.5t-86 -37t-73.5 -79.5t-49.5 -136l-22 -113h565l-182 -942h-90l166 860h-475l-166 -860h-90l165 860h-182z" />
<glyph unicode="&#xfb02;" horiz-adv-x="1030" d="M133 860l17 82h182l24 131q31 166 139.5 246t282.5 80q74 0 154 -21.5t151 -66.5l-247 -1311h-91l242 1268q-41 23 -97 37t-122 14q-127 0 -210 -55.5t-114 -208.5l-22 -113h297l-17 -82h-296l-166 -860h-90l165 860h-182z" />
<glyph unicode="&#xfb03;" horiz-adv-x="1597" d="M133 860l17 82h182l24 129q29 160 114 244t214 84q154 0 231 -119l-67 -47q-35 53 -77 68.5t-91 15.5q-39 0 -75 -10.5t-66.5 -39t-55 -83t-41.5 -140.5l-20 -102h502l24 131q29 154 131.5 240t259.5 86q86 0 156 -30t117 -93l-68 -51q-47 55 -98 73.5t-113 18.5 q-43 0 -89 -9.5t-87 -37t-74.5 -79.5t-48.5 -136l-20 -113h565l-182 -942h-90l166 860h-476l-166 -860h-90l166 860h-501l-166 -860h-90l165 860h-182z" />
<glyph unicode="&#xfb04;" horiz-adv-x="1622" d="M133 860l17 82h182l24 129q29 160 114 244t214 84q154 0 231 -119l-67 -47q-35 53 -77 68.5t-91 15.5q-39 0 -75 -10.5t-66.5 -39t-55 -83t-41.5 -140.5l-20 -102h502l24 131q31 166 139.5 246t282.5 80q74 0 154 -21.5t151 -66.5l-248 -1311h-90l242 1266 q-41 23 -97.5 38t-121.5 15q-127 0 -212 -55.5t-114 -208.5l-20 -113h297l-17 -82h-297l-166 -860h-90l166 860h-501l-166 -860h-90l165 860h-182z" />
<glyph unicode="&#xd;" horiz-adv-x="356" />
<glyph horiz-adv-x="0" />
<glyph horiz-adv-x="0" />
<glyph unicode=" "  horiz-adv-x="356" />
<glyph unicode="&#x09;" horiz-adv-x="356" />
<glyph unicode="&#xa0;" horiz-adv-x="356" />
<glyph unicode="!" horiz-adv-x="440" d="M96 0l25 129h125l-25 -129h-125zM180 340l193 1026h102l-205 -1026h-90z" />
<glyph unicode="&#x22;" horiz-adv-x="604" d="M209 948l82 418h92l-82 -418h-92zM465 948l82 418h92l-82 -418h-92z" />
<glyph unicode="#" horiz-adv-x="1513" d="M141 383l15 76h331l144 352h-305l14 76h326l159 385h86l-159 -385h368l160 385h88l-160 -385h289l-14 -76h-309l-144 -352h281l-15 -76h-301l-159 -383h-86l159 383h-370l-160 -383h-86l160 383h-312zM573 459h369l145 352h-370z" />
<glyph unicode="$" d="M43 170l72 57q53 -76 132 -120t189 -54l113 584q-55 25 -107.5 55.5t-92.5 70.5t-63.5 93t-23.5 121q0 86 35 150.5t91 107.5t128 65.5t148 22.5h18l33 170h82l-35 -178q92 -14 158.5 -58.5t126.5 -128.5l-70 -45q-49 70 -101.5 105t-130.5 45l-104 -543q2 -2 4 -2t6 -2 q55 -27 108.5 -56.5t93.5 -68.5t64.5 -89t24.5 -118q0 -96 -32.5 -167.5t-91 -120t-140.5 -73t-178 -26.5l-29 -155h-82l31 159q-131 12 -229.5 68.5t-147.5 130.5zM354 995q0 -53 14.5 -93t41 -70.5t66.5 -55t89 -49.5l101 514h-9q-61 0 -116.5 -15.5t-96.5 -46t-65.5 -77 t-24.5 -107.5zM516 51q72 2 131.5 19.5t102.5 52.5t67.5 89t24.5 132q0 49 -16.5 88t-46 69.5t-69.5 55.5t-87 47z" />
<glyph unicode="%" horiz-adv-x="1650" d="M168 868q0 94 31.5 178t83 146.5t116 98.5t131.5 36q111 0 180.5 -67.5t69.5 -210.5q0 -96 -30.5 -179.5t-82 -145.5t-116.5 -98t-135 -36q-109 0 -178.5 67.5t-69.5 210.5zM260 872q0 -102 39 -154t125 -52q41 0 88 25.5t86 73.5t64.5 118.5t25.5 160.5q0 102 -39 154.5 t-125 52.5q-43 0 -90 -25.5t-86 -73.5t-63.5 -118.5t-24.5 -161.5zM319 0l983 1290h105l-983 -1290h-105zM953 266q0 94 31.5 178t83 146.5t116 98.5t131.5 36q111 0 180.5 -67.5t69.5 -210.5q0 -96 -30.5 -179.5t-82 -145.5t-116.5 -98t-135 -36q-109 0 -178.5 67.5 t-69.5 210.5zM1045 270q0 -102 39 -154t125 -52q41 0 88 25.5t86 73.5t64.5 118.5t25.5 160.5q0 102 -39 154.5t-125 52.5q-43 0 -90 -25.5t-86 -73.5t-63.5 -118.5t-24.5 -161.5z" />
<glyph unicode="&#x26;" horiz-adv-x="1216" d="M82 287q0 147 103.5 266t295.5 233q-45 72 -71.5 150t-26.5 131q0 76 24.5 137.5t67.5 105.5t102.5 67.5t127.5 23.5q106 0 184 -49t125 -170l-76 -35q-25 57 -51.5 91t-56 51.5t-62.5 22.5t-70 5q-104 0 -164.5 -62.5t-60.5 -169.5q0 -74 31 -141t71 -131l306 -473 l239 283l66 -52l-258 -303l174 -268h-105l-131 199q-100 -111 -201.5 -171.5t-228.5 -60.5q-80 0 -145.5 24.5t-111.5 67.5t-71.5 101.5t-25.5 126.5zM182 309q0 -47 13.5 -92t44 -81t82 -57.5t129.5 -21.5q119 0 203.5 60.5t166.5 152.5l-295 449q-82 -47 -145.5 -94 t-107.5 -96.5t-67.5 -102.5t-23.5 -117z" />
<glyph unicode="'" horiz-adv-x="348" d="M209 948l82 418h92l-82 -418h-92z" />
<glyph unicode="(" horiz-adv-x="550" d="M168 313q0 205 47 387.5t111.5 330t134 255t117.5 160.5h86q-47 -70 -115 -177.5t-130.5 -252t-106.5 -327.5t-44 -402q0 -160 25.5 -275.5t50.5 -201.5h-86q-27 61 -58.5 191t-31.5 312z" />
<glyph unicode=")" horiz-adv-x="550" d="M6 -190q47 70 114.5 177t130 251.5t106.5 328t44 402.5q0 160 -25.5 275.5t-49.5 201.5h86q27 -61 58.5 -191.5t31.5 -312.5q0 -205 -47 -387t-111.5 -329.5t-135.5 -255t-116 -160.5h-86z" />
<glyph unicode="*" horiz-adv-x="987" d="M258 913l297 160l-297 160l43 72l285 -179l-11 336h82l-10 -336l285 179l43 -72l-297 -160l297 -160l-43 -71l-285 178l10 -336h-82l11 336l-285 -178z" />
<glyph unicode="+" d="M182 612l19 90h348l69 355h91l-70 -355h350l-18 -90h-346l-68 -358h-92l67 358h-350z" />
<glyph unicode="," horiz-adv-x="428" d="M39 -160l96 160h-47l27 137h131l-27 -137l-121 -160h-59z" />
<glyph unicode="-" horiz-adv-x="860" d="M201 532l18 91h541l-19 -91h-540z" />
<glyph unicode="." horiz-adv-x="430" d="M84 -4l29 139h135l-29 -139h-135z" />
<glyph unicode="/" horiz-adv-x="737" d="M-10 -33l803 1436h100l-803 -1436h-100z" />
<glyph unicode="0" d="M121 416q0 84 15.5 183t46 200.5t79.5 197t116.5 169t155 117.5t195.5 44q166 0 258 -115.5t92 -320.5q0 -84 -15 -185.5t-47 -203t-80 -196.5t-115.5 -169t-154.5 -118t-196 -44q-80 0 -144.5 31t-110.5 88.5t-70.5 138t-24.5 183.5zM221 422q0 -170 62.5 -262 t195.5 -92q90 0 162 39.5t127 106.5t94 152t64.5 176t38 181t12.5 164q0 170 -61.5 260t-200.5 90q-88 0 -160 -40t-126 -106.5t-94 -151.5t-64.5 -175t-37 -179t-12.5 -163z" />
<glyph unicode="1" d="M231 0l15 86h233l219 1118l-305 -155l-35 69l361 189h96l-240 -1221h232l-14 -86h-562z" />
<glyph unicode="2" d="M94 0l17 90q12 76 55 142.5t102.5 126t129 113.5t137.5 103q92 68 164.5 120.5t123.5 101.5t79 104t28 131q0 88 -55.5 146.5t-186.5 58.5q-90 0 -170 -40t-145 -130l-70 47q59 90 161.5 151.5t244.5 61.5q84 0 145 -25.5t101 -65.5t59.5 -90t19.5 -99q0 -94 -35.5 -165 t-94 -130.5t-132.5 -110.5t-149 -106q-90 -66 -162 -120.5t-124 -106.5t-84 -104t-44 -114h665l-16 -90h-764z" />
<glyph unicode="3" d="M90 113l60 67q76 -74 151.5 -99.5t159.5 -25.5q164 0 265 92.5t101 272.5q0 111 -67.5 176.5t-190.5 65.5q-66 0 -129 -19l-41 64l512 499h-559l17 88h671l-16 -88l-485 -471q27 4 42 5t29 1q70 0 129.5 -25.5t100.5 -68.5t64.5 -99t23.5 -116q0 -121 -39 -209 t-104.5 -144t-150.5 -84t-175 -28q-109 0 -205 38t-164 108z" />
<glyph unicode="4" d="M119 301l16 88l772 905h101l-177 -905h142l-17 -88h-141l-57 -301h-94l57 301h-602zM233 389h504l150 764z" />
<glyph unicode="5" d="M104 113l60 67q76 -74 147.5 -99.5t155.5 -25.5q82 0 150.5 24.5t118.5 72t78 117t28 159.5q0 72 -20.5 123t-55.5 83t-81 46t-99 14q-68 0 -138.5 -19.5t-136.5 -56.5l-35 35l209 641h570l-17 -90h-497l-150 -471q53 29 108.5 40t110.5 11q68 0 127.5 -23.5t105.5 -67.5 t72.5 -107.5t26.5 -145.5q0 -121 -41 -210t-107.5 -147t-152.5 -87t-176 -29q-109 0 -201 38t-160 108z" />
<glyph unicode="6" d="M164 383q0 86 16.5 188.5t51 207t89 202.5t128 174t169 122t211.5 46q72 0 137.5 -20.5t125.5 -67.5l-64 -70q-59 47 -110.5 57.5t-100.5 10.5q-102 0 -183 -42t-144.5 -116t-109.5 -172t-77 -211q68 51 148.5 83t185.5 32q63 0 124.5 -22.5t107.5 -65.5t75 -106.5 t29 -145.5q0 -139 -41 -235.5t-105.5 -155t-142.5 -84t-152 -25.5q-94 0 -162.5 33t-114.5 89t-68.5 132t-22.5 162zM256 375q0 -63 16.5 -120.5t51 -101.5t89 -70t132.5 -26q57 0 115.5 20.5t106.5 66.5t77.5 119t29.5 177q0 143 -72.5 210t-176.5 67q-106 0 -184.5 -32 t-164.5 -105q-10 -49 -15 -100.5t-5 -104.5z" />
<glyph unicode="7" d="M231 0q55 104 120 219t133.5 229.5t138 225t134 210t122 181.5t102.5 139h-670l17 90h776l-17 -90q-41 -55 -102 -143t-131 -193.5t-143.5 -222.5t-143 -231.5t-129 -222t-98.5 -191.5h-109z" />
<glyph unicode="8" d="M104 283q0 63 23 123.5t70 116t119.5 101t170.5 78.5q-53 37 -87.5 71t-54 67.5t-27 69.5t-7.5 75q0 66 30 127.5t83 109.5t129 76.5t166 28.5q76 0 135 -22.5t100 -60.5t63.5 -87t22.5 -102q0 -115 -73.5 -205t-249.5 -160q133 -70 191.5 -154.5t58.5 -187.5 q0 -74 -31 -143.5t-92.5 -121.5t-151.5 -84t-207 -32q-96 0 -167.5 26.5t-118.5 69.5t-71 100.5t-24 119.5zM203 287q0 -47 17.5 -89t54 -74t94 -50.5t135.5 -18.5q86 0 152.5 23.5t112.5 63.5t70.5 92.5t24.5 111.5q0 94 -64 171t-218 134q-195 -45 -287 -143t-92 -221z M401 991q0 -74 44 -143.5t169 -116.5q174 43 252 128t78 188q0 39 -14.5 74.5t-44 62t-72.5 43t-98 16.5q-74 0 -131.5 -20.5t-98.5 -56.5t-62.5 -81t-21.5 -94z" />
<glyph unicode="9" d="M111 51l51 78q59 -47 123.5 -59.5t113.5 -12.5q106 0 185.5 44t136.5 118t96 173.5t64 209.5q-68 -51 -149 -85t-185 -34q-66 0 -127.5 21.5t-108.5 64.5t-76.5 106.5t-29.5 147.5q0 139 41 235.5t105.5 155t142 84t151.5 25.5q94 0 163 -33t115 -89t68.5 -132t22.5 -162 t-13.5 -188.5t-43 -206.5t-76.5 -202.5t-117 -174.5t-163 -122t-214 -46q-72 0 -144.5 18.5t-131.5 65.5zM303 850q0 -72 20.5 -124t55.5 -86t81 -50.5t99 -16.5t97 7.5t84 25t79 43t82 62.5q10 49 15.5 100t5.5 104q0 63 -16.5 121t-51.5 102t-89 69.5t-132 25.5 q-57 0 -115.5 -20.5t-107 -66.5t-78 -119t-29.5 -177z" />
<glyph unicode=":" horiz-adv-x="430" d="M84 -4l29 139h135l-29 -139h-135zM240 803l29 139h135l-29 -139h-135z" />
<glyph unicode=";" horiz-adv-x="430" d="M39 -160l96 160h-47l27 137h131l-27 -137l-121 -160h-59zM238 803l29 139h135l-29 -139h-135z" />
<glyph unicode="&#x3c;" d="M205 616l14 78l811 385l33 -82l-739 -346l602 -350l-47 -76z" />
<glyph unicode="=" d="M156 426l16 90h789l-17 -90h-788zM223 778l19 90h788l-18 -90h-789z" />
<glyph unicode="&#x3e;" d="M137 313l740 346l-603 351l48 75l673 -391l-14 -78l-811 -385z" />
<glyph unicode="?" horiz-adv-x="974" d="M252 1202q94 109 198.5 153t221.5 44q74 0 137 -19.5t109.5 -55.5t72 -88t25.5 -116q0 -76 -22.5 -132t-62.5 -102t-94.5 -86t-119.5 -85q-39 -27 -76 -55.5t-67.5 -64.5t-54 -81t-34.5 -106l-12 -68h-88l14 78q12 70 40 126t65 99t80 77t86 62q51 33 97 65t81 69.5 t54.5 86t19.5 115.5q0 94 -71 143.5t-183 49.5q-111 0 -193 -37t-158 -123zM303 0l25 129h125l-25 -129h-125z" />
<glyph unicode="@" horiz-adv-x="1851" d="M127 494q0 205 71.5 372.5t198.5 286.5t302 183.5t382 64.5q162 0 298.5 -54.5t235.5 -149.5t154.5 -225t55.5 -282q0 -133 -35 -263t-97.5 -232.5t-151.5 -165t-195 -62.5q-49 0 -85 13.5t-57.5 36t-32 50t-10.5 56.5v17t2 18q-82 -96 -174 -139.5t-198 -43.5 q-53 0 -102.5 14.5t-86.5 45.5t-59.5 78t-22.5 112q0 74 31 139.5t90 114.5t145 77t197 28q82 0 143.5 -8.5t104.5 -16.5l12 62q4 16 5 34.5t1 34.5q0 80 -50 134.5t-177 54.5q-59 0 -101 -9.5t-75 -22.5t-58.5 -30.5t-50.5 -36.5l-49 66q47 41 133 81t215 40q152 0 232 -71 t80 -194q0 -41 -9 -79l-82 -426q-2 -10 -3 -21.5t-1 -23.5q0 -18 3.5 -37t12.5 -33t28.5 -23.5t52.5 -9.5q76 0 144.5 51.5t120.5 137.5t83 200.5t31 241.5q0 137 -47.5 253t-134.5 201t-211 132t-277 47q-168 0 -319.5 -53.5t-266.5 -158t-182.5 -257t-67.5 -350.5 q0 -96 30 -217t126 -259l-74 -47q-111 150 -144.5 280t-33.5 243zM618 242q0 -90 43.5 -134.5t147.5 -44.5q74 0 138.5 27t115.5 68t85 93t44 105l25 123q-51 10 -110.5 16.5t-137.5 6.5q-106 0 -174 -26.5t-107 -66.5t-54.5 -85t-15.5 -82z" />
<glyph unicode="A" horiz-adv-x="1236" d="M-23 0l801 1366h90l273 -1366h-103l-86 442h-616l-254 -442h-105zM389 532h547l-137 713z" />
<glyph unicode="B" horiz-adv-x="1142" d="M109 0l264 1366h391q86 0 150.5 -22.5t107.5 -61.5t64.5 -91t21.5 -110q0 -129 -71.5 -226t-237.5 -140q43 -8 88 -29.5t83 -58.5t61.5 -90.5t23.5 -120.5q0 -123 -46 -203t-123 -127t-174.5 -66.5t-201.5 -19.5h-401zM221 90h264q76 0 159 8t151.5 40t112.5 93.5 t44 165.5q0 76 -26.5 128.5t-71.5 84t-106.5 45t-129.5 13.5h-284zM350 758h283q57 0 122.5 14t122 50t93.5 94.5t37 148.5q0 61 -19.5 101t-53.5 64.5t-80 35t-101 10.5h-301z" />
<glyph unicode="C" horiz-adv-x="1320" d="M172 539q0 186 59.5 343.5t161 272.5t238.5 179.5t293 64.5q154 0 273.5 -71t178.5 -208l-80 -41q-61 129 -155 179.5t-228 50.5q-133 0 -248.5 -56.5t-202.5 -157t-137.5 -238.5t-50.5 -302q0 -104 32 -194.5t89.5 -158t138 -106.5t181.5 -39q154 0 260 61.5t184 160.5 l70 -60q-92 -111 -217 -181.5t-305 -70.5q-115 0 -212.5 43t-169 120t-112.5 181.5t-41 227.5z" />
<glyph unicode="D" horiz-adv-x="1370" d="M109 0l264 1366h434q117 0 216 -38t172 -108.5t113 -170t40 -222.5q0 -186 -58.5 -338.5t-163 -261t-248 -168t-311.5 -59.5h-458zM221 90h359q141 0 264 51.5t212 145.5t140 227t51 297q0 213 -115.5 339t-334.5 126h-346z" />
<glyph unicode="E" horiz-adv-x="1095" d="M109 0l264 1366h786l-18 -90h-690l-101 -518h539l-17 -90h-538l-113 -578h742l-17 -90h-837z" />
<glyph unicode="F" horiz-adv-x="1026" d="M109 0l264 1366h786l-18 -90h-690l-101 -518h539l-17 -90h-538l-129 -668h-96z" />
<glyph unicode="G" horiz-adv-x="1409" d="M172 539q0 186 59.5 343.5t161 272.5t238.5 179.5t293 64.5q154 0 273.5 -71t178.5 -208l-80 -43q-59 123 -153 177.5t-230 54.5q-133 0 -248.5 -56.5t-202.5 -157t-137.5 -238.5t-50.5 -302q0 -104 32 -194.5t89.5 -158t138 -106.5t181.5 -39q129 0 232.5 36t180.5 102 l70 362h-346l18 90h445l-96 -489q-102 -90 -222 -140.5t-290 -50.5q-115 0 -212.5 43t-169 120t-112.5 181.5t-41 227.5z" />
<glyph unicode="H" horiz-adv-x="1351" d="M109 0l264 1366h96l-119 -608h821l119 608h96l-264 -1366h-96l129 668h-821l-129 -668h-96z" />
<glyph unicode="I" horiz-adv-x="432" d="M109 0l264 1366h96l-264 -1366h-96z" />
<glyph unicode="J" horiz-adv-x="925" d="M18 147l70 56q55 -78 121.5 -112t140.5 -34q78 0 133.5 17.5t94 59.5t64.5 109.5t46 168.5l186 954h97l-189 -971q-23 -117 -57.5 -197.5t-86.5 -132t-124 -75t-170 -23.5q-96 0 -184 48t-142 132z" />
<glyph unicode="K" horiz-adv-x="1118" d="M106 0l265 1366h96l-139 -717l782 717h117l-604 -555l407 -811h-108l-375 745l-244 -223l-100 -522h-97z" />
<glyph unicode="L" horiz-adv-x="1060" d="M109 0l264 1366h96l-248 -1276h742l-17 -90h-837z" />
<glyph unicode="M" horiz-adv-x="1540" d="M90 0l324 1366h96l295 -817l633 817h94l-205 -1366h-96l190 1212l-610 -782h-59l-287 780l-279 -1210h-96z" />
<glyph unicode="N" horiz-adv-x="1370" d="M106 0l265 1366h98l604 -1219l238 1219h96l-264 -1366h-99l-608 1214l-235 -1214h-95z" />
<glyph unicode="O" horiz-adv-x="1521" d="M172 539q0 186 59.5 343.5t164 272.5t246.5 179.5t308 64.5q117 0 216.5 -43t172 -120t112.5 -181.5t40 -227.5q0 -186 -58.5 -343.5t-162 -272.5t-245.5 -179.5t-310 -64.5q-119 0 -218.5 43t-172 120t-112.5 181.5t-40 227.5zM274 555q0 -104 29 -194.5t86 -158 t141 -106.5t193 -39q141 0 263 56.5t211 157t140.5 238.5t51.5 302q0 106 -30 197.5t-86 158t-140 104.5t-193 38q-145 0 -267 -56.5t-210 -157t-138.5 -238.5t-50.5 -302z" />
<glyph unicode="P" horiz-adv-x="1138" d="M109 0l264 1366h377q106 0 183 -26.5t126 -71.5t72.5 -104.5t23.5 -123.5q0 -102 -29.5 -186t-94 -144.5t-165 -94t-241.5 -33.5h-308l-112 -582h-96zM334 672h330q88 0 160.5 20.5t123.5 63.5t79 110.5t28 161.5q0 111 -66.5 179.5t-208.5 68.5h-329z" />
<glyph unicode="Q" horiz-adv-x="1521" d="M172 539q0 186 58.5 343.5t162 272.5t245.5 179.5t312 64.5q117 0 216.5 -43t172 -120t112.5 -181.5t40 -227.5q0 -248 -99.5 -440t-269.5 -303l113 -195l-78 -43l-110 195q-76 -35 -158 -54.5t-174 -19.5q-119 0 -218.5 43t-172 120t-112.5 181.5t-40 227.5zM274 555 q0 -104 29 -194.5t86 -158t141 -106.5t193 -39q152 0 278 62l-139 250l78 43l139 -248q141 98 225.5 265t84.5 382q0 106 -30 197.5t-86 158t-140 104.5t-193 38q-145 0 -267 -56.5t-210 -157t-138.5 -238.5t-50.5 -302z" />
<glyph unicode="R" horiz-adv-x="1171" d="M109 0l264 1366h366q106 0 185.5 -25.5t130.5 -69.5t75.5 -102.5t24.5 -121.5q0 -174 -80 -283t-268 -156l197 -608h-107l-192 596q-16 -2 -31 -2h-31h-324l-114 -594h-96zM336 684h330q178 0 283.5 80t105.5 270q0 111 -72 177.5t-213 66.5h-319z" />
<glyph unicode="S" horiz-adv-x="1107" d="M66 186l69 62q78 -92 171 -140.5t237 -48.5q166 0 265 72t99 240q0 63 -23.5 107t-63.5 77t-93 59.5t-113 53.5q-61 27 -119.5 60.5t-104.5 76.5t-73.5 99.5t-27.5 129.5q0 90 36.5 158t98 114t138.5 69.5t157 23.5q129 0 233.5 -56.5t167.5 -154.5l-76 -47 q-53 78 -131.5 123t-195.5 45q-63 0 -121.5 -15.5t-105 -47.5t-74 -80t-27.5 -113q0 -63 20.5 -107.5t57.5 -79.5t90 -63.5t119 -59.5q63 -31 123.5 -62.5t107.5 -74.5t77 -99t30 -136q0 -98 -36 -174t-98.5 -126.5t-150.5 -77t-192 -26.5q-164 0 -282 64.5t-189 154.5z" />
<glyph unicode="T" horiz-adv-x="1210" d="M236 1280l16 86h1112l-16 -86h-506l-248 -1280h-96l247 1280h-509z" />
<glyph unicode="U" horiz-adv-x="1320" d="M188 406q0 37 4.5 74.5t12.5 78.5l157 807h97l-148 -756q-10 -51 -15 -99t-5 -93q0 -80 17.5 -145.5t58.5 -113.5t107.5 -75t162.5 -27q121 0 202 37t134 104.5t85 162t54 208.5l156 797h96l-164 -838q-23 -119 -61.5 -221t-104 -178t-162 -119t-233.5 -43 q-117 0 -202 34t-140 92.5t-82 138t-27 174.5z" />
<glyph unicode="V" horiz-adv-x="1239" d="M240 1366h102l236 -1245l722 1245h105l-803 -1366h-90z" />
<glyph unicode="W" horiz-adv-x="1718" d="M262 1366h98l76 -1227l568 1186h110l88 -1182l549 1223h104l-630 -1366h-99l-92 1196l-571 -1196h-105z" />
<glyph unicode="X" horiz-adv-x="1155" d="M-29 0l627 721l-315 645h106l279 -573l501 573h115l-575 -657l350 -709h-109l-311 639l-553 -639h-115z" />
<glyph unicode="Y" horiz-adv-x="1046" d="M225 1366h107l258 -647l510 647h114l-589 -735l-121 -631h-96l120 631z" />
<glyph unicode="Z" horiz-adv-x="1210" d="M35 0l16 90l1112 1186h-839l18 90h963l-17 -90l-1114 -1186h895l-16 -90h-1018z" />
<glyph unicode="[" horiz-adv-x="573" d="M70 -190l319 1636h346l-18 -86h-252l-283 -1464h252l-18 -86h-346z" />
<glyph unicode="\" horiz-adv-x="737" d="M272 1403h95l241 -1436h-94z" />
<glyph unicode="]" horiz-adv-x="573" d="M-41 -190l18 86h252l283 1464h-252l19 86h346l-320 -1636h-346z" />
<glyph unicode="^" horiz-adv-x="1038" d="M184 631l504 735h70l215 -735h-94l-177 624l-417 -624h-101z" />
<glyph unicode="_" horiz-adv-x="1007" d="M-96 -248l18 90h981l-18 -90h-981z" />
<glyph unicode="`" horiz-adv-x="712" d="M453 1372h106l66 -262h-78z" />
<glyph unicode="a" horiz-adv-x="966" d="M76 225q0 74 30.5 139.5t90 114.5t145.5 77t197 28q82 0 145.5 -8.5t106.5 -16.5l12 66q6 33 6 67q0 84 -52 138.5t-179 54.5q-59 0 -102.5 -9.5t-77 -23.5t-59.5 -31.5t-50 -36.5l-45 62q47 41 133 81t215 40q152 0 230.5 -72t78.5 -195q0 -18 -2 -37.5t-6 -39.5 l-82 -426q-8 -41 -16.5 -84t-14.5 -113h-86q2 20 4 35.5t5.5 33t7.5 38t8 51.5q-86 -100 -174 -141.5t-199 -41.5q-51 0 -99 15.5t-86 46.5t-61.5 78t-23.5 110zM166 242q0 -86 47 -135.5t152 -49.5q78 0 144 27t116.5 70t83 96t43.5 106l24 127q-51 10 -112.5 17.5 t-139.5 7.5q-109 0 -178.5 -27.5t-109 -68.5t-55 -87t-15.5 -83z" />
<glyph unicode="b" horiz-adv-x="1054" d="M84 35l258 1331h90l-115 -592q63 84 148.5 138.5t226.5 54.5q80 0 139.5 -29t99.5 -78t59.5 -116.5t19.5 -143.5q0 -145 -47.5 -260t-128 -197t-192.5 -125t-241 -43q-102 0 -175.5 15.5t-141.5 44.5zM184 92q57 -23 115.5 -29t118.5 -6q96 0 186 34t158.5 100.5 t110.5 166t42 232.5q0 59 -13 112.5t-42 94.5t-77 64.5t-117 23.5q-84 0 -152 -36t-120 -93.5t-87 -130t-49 -148.5z" />
<glyph unicode="c" horiz-adv-x="972" d="M111 381q0 113 39.5 219.5t111.5 187t171 130t218 49.5q117 0 202 -57.5t122 -155.5l-74 -37q-39 86 -102.5 126t-161.5 40q-94 0 -173 -41t-136.5 -108.5t-90 -156t-32.5 -180.5q0 -82 23.5 -144.5t64.5 -105.5t94 -65.5t115 -22.5q111 0 187.5 36t135.5 102l58 -60 q-76 -78 -167 -120t-229 -42q-78 0 -145.5 28t-119.5 80t-81.5 127t-29.5 171z" />
<glyph unicode="d" horiz-adv-x="1056" d="M104 342q0 143 47.5 259t126 198t179 125t205.5 43q106 0 171.5 -32t102.5 -61l96 492h88l-227 -1167q-8 -39 -13.5 -67t-9.5 -49.5t-7 -40.5t-5 -42h-84q4 23 6 37t4 29.5t6.5 36t10.5 55.5q-29 -35 -65 -67t-83 -58.5t-103 -42t-124 -15.5q-82 0 -142.5 29t-100.5 78 t-59.5 115.5t-19.5 144.5zM199 352q0 -59 12 -112.5t42 -93.5t79 -63.5t121 -23.5q68 0 132 25t116.5 68t88 99t48.5 120l80 411q-41 41 -108 71t-165 30q-76 0 -154.5 -33t-143 -99.5t-106.5 -166t-42 -232.5z" />
<glyph unicode="e" horiz-adv-x="1050" d="M111 381q0 113 38.5 219.5t108.5 187t167 130t216 49.5q49 0 110.5 -15.5t116 -56.5t90 -111.5t35.5 -181.5q0 -35 -3 -72.5t-13 -80.5h-770q-2 -14 -2 -26.5v-25.5q0 -164 87 -251t218 -87q123 0 199.5 36t138.5 102l57 -60q-80 -78 -172 -120t-237 -42q-82 0 -152 28 t-122 80t-81.5 127t-29.5 171zM219 528h682q6 43 6 80q0 82 -25.5 135.5t-66.5 84t-90 43t-94 12.5q-78 0 -144.5 -28t-120 -76t-91 -112.5t-56.5 -138.5z" />
<glyph unicode="f" horiz-adv-x="618" d="M133 860l17 82h182l24 129q31 160 115 244t213 84q154 0 231 -119l-67 -47q-41 53 -80 68.5t-88 15.5q-37 0 -72 -9.5t-66.5 -38t-57 -81.5t-42.5 -139l-20 -107h297l-17 -82h-296l-166 -860h-90l165 860h-182z" />
<glyph unicode="g" horiz-adv-x="1050" d="M47 -328l51 70q66 -51 130.5 -70.5t152.5 -19.5q98 0 164.5 26.5t110.5 74.5t70 114.5t42 146.5l27 142q-29 -35 -64 -67t-81 -57.5t-101 -41t-123 -15.5q-82 0 -142.5 29t-100.5 78t-59.5 115.5t-19.5 144.5q0 143 51.5 259t135.5 198t191.5 125t219.5 43q180 0 326 -76 l-174 -889q-41 -211 -153.5 -323.5t-319.5 -112.5q-104 0 -185 26.5t-149 79.5zM199 352q0 -59 12 -112.5t42 -93.5t79 -63.5t121 -23.5q68 0 132 25t116.5 68t88 99t48.5 120l90 467q-33 14 -60.5 23t-55.5 13.5t-58.5 6.5t-67.5 2q-84 0 -170 -33t-156.5 -99.5 t-115.5 -166t-45 -232.5z" />
<glyph unicode="h" horiz-adv-x="1046" d="M74 0l264 1366h90l-119 -610q33 41 71 78.5t84 67.5t102.5 47.5t125.5 17.5q150 0 215.5 -82t65.5 -213q0 -63 -12 -131l-105 -541h-90l100 522q8 41 11.5 76t3.5 66q0 115 -50.5 167t-152.5 52q-82 0 -152.5 -35t-126 -91.5t-91.5 -128t-50 -143.5l-94 -485h-90z" />
<glyph unicode="i" horiz-adv-x="368" d="M78 0l182 942h90l-182 -942h-90zM283 1143l24 129h125l-24 -129h-125z" />
<glyph unicode="j" horiz-adv-x="368" d="M-313 -336l53 62q33 -33 62.5 -44.5t62.5 -11.5q29 0 56.5 6.5t53 33t48 77.5t40.5 143l197 1012h90l-200 -1030q-12 -68 -32 -126t-50.5 -102t-77.5 -69t-117 -25q-53 0 -102.5 18.5t-83.5 55.5zM283 1143l24 129h125l-24 -129h-125z" />
<glyph unicode="k" horiz-adv-x="892" d="M72 0l264 1366h90l-174 -895l557 471h117l-414 -352l297 -590h-100l-269 532l-211 -178l-67 -354h-90z" />
<glyph unicode="l" horiz-adv-x="360" d="M74 0l264 1366h90l-264 -1366h-90z" />
<glyph unicode="m" horiz-adv-x="1665" d="M78 0l143 743q8 39 13.5 67t9.5 49.5t7 41t5 41.5h84q-2 -23 -5 -41t-6 -39.5t-9.5 -49.5t-14.5 -67q23 31 55.5 70t77.5 73t103.5 56.5t132.5 22.5q125 0 185.5 -63.5t76.5 -164.5q25 35 60.5 75t82.5 74t106.5 56.5t131.5 22.5q145 0 211.5 -82t66.5 -213q0 -31 -4 -64 t-10 -67l-104 -541h-91l101 522q8 41 11 76t3 64q0 115 -50 168t-148 53q-74 0 -137.5 -31t-114 -82t-84 -115.5t-45.5 -134.5l-101 -520h-90l100 522q16 88 17 146q0 123 -53.5 169t-137.5 46q-80 0 -147.5 -37t-117.5 -95.5t-84 -128t-46 -137.5l-94 -485h-90z" />
<glyph unicode="n" horiz-adv-x="1050" d="M78 0l143 743q8 39 13.5 67t9.5 49.5t7 41t5 41.5h84q-2 -23 -5 -41t-6 -39.5t-9.5 -49.5t-14.5 -67q33 41 72 81t86 71t104.5 50.5t128.5 19.5q150 0 215.5 -82t65.5 -213q0 -63 -12 -131l-105 -541h-90l100 522q8 41 11.5 76t3.5 66q0 115 -50.5 167t-152.5 52 q-82 0 -152.5 -35t-126 -91.5t-91.5 -128t-50 -143.5l-94 -485h-90z" />
<glyph unicode="o" horiz-adv-x="1112" d="M111 381q0 111 38.5 216t111.5 187t177.5 132.5t233.5 50.5q80 0 149.5 -28t122.5 -80t84 -128t31 -170q0 -111 -38 -216t-110.5 -187t-177 -132.5t-235.5 -50.5q-80 0 -149.5 28t-123 80t-84 127t-30.5 171zM205 397q0 -164 86 -251t221 -87q102 0 186 41t143.5 108.5 t91.5 156t32 180.5q0 164 -83.5 251t-224.5 87q-104 0 -188 -41t-142.5 -108.5t-90 -156t-31.5 -180.5z" />
<glyph unicode="p" horiz-adv-x="1056" d="M-2 -410l223 1153q8 39 13.5 67t9.5 49.5t7 41t5 41.5h84q-4 -23 -7 -40t-6 -36.5t-7.5 -43t-10.5 -56.5q63 84 152.5 142.5t230.5 58.5q80 0 139.5 -29t99.5 -78t59.5 -116.5t19.5 -143.5q0 -145 -45 -260t-122 -197t-180.5 -125t-220.5 -43q-106 0 -166.5 31t-97.5 60 l-92 -476h-88zM197 160q41 -41 102 -71t160 -30q84 0 166 33t146.5 99.5t104 166t39.5 232.5q0 59 -13 112.5t-42 93.5t-77 63.5t-117 23.5q-84 0 -153 -35t-121 -92.5t-86 -130t-48 -148.5z" />
<glyph unicode="q" horiz-adv-x="1054" d="M104 342q0 143 51.5 259t135.5 198t191.5 125t219.5 43q180 0 326 -76l-252 -1301h-90l109 564q-55 -68 -144.5 -123.5t-224.5 -55.5q-82 0 -142.5 29t-100.5 78t-59.5 115.5t-19.5 144.5zM199 352q0 -59 12 -112.5t42 -93.5t79 -63.5t121 -23.5q68 0 132 25t116.5 68 t88 99t48.5 120l90 467q-33 14 -60.5 23t-55.5 13.5t-58.5 6.5t-67.5 2q-84 0 -170 -33t-156.5 -99.5t-115.5 -166t-45 -232.5z" />
<glyph unicode="r" horiz-adv-x="663" d="M78 0l143 743q8 39 13.5 67t9.5 49.5t7 41t5 41.5h84q-2 -23 -5 -42t-6 -40.5t-9.5 -49.5t-14.5 -67q66 98 148 153.5t192 55.5q20 0 49 -4t51 -14l-34 -88q-37 16 -90 16q-70 0 -129.5 -33.5t-106.5 -88t-80 -122t-45 -137.5l-92 -481h-90z" />
<glyph unicode="s" horiz-adv-x="888" d="M57 109l56 65q72 -66 153.5 -91.5t175.5 -25.5q125 0 180.5 51.5t55.5 129.5q0 39 -10.5 66.5t-37 51t-69.5 46t-110 49.5q-63 25 -110.5 50t-79.5 55t-47 68t-15 89q0 57 24.5 103t67.5 80t102.5 52.5t130.5 18.5q201 0 324 -140l-64 -53q-51 55 -113.5 84t-148.5 29 q-113 0 -172 -47t-59 -121q0 -43 13 -69.5t41 -48t69 -39t98 -42.5q76 -33 127 -62.5t81 -62.5t42 -68.5t12 -80.5q0 -127 -93 -199t-249 -72q-109 0 -203 32t-172 102z" />
<glyph unicode="t" horiz-adv-x="698" d="M141 860l15 82h182l59 311h90l-59 -311h297l-14 -82h-297l-117 -592q-10 -45 -10 -80q0 -53 28.5 -92t112.5 -39q43 0 83 21.5t73 56.5l51 -55q-39 -43 -95.5 -74t-127.5 -31q-111 0 -163 56.5t-52 150.5q0 25 4 51.5t10 55.5l113 571h-183z" />
<glyph unicode="u" horiz-adv-x="1038" d="M129 270q0 31 4 64t10 67l105 541h90l-100 -522q-8 -41 -12.5 -77t-4.5 -67q0 -113 52.5 -165t156.5 -52q84 0 152.5 36t120 93.5t85 128t48.5 140.5l94 485h90l-143 -743q-8 -39 -13.5 -67t-9.5 -49.5t-7 -40.5t-5 -42h-84q2 23 4 40t6 37.5t9 47.5t14 65 q-33 -41 -69 -79.5t-81 -68.5t-100.5 -48.5t-124.5 -18.5q-154 0 -220.5 82t-66.5 213z" />
<glyph unicode="v" horiz-adv-x="909" d="M141 942h97l176 -829l497 829h97l-574 -942h-80z" />
<glyph unicode="w" horiz-adv-x="1337" d="M150 942h94l90 -821l418 821h86l92 -825l399 825h94l-469 -942h-94l-94 807l-414 -807h-80z" />
<glyph unicode="x" horiz-adv-x="897" d="M-35 0l463 508l-233 434h100l197 -375l337 375h105l-404 -442l271 -500h-101l-235 438l-395 -438h-105z" />
<glyph unicode="y" horiz-adv-x="909" d="M-86 -371l49 60q18 -18 47 -31.5t64 -13.5q57 0 94 36.5t80 114.5l121 213l-228 934h97l192 -829l477 829h97l-689 -1182q-18 -31 -40.5 -65.5t-51 -63t-63.5 -47t-80 -18.5q-55 0 -94 15.5t-72 47.5z" />
<glyph unicode="z" horiz-adv-x="946" d="M59 0l17 86l753 776h-581l16 80h688l-16 -86l-760 -774h623l-15 -82h-725z" />
<glyph unicode="{" horiz-adv-x="522" d="M117 600l14 74q76 10 126 61t67 115l94 348q25 92 58.5 150.5t86.5 97.5h103q-43 -37 -83 -90t-63 -135l-96 -369q-29 -104 -83 -152.5t-114 -66.5q45 -16 79 -59.5t34 -120.5v-21.5t-2 -21.5l-45 -359q-2 -16 -3 -30.5t-1 -28.5q0 -59 15 -100.5t40 -81.5h-96 q-51 63 -51 159q0 23 2 49.5t6 55.5l35 334q0 6 1 13t1 13q0 57 -30 106.5t-95 59.5z" />
<glyph unicode="|" horiz-adv-x="421" d="M43 -336l395 2042h88l-395 -2042h-88z" />
<glyph unicode="}" horiz-adv-x="522" d="M-23 -190q43 37 83 90t63 135l96 368q29 104 83 152.5t114 67.5q-45 16 -79 59t-34 121v21.5t2 21.5l45 358q2 16 3 30.5t1 29.5q0 59 -15 100t-40 82h96q51 -63 51 -160q0 -23 -2 -49.5t-6 -54.5l-35 -334q0 -6 -1 -13.5t-1 -13.5q0 -57 30 -106t95 -60l-14 -73 q-76 -10 -126 -61.5t-67 -114.5l-94 -349q-25 -92 -58.5 -150.5t-86.5 -96.5h-103z" />
<glyph unicode="~" horiz-adv-x="872" d="M152 604q10 14 27.5 32.5t44 36t62.5 30t83 12.5t85.5 -18.5t73.5 -43.5q25 -16 51.5 -27.5t55.5 -11.5q57 0 96 24t64 56l51 -51q-10 -14 -27.5 -32.5t-44 -36t-62.5 -30t-83 -12.5t-83 16.5t-65 35.5q-27 16 -54.5 32.5t-64.5 16.5q-57 0 -96 -23.5t-63 -56.5z" />
<glyph unicode="&#xa1;" horiz-adv-x="440" d="M29 -424l204 1026h91l-193 -1026h-102zM258 813l25 129h125l-25 -129h-125z" />
<glyph unicode="&#xa2;" d="M190 555q0 109 37 211t103.5 184t160 133.5t203.5 59.5l37 186h80l-37 -186q100 -10 173 -66.5t108 -144.5l-74 -37q-31 74 -89 114t-134 50l-162 -830q104 2 178 38t131 100l58 -60q-74 -76 -163 -118t-220 -44l-35 -184h-80l37 191q-66 10 -123 42.5t-99 84t-66 121 t-24 155.5zM285 571q0 -141 66.5 -227t166.5 -108l160 823q-86 -8 -159 -52t-125 -112t-80.5 -152t-28.5 -172z" />
<glyph unicode="&#xa3;" d="M199 645l16 90h135l37 183q10 55 32.5 125.5t71 133t127 106.5t201.5 44q86 0 153.5 -40t112.5 -101l-69 -53q-45 57 -93.5 82.5t-123.5 25.5q-78 0 -132.5 -26.5t-91 -73.5t-60 -110.5t-38.5 -137.5l-31 -158h414l-16 -90h-414l-108 -555h614l-16 -90h-711l125 645h-135 z" />
<glyph unicode="&#xa4;" d="M125 313l141 138q-86 111 -86 251q0 70 22.5 132.5t61.5 115.5l-139 140l65 67l140 -135q53 43 120.5 67.5t141.5 24.5q150 0 260 -92l141 139l66 -69l-141 -138q86 -111 86 -252q0 -70 -23 -132t-61 -115l139 -140l-66 -67l-139 135q-53 -43 -120.5 -67.5t-141.5 -24.5 q-150 0 -260 92l-142 -139zM270 702q0 -68 26 -126t70 -102t102 -68.5t124 -24.5t124 24.5t102 68.5t69.5 102.5t25.5 125.5q0 68 -25.5 126.5t-69.5 102.5t-102 68.5t-124 24.5t-124 -24.5t-102 -68.5t-70 -102.5t-26 -126.5z" />
<glyph unicode="&#xa5;" d="M106 289l17 80h354l37 194l-6 17h-346l16 79h297l-244 633h103l237 -633l484 633h108l-489 -633h293l-17 -79h-340l-10 -15l-37 -196h348l-16 -80h-348l-55 -289h-86l55 289h-355z" />
<glyph unicode="&#xa6;" horiz-adv-x="421" d="M43 -336l150 776h88l-150 -776h-88zM289 930l149 776h88l-149 -776h-88z" />
<glyph unicode="&#xa7;" horiz-adv-x="946" d="M86 -322l59 60q49 -49 104.5 -69.5t108.5 -20.5q135 0 214 77.5t79 211.5q0 51 -9 91t-34.5 79.5t-70.5 86t-115 109.5l-240 215l64 66l258 -232q57 -51 101 -97t75 -92t46 -96.5t15 -109.5q0 -94 -30.5 -167t-83 -123t-122 -76.5t-145.5 -26.5q-78 0 -150.5 27.5 t-123.5 86.5zM289 1006q0 94 30.5 166.5t83 123t121 77t146.5 26.5t150.5 -28t123.5 -87l-59 -59q-49 49 -104.5 69.5t-108.5 20.5q-135 0 -214 -78t-79 -211q0 -51 9 -91t35 -80t70 -86t115 -110l240 -215l-64 -65l-258 231q-57 51 -101 97.5t-75 92.5t-46 96t-15 110z" />
<glyph unicode="&#xa8;" horiz-adv-x="688" d="M301 1157l27 127h118l-26 -127h-119zM592 1157l26 127h119l-26 -127h-119z" />
<glyph unicode="&#xa9;" horiz-adv-x="1589" d="M150 684q0 150 55 280t151.5 227t226.5 152.5t281 55.5q150 0 280 -55.5t225 -152.5t150.5 -227t55.5 -280t-55.5 -280t-150.5 -227t-225 -152.5t-280 -55.5q-152 0 -281.5 55.5t-226 152.5t-151.5 227t-55 280zM250 682q0 -129 46 -243.5t127 -200.5t193.5 -135.5 t245.5 -49.5t245 49.5t193.5 135.5t127 200.5t45.5 243.5t-45.5 243.5t-127 200.5t-193.5 135.5t-245 49.5t-245.5 -49.5t-193.5 -135.5t-127 -200.5t-46 -243.5zM485 676q0 82 30 153.5t81 124t121.5 82t150.5 29.5q100 0 182.5 -45t133.5 -123l-72 -47q-45 61 -106.5 96 t-137.5 35q-61 0 -113.5 -23.5t-91 -65.5t-61 -97.5t-22.5 -118.5q0 -61 20.5 -116.5t58 -96.5t91 -65.5t118.5 -24.5q80 0 144.5 40t105.5 97l66 -53q-51 -78 -134 -124t-182 -46q-84 0 -154.5 29.5t-121.5 82t-79 123t-28 154.5z" />
<glyph unicode="&#xaa;" horiz-adv-x="755" d="M211 885q0 96 83 157.5t224 61.5q49 0 87 -4t67 -8l6 32q2 10 2 31q0 43 -31 70.5t-104 27.5q-70 0 -117 -19.5t-78 -41.5l-41 53q31 27 94.5 54.5t149.5 27.5q98 0 152.5 -46t54.5 -124q0 -10 -1 -21.5t-3 -21.5l-51 -252q-12 -57 -19 -127h-78q2 23 4 39.5t6 34.5 q-51 -45 -108 -66.5t-113 -21.5q-82 0 -134 41t-52 123zM293 895q0 -41 25.5 -69.5t89.5 -28.5q45 0 86 12t72.5 33.5t52 49.5t26.5 56l14 78q-29 4 -66.5 7t-82.5 3q-94 0 -155.5 -36.5t-61.5 -104.5z" />
<glyph unicode="&#xab;" horiz-adv-x="884" d="M170 479l285 393h96l-283 -397l127 -389h-92zM461 479l285 393h96l-283 -397l127 -389h-92z" />
<glyph unicode="&#xac;" d="M188 618l19 91h788l-65 -336h-92l47 245h-697z" />
<glyph unicode="&#xad;" horiz-adv-x="860" d="M201 532l18 91h541l-19 -91h-540z" />
<glyph unicode="&#xae;" horiz-adv-x="1589" d="M150 684q0 150 55 280t151.5 227t226.5 152.5t281 55.5q150 0 280 -55.5t225 -152.5t150.5 -227t55.5 -280t-55.5 -280t-150.5 -227t-225 -152.5t-280 -55.5q-152 0 -281.5 55.5t-226 152.5t-151.5 227t-55 280zM250 682q0 -129 46 -243.5t127 -200.5t193.5 -135.5 t245.5 -49.5t245 49.5t193.5 135.5t127 200.5t45.5 243.5t-45.5 243.5t-127 200.5t-193.5 135.5t-245 49.5t-245.5 -49.5t-193.5 -135.5t-127 -200.5t-46 -243.5zM641 307v748h250q125 0 184.5 -62.5t59.5 -150.5q0 -80 -40 -137.5t-120 -86.5l184 -311h-98l-178 301h-156 v-301h-86zM727 682h162q76 0 117 43t41 115q0 141 -179 141h-141v-299z" />
<glyph unicode="&#xaf;" horiz-adv-x="688" d="M236 1182l16 84h457l-17 -84h-456z" />
<glyph unicode="&#xb0;" horiz-adv-x="634" d="M141 1063q0 57 20.5 105.5t56.5 83t85 55t105 20.5q55 0 104 -20.5t85 -55t56.5 -83t20.5 -105.5t-20.5 -105.5t-56.5 -84t-85 -55t-104 -19.5t-104.5 19.5t-85.5 55t-56.5 84t-20.5 105.5zM227 1063q0 -39 14.5 -73t39 -58.5t57.5 -37.5t70 -13t69.5 13t57 37.5t39 58.5 t14.5 73q0 82 -54.5 132t-125.5 50q-37 0 -70 -13t-57.5 -38t-39 -58.5t-14.5 -72.5z" />
<glyph unicode="&#xb1;" d="M71 2l19 88h788l-18 -88h-789zM182 612l19 90h348l69 355h91l-70 -355h350l-18 -90h-346l-68 -358h-92l67 358h-350z" />
<glyph unicode="&#xb2;" horiz-adv-x="737" d="M150 610l12 62q6 37 28.5 70.5t54 66.5t69.5 60.5t79 52.5q68 41 115 70.5t74.5 56t40 52t12.5 56.5q0 41 -33 67.5t-94 26.5q-53 0 -105.5 -20.5t-103.5 -79.5l-53 47q41 53 109.5 91t158.5 38q53 0 93 -14.5t65.5 -37t39 -51t13.5 -59.5q0 -88 -63.5 -146t-176.5 -126 q-92 -55 -154.5 -101.5t-78.5 -105.5h393l-16 -76h-479z" />
<glyph unicode="&#xb3;" horiz-adv-x="737" d="M131 672l49 59q49 -47 93 -58t87 -11q96 0 148.5 46t52.5 123q0 59 -38 92t-109 33q-29 0 -66 -10l-26 43l274 248h-324l15 70h424l-13 -62l-249 -223q94 -4 145 -57.5t51 -126.5q0 -59 -22.5 -105.5t-61.5 -78t-91 -48t-112 -16.5q-70 0 -123 17.5t-104 64.5z" />
<glyph unicode="&#xb4;" horiz-adv-x="479" d="M272 1104l158 262h111l-183 -262h-86z" />
<glyph unicode="&#xb5;" horiz-adv-x="1038" d="M-35 -410l262 1352h90l-100 -518q-10 -43 -13 -81t-3 -69q0 -117 53.5 -166t155.5 -49q84 0 152.5 36t119.5 93.5t85 128t48 140.5l94 485h90l-143 -743q-8 -39 -13 -67t-9.5 -49.5t-7.5 -40.5t-5 -42h-84q2 23 4 40t6.5 37.5t9.5 47.5t13 65q-33 -41 -68.5 -79.5 t-81 -68.5t-100.5 -48.5t-125 -18.5q-92 0 -150.5 33t-90.5 92l-99 -510h-90z" />
<glyph unicode="&#xb6;" horiz-adv-x="989" d="M238 954q0 102 42 180t112.5 129.5t165.5 77t202 25.5l-139 -721q-80 4 -151 21.5t-122 54.5t-80.5 94t-29.5 139zM352 -250l152 785q27 -4 49 -5.5t45 -1.5l-152 -778h-94zM616 -250l314 1616h94l-313 -1616h-95z" />
<glyph unicode="&#xb7;" horiz-adv-x="409" d="M178 590l29 139h135l-29 -139h-135z" />
<glyph unicode="&#xb8;" horiz-adv-x="665" d="M-6 -403l26 65q25 -12 61 -23.5t83 -11.5q76 0 122 31t46 84q0 74 -113 74q-39 0 -71.5 -7.5t-79.5 -23.5l22 70q31 10 70 20t98 10q82 0 120 -44t38 -91t-20.5 -84t-55.5 -61.5t-82 -36.5t-98 -12q-53 0 -95 12t-71 29z" />
<glyph unicode="&#xb9;" horiz-adv-x="737" d="M276 1180l275 127h76l-138 -697h-86l119 602l-219 -96z" />
<glyph unicode="&#xba;" horiz-adv-x="761" d="M209 967q0 68 25.5 133t71.5 115.5t111.5 81t143.5 30.5q49 0 94 -17.5t79 -49t54.5 -78.5t20.5 -105q0 -70 -25.5 -134t-71.5 -114.5t-111.5 -81t-145.5 -30.5q-49 0 -94.5 16.5t-79 49t-53 78.5t-19.5 106zM293 979q0 -92 49 -139t125 -47q57 0 104 22.5t81 59t52.5 86 t18.5 102.5q0 92 -48 139t-126 47q-59 0 -106.5 -22.5t-80 -59.5t-51 -86t-18.5 -102z" />
<glyph unicode="&#xbb;" horiz-adv-x="884" d="M104 86l283 397l-127 389h92l133 -393l-284 -393h-97zM395 86l283 397l-127 389h92l133 -393l-284 -393h-97z" />
<glyph unicode="&#xbc;" horiz-adv-x="1720" d="M196 1180l275 127h76l-138 -697h-86l119 602l-219 -96zM305 0l983 1290h105l-983 -1290h-105zM1007 158l15 72l459 469h86l-91 -469h84l-14 -72h-84l-29 -154h-77l28 154h-377zM1116 230h283l71 368z" />
<glyph unicode="&#xbd;" horiz-adv-x="1720" d="M196 1180l275 127h76l-138 -697h-86l119 602l-219 -96zM274 0l983 1290h105l-983 -1290h-105zM1051 2l12 62q6 37 28.5 70.5t54 66.5t69.5 60.5t79 52.5q68 41 115 70.5t74.5 56t40 52t12.5 56.5q0 41 -33 67.5t-94 26.5q-53 0 -105.5 -20.5t-103.5 -79.5l-53 47 q41 53 109.5 91t158.5 38q53 0 93 -14.5t65.5 -37t39 -51t13.5 -59.5q0 -88 -63.5 -146t-176.5 -126q-92 -55 -154.5 -101.5t-78.5 -105.5h393l-16 -76h-479z" />
<glyph unicode="&#xbe;" horiz-adv-x="1720" d="M172 672l49 59q49 -47 93 -58t87 -11q96 0 148.5 46t52.5 123q0 59 -38 92t-109 33q-29 0 -66 -10l-26 43l274 248h-324l15 70h424l-13 -62l-249 -223q94 -4 145 -57.5t51 -126.5q0 -59 -22.5 -105.5t-61.5 -78t-91 -48t-112 -16.5q-70 0 -123 17.5t-104 64.5zM387 0 l983 1290h105l-983 -1290h-105zM1007 158l15 72l459 469h86l-91 -469h84l-14 -72h-84l-29 -154h-77l28 154h-377zM1116 230h283l71 368z" />
<glyph unicode="&#xbf;" horiz-adv-x="974" d="M63 -178q0 76 23 131t62.5 101t94 87t119.5 86q39 27 76 55.5t68 64.5t54.5 81t33.5 107l12 67h88l-14 -78q-12 -72 -40 -127t-64.5 -98t-79.5 -78t-86 -61q-53 -35 -98.5 -66t-80 -68.5t-54 -86t-19.5 -115.5q0 -94 70.5 -143.5t183.5 -49.5q111 0 192.5 37t157.5 123 l65 -51q-94 -109 -198.5 -153t-220.5 -44q-74 0 -137.5 19.5t-109.5 55.5t-72 87t-26 117zM627 813l24 129h125l-24 -129h-125z" />
<glyph unicode="&#xc0;" horiz-adv-x="1236" d="M-23 0l801 1366h90l273 -1366h-103l-86 442h-616l-254 -442h-105zM389 532h547l-137 713zM701 1774h114l82 -289h-82z" />
<glyph unicode="&#xc1;" horiz-adv-x="1236" d="M-23 0l801 1366h90l273 -1366h-103l-86 442h-616l-254 -442h-105zM389 532h547l-137 713zM772 1485l195 289h127l-232 -289h-90z" />
<glyph unicode="&#xc2;" horiz-adv-x="1236" d="M-23 0l801 1366h90l273 -1366h-103l-86 442h-616l-254 -442h-105zM389 532h547l-137 713zM547 1485l289 289h104l164 -289h-100l-129 221l-221 -221h-107z" />
<glyph unicode="&#xc3;" horiz-adv-x="1236" d="M-23 0l801 1366h90l273 -1366h-103l-86 442h-616l-254 -442h-105zM389 532h547l-137 713zM526 1612q41 47 98.5 75.5t117.5 28.5q47 0 83.5 -16.5t65.5 -36.5q27 -16 50.5 -27.5t56.5 -11.5q35 0 69.5 14.5t83.5 57.5l43 -54q-43 -47 -99.5 -75.5t-115.5 -28.5 q-47 0 -85 18.5t-66 40.5q-47 35 -107 35q-35 0 -68.5 -15t-85.5 -58z" />
<glyph unicode="&#xc4;" horiz-adv-x="1236" d="M-23 0l801 1366h90l273 -1366h-103l-86 442h-616l-254 -442h-105zM389 532h547l-137 713zM615 1556l28 140h131l-28 -140h-131zM942 1556l29 140h129l-29 -140h-129z" />
<glyph unicode="&#xc5;" horiz-adv-x="1236" d="M-23 0l766 1307q-57 23 -92 74.5t-35 121.5q0 98 59.5 156.5t149.5 58.5q92 0 152.5 -59.5t60.5 -151.5q0 -78 -43 -136t-112 -75l258 -1296h-103l-86 442h-616l-254 -442h-105zM389 532h547l-137 713zM694 1503q0 -59 38 -99t97 -40q53 0 92.5 41t39.5 102 q0 59 -40 98.5t-96 39.5q-53 0 -92 -40t-39 -102z" />
<glyph unicode="&#xc6;" horiz-adv-x="1867" d="M-43 0l1139 1366h835l-18 -90h-690l-101 -518h539l-16 -90h-539l-113 -578h742l-17 -90h-837l75 399h-561l-329 -399h-109zM473 489h502l153 789z" />
<glyph unicode="&#xc7;" horiz-adv-x="1320" d="M172 539q0 186 59.5 343.5t161 272.5t238.5 179.5t293 64.5q154 0 273.5 -71t178.5 -208l-80 -41q-61 129 -155 179.5t-228 50.5q-133 0 -248.5 -56.5t-202.5 -157t-137.5 -238.5t-50.5 -302q0 -104 32 -194.5t89.5 -158t138 -106.5t181.5 -39q154 0 260 61.5t184 160.5 l70 -60q-92 -111 -217 -181.5t-305 -70.5q-115 0 -212.5 43t-169 120t-112.5 181.5t-41 227.5zM389 -403l27 69q27 -12 62.5 -22.5t84.5 -10.5q72 0 119 29t47 84q0 70 -110 70q-39 0 -74 -6.5t-82 -22.5l25 74q35 10 72.5 20t99.5 10q88 0 126 -42t38 -95q0 -98 -77 -148 t-188 -50q-55 0 -98 12t-72 29z" />
<glyph unicode="&#xc8;" horiz-adv-x="1095" d="M109 0l264 1366h786l-18 -90h-690l-101 -518h539l-17 -90h-538l-113 -578h742l-17 -90h-837zM674 1774h114l82 -289h-82z" />
<glyph unicode="&#xc9;" horiz-adv-x="1095" d="M109 0l264 1366h786l-18 -90h-690l-101 -518h539l-17 -90h-538l-113 -578h742l-17 -90h-837zM702 1485l195 289h127l-232 -289h-90z" />
<glyph unicode="&#xca;" horiz-adv-x="1095" d="M109 0l264 1366h786l-18 -90h-690l-101 -518h539l-17 -90h-538l-113 -578h742l-17 -90h-837zM504 1485l289 289h104l164 -289h-100l-129 221l-221 -221h-107z" />
<glyph unicode="&#xcb;" horiz-adv-x="1095" d="M109 0l264 1366h786l-18 -90h-690l-101 -518h539l-17 -90h-538l-113 -578h742l-17 -90h-837zM558 1556l28 140h131l-28 -140h-131zM885 1556l29 140h129l-29 -140h-129z" />
<glyph unicode="&#xcc;" horiz-adv-x="432" d="M109 0l264 1366h96l-264 -1366h-96zM303 1774h114l82 -289h-82z" />
<glyph unicode="&#xcd;" horiz-adv-x="432" d="M109 0l264 1366h96l-264 -1366h-96zM385 1485l195 289h127l-232 -289h-90z" />
<glyph unicode="&#xce;" horiz-adv-x="432" d="M109 0l264 1366h96l-264 -1366h-96zM157 1485l289 289h104l164 -289h-100l-129 221l-221 -221h-107z" />
<glyph unicode="&#xcf;" horiz-adv-x="432" d="M109 0l264 1366h96l-264 -1366h-96zM220 1556l28 140h131l-28 -140h-131zM547 1556l29 140h129l-29 -140h-129z" />
<glyph unicode="&#xd0;" horiz-adv-x="1370" d="M104 664l17 84h131l121 618h434q117 0 216 -38t172 -108.5t113 -170t40 -222.5q0 -186 -58.5 -338.5t-163 -261t-248 -168t-311.5 -59.5h-458l127 664h-132zM221 90h359q141 0 264 51.5t212 145.5t140 227t51 297q0 213 -115.5 339t-334.5 126h-346l-103 -528h400 l-17 -84h-399z" />
<glyph unicode="&#xd1;" horiz-adv-x="1370" d="M106 0l265 1366h98l604 -1219l238 1219h96l-264 -1366h-99l-608 1214l-235 -1214h-95zM577 1612q41 47 98.5 75.5t117.5 28.5q47 0 83.5 -16.5t65.5 -36.5q27 -16 50.5 -27.5t56.5 -11.5q35 0 69.5 14.5t83.5 57.5l43 -54q-43 -47 -99.5 -75.5t-115.5 -28.5 q-47 0 -85 18.5t-66 40.5q-47 35 -107 35q-35 0 -68.5 -15t-85.5 -58z" />
<glyph unicode="&#xd2;" horiz-adv-x="1521" d="M172 539q0 186 59.5 343.5t164 272.5t246.5 179.5t308 64.5q117 0 216.5 -43t172 -120t112.5 -181.5t40 -227.5q0 -186 -58.5 -343.5t-162 -272.5t-245.5 -179.5t-310 -64.5q-119 0 -218.5 43t-172 120t-112.5 181.5t-40 227.5zM274 555q0 -104 29 -194.5t86 -158 t141 -106.5t193 -39q141 0 263 56.5t211 157t140.5 238.5t51.5 302q0 106 -30 197.5t-86 158t-140 104.5t-193 38q-145 0 -267 -56.5t-210 -157t-138.5 -238.5t-50.5 -302zM858 1774h114l82 -289h-82z" />
<glyph unicode="&#xd3;" horiz-adv-x="1521" d="M172 539q0 186 59.5 343.5t164 272.5t246.5 179.5t308 64.5q117 0 216.5 -43t172 -120t112.5 -181.5t40 -227.5q0 -186 -58.5 -343.5t-162 -272.5t-245.5 -179.5t-310 -64.5q-119 0 -218.5 43t-172 120t-112.5 181.5t-40 227.5zM274 555q0 -104 29 -194.5t86 -158 t141 -106.5t193 -39q141 0 263 56.5t211 157t140.5 238.5t51.5 302q0 106 -30 197.5t-86 158t-140 104.5t-193 38q-145 0 -267 -56.5t-210 -157t-138.5 -238.5t-50.5 -302zM911 1485l195 289h127l-232 -289h-90z" />
<glyph unicode="&#xd4;" horiz-adv-x="1521" d="M172 539q0 186 59.5 343.5t164 272.5t246.5 179.5t308 64.5q117 0 216.5 -43t172 -120t112.5 -181.5t40 -227.5q0 -186 -58.5 -343.5t-162 -272.5t-245.5 -179.5t-310 -64.5q-119 0 -218.5 43t-172 120t-112.5 181.5t-40 227.5zM274 555q0 -104 29 -194.5t86 -158 t141 -106.5t193 -39q141 0 263 56.5t211 157t140.5 238.5t51.5 302q0 106 -30 197.5t-86 158t-140 104.5t-193 38q-145 0 -267 -56.5t-210 -157t-138.5 -238.5t-50.5 -302zM667 1485l289 289h104l164 -289h-100l-129 221l-221 -221h-107z" />
<glyph unicode="&#xd5;" horiz-adv-x="1521" d="M172 539q0 186 59.5 343.5t164 272.5t246.5 179.5t308 64.5q117 0 216.5 -43t172 -120t112.5 -181.5t40 -227.5q0 -186 -58.5 -343.5t-162 -272.5t-245.5 -179.5t-310 -64.5q-119 0 -218.5 43t-172 120t-112.5 181.5t-40 227.5zM274 555q0 -104 29 -194.5t86 -158 t141 -106.5t193 -39q141 0 263 56.5t211 157t140.5 238.5t51.5 302q0 106 -30 197.5t-86 158t-140 104.5t-193 38q-145 0 -267 -56.5t-210 -157t-138.5 -238.5t-50.5 -302zM655 1612q41 47 98.5 75.5t117.5 28.5q47 0 83.5 -16.5t65.5 -36.5q27 -16 50.5 -27.5t56.5 -11.5 q35 0 69.5 14.5t83.5 57.5l43 -54q-43 -47 -99.5 -75.5t-115.5 -28.5q-47 0 -85 18.5t-66 40.5q-47 35 -107 35q-35 0 -68.5 -15t-85.5 -58z" />
<glyph unicode="&#xd6;" horiz-adv-x="1521" d="M172 539q0 186 59.5 343.5t164 272.5t246.5 179.5t308 64.5q117 0 216.5 -43t172 -120t112.5 -181.5t40 -227.5q0 -186 -58.5 -343.5t-162 -272.5t-245.5 -179.5t-310 -64.5q-119 0 -218.5 43t-172 120t-112.5 181.5t-40 227.5zM274 555q0 -104 29 -194.5t86 -158 t141 -106.5t193 -39q141 0 263 56.5t211 157t140.5 238.5t51.5 302q0 106 -30 197.5t-86 158t-140 104.5t-193 38q-145 0 -267 -56.5t-210 -157t-138.5 -238.5t-50.5 -302zM750 1556l28 140h131l-28 -140h-131zM1077 1556l29 140h129l-29 -140h-129z" />
<glyph unicode="&#xd7;" horiz-adv-x="1071" d="M217 377l324 280l-213 279l71 57l211 -274l314 274l57 -61l-319 -279l212 -276l-73 -58l-211 273l-318 -277z" />
<glyph unicode="&#xd8;" horiz-adv-x="1521" d="M129 -49l176 201q-63 76 -98 173t-35 214q0 186 59.5 343.5t164 272.5t246.5 179.5t308 64.5q98 0 184.5 -31t153.5 -86l158 180l63 -51l-161 -186q68 -76 105.5 -177.5t37.5 -220.5q0 -186 -58.5 -343.5t-162 -272.5t-245.5 -179.5t-310 -64.5q-104 0 -193.5 34 t-159.5 93l-169 -194zM274 555q0 -96 24 -179t71 -149l858 983q-53 47 -125 73t-162 26q-145 0 -267 -56.5t-210 -157t-138.5 -238.5t-50.5 -302zM424 166q55 -51 130 -80t169 -29q141 0 263 56.5t211 157t140.5 238.5t51.5 302q0 207 -105 342z" />
<glyph unicode="&#xd9;" horiz-adv-x="1320" d="M188 406q0 37 4.5 74.5t12.5 78.5l157 807h97l-148 -756q-10 -51 -15 -99t-5 -93q0 -80 17.5 -145.5t58.5 -113.5t107.5 -75t162.5 -27q121 0 202 37t134 104.5t85 162t54 208.5l156 797h96l-164 -838q-23 -119 -61.5 -221t-104 -178t-162 -119t-233.5 -43 q-117 0 -202 34t-140 92.5t-82 138t-27 174.5zM750 1774h114l82 -289h-82z" />
<glyph unicode="&#xda;" horiz-adv-x="1320" d="M188 406q0 37 4.5 74.5t12.5 78.5l157 807h97l-148 -756q-10 -51 -15 -99t-5 -93q0 -80 17.5 -145.5t58.5 -113.5t107.5 -75t162.5 -27q121 0 202 37t134 104.5t85 162t54 208.5l156 797h96l-164 -838q-23 -119 -61.5 -221t-104 -178t-162 -119t-233.5 -43 q-117 0 -202 34t-140 92.5t-82 138t-27 174.5zM786 1485l195 289h127l-232 -289h-90z" />
<glyph unicode="&#xdb;" horiz-adv-x="1320" d="M188 406q0 37 4.5 74.5t12.5 78.5l157 807h97l-148 -756q-10 -51 -15 -99t-5 -93q0 -80 17.5 -145.5t58.5 -113.5t107.5 -75t162.5 -27q121 0 202 37t134 104.5t85 162t54 208.5l156 797h96l-164 -838q-23 -119 -61.5 -221t-104 -178t-162 -119t-233.5 -43 q-117 0 -202 34t-140 92.5t-82 138t-27 174.5zM590 1485l289 289h104l164 -289h-100l-129 221l-221 -221h-107z" />
<glyph unicode="&#xdc;" horiz-adv-x="1320" d="M188 406q0 37 4.5 74.5t12.5 78.5l157 807h97l-148 -756q-10 -51 -15 -99t-5 -93q0 -80 17.5 -145.5t58.5 -113.5t107.5 -75t162.5 -27q121 0 202 37t134 104.5t85 162t54 208.5l156 797h96l-164 -838q-23 -119 -61.5 -221t-104 -178t-162 -119t-233.5 -43 q-117 0 -202 34t-140 92.5t-82 138t-27 174.5zM656 1556l28 140h131l-28 -140h-131zM983 1556l29 140h129l-29 -140h-129z" />
<glyph unicode="&#xdd;" horiz-adv-x="1046" d="M225 1366h107l258 -647l510 647h114l-589 -735l-121 -631h-96l120 631zM655 1485l195 289h127l-232 -289h-90z" />
<glyph unicode="&#xde;" horiz-adv-x="1136" d="M109 0l264 1366h94l-53 -270h280q106 0 183 -27t126.5 -72t73 -104t23.5 -123q0 -102 -30 -186t-94.5 -144.5t-164.5 -94.5t-242 -34h-307l-59 -311h-94zM281 401h327q88 0 161 20.5t124 63.5t78.5 111t27.5 162q0 111 -66.5 179.5t-207.5 68.5h-328z" />
<glyph unicode="&#xdf;" horiz-adv-x="1064" d="M78 0l190 991q41 213 139.5 310.5t274.5 97.5q57 0 106.5 -17.5t86 -46t57 -69.5t20.5 -86q0 -53 -12 -94.5t-35.5 -77t-57.5 -69.5t-77 -71q-27 -23 -56.5 -47t-54 -50t-40 -54.5t-15.5 -59.5q0 -33 12.5 -54t38 -38.5t66.5 -35t100 -44.5q102 -47 140 -111.5t38 -127.5 q0 -57 -22.5 -108.5t-64.5 -90.5t-102 -61.5t-136 -22.5q-80 0 -155 15.5t-146 62.5l49 70q61 -41 122.5 -53.5t125.5 -12.5q113 0 173 51t60 135q0 47 -15.5 80t-43 57.5t-68.5 44t-90 40.5q-68 27 -118 67.5t-50 120.5q0 76 48 133t116 115q72 59 126 123.5t54 142.5 q0 84 -52 123t-151 39q-135 0 -202.5 -80t-98.5 -240l-192 -997h-88z" />
<glyph unicode="&#xe0;" horiz-adv-x="966" d="M76 225q0 74 30.5 139.5t90 114.5t145.5 77t197 28q82 0 145.5 -8.5t106.5 -16.5l12 66q6 33 6 67q0 84 -52 138.5t-179 54.5q-59 0 -102.5 -9.5t-77 -23.5t-59.5 -31.5t-50 -36.5l-45 62q47 41 133 81t215 40q152 0 230.5 -72t78.5 -195q0 -18 -2 -37.5t-6 -39.5 l-82 -426q-8 -41 -16.5 -84t-14.5 -113h-86q2 20 4 35.5t5.5 33t7.5 38t8 51.5q-86 -100 -174 -141.5t-199 -41.5q-51 0 -99 15.5t-86 46.5t-61.5 78t-23.5 110zM166 242q0 -86 47 -135.5t152 -49.5q78 0 144 27t116.5 70t83 96t43.5 106l24 127q-51 10 -112.5 17.5 t-139.5 7.5q-109 0 -178.5 -27.5t-109 -68.5t-55 -87t-15.5 -83zM510 1372h106l66 -262h-78z" />
<glyph unicode="&#xe1;" horiz-adv-x="966" d="M76 225q0 74 30.5 139.5t90 114.5t145.5 77t197 28q82 0 145.5 -8.5t106.5 -16.5l12 66q6 33 6 67q0 84 -52 138.5t-179 54.5q-59 0 -102.5 -9.5t-77 -23.5t-59.5 -31.5t-50 -36.5l-45 62q47 41 133 81t215 40q152 0 230.5 -72t78.5 -195q0 -18 -2 -37.5t-6 -39.5 l-82 -426q-8 -41 -16.5 -84t-14.5 -113h-86q2 20 4 35.5t5.5 33t7.5 38t8 51.5q-86 -100 -174 -141.5t-199 -41.5q-51 0 -99 15.5t-86 46.5t-61.5 78t-23.5 110zM166 242q0 -86 47 -135.5t152 -49.5q78 0 144 27t116.5 70t83 96t43.5 106l24 127q-51 10 -112.5 17.5 t-139.5 7.5q-109 0 -178.5 -27.5t-109 -68.5t-55 -87t-15.5 -83zM559 1104l158 262h111l-183 -262h-86z" />
<glyph unicode="&#xe2;" horiz-adv-x="966" d="M76 225q0 74 30.5 139.5t90 114.5t145.5 77t197 28q82 0 145.5 -8.5t106.5 -16.5l12 66q6 33 6 67q0 84 -52 138.5t-179 54.5q-59 0 -102.5 -9.5t-77 -23.5t-59.5 -31.5t-50 -36.5l-45 62q47 41 133 81t215 40q152 0 230.5 -72t78.5 -195q0 -18 -2 -37.5t-6 -39.5 l-82 -426q-8 -41 -16.5 -84t-14.5 -113h-86q2 20 4 35.5t5.5 33t7.5 38t8 51.5q-86 -100 -174 -141.5t-199 -41.5q-51 0 -99 15.5t-86 46.5t-61.5 78t-23.5 110zM166 242q0 -86 47 -135.5t152 -49.5q78 0 144 27t116.5 70t83 96t43.5 106l24 127q-51 10 -112.5 17.5 t-139.5 7.5q-109 0 -178.5 -27.5t-109 -68.5t-55 -87t-15.5 -83zM391 1104l232 262h86l129 -262h-92l-90 192l-170 -192h-95z" />
<glyph unicode="&#xe3;" horiz-adv-x="966" d="M76 225q0 74 30.5 139.5t90 114.5t145.5 77t197 28q82 0 145.5 -8.5t106.5 -16.5l12 66q6 33 6 67q0 84 -52 138.5t-179 54.5q-59 0 -102.5 -9.5t-77 -23.5t-59.5 -31.5t-50 -36.5l-45 62q47 41 133 81t215 40q152 0 230.5 -72t78.5 -195q0 -18 -2 -37.5t-6 -39.5 l-82 -426q-8 -41 -16.5 -84t-14.5 -113h-86q2 20 4 35.5t5.5 33t7.5 38t8 51.5q-86 -100 -174 -141.5t-199 -41.5q-51 0 -99 15.5t-86 46.5t-61.5 78t-23.5 110zM166 242q0 -86 47 -135.5t152 -49.5q78 0 144 27t116.5 70t83 96t43.5 106l24 127q-51 10 -112.5 17.5 t-139.5 7.5q-109 0 -178.5 -27.5t-109 -68.5t-55 -87t-15.5 -83zM334 1214q43 45 96 70t109 25q49 0 80.5 -17t60.5 -35q23 -16 46.5 -26t53.5 -10q33 0 66 13t80 54l41 -53q-43 -45 -96.5 -69.5t-108.5 -24.5q-45 0 -79 17.5t-62 37.5q-45 33 -101 33q-33 0 -65.5 -13.5 t-79.5 -54.5z" />
<glyph unicode="&#xe4;" horiz-adv-x="966" d="M76 225q0 74 30.5 139.5t90 114.5t145.5 77t197 28q82 0 145.5 -8.5t106.5 -16.5l12 66q6 33 6 67q0 84 -52 138.5t-179 54.5q-59 0 -102.5 -9.5t-77 -23.5t-59.5 -31.5t-50 -36.5l-45 62q47 41 133 81t215 40q152 0 230.5 -72t78.5 -195q0 -18 -2 -37.5t-6 -39.5 l-82 -426q-8 -41 -16.5 -84t-14.5 -113h-86q2 20 4 35.5t5.5 33t7.5 38t8 51.5q-86 -100 -174 -141.5t-199 -41.5q-51 0 -99 15.5t-86 46.5t-61.5 78t-23.5 110zM166 242q0 -86 47 -135.5t152 -49.5q78 0 144 27t116.5 70t83 96t43.5 106l24 127q-51 10 -112.5 17.5 t-139.5 7.5q-109 0 -178.5 -27.5t-109 -68.5t-55 -87t-15.5 -83zM426 1157l27 127h118l-26 -127h-119zM717 1157l26 127h119l-26 -127h-119z" />
<glyph unicode="&#xe5;" horiz-adv-x="966" d="M76 225q0 74 30.5 139.5t90 114.5t145.5 77t197 28q82 0 145.5 -8.5t106.5 -16.5l12 66q6 33 6 67q0 84 -52 138.5t-179 54.5q-59 0 -102.5 -9.5t-77 -23.5t-59.5 -31.5t-50 -36.5l-45 62q47 41 133 81t215 40q152 0 230.5 -72t78.5 -195q0 -18 -2 -37.5t-6 -39.5 l-82 -426q-8 -41 -16.5 -84t-14.5 -113h-86q2 20 4 35.5t5.5 33t7.5 38t8 51.5q-86 -100 -174 -141.5t-199 -41.5q-51 0 -99 15.5t-86 46.5t-61.5 78t-23.5 110zM166 242q0 -86 47 -135.5t152 -49.5q78 0 144 27t116.5 70t83 96t43.5 106l24 127q-51 10 -112.5 17.5 t-139.5 7.5q-109 0 -178.5 -27.5t-109 -68.5t-55 -87t-15.5 -83zM447 1303q0 43 16 79.5t43 63.5t61.5 41t73.5 14t75 -14t62.5 -41t43 -62.5t16.5 -78.5t-16.5 -80t-43 -63.5t-61.5 -42t-74 -15.5t-74.5 15.5t-62.5 41t-43 62.5t-16 80zM518 1303q0 -55 36 -93.5t89 -38.5 q49 0 86 38t37 96q0 55 -36 92t-89 37t-88 -37t-35 -94z" />
<glyph unicode="&#xe6;" horiz-adv-x="1705" d="M76 215q0 150 117.5 245t338.5 95q82 0 145.5 -8t106.5 -17l19 95q6 33 6 67q0 84 -52 138.5t-179 54.5q-59 0 -102.5 -9.5t-77 -23.5t-59.5 -31.5t-50 -36.5l-45 62q47 41 133 81t215 40t205.5 -56.5t95.5 -148.5q72 90 173 147.5t230 57.5q49 0 110.5 -15.5t116 -56.5 t90.5 -111.5t36 -181.5q0 -35 -3.5 -72.5t-13.5 -80.5h-770q-2 -14 -2 -26.5v-25.5q0 -164 87 -251t218 -87q123 0 200 36t138 102l58 -60q-80 -78 -172.5 -120t-237.5 -42q-135 0 -227.5 67.5t-135.5 182.5q-78 -113 -182 -181.5t-260 -68.5q-53 0 -102 13.5t-86 42 t-59.5 74t-22.5 110.5zM166 231q0 -90 45 -132t154 -42q78 0 144 27t116.5 70t83 96t43.5 106l18 99q-51 10 -112.5 17t-139.5 7q-109 0 -177.5 -24.5t-107 -62.5t-53 -81t-14.5 -80zM874 528h682q6 43 7 80q0 82 -26 135.5t-66.5 84t-90 43t-94.5 12.5q-78 0 -144.5 -28 t-119.5 -76t-91 -112.5t-57 -138.5z" />
<glyph unicode="&#xe7;" horiz-adv-x="972" d="M111 381q0 113 39.5 219.5t111.5 187t171 130t218 49.5q117 0 202 -57.5t122 -155.5l-74 -37q-39 86 -102.5 126t-161.5 40q-94 0 -173 -41t-136.5 -108.5t-90 -156t-32.5 -180.5q0 -82 23.5 -144.5t64.5 -105.5t94 -65.5t115 -22.5q111 0 187.5 36t135.5 102l58 -60 q-76 -78 -167 -120t-229 -42q-78 0 -145.5 28t-119.5 80t-81.5 127t-29.5 171zM207 -403l26 65q25 -12 61 -23.5t83 -11.5q76 0 122 31t46 84q0 74 -113 74q-39 0 -71.5 -7.5t-79.5 -23.5l22 70q31 10 70 20t98 10q82 0 120 -44t38 -91t-20.5 -84t-55.5 -61.5t-82 -36.5 t-98 -12q-53 0 -95 12t-71 29z" />
<glyph unicode="&#xe8;" horiz-adv-x="1050" d="M111 381q0 113 38.5 219.5t108.5 187t167 130t216 49.5q49 0 110.5 -15.5t116 -56.5t90 -111.5t35.5 -181.5q0 -35 -3 -72.5t-13 -80.5h-770q-2 -14 -2 -26.5v-25.5q0 -164 87 -251t218 -87q123 0 199.5 36t138.5 102l57 -60q-80 -78 -172 -120t-237 -42q-82 0 -152 28 t-122 80t-81.5 127t-29.5 171zM219 528h682q6 43 6 80q0 82 -25.5 135.5t-66.5 84t-90 43t-94 12.5q-78 0 -144.5 -28t-120 -76t-91 -112.5t-56.5 -138.5zM551 1372h106l66 -262h-78z" />
<glyph unicode="&#xe9;" horiz-adv-x="1050" d="M111 381q0 113 38.5 219.5t108.5 187t167 130t216 49.5q49 0 110.5 -15.5t116 -56.5t90 -111.5t35.5 -181.5q0 -35 -3 -72.5t-13 -80.5h-770q-2 -14 -2 -26.5v-25.5q0 -164 87 -251t218 -87q123 0 199.5 36t138.5 102l57 -60q-80 -78 -172 -120t-237 -42q-82 0 -152 28 t-122 80t-81.5 127t-29.5 171zM219 528h682q6 43 6 80q0 82 -25.5 135.5t-66.5 84t-90 43t-94 12.5q-78 0 -144.5 -28t-120 -76t-91 -112.5t-56.5 -138.5zM591 1104l158 262h111l-183 -262h-86z" />
<glyph unicode="&#xea;" horiz-adv-x="1050" d="M111 381q0 113 38.5 219.5t108.5 187t167 130t216 49.5q49 0 110.5 -15.5t116 -56.5t90 -111.5t35.5 -181.5q0 -35 -3 -72.5t-13 -80.5h-770q-2 -14 -2 -26.5v-25.5q0 -164 87 -251t218 -87q123 0 199.5 36t138.5 102l57 -60q-80 -78 -172 -120t-237 -42q-82 0 -152 28 t-122 80t-81.5 127t-29.5 171zM219 528h682q6 43 6 80q0 82 -25.5 135.5t-66.5 84t-90 43t-94 12.5q-78 0 -144.5 -28t-120 -76t-91 -112.5t-56.5 -138.5zM424 1104l232 262h86l129 -262h-92l-90 192l-170 -192h-95z" />
<glyph unicode="&#xeb;" horiz-adv-x="1050" d="M111 381q0 113 38.5 219.5t108.5 187t167 130t216 49.5q49 0 110.5 -15.5t116 -56.5t90 -111.5t35.5 -181.5q0 -35 -3 -72.5t-13 -80.5h-770q-2 -14 -2 -26.5v-25.5q0 -164 87 -251t218 -87q123 0 199.5 36t138.5 102l57 -60q-80 -78 -172 -120t-237 -42q-82 0 -152 28 t-122 80t-81.5 127t-29.5 171zM219 528h682q6 43 6 80q0 82 -25.5 135.5t-66.5 84t-90 43t-94 12.5q-78 0 -144.5 -28t-120 -76t-91 -112.5t-56.5 -138.5zM461 1157l27 127h118l-26 -127h-119zM752 1157l26 127h119l-26 -127h-119z" />
<glyph unicode="&#xec;" horiz-adv-x="368" d="M78 0l182 942h90l-182 -942h-90zM215 1372h106l66 -262h-78z" />
<glyph unicode="&#xed;" horiz-adv-x="368" d="M78 0l182 942h90l-182 -942h-90zM272 1104l158 262h111l-183 -262h-86z" />
<glyph unicode="&#xee;" horiz-adv-x="368" d="M78 0l182 942h90l-182 -942h-90zM94 1104l232 262h86l129 -262h-92l-90 192l-170 -192h-95z" />
<glyph unicode="&#xef;" horiz-adv-x="368" d="M78 0l182 942h90l-182 -942h-90zM125 1157l27 127h118l-26 -127h-119zM416 1157l26 127h119l-26 -127h-119z" />
<glyph unicode="&#xf0;" horiz-adv-x="1105" d="M102 328q0 111 40 216t112 187t174 132t229 50q55 0 106.5 -11t94.5 -28.5t76 -37t55 -37.5q-10 141 -70.5 250.5t-164.5 175.5l-156 -162l-51 49l141 148q-92 41 -199 53l23 78q66 -8 125 -23.5t113 -42.5l145 152l51 -50l-133 -139q127 -84 197.5 -221t70.5 -311 q0 -197 -52 -344.5t-135 -245.5t-186.5 -147.5t-207.5 -49.5q-80 0 -152 23.5t-126 70t-87 113t-33 152.5zM199 354q0 -135 79.5 -217t225.5 -82q86 0 172 44t153.5 127t110.5 202t47 266q-16 18 -47 43t-74 45.5t-100 34.5t-125 14q-84 0 -164 -35.5t-141.5 -99t-99 -151.5 t-37.5 -191z" />
<glyph unicode="&#xf1;" horiz-adv-x="1050" d="M78 0l143 743q8 39 13.5 67t9.5 49.5t7 41t5 41.5h84q-2 -23 -5 -41t-6 -39.5t-9.5 -49.5t-14.5 -67q33 41 72 81t86 71t104.5 50.5t128.5 19.5q150 0 215.5 -82t65.5 -213q0 -63 -12 -131l-105 -541h-90l100 522q8 41 11.5 76t3.5 66q0 115 -50.5 167t-152.5 52 q-82 0 -152.5 -35t-126 -91.5t-91.5 -128t-50 -143.5l-94 -485h-90zM375 1214q43 45 96 70t109 25q49 0 80.5 -17t60.5 -35q23 -16 46.5 -26t53.5 -10q33 0 66 13t80 54l41 -53q-43 -45 -96.5 -69.5t-108.5 -24.5q-45 0 -79 17.5t-62 37.5q-45 33 -101 33q-33 0 -65.5 -13.5 t-79.5 -54.5z" />
<glyph unicode="&#xf2;" horiz-adv-x="1112" d="M111 381q0 111 38.5 216t111.5 187t177.5 132.5t233.5 50.5q80 0 149.5 -28t122.5 -80t84 -128t31 -170q0 -111 -38 -216t-110.5 -187t-177 -132.5t-235.5 -50.5q-80 0 -149.5 28t-123 80t-84 127t-30.5 171zM205 397q0 -164 86 -251t221 -87q102 0 186 41t143.5 108.5 t91.5 156t32 180.5q0 164 -83.5 251t-224.5 87q-104 0 -188 -41t-142.5 -108.5t-90 -156t-31.5 -180.5zM576 1372h106l66 -262h-78z" />
<glyph unicode="&#xf3;" horiz-adv-x="1112" d="M111 381q0 111 38.5 216t111.5 187t177.5 132.5t233.5 50.5q80 0 149.5 -28t122.5 -80t84 -128t31 -170q0 -111 -38 -216t-110.5 -187t-177 -132.5t-235.5 -50.5q-80 0 -149.5 28t-123 80t-84 127t-30.5 171zM205 397q0 -164 86 -251t221 -87q102 0 186 41t143.5 108.5 t91.5 156t32 180.5q0 164 -83.5 251t-224.5 87q-104 0 -188 -41t-142.5 -108.5t-90 -156t-31.5 -180.5zM643 1104l158 262h111l-183 -262h-86z" />
<glyph unicode="&#xf4;" horiz-adv-x="1112" d="M111 381q0 111 38.5 216t111.5 187t177.5 132.5t233.5 50.5q80 0 149.5 -28t122.5 -80t84 -128t31 -170q0 -111 -38 -216t-110.5 -187t-177 -132.5t-235.5 -50.5q-80 0 -149.5 28t-123 80t-84 127t-30.5 171zM205 397q0 -164 86 -251t221 -87q102 0 186 41t143.5 108.5 t91.5 156t32 180.5q0 164 -83.5 251t-224.5 87q-104 0 -188 -41t-142.5 -108.5t-90 -156t-31.5 -180.5zM467 1104l232 262h86l129 -262h-92l-90 192l-170 -192h-95z" />
<glyph unicode="&#xf5;" horiz-adv-x="1112" d="M111 381q0 111 38.5 216t111.5 187t177.5 132.5t233.5 50.5q80 0 149.5 -28t122.5 -80t84 -128t31 -170q0 -111 -38 -216t-110.5 -187t-177 -132.5t-235.5 -50.5q-80 0 -149.5 28t-123 80t-84 127t-30.5 171zM205 397q0 -164 86 -251t221 -87q102 0 186 41t143.5 108.5 t91.5 156t32 180.5q0 164 -83.5 251t-224.5 87q-104 0 -188 -41t-142.5 -108.5t-90 -156t-31.5 -180.5zM400 1214q43 45 96 70t109 25q49 0 80.5 -17t60.5 -35q23 -16 46.5 -26t53.5 -10q33 0 66 13t80 54l41 -53q-43 -45 -96.5 -69.5t-108.5 -24.5q-45 0 -79 17.5t-62 37.5 q-45 33 -101 33q-33 0 -65.5 -13.5t-79.5 -54.5z" />
<glyph unicode="&#xf6;" horiz-adv-x="1112" d="M111 381q0 111 38.5 216t111.5 187t177.5 132.5t233.5 50.5q80 0 149.5 -28t122.5 -80t84 -128t31 -170q0 -111 -38 -216t-110.5 -187t-177 -132.5t-235.5 -50.5q-80 0 -149.5 28t-123 80t-84 127t-30.5 171zM205 397q0 -164 86 -251t221 -87q102 0 186 41t143.5 108.5 t91.5 156t32 180.5q0 164 -83.5 251t-224.5 87q-104 0 -188 -41t-142.5 -108.5t-90 -156t-31.5 -180.5zM498 1157l27 127h118l-26 -127h-119zM789 1157l26 127h119l-26 -127h-119z" />
<glyph unicode="&#xf7;" d="M182 610l19 88h788l-18 -88h-789zM459 285l22 123h121l-22 -123h-121zM573 901l25 123h121l-25 -123h-121z" />
<glyph unicode="&#xf8;" horiz-adv-x="1112" d="M84 -51l127 147q-47 51 -73.5 123t-26.5 162q0 111 38.5 216t111.5 187t177.5 132.5t233.5 50.5q66 0 124 -19.5t105 -54.5l129 149l60 -45l-134 -153q47 -51 75 -122t28 -161q0 -111 -38 -216t-110.5 -187t-177 -132.5t-235.5 -50.5t-232 72l-123 -143zM205 397 q0 -141 67 -231l572 661q-74 56 -187 56q-104 0 -188 -41t-142.5 -108.5t-90 -156t-31.5 -180.5zM326 115q76 -55 186 -56q102 0 186 41t143.5 108.5t91.5 156t32 180.5q0 143 -68 229z" />
<glyph unicode="&#xf9;" horiz-adv-x="1038" d="M129 270q0 31 4 64t10 67l105 541h90l-100 -522q-8 -41 -12.5 -77t-4.5 -67q0 -113 52.5 -165t156.5 -52q84 0 152.5 36t120 93.5t85 128t48.5 140.5l94 485h90l-143 -743q-8 -39 -13.5 -67t-9.5 -49.5t-7 -40.5t-5 -42h-84q2 23 4 40t6 37.5t9 47.5t14 65 q-33 -41 -69 -79.5t-81 -68.5t-100.5 -48.5t-124.5 -18.5q-154 0 -220.5 82t-66.5 213zM545 1372h106l66 -262h-78z" />
<glyph unicode="&#xfa;" horiz-adv-x="1038" d="M129 270q0 31 4 64t10 67l105 541h90l-100 -522q-8 -41 -12.5 -77t-4.5 -67q0 -113 52.5 -165t156.5 -52q84 0 152.5 36t120 93.5t85 128t48.5 140.5l94 485h90l-143 -743q-8 -39 -13.5 -67t-9.5 -49.5t-7 -40.5t-5 -42h-84q2 23 4 40t6 37.5t9 47.5t14 65 q-33 -41 -69 -79.5t-81 -68.5t-100.5 -48.5t-124.5 -18.5q-154 0 -220.5 82t-66.5 213zM575 1104l158 262h111l-183 -262h-86z" />
<glyph unicode="&#xfb;" horiz-adv-x="1038" d="M129 270q0 31 4 64t10 67l105 541h90l-100 -522q-8 -41 -12.5 -77t-4.5 -67q0 -113 52.5 -165t156.5 -52q84 0 152.5 36t120 93.5t85 128t48.5 140.5l94 485h90l-143 -743q-8 -39 -13.5 -67t-9.5 -49.5t-7 -40.5t-5 -42h-84q2 23 4 40t6 37.5t9 47.5t14 65 q-33 -41 -69 -79.5t-81 -68.5t-100.5 -48.5t-124.5 -18.5q-154 0 -220.5 82t-66.5 213zM428 1104l232 262h86l129 -262h-92l-90 192l-170 -192h-95z" />
<glyph unicode="&#xfc;" horiz-adv-x="1038" d="M129 270q0 31 4 64t10 67l105 541h90l-100 -522q-8 -41 -12.5 -77t-4.5 -67q0 -113 52.5 -165t156.5 -52q84 0 152.5 36t120 93.5t85 128t48.5 140.5l94 485h90l-143 -743q-8 -39 -13.5 -67t-9.5 -49.5t-7 -40.5t-5 -42h-84q2 23 4 40t6 37.5t9 47.5t14 65 q-33 -41 -69 -79.5t-81 -68.5t-100.5 -48.5t-124.5 -18.5q-154 0 -220.5 82t-66.5 213zM446 1157l27 127h118l-26 -127h-119zM737 1157l26 127h119l-26 -127h-119z" />
<glyph unicode="&#xfd;" horiz-adv-x="909" d="M-86 -371l49 60q18 -18 47 -31.5t64 -13.5q57 0 94 36.5t80 114.5l121 213l-228 934h97l192 -829l477 829h97l-689 -1182q-18 -31 -40.5 -65.5t-51 -63t-63.5 -47t-80 -18.5q-55 0 -94 15.5t-72 47.5zM497 1104l158 262h111l-183 -262h-86z" />
<glyph unicode="&#xfe;" horiz-adv-x="1056" d="M-2 -410l342 1776h90l-117 -600q31 41 68 78t83 64.5t101.5 43t126.5 15.5q80 0 139.5 -29t99.5 -78t59.5 -116.5t19.5 -143.5q0 -145 -45 -260t-122 -197t-180.5 -125t-220.5 -43q-106 0 -166.5 31t-97.5 60l-92 -476h-88zM197 162q41 -41 102 -72t160 -31q84 0 166 33 t146.5 99.5t104 166t39.5 232.5q0 59 -13 112.5t-42 93.5t-77 63.5t-117 23.5q-84 0 -153 -35t-121 -92.5t-86 -130t-48 -148.5z" />
<glyph unicode="&#xff;" horiz-adv-x="909" d="M-86 -371l49 60q18 -18 47 -31.5t64 -13.5q57 0 94 36.5t80 114.5l121 213l-228 934h97l192 -829l477 829h97l-689 -1182q-18 -31 -40.5 -65.5t-51 -63t-63.5 -47t-80 -18.5q-55 0 -94 15.5t-72 47.5zM387 1157l27 127h118l-26 -127h-119zM678 1157l26 127h119l-26 -127 h-119z" />
<glyph unicode="&#x152;" horiz-adv-x="2234" d="M172 539q0 186 59.5 343.5t164 272.5t246.5 179.5t308 64.5q100 0 180 -28t141.5 -77t105.5 -115.5t71 -146.5l65 334h785l-19 -90h-690l-100 -518h539l-17 -90h-538l-113 -578h741l-16 -90h-836l51 260q-104 -133 -248 -213t-337 -80q-119 0 -218.5 43t-172 120 t-112.5 181.5t-40 227.5zM274 555q0 -104 29 -194.5t86 -158t141 -106.5t193 -39q119 0 225.5 40t190.5 114t143 176t86 227l6 31q6 41 10.5 82t4.5 84q0 106 -30 197.5t-86 158t-140 104.5t-193 38q-145 0 -267 -56.5t-210 -157t-138.5 -238.5t-50.5 -302z" />
<glyph unicode="&#x153;" horiz-adv-x="1892" d="M111 381q0 111 38.5 216t111.5 187t177.5 132.5t233.5 50.5q141 0 232 -75t130 -200q33 57 77 107.5t99.5 87.5t123 58.5t149.5 21.5q49 0 110.5 -15.5t115.5 -56.5t90 -111.5t36 -181.5q0 -35 -3 -72.5t-13 -80.5h-770q-2 -14 -2 -26.5v-25.5q0 -164 87 -251t218 -87 q123 0 199.5 36t138.5 102l57 -60q-80 -78 -172 -120t-238 -42q-147 0 -238 80t-128 203q-35 -59 -79 -110.5t-101.5 -89.5t-129 -60.5t-163.5 -22.5q-80 0 -149.5 28t-123 80t-84 127t-30.5 171zM205 397q0 -164 86 -251t221 -87q102 0 186 41t143.5 108.5t91.5 156 t32 180.5q0 164 -83.5 251t-224.5 87q-104 0 -188 -41t-142.5 -108.5t-90 -156t-31.5 -180.5zM1061 528h682q6 43 6 80q0 82 -25.5 135.5t-66.5 84t-90 43t-94 12.5q-78 0 -144.5 -28t-120 -76t-91.5 -112.5t-56 -138.5z" />
<glyph unicode="&#x178;" horiz-adv-x="1046" d="M225 1366h107l258 -647l510 647h114l-589 -735l-121 -631h-96l120 631zM510 1556l28 140h131l-28 -140h-131zM837 1556l29 140h129l-29 -140h-129z" />
<glyph unicode="&#x2c6;" horiz-adv-x="688" d="M272 1104l232 262h86l129 -262h-92l-90 192l-170 -192h-95z" />
<glyph unicode="&#x2dc;" horiz-adv-x="688" d="M205 1214q43 45 96 70t109 25q49 0 80.5 -17t60.5 -35q23 -16 46.5 -26t53.5 -10q33 0 66 13t80 54l41 -53q-43 -45 -96.5 -69.5t-108.5 -24.5q-45 0 -79 17.5t-62 37.5q-45 33 -101 33q-33 0 -65.5 -13.5t-79.5 -54.5z" />
<glyph unicode="&#x2000;" horiz-adv-x="887" />
<glyph unicode="&#x2001;" horiz-adv-x="1774" />
<glyph unicode="&#x2002;" horiz-adv-x="887" />
<glyph unicode="&#x2003;" horiz-adv-x="1774" />
<glyph unicode="&#x2004;" horiz-adv-x="591" />
<glyph unicode="&#x2005;" horiz-adv-x="443" />
<glyph unicode="&#x2006;" horiz-adv-x="295" />
<glyph unicode="&#x2007;" horiz-adv-x="295" />
<glyph unicode="&#x2008;" horiz-adv-x="221" />
<glyph unicode="&#x2009;" horiz-adv-x="354" />
<glyph unicode="&#x200a;" horiz-adv-x="98" />
<glyph unicode="&#x2010;" horiz-adv-x="860" d="M201 532l18 91h541l-19 -91h-540z" />
<glyph unicode="&#x2011;" horiz-adv-x="860" d="M201 532l18 91h541l-19 -91h-540z" />
<glyph unicode="&#x2012;" horiz-adv-x="860" d="M201 532l18 91h541l-19 -91h-540z" />
<glyph unicode="&#x2013;" horiz-adv-x="1024" d="M20 528l17 93h1024l-17 -93h-1024z" />
<glyph unicode="&#x2014;" horiz-adv-x="2048" d="M20 528l17 93h2048l-17 -93h-2048z" />
<glyph unicode="&#x2018;" horiz-adv-x="378" d="M266 1001l125 365h80l-106 -365h-99z" />
<glyph unicode="&#x2019;" horiz-adv-x="378" d="M246 1001l104 365h99l-123 -365h-80z" />
<glyph unicode="&#x201a;" horiz-adv-x="378" d="M37 -219l104 364h99l-123 -364h-80z" />
<glyph unicode="&#x201c;" horiz-adv-x="651" d="M266 1001l125 365h80l-106 -365h-99zM538 1001l125 365h80l-106 -365h-99z" />
<glyph unicode="&#x201d;" horiz-adv-x="651" d="M246 1001l104 365h99l-123 -365h-80zM518 1001l104 365h99l-123 -365h-80z" />
<glyph unicode="&#x201e;" horiz-adv-x="653" d="M37 -219l104 364h99l-123 -364h-80zM311 -219l104 364h99l-123 -364h-80z" />
<glyph unicode="&#x2022;" horiz-adv-x="667" d="M172 606q0 45 16.5 84t46 67.5t68.5 46t84 17.5t84 -17.5t67.5 -46t46 -67.5t17.5 -84t-17.5 -84t-46 -68.5t-67.5 -46t-84 -16.5t-84 16.5t-68.5 46t-46 68.5t-16.5 84z" />
<glyph unicode="&#x2026;" horiz-adv-x="1335" d="M84 -4l29 139h135l-29 -139h-135zM496 -4l29 139h135l-29 -139h-135zM905 -4l29 139h135l-29 -139h-135z" />
<glyph unicode="&#x202f;" horiz-adv-x="354" />
<glyph unicode="&#x2039;" horiz-adv-x="593" d="M170 479l285 393h96l-283 -397l127 -389h-92z" />
<glyph unicode="&#x203a;" horiz-adv-x="593" d="M104 86l283 397l-127 389h92l133 -393l-284 -393h-97z" />
<glyph unicode="&#x205f;" horiz-adv-x="443" />
<glyph unicode="&#x20ac;" d="M88 461l31 80h147q4 51 13.5 102t21.5 105h-166l31 79h158q33 100 83 190.5t117.5 159t152.5 109.5t187 41q90 0 171 -32.5t136 -127.5l-73 -43q-51 76 -109.5 95.5t-138.5 19.5q-74 0 -139.5 -32.5t-119.5 -90t-96 -132.5t-71 -157h530l-30 -79h-525q-14 -53 -22 -104.5 t-12 -102.5h542l-30 -80h-517v-19q0 -84 20.5 -154.5t58.5 -121.5t94.5 -80t130.5 -29q45 0 83.5 5.5t72.5 18.5t67 37.5t67 63.5l60 -59q-74 -86 -160 -121t-199 -35q-92 0 -164.5 35t-123 98.5t-78 148.5t-27.5 187v25h-174z" />
<glyph unicode="&#x2122;" horiz-adv-x="1826" d="M236 1286l16 80h668l-17 -80h-289l-135 -704h-86l135 704h-292zM932 582l170 784h94l166 -463l346 463h107l-132 -784h-84l113 667l-340 -446h-55l-162 430l-145 -651h-78z" />
<glyph unicode="&#x25fc;" horiz-adv-x="942" d="M0 0v942h942v-942h-942z" />
</font>
</defs>
</svg>
