<?xml version="1.0" standalone="no"?>
<!DOCTYPE svg PUBLIC "-//W3C//DTD SVG 1.1//EN" "http://www.w3.org/Graphics/SVG/1.1/DTD/svg11.dtd" >
<svg xmlns="http://www.w3.org/2000/svg">
<metadata></metadata>
<defs>
<font id="effraitalic" horiz-adv-x="1116" >
<font-face units-per-em="2048" ascent="1638" descent="-410" />
<missing-glyph horiz-adv-x="356" />
<glyph unicode="&#xfb01;" horiz-adv-x="1062" d="M109 805l28 147h166l19 92q18 92 61 159t104.5 111t136 65.5t156.5 21.5q98 0 186.5 -36t145.5 -99l-117 -111q-53 47 -103 67.5t-122 20.5q-100 0 -175 -47t-99 -172l-15 -72h566l-185 -952h-178l156 805h-387l-156 -805h-178l155 805h-165z" />
<glyph unicode="&#xfb02;" horiz-adv-x="1054" d="M109 805l28 147h166l19 92q18 92 61 159t103.5 111t132 65.5t145.5 21.5q193 0 350 -96l-252 -1305h-176l234 1210q-27 14 -67 23.5t-99 9.5q-45 0 -87 -10t-76 -36t-58.5 -68t-36.5 -105l-15 -72h260l-28 -147h-260l-156 -805h-178l155 805h-165z" />
<glyph unicode="&#xfb03;" horiz-adv-x="1660" d="M109 805l28 147h166l14 78q35 193 136.5 282t240.5 89q61 0 125 -24.5t111 -84.5l-109 -110q-27 29 -59.5 44t-79.5 15q-76 0 -120 -51t-68 -176l-13 -62h420l19 92q18 92 61 159t104.5 111t136 65.5t156.5 21.5q98 0 186.5 -36t145.5 -99l-117 -111q-53 47 -103 67.5 t-122 20.5q-100 0 -175 -47t-99 -172l-15 -72h566l-185 -952h-178l156 805h-387l-156 -805h-178l155 805h-419l-156 -805h-178l155 805h-165z" />
<glyph unicode="&#xfb04;" horiz-adv-x="1652" d="M109 805l28 147h166l14 78q35 193 136.5 282t240.5 89q61 0 125 -24.5t111 -84.5l-109 -110q-27 29 -59.5 44t-79.5 15q-76 0 -120 -51t-68 -176l-13 -62h420l19 92q18 92 61 159t103.5 111t132 65.5t145.5 21.5q193 0 350 -96l-252 -1305h-176l234 1210q-27 14 -67 23.5 t-99 9.5q-45 0 -87 -10t-76 -36t-58.5 -68t-36.5 -105l-15 -72h260l-28 -147h-260l-156 -805h-178l155 805h-419l-156 -805h-178l155 805h-165z" />
<glyph unicode="&#xd;" horiz-adv-x="356" />
<glyph horiz-adv-x="0" />
<glyph horiz-adv-x="0" />
<glyph unicode=" "  horiz-adv-x="356" />
<glyph unicode="&#x09;" horiz-adv-x="356" />
<glyph unicode="&#xa0;" horiz-adv-x="356" />
<glyph unicode="!" horiz-adv-x="507" d="M70 0l43 223h221l-43 -223h-221zM164 393l182 973h197l-193 -973h-186z" />
<glyph unicode="&#x22;" horiz-adv-x="700" d="M199 913l88 453h168l-88 -453h-168zM502 913l88 453h168l-88 -453h-168z" />
<glyph unicode="#" horiz-adv-x="1427" d="M100 336l23 147h272l123 314h-233l22 147h271l135 336h159l-133 -336h291l135 336h160l-133 -336h223l-22 -147h-263l-122 -314h223l-23 -147h-262l-131 -336h-160l131 336h-292l-132 -336h-159l133 336h-236zM555 483h293l123 314h-293z" />
<glyph unicode="$" d="M12 180l117 111q74 -78 145.5 -115t169.5 -45l91 471q-61 25 -114.5 56.5t-92.5 72.5t-60.5 91t-21.5 114q0 68 25.5 133.5t78.5 117.5t134 86t190 38l35 182h120l-36 -186q61 -10 111 -32t87 -47.5t62.5 -52t40.5 -47.5l-121 -102q-47 55 -93 83t-118 42l-82 -430 q63 -29 118.5 -61.5t94.5 -74.5t61.5 -95.5t22.5 -118.5q0 -98 -36 -171t-97.5 -122t-142 -76t-169.5 -33l-32 -176h-121l35 178q-106 12 -216 60.5t-186 148.5zM426 958q0 -66 36 -109.5t107 -78.5l74 385q-41 -4 -80 -15.5t-69.5 -34t-49 -58.5t-18.5 -89zM565 133 q106 10 164.5 65.5t58.5 149.5q0 37 -6 65.5t-21.5 52t-44 44t-71.5 43.5z" />
<glyph unicode="%" horiz-adv-x="1753" d="M157 862q0 102 32 187.5t85 146.5t120 95t138 34q66 0 114 -22.5t79.5 -60.5t47 -88t15.5 -107q0 -102 -31.5 -186.5t-85 -146t-121 -95t-137.5 -33.5q-66 0 -113.5 22.5t-79.5 60.5t-47.5 88t-15.5 105zM313 868q0 -154 117 -153q37 0 72.5 24.5t64.5 67.5t47.5 103.5 t18.5 131.5q0 154 -117 154q-37 0 -73 -24.5t-64.5 -67.5t-47 -103.5t-18.5 -132.5zM324 0l985 1290h182l-985 -1290h-182zM1038 260q0 102 32 187.5t85 146.5t120 95t138 34q66 0 114 -22.5t79.5 -60.5t47 -88t15.5 -107q0 -102 -31.5 -186.5t-85 -146t-121 -95 t-137.5 -33.5q-66 0 -113.5 22.5t-79.5 60.5t-47.5 88t-15.5 105zM1194 266q0 -154 117 -153q37 0 72.5 24.5t64.5 67.5t47.5 103.5t18.5 131.5q0 154 -117 154q-37 0 -73 -24.5t-64.5 -67.5t-47 -103.5t-18.5 -132.5z" />
<glyph unicode="&#x26;" horiz-adv-x="1253" d="M70 309q0 156 99 267.5t275 209.5q-84 137 -84 252q0 92 30 160t80 113t119.5 67.5t149.5 22.5q113 0 203 -59.5t131 -170.5l-135 -69q-45 88 -95 116.5t-114 28.5q-76 0 -134 -43t-58 -137q0 -66 28.5 -126t65.5 -120l256 -407l213 241l114 -102l-245 -272l178 -281 h-205l-98 154q-66 -59 -120 -96.5t-102.5 -56.5t-94.5 -26.5t-91 -7.5q-90 0 -158.5 28t-114.5 76t-69.5 109.5t-23.5 128.5zM258 342q0 -90 52.5 -148.5t150.5 -58.5q86 0 153.5 33t149.5 113l-242 383q-115 -61 -189.5 -137t-74.5 -185z" />
<glyph unicode="'" horiz-adv-x="397" d="M199 913l88 453h168l-88 -453h-168z" />
<glyph unicode="(" horiz-adv-x="569" d="M139 299q0 199 42 380t102.5 329.5t128 261t118.5 176.5h181q-78 -115 -147.5 -241t-122 -267t-83 -301t-30.5 -338q0 -70 5 -141.5t14 -136t20.5 -120t23.5 -91.5h-180q-20 63 -46 191t-26 298z" />
<glyph unicode=")" horiz-adv-x="569" d="M-43 -190q78 113 147.5 239.5t122 268t83 301t30.5 337.5q0 70 -5 141.5t-14.5 136t-20.5 120t-24 92.5h181q20 -63 45.5 -191.5t25.5 -298.5q0 -201 -42 -381t-102 -328.5t-128 -261t-119 -175.5h-180z" />
<glyph unicode="*" horiz-adv-x="985" d="M242 940l247 133l-247 131l71 125l240 -151l-12 284h145l-10 -284l237 151l72 -125l-248 -131l248 -133l-72 -125l-237 152l10 -283h-145l12 283l-240 -152z" />
<glyph unicode="+" d="M186 580l31 155h324l63 324h158l-64 -324h320l-31 -155h-319l-62 -324h-157l61 324h-324z" />
<glyph unicode="," horiz-adv-x="499" d="M-4 -240l141 240h-71l43 227h221l-43 -225l-183 -242h-108z" />
<glyph unicode="-" horiz-adv-x="862" d="M166 487l33 172h575l-33 -172h-575z" />
<glyph unicode="." horiz-adv-x="503" d="M66 -2l45 229h223l-45 -229h-223z" />
<glyph unicode="/" horiz-adv-x="798" d="M-35 -33l803 1436h184l-800 -1436h-187z" />
<glyph unicode="0" d="M106 428q0 86 15.5 186.5t48.5 199.5t83 192.5t118.5 164t157.5 113.5t200 43q193 0 285 -124t92 -335q0 -86 -15.5 -185t-47 -198.5t-82 -192.5t-120 -164t-158.5 -114t-200 -43q-193 0 -285 123t-92 334zM289 422q0 -123 55.5 -202t155.5 -79q76 0 136 39t107.5 101.5 t82 141.5t56 161t32 158.5t10.5 134.5q0 123 -55.5 202.5t-155.5 79.5q-76 0 -137.5 -39t-108.5 -101.5t-81 -142t-55.5 -161.5t-31.5 -159t-10 -134z" />
<glyph unicode="1" d="M227 0l31 160h227l187 938l-287 -146l-61 133l403 211h166l-225 -1136h227l-31 -160h-637z" />
<glyph unicode="2" d="M80 0l20 121q14 76 51 143.5t91.5 128t122 114.5t141.5 107q82 59 150.5 104.5t116.5 87.5t74.5 87t26.5 106q0 66 -47 115t-137 49q-104 0 -172.5 -46t-122.5 -111l-127 92q29 39 70 80t96 73.5t125 54t154 21.5q88 0 154.5 -24.5t111.5 -65.5t67.5 -95.5t22.5 -115.5 q0 -90 -28.5 -157.5t-79 -122t-117 -102.5t-142.5 -99q-68 -47 -130 -88t-115.5 -84t-92 -93.5t-57.5 -117.5h606l-30 -162h-803z" />
<glyph unicode="3" d="M53 109l94 133q63 -49 129 -82t175 -33q63 0 119.5 20.5t98.5 57.5t65.5 88t23.5 113q0 96 -54 157.5t-165 61.5q-23 0 -47.5 -3.5t-57.5 -13.5l-65 92l450 430h-502l33 160h721l-29 -143l-409 -389q84 -10 142.5 -43t95 -81t53 -104.5t16.5 -113.5q0 -98 -38 -180 t-105.5 -142.5t-159.5 -94.5t-201 -34q-143 0 -234 45t-149 99z" />
<glyph unicode="4" d="M92 268l31 152l747 872h179l-175 -870h136l-29 -154h-135l-53 -268h-166l51 268h-586zM305 422h402l124 616z" />
<glyph unicode="5" d="M82 106l92 134q31 -25 61.5 -45.5t66.5 -35t78 -22.5t95 -8q145 0 223 88t78 225q0 111 -58.5 163t-164.5 52q-70 0 -119 -15t-102 -40l-76 74l195 614h620l-31 -160h-475l-108 -356q41 14 81 20.5t93 6.5q80 0 141.5 -28t103.5 -76t63.5 -111.5t21.5 -132.5 q0 -104 -35 -193.5t-99.5 -155t-158 -102.5t-207.5 -37q-141 0 -231.5 44t-147.5 97z" />
<glyph unicode="6" d="M158 406q0 100 17.5 207.5t54 209t92 193.5t129 160.5t169 108.5t209.5 40q92 0 169 -27.5t130 -68.5l-92 -135q-41 29 -93 47t-122 18q-90 0 -158.5 -33.5t-121 -92t-88 -134.5t-62.5 -162q55 41 121 64.5t150 23.5q76 0 140 -26.5t111.5 -73.5t73 -110.5t25.5 -135.5 q0 -125 -37 -220t-99.5 -160.5t-147.5 -99.5t-181 -34q-102 0 -175 36t-121 95.5t-70.5 139t-22.5 170.5zM336 403q0 -51 11 -101t38 -90t71 -64.5t109 -24.5q55 0 104.5 20.5t86.5 61.5t58.5 102.5t21.5 145.5q0 100 -52.5 159.5t-150.5 59.5q-94 0 -162 -28t-115 -69 q-10 -39 -15 -81.5t-5 -90.5z" />
<glyph unicode="7" d="M188 0q74 145 168.5 312t190.5 325t183 289t144 204h-602l31 162h793l-33 -168q-37 -47 -91 -126.5t-117.5 -177t-130.5 -208t-130.5 -219t-117.5 -211t-91 -182.5h-197z" />
<glyph unicode="8" d="M100 303q0 78 27 140.5t75 113.5t112.5 90t140.5 70q-23 14 -48.5 36.5t-47 54.5t-35 72t-13.5 89q0 63 25.5 127.5t77 116t129.5 83t180 31.5q98 0 165.5 -25.5t110.5 -66.5t62.5 -92t19.5 -103q0 -127 -76.5 -208t-197.5 -134q27 -14 60.5 -39.5t64.5 -64.5t51.5 -90 t20.5 -115q0 -76 -31 -150.5t-91.5 -135t-150.5 -97.5t-209 -37q-115 0 -194.5 30t-131 78t-74 107.5t-22.5 118.5zM287 330q0 -41 14 -78t43 -65.5t74 -46t104 -17.5q49 0 102.5 14.5t96.5 45t71.5 80.5t28.5 122q0 76 -59.5 142.5t-163.5 97.5q-53 -12 -108.5 -36 t-100.5 -58.5t-73.5 -84t-28.5 -116.5zM479 973q0 -61 48 -115.5t130 -79.5q43 10 88.5 28.5t82 48.5t60 70t23.5 93q0 33 -11 62.5t-34.5 53t-59.5 38t-85 14.5q-41 0 -84 -11.5t-78 -36t-57.5 -65.5t-22.5 -100z" />
<glyph unicode="9" d="M88 57l76 146q41 -29 103.5 -49.5t131.5 -20.5q84 0 150.5 34t119 92t89.5 134t59 162q-57 -41 -126.5 -65.5t-139.5 -24.5q-78 0 -142.5 24.5t-111.5 70.5t-72.5 110.5t-25.5 144.5q0 133 42 229.5t109.5 159t151.5 92t168 29.5q96 0 168.5 -34t121 -92t73 -135 t24.5 -163q0 -158 -40 -322.5t-123 -302t-209 -224.5t-296 -87q-92 0 -170 25.5t-131 66.5zM375 858q0 -115 49 -177.5t158 -62.5q80 0 153.5 28t120.5 69q8 35 14.5 72.5t6.5 78.5q0 53 -9.5 106.5t-35 96.5t-69.5 70.5t-114 27.5q-43 0 -91 -15t-89 -52t-67.5 -96.5 t-26.5 -145.5z" />
<glyph unicode=":" horiz-adv-x="503" d="M66 -2l45 229h223l-45 -229h-223zM207 725l45 229h223l-45 -229h-223z" />
<glyph unicode=";" horiz-adv-x="499" d="M-4 -240l141 240h-71l43 227h221l-43 -225l-183 -242h-108zM205 725l45 229h223l-45 -229h-223z" />
<glyph unicode="&#x3c;" d="M211 596l22 119l785 387l65 -133l-667 -320l530 -315l-86 -135z" />
<glyph unicode="=" d="M152 391l32 156h801l-33 -156h-800zM221 748l31 155h801l-31 -155h-801z" />
<glyph unicode="&#x3e;" d="M135 346l668 320l-531 315l86 131l650 -397l-23 -119l-784 -387z" />
<glyph unicode="?" horiz-adv-x="995" d="M219 1190q84 102 195.5 156.5t240.5 54.5q76 0 142.5 -19.5t116 -57.5t78 -93t28.5 -127t-19.5 -126t-54.5 -99t-84 -84t-110 -78q-45 -29 -82 -55.5t-64.5 -56.5t-46 -67.5t-29.5 -88.5l-10 -56h-176l10 58q20 111 80 196.5t176 157.5q102 66 164 125t62 145 q0 74 -49.5 117t-143.5 43q-80 0 -152.5 -29.5t-148.5 -113.5zM248 0l43 225h219l-43 -225h-219z" />
<glyph unicode="@" horiz-adv-x="1867" d="M102 510q0 199 73 362.5t202 279.5t307 179.5t391 63.5q164 0 304.5 -52.5t241.5 -145.5t158.5 -221t57.5 -280q0 -137 -34 -268t-101.5 -233.5t-166.5 -165t-228 -62.5q-88 0 -143.5 38t-69.5 110q-72 -74 -152 -108t-168 -34q-53 0 -103 16.5t-89 49.5t-62.5 79 t-23.5 105q0 88 32.5 159t93 121t147.5 76.5t196 26.5q66 0 125 -5t94 -13l6 33q6 25 6 49q0 72 -47 116.5t-148 44.5q-104 0 -168.5 -30.5t-111.5 -61.5l-74 119q27 20 64 42t85 40t108.5 29.5t133.5 11.5q145 0 235.5 -78t90.5 -215q0 -43 -8 -82l-80 -405q-2 -8 -2 -25 q0 -33 19.5 -46t52.5 -13q61 0 118.5 42t102.5 116.5t72.5 179t27.5 231.5q0 125 -46 227.5t-127 176t-193.5 113.5t-245.5 40q-160 0 -303.5 -47t-253 -139t-173 -229.5t-63.5 -317.5q0 -51 6 -103.5t21.5 -108.5t43 -116.5t73.5 -128.5l-130 -73q-55 80 -89.5 151.5 t-53 138t-25 126t-6.5 114.5zM672 260q0 -76 40 -108.5t126 -32.5q47 0 96 18.5t91 50t72.5 75.5t41.5 93l18 97q-29 4 -71 9t-119 5q-84 0 -141.5 -17.5t-91.5 -46t-48 -66.5t-14 -77z" />
<glyph unicode="A" horiz-adv-x="1259" d="M-51 0l776 1366h193l249 -1366h-200l-62 383h-543l-208 -383h-205zM449 545h430l-99 608z" />
<glyph unicode="B" horiz-adv-x="1159" d="M78 0l264 1366h426q88 0 154.5 -23.5t111.5 -64.5t68.5 -94.5t23.5 -114.5q0 -80 -25.5 -137.5t-63.5 -97t-84 -65.5t-89 -44q41 -10 80 -34.5t68.5 -60.5t48 -83t18.5 -105q0 -123 -47 -207.5t-125 -137t-182 -75t-217 -22.5h-430zM293 168h270q70 0 129.5 15.5 t102.5 47t67.5 80.5t24.5 119q0 59 -19.5 98t-53.5 61.5t-80 32t-99 9.5h-254zM414 793h239q49 0 99.5 13t91.5 42t67.5 73t26.5 107q0 51 -17.5 85t-47 53.5t-69.5 26.5t-87 7h-225z" />
<glyph unicode="C" horiz-adv-x="1316" d="M137 563q0 164 57.5 315.5t161 267.5t246.5 185.5t313 69.5q178 0 294 -77t182 -208l-148 -94q-63 109 -142 157t-204 48t-228.5 -53.5t-177 -143.5t-113.5 -206.5t-40 -243.5q0 -92 25.5 -172t73.5 -138.5t120 -92.5t164 -34q131 0 230.5 54.5t172.5 146.5l127 -125 q-100 -119 -236 -186.5t-302 -67.5q-133 0 -238.5 44t-181.5 123t-116 188.5t-40 242.5z" />
<glyph unicode="D" horiz-adv-x="1413" d="M78 0l264 1366h422q141 0 255 -38t193.5 -109.5t122.5 -173t43 -230.5q0 -180 -59 -329.5t-169 -257t-266.5 -168t-353.5 -60.5h-452zM299 176h260q137 0 251 43t195.5 123t126 193.5t44.5 255.5q0 186 -112 292.5t-347 106.5h-219z" />
<glyph unicode="E" horiz-adv-x="1085" d="M78 0l264 1366h825l-32 -174h-639l-78 -399h481l-33 -172h-483l-86 -445h686l-33 -176h-872z" />
<glyph unicode="F" horiz-adv-x="1040" d="M78 0l264 1366h823l-35 -176h-636l-80 -420h485l-33 -172h-487l-115 -598h-186z" />
<glyph unicode="G" horiz-adv-x="1376" d="M137 563q0 164 58.5 315.5t163 267.5t249 185.5t314.5 69.5q178 0 295.5 -77t183.5 -208l-148 -94q-63 109 -144 157t-206 48t-229.5 -53.5t-179 -143.5t-115.5 -206.5t-41 -243.5q0 -94 25.5 -174t75.5 -138.5t124 -91.5t168 -33q111 0 190.5 27t153.5 84l51 274h-280 l33 166h460l-102 -536q-100 -96 -235.5 -144.5t-278.5 -48.5q-133 0 -240.5 44t-184.5 123t-119 188.5t-42 242.5z" />
<glyph unicode="H" horiz-adv-x="1394" d="M78 0l264 1366h188l-110 -573h719l110 573h189l-264 -1366h-189l119 621h-719l-119 -621h-188z" />
<glyph unicode="I" horiz-adv-x="487" d="M78 0l264 1366h188l-264 -1366h-188z" />
<glyph unicode="J" horiz-adv-x="970" d="M-8 141l119 125q66 -72 126 -99.5t132 -27.5q51 0 95 11.5t80 41t61.5 82t41.5 132.5l187 960h188l-193 -997q-23 -113 -65.5 -190t-102 -125t-132 -68.5t-152.5 -20.5q-123 0 -221.5 44t-163.5 132z" />
<glyph unicode="K" horiz-adv-x="1185" d="M78 0l264 1366h186l-120 -621l669 621h226l-598 -565l378 -801h-211l-315 676l-197 -172l-96 -504h-186z" />
<glyph unicode="L" horiz-adv-x="1077" d="M78 0l264 1366h188l-231 -1196h682l-33 -170h-870z" />
<glyph unicode="M" horiz-adv-x="1548" d="M61 0l326 1366h178l248 -717l547 717h184l-205 -1366h-184l160 1049l-498 -646h-92l-240 646l-245 -1049h-179z" />
<glyph unicode="N" horiz-adv-x="1390" d="M78 0l264 1366h190l506 -1081l211 1081h185l-265 -1366h-188l-508 1083l-211 -1083h-184z" />
<glyph unicode="O" horiz-adv-x="1521" d="M137 541q0 172 56.5 327.5t159 274.5t246 188.5t319.5 69.5q123 0 229 -40t184 -115t123 -181.5t45 -239.5q0 -168 -55 -323.5t-155.5 -274t-242 -190.5t-311.5 -72q-135 0 -244.5 43t-188.5 120t-122 182.5t-43 230.5zM338 575q0 -92 25.5 -170.5t75.5 -137t126 -91.5 t174 -33q125 0 228.5 56.5t177.5 146.5t113.5 205t39.5 231q0 92 -23.5 173t-71.5 141.5t-122.5 95.5t-177.5 35q-133 0 -238.5 -57.5t-178 -149.5t-110.5 -209t-38 -236z" />
<glyph unicode="P" horiz-adv-x="1112" d="M78 0l264 1366h403q109 0 185 -31.5t122 -82t66.5 -112t20.5 -120.5q0 -127 -44 -218t-119 -150.5t-173 -87t-207 -27.5h-229l-103 -537h-186zM399 700h228q147 0 231 77t84 222q0 92 -56.5 148.5t-166.5 56.5h-221z" />
<glyph unicode="Q" horiz-adv-x="1521" d="M137 541q0 172 56.5 327.5t159 274.5t246 188.5t319.5 69.5q123 0 229 -40t184 -115t123 -181.5t45 -239.5q0 -211 -85 -396t-234 -308l116 -195l-137 -86l-117 195q-70 -33 -145.5 -51.5t-161.5 -18.5q-135 0 -244.5 43t-188.5 120t-122 182.5t-43 230.5zM338 575 q0 -92 25.5 -170.5t75.5 -137t126 -91.5t174 -33q113 0 211 47l-123 209l136 86l120 -204q102 94 158.5 227t56.5 274q0 92 -23.5 173t-71.5 141.5t-122.5 95.5t-177.5 35q-133 0 -238.5 -57.5t-178 -149.5t-110.5 -209t-38 -236z" />
<glyph unicode="R" horiz-adv-x="1146" d="M78 0l264 1366h408q109 0 184.5 -30.5t122.5 -79t68.5 -109t21.5 -119.5q0 -94 -24.5 -167t-68.5 -126t-104.5 -90t-130.5 -57l187 -588h-201l-166 559h-272l-107 -559h-182zM397 723h236q147 0 232 65.5t85 219.5q0 92 -58 144t-169 52h-231z" />
<glyph unicode="S" horiz-adv-x="1144" d="M45 195l129 118q86 -94 170 -134t201 -40q125 0 209 65.5t84 182.5q0 47 -14.5 81t-45 60.5t-78 49t-110.5 49.5q-70 29 -131.5 63.5t-106.5 77.5t-71.5 98.5t-26.5 126.5q0 82 34 157t96 130t150.5 88t198.5 33q141 0 237.5 -54.5t164.5 -146.5l-134 -113 q-47 59 -112.5 102.5t-167.5 43.5q-131 0 -200.5 -58.5t-69.5 -152.5q0 -47 15 -80t46 -58.5t78 -48t108 -49.5q74 -31 134.5 -64.5t105.5 -77.5t69.5 -101.5t24.5 -134.5q0 -111 -40 -194t-109.5 -138.5t-160.5 -83t-194 -27.5q-59 0 -121.5 10.5t-125 37t-123 70.5 t-113.5 112z" />
<glyph unicode="T" horiz-adv-x="1220" d="M207 1198l33 168h1126l-33 -168h-467l-231 -1198h-191l232 1198h-469z" />
<glyph unicode="U" horiz-adv-x="1323" d="M156 391q0 61 12 129l164 846h188l-155 -799q-8 -41 -12.5 -76.5t-4.5 -70.5q0 -127 64.5 -201t220.5 -74q92 0 158.5 25t112.5 75t75 125.5t49 176.5l160 819h188l-168 -866q-25 -123 -69.5 -221.5t-116.5 -168t-172 -107.5t-234 -38q-115 0 -201.5 32t-144 89t-86 135 t-28.5 170z" />
<glyph unicode="V" horiz-adv-x="1247" d="M205 1366h203l182 -1120l612 1120h209l-772 -1366h-193z" />
<glyph unicode="W" horiz-adv-x="1726" d="M217 1366h199l47 -1102l481 1061h189l77 -1055l459 1096h205l-612 -1366h-201l-84 1010l-471 -1010h-199z" />
<glyph unicode="X" horiz-adv-x="1175" d="M-53 0l594 717l-303 649h213l225 -508l407 508h220l-547 -664l327 -702h-217l-248 557l-450 -557h-221z" />
<glyph unicode="Y" horiz-adv-x="1134" d="M203 1366h198l228 -588l456 588h213l-600 -756l-116 -610h-191l117 608z" />
<glyph unicode="Z" horiz-adv-x="1261" d="M23 0l32 172l1004 1024h-766l33 170h1007l-33 -174l-1003 -1022h817l-33 -170h-1058z" />
<glyph unicode="[" horiz-adv-x="618" d="M43 -190l319 1636h414l-33 -162h-233l-252 -1309h234l-35 -165h-414z" />
<glyph unicode="\" horiz-adv-x="798" d="M252 1403h170l244 -1436h-174z" />
<glyph unicode="]" horiz-adv-x="618" d="M-61 -190l34 165h234l252 1309h-234l33 162h418l-320 -1636h-417z" />
<glyph unicode="^" horiz-adv-x="1079" d="M162 631l491 735h158l205 -735h-172l-144 549l-356 -549h-182z" />
<glyph unicode="_" horiz-adv-x="993" d="M-94 -248l20 105h981l-20 -105h-981z" />
<glyph unicode="`" horiz-adv-x="878" d="M469 1386h190l58 -278h-142z" />
<glyph unicode="a" horiz-adv-x="980" d="M45 227q0 88 34 159t95.5 120t147.5 74.5t192 25.5q66 0 125 -5t94 -13l6 33q6 25 6 49q0 72 -47 116.5t-147 44.5q-104 0 -169 -30.5t-112 -61.5l-73 119q27 20 63.5 42t84.5 40t108.5 29.5t134.5 11.5q145 0 235 -78t90 -215q0 -43 -8 -82l-82 -418q-10 -53 -19 -103 t-13 -85h-164l16 115q-72 -74 -151.5 -108t-167.5 -34q-55 0 -105.5 17.5t-89.5 50.5t-61.5 80t-22.5 106zM221 260q0 -76 40 -108.5t126 -32.5q47 0 96 18.5t91 50t73 75.5t41 93l19 97q-29 4 -71 9t-120 5q-84 0 -141.5 -17.5t-91 -46t-48 -66.5t-14.5 -77z" />
<glyph unicode="b" horiz-adv-x="1083" d="M51 45l256 1321h176l-100 -522q18 20 47 43.5t67 43t88 32t111 12.5q80 0 141.5 -31t103.5 -82t63.5 -117.5t21.5 -140.5q0 -141 -45 -258t-127 -200t-194.5 -129t-249.5 -46q-113 0 -210.5 22.5t-148.5 51.5zM246 154q57 -18 97 -21.5t95 -3.5q94 0 170 34t127 94 t79 141t28 173q0 51 -10.5 96.5t-34 78t-61.5 52t-93 19.5q-70 0 -125 -23.5t-96 -63.5t-66.5 -90t-36.5 -103z" />
<glyph unicode="c" horiz-adv-x="972" d="M96 371q0 135 42 246.5t116 193.5t174 127t217 45q242 0 338 -217l-133 -74q-37 66 -87 100.5t-142 34.5q-66 0 -127.5 -30.5t-108.5 -86t-75.5 -134t-28.5 -177.5q0 -119 66.5 -195.5t172.5 -76.5q86 0 144.5 30.5t113.5 84.5l99 -111q-66 -70 -158 -115t-223 -45 q-92 0 -167 31t-126 84t-79 127t-28 158z" />
<glyph unicode="d" horiz-adv-x="1089" d="M92 334q0 172 56.5 293t139.5 198.5t180 113.5t177 36q92 0 143.5 -15.5t106.5 -48.5l88 455h178l-225 -1159q-12 -63 -21.5 -109.5t-17.5 -97.5h-172l16 117q-14 -16 -40.5 -41t-66.5 -48.5t-90 -40t-112 -16.5q-68 0 -130 24.5t-108.5 71t-74 114t-27.5 153.5zM276 362 q0 -106 48.5 -170.5t156.5 -64.5q70 0 125.5 28.5t95 71.5t64.5 92.5t33 90.5l65 346q-51 37 -102 50t-121 13q-68 0 -132.5 -31.5t-116.5 -91t-84 -144.5t-32 -190z" />
<glyph unicode="e" horiz-adv-x="1058" d="M98 375q0 125 39 236.5t109.5 193.5t167 130t213.5 48q100 0 170.5 -31.5t115.5 -86t65.5 -127t20.5 -154.5q0 -80 -18 -162h-707q-2 -10 -2 -18.5v-12.5q0 -113 62.5 -189.5t189.5 -76.5q92 0 158 29.5t131 93.5l100 -107q-68 -72 -169 -121t-232 -49q-102 0 -179 31 t-129 85t-79 128t-27 160zM297 557h532q0 10 1 18.5t1 18.5q0 104 -53 175t-164 71q-117 0 -198.5 -75t-118.5 -208z" />
<glyph unicode="f" horiz-adv-x="649" d="M109 805l28 147h166l14 78q35 193 138.5 282t246.5 89q61 0 128 -24.5t114 -84.5l-108 -110q-29 33 -64 46t-82 13q-80 0 -126 -51t-70 -176l-13 -62h260l-28 -147h-260l-156 -805h-178l155 805h-165z" />
<glyph unicode="g" horiz-adv-x="1085" d="M37 -338l82 145q70 -45 137.5 -63t144.5 -18q70 0 121 20.5t88 58t61.5 90t37.5 115.5l22 111q-10 -12 -35.5 -33.5t-62.5 -43t-87 -37t-110 -15.5q-156 0 -252 91t-96 253q0 137 43 254t122 203t189.5 134t247.5 48q113 0 213.5 -24.5t155.5 -49.5l-174 -909 q-41 -209 -165 -317.5t-335 -108.5q-86 0 -174 18.5t-174 77.5zM272 369q0 -98 44 -160t159 -62q66 0 119 23t92 58.5t63.5 80.5t34.5 92l78 394q-75 26 -188 26h-8q-86 0 -159 -33.5t-125 -94t-81 -143.5t-29 -181z" />
<glyph unicode="h" horiz-adv-x="1067" d="M49 0l264 1366h172l-108 -557q78 86 158.5 126t189.5 40q123 0 198.5 -78t75.5 -209q0 -23 -2 -53.5t-8 -63.5l-110 -571h-177l107 557q10 51 10 86q0 82 -37 127t-120 45q-66 0 -124.5 -28.5t-103.5 -79t-76.5 -116t-46.5 -138.5l-86 -453h-176z" />
<glyph unicode="i" horiz-adv-x="436" d="M57 0l185 952h178l-184 -952h-179zM258 1122l41 207h199l-41 -207h-199z" />
<glyph unicode="j" horiz-adv-x="436" d="M-303 -340l72 133q35 -23 59.5 -34t60.5 -11q27 0 51.5 9.5t45 39t39 82.5t34.5 139l183 934h178l-195 -995q-16 -78 -37.5 -144.5t-58.5 -115.5t-91 -78t-134 -29q-59 0 -112.5 17.5t-94.5 52.5zM258 1122l41 207h199l-41 -207h-199z" />
<glyph unicode="k" horiz-adv-x="962" d="M51 0l264 1366h177l-156 -805l459 391h215l-424 -366l276 -586h-190l-223 477l-154 -129l-68 -348h-176z" />
<glyph unicode="l" horiz-adv-x="419" d="M51 0l264 1366h177l-265 -1366h-176z" />
<glyph unicode="m" horiz-adv-x="1671" d="M51 0l144 745q12 63 21 109.5t17 97.5h168l-22 -143q78 86 157.5 126t180.5 40q82 0 147.5 -47t93.5 -129q84 92 171.5 134t201.5 42q57 0 107.5 -20.5t87.5 -57.5t57.5 -90t20.5 -119q0 -23 -2.5 -53.5t-8.5 -63.5l-110 -571h-176l106 557q10 51 10 86q0 82 -38.5 127 t-116.5 45q-109 0 -194 -68.5t-113 -209.5l-105 -537h-176l106 557q10 51 11 86q0 82 -37 127t-107 45q-61 0 -116.5 -29.5t-100.5 -79t-76.5 -116t-46.5 -139.5l-86 -451h-176z" />
<glyph unicode="n" horiz-adv-x="1069" d="M51 0l144 745q12 63 21 109.5t17 97.5h168l-22 -143q78 86 158.5 126t189.5 40q123 0 198.5 -78t75.5 -209q0 -23 -2 -53.5t-8 -63.5l-110 -571h-176l106 557q10 51 10 86q0 82 -36.5 127t-120.5 45q-66 0 -124.5 -29.5t-103.5 -79t-76.5 -116t-46.5 -139.5l-86 -451 h-176z" />
<glyph unicode="o" horiz-adv-x="1124" d="M96 383q0 121 43 230.5t119 191.5t176 130t217 48q94 0 170 -28.5t130.5 -83t84 -131t29.5 -171.5q0 -125 -42 -234.5t-115.5 -190.5t-176 -127t-225.5 -46q-92 0 -167 30t-129 84t-84 130t-30 168zM276 412q0 -125 59.5 -205t186.5 -80q68 0 132.5 30.5t115.5 85 t83 131.5t32 169q0 133 -61.5 208.5t-192.5 75.5q-66 0 -129.5 -31.5t-113.5 -87t-81 -132t-31 -164.5z" />
<glyph unicode="p" horiz-adv-x="1107" d="M-29 -410l224 1155q12 63 21 109.5t17 97.5h168l-22 -143q18 18 46 47t69 54.5t97 45t132 19.5t136.5 -30t103.5 -80t65.5 -114.5t22.5 -134.5q0 -168 -52.5 -289.5t-133.5 -200.5t-181 -117t-197 -38q-80 0 -135 18.5t-119 57.5l-88 -457h-174zM266 207 q43 -39 96.5 -59.5t122.5 -20.5q115 0 196 56.5t128 148.5q23 47 40 110.5t17 132.5q0 113 -45 177.5t-147 64.5q-66 0 -125.5 -26.5t-107.5 -75.5t-81.5 -117t-48.5 -149z" />
<glyph unicode="q" horiz-adv-x="1085" d="M88 332q0 139 43 257t122 204t189.5 134t247.5 48q113 0 213.5 -24.5t155.5 -49.5l-254 -1311h-178l96 504q-10 -10 -33.5 -29.5t-60.5 -41t-86 -37t-109 -15.5q-78 0 -141.5 26t-109.5 74t-70.5 114.5t-24.5 146.5zM272 365q0 -49 10.5 -92.5t34 -76t61.5 -51t95 -18.5 q66 0 119 23.5t92 60.5t63.5 83t34.5 93l80 408q-51 16 -97 21t-99 5q-84 0 -156 -32.5t-125 -93t-83 -144.5t-30 -186z" />
<glyph unicode="r" horiz-adv-x="714" d="M51 0l146 758q12 59 20 103t16 91h168l-24 -151q20 23 50 51.5t69 54t87 43t109 17.5q35 0 61.5 -5.5t49.5 -13.5l-66 -172q-29 10 -47 13.5t-53 3.5q-59 0 -111.5 -25t-94.5 -67t-69.5 -96t-39.5 -113l-95 -492h-176z" />
<glyph unicode="s" horiz-adv-x="903" d="M25 106l96 127q39 -31 74.5 -51t71.5 -33.5t74 -18.5t83 -5q90 0 140 36t50 99q0 29 -14 49.5t-37.5 38t-55.5 31.5t-67 29q-41 18 -88 39.5t-87 53t-66.5 78t-26.5 113.5q0 74 28.5 128t78 91t117 54.5t147.5 17.5q37 0 80 -7t88 -24.5t87 -45t79 -66.5l-107 -105 q-49 47 -112.5 73t-129.5 26q-84 0 -130 -30t-46 -83q0 -27 9.5 -47.5t32 -40t62.5 -39t99 -43.5q47 -20 92 -44t80 -54.5t55.5 -70.5t20.5 -95q0 -152 -106.5 -234t-278.5 -82q-106 0 -206.5 31t-186.5 104z" />
<glyph unicode="t" horiz-adv-x="755" d="M119 805l28 147h166l60 312h176l-60 -312h269l-29 -147h-270l-92 -486q-8 -41 -9 -79q0 -113 97 -113q41 0 78.5 18.5t66.5 47.5l86 -107q-57 -53 -122.5 -83t-131.5 -30q-123 0 -189.5 55.5t-66.5 176.5q0 39 10 96l97 504h-164z" />
<glyph unicode="u" horiz-adv-x="1058" d="M96 264q0 23 2 53.5t8 63.5l111 571h176l-106 -557q-10 -51 -11 -86q0 -82 36 -127t120 -45q66 0 123 30t103.5 79t77 115.5t44.5 140.5l86 450h176l-143 -745q-12 -63 -21.5 -109.5t-17.5 -97.5h-168l23 143q-78 -86 -158 -126t-188 -40q-123 0 -198 78t-75 209z" />
<glyph unicode="v" horiz-adv-x="987" d="M104 952h199l137 -741l426 741h199l-576 -952h-176z" />
<glyph unicode="w" horiz-adv-x="1419" d="M115 952h188l64 -723l360 723h152l75 -729l338 729h197l-488 -952h-176l-82 662l-337 -662h-168z" />
<glyph unicode="x" horiz-adv-x="958" d="M-70 0l457 508l-237 444h200l164 -323l274 323h213l-411 -454l260 -498h-199l-186 373l-318 -373h-217z" />
<glyph unicode="y" horiz-adv-x="987" d="M-98 -371l67 127q23 -16 48.5 -28.5t66.5 -12.5q31 0 55.5 12.5t49 41t52 73.5t64.5 111l35 61l-223 938h196l154 -719l399 719h199l-619 -1058q-45 -76 -84.5 -136.5t-80.5 -103.5t-87.5 -66.5t-101.5 -23.5t-102 13t-88 52z" />
<glyph unicode="z" horiz-adv-x="913" d="M14 0l27 145l643 660h-496l29 147h721l-29 -147l-653 -658h532l-28 -147h-746z" />
<glyph unicode="{" horiz-adv-x="567" d="M104 582l23 116q74 4 119 52.5t61 111.5l94 355q25 92 56.5 143t85.5 86h178q-41 -27 -81 -82t-56 -125l-101 -395q-23 -86 -72 -136.5t-110 -66.5q47 -16 74.5 -54t27.5 -104q0 -10 -1 -22t-3 -25l-53 -389q-2 -12 -3 -24.5t-1 -24.5q0 -55 15.5 -106.5t39.5 -81.5h-174 q-51 72 -51 180q0 37 6 80l49 348q2 10 2 31q0 53 -30.5 91t-94.5 42z" />
<glyph unicode="|" horiz-adv-x="458" d="M4 -336l395 2042h168l-395 -2042h-168z" />
<glyph unicode="}" horiz-adv-x="567" d="M-57 -190q41 27 80.5 82t56.5 124l100 396q23 86 72 136t110 66q-47 16 -74.5 54.5t-27.5 103.5q0 10 1 22.5t3 24.5l53 389q2 12 3.5 24.5t1.5 24.5q0 55 -15.5 106.5t-40.5 82.5h174q51 -72 52 -180q0 -37 -7 -80l-49 -348q-2 -10 -2 -31q0 -53 31 -91t94 -42l-22 -117 q-74 -4 -119 -52t-62 -112l-94 -354q-25 -92 -56.5 -143.5t-84.5 -85.5h-178z" />
<glyph unicode="~" horiz-adv-x="940" d="M119 625q66 61 130 95t130 34q45 0 82 -14.5t68.5 -31t64.5 -30.5t74 -14t86 16t86 51l65 -100q-66 -61 -130 -95t-130 -34q-47 0 -83 14t-67.5 30.5t-65.5 31t-73 14.5q-41 0 -86 -16.5t-86 -51.5z" />
<glyph unicode="&#xa1;" horiz-adv-x="507" d="M25 -414l192 973h186l-182 -973h-196zM233 729l43 223h222l-43 -223h-222z" />
<glyph unicode="&#xa2;" d="M195 537q0 127 37.5 234.5t104 187t158 129t199.5 59.5l35 182h121l-37 -186q188 -29 268 -211l-133 -74q-29 51 -66.5 85t-97.5 44l-135 -694q72 6 124 36.5t104 78.5l98 -111q-61 -66 -147.5 -111t-209.5 -49l-32 -176h-121l35 184q-143 29 -224 136.5t-81 255.5z M379 565q0 -92 41 -160.5t112 -97.5l132 680q-57 -12 -109.5 -47t-91.5 -89t-61.5 -127t-22.5 -159z" />
<glyph unicode="&#xa3;" d="M174 594l29 149h145l37 183q23 113 67 190.5t104 123.5t132 66.5t150 20.5q207 0 313 -168l-135 -98q-41 57 -86 77.5t-111 20.5q-104 0 -166.5 -62.5t-89.5 -199.5l-31 -154h396l-29 -149h-395l-82 -422h586l-33 -172h-772l116 594h-145z" />
<glyph unicode="&#xa4;" d="M139 328l133 133q-33 47 -50 103.5t-17 119.5q0 121 67 223l-133 131l113 115l131 -133q49 35 106.5 55.5t122.5 20.5q66 0 122.5 -19.5t107.5 -54.5l131 131l112 -115l-133 -131q33 -49 51.5 -105.5t18.5 -117.5q0 -66 -18.5 -121t-51.5 -104l133 -131l-112 -115 l-131 131q-102 -72 -230 -72q-70 0 -125 18.5t-104 55.5l-131 -133zM352 684q0 -53 20.5 -101t55.5 -84t83 -57.5t101 -21.5t101.5 21.5t84.5 57.5t56 84t20 101t-20 101.5t-56 84t-84 57t-102 21.5q-53 0 -101 -21.5t-83 -57t-55.5 -84t-20.5 -101.5z" />
<glyph unicode="&#xa5;" d="M119 256l24 125h308l32 176h-307l25 125h237l-221 610h195l192 -575l410 575h209l-459 -610h233l-24 -125h-314l-32 -176h313l-25 -125h-313l-49 -256h-176l49 256h-307z" />
<glyph unicode="&#xa6;" horiz-adv-x="458" d="M4 -336l150 776h168l-150 -776h-168zM250 930l149 776h168l-151 -776h-166z" />
<glyph unicode="&#xa7;" horiz-adv-x="909" d="M47 -313l111 110q43 -41 89 -58.5t99 -17.5q100 0 157.5 61.5t57.5 164.5q0 37 -10 68.5t-34.5 67.5t-65.5 78t-101 97l-250 236l117 127l277 -250q115 -104 178 -194.5t63 -205.5q0 -94 -30.5 -169.5t-84 -128t-124 -80t-148.5 -27.5q-76 0 -155.5 24.5t-145.5 96.5z M233 995q0 94 31 170t84 128.5t124 80t149 27.5q76 0 155.5 -24.5t145.5 -96.5l-111 -111q-43 41 -89 58.5t-99 17.5q-100 0 -157.5 -61.5t-57.5 -163.5q0 -37 10 -68.5t34.5 -67.5t65.5 -78t100 -97l250 -236l-116 -127l-277 250q-115 104 -178.5 194.5t-63.5 204.5z" />
<glyph unicode="&#xa8;" horiz-adv-x="684" d="M250 1147l37 186h186l-37 -186h-186zM588 1147l37 186h182l-37 -186h-182z" />
<glyph unicode="&#xa9;" horiz-adv-x="1591" d="M139 686q0 150 55.5 280t150.5 226t225 152.5t282 56.5q150 0 279 -56.5t224 -152.5t150.5 -226t55.5 -280t-55.5 -280t-150.5 -227t-225 -152.5t-280 -55.5t-280 55.5t-225 152.5t-150.5 227.5t-55.5 279.5zM287 684q0 -123 42 -228.5t117.5 -184t178 -123t225.5 -44.5 t225.5 44.5t178 123t117.5 184t42 228.5t-42 228.5t-116.5 184.5t-178 124t-224.5 45q-123 0 -226.5 -45t-178 -124t-117.5 -184.5t-43 -228.5zM473 686q0 82 28.5 152.5t81 123t123 82t154.5 29.5q104 0 183 -48t128 -120l-106 -76q-31 43 -80 76t-115 33 q-111 0 -177 -69.5t-66 -184.5q0 -106 66.5 -178t176.5 -72q70 0 119 34t78 79l104 -84q-49 -72 -127.5 -120t-183.5 -48q-86 0 -157.5 29.5t-123 82t-79 124t-27.5 155.5z" />
<glyph unicode="&#xaa;" horiz-adv-x="749" d="M182 852q0 51 24.5 93t66.5 73t100.5 47t126.5 16q43 0 79.5 -4t59.5 -8l2 16q0 6 1 12.5t1 12.5q0 41 -25.5 66.5t-93.5 25.5t-116 -17.5t-78 -37.5l-56 98q35 25 105 53.5t170 28.5q104 0 165.5 -48t61.5 -140q0 -25 -6 -56l-55 -282q-6 -31 -11.5 -54.5t-9.5 -58.5 h-121l11 70q-37 -39 -97.5 -62.5t-109.5 -23.5q-88 0 -141.5 45t-53.5 135zM322 872q0 -39 18 -61.5t78 -22.5q31 0 62.5 9.5t59 27t47 42t25.5 57.5l9 43q-18 4 -54.5 7t-70.5 3q-96 0 -135 -35t-39 -70z" />
<glyph unicode="&#xab;" horiz-adv-x="987" d="M129 498l268 385h175l-267 -391l119 -400h-164zM475 498l268 385h175l-267 -391l119 -400h-164z" />
<glyph unicode="&#xac;" d="M186 578l31 159h801l-84 -436h-156l53 277h-645z" />
<glyph unicode="&#xad;" horiz-adv-x="862" d="M166 487l33 172h575l-33 -172h-575z" />
<glyph unicode="&#xae;" horiz-adv-x="1591" d="M139 686q0 150 55.5 280t150.5 226t225 152.5t282 56.5q150 0 279 -56.5t224 -152.5t150.5 -226t55.5 -280t-55.5 -280t-150.5 -227t-225 -152.5t-280 -55.5t-280 55.5t-225 152.5t-150.5 227.5t-55.5 279.5zM287 684q0 -123 42 -228.5t117.5 -184t178 -123t225.5 -44.5 t225.5 44.5t178 123t117.5 184t42 228.5t-42 228.5t-116.5 184.5t-178 124t-224.5 45q-123 0 -226.5 -45t-178 -124t-117.5 -184.5t-43 -228.5zM602 328v723h279q68 0 115.5 -19.5t79.5 -50.5t46.5 -69t14.5 -74q0 -70 -36 -126.5t-108 -84.5l176 -299h-151l-162 280h-121 v-280h-133zM735 715h139q63 0 94 31.5t31 82.5q0 109 -133 109h-131v-223z" />
<glyph unicode="&#xaf;" horiz-adv-x="686" d="M270 1157l29 148h492l-29 -148h-492z" />
<glyph unicode="&#xb0;" horiz-adv-x="653" d="M139 1077q0 59 21.5 109.5t59.5 87.5t88 57.5t110 20.5q59 0 110.5 -20.5t89 -57.5t59 -87t21.5 -108q0 -59 -21.5 -109t-59 -87t-89 -57.5t-108.5 -20.5q-59 0 -110.5 20.5t-89.5 57.5t-59.5 86t-21.5 108zM270 1077q0 -66 42 -108.5t108 -42.5t107.5 43t41.5 110 q0 63 -42 106.5t-109 43.5q-63 0 -105.5 -43t-42.5 -109z" />
<glyph unicode="&#xb1;" d="M75 2l31 155h801l-31 -155h-801zM186 580l31 155h324l63 324h158l-64 -324h320l-31 -155h-319l-62 -324h-157l61 324h-324z" />
<glyph unicode="&#xb2;" horiz-adv-x="737" d="M123 606l14 78q12 72 67.5 137.5t176.5 134.5q57 33 92 56.5t54.5 42t25.5 34t6 31.5q0 35 -24.5 54.5t-61.5 19.5q-53 0 -94 -20.5t-74 -55.5l-90 82q41 47 110.5 86t170.5 39q111 0 169 -52t58 -126q0 -43 -11.5 -76t-36 -61.5t-65.5 -56t-98 -62.5q-59 -35 -122.5 -75 t-90.5 -89h350l-26 -121h-500z" />
<glyph unicode="&#xb3;" horiz-adv-x="737" d="M119 670l69 104q41 -29 83 -47t100 -18q72 0 113.5 31.5t41.5 90.5q0 55 -33.5 79t-78.5 24q-18 0 -38 -3t-36 -9l-33 55l228 205h-275l27 123h450l-24 -111l-201 -174q86 -23 122 -73t36 -111q0 -113 -84 -181.5t-226 -68.5q-86 0 -143 25.5t-98 58.5z" />
<glyph unicode="&#xb4;" horiz-adv-x="788" d="M465 1108l151 278h195l-201 -278h-145z" />
<glyph unicode="&#xb5;" horiz-adv-x="1064" d="M-37 -410l264 1362h176l-108 -559q-4 -25 -7 -47t-3 -43q0 -166 159 -166q66 0 123.5 30t102.5 81t76.5 119.5t46.5 146.5l84 438h176l-142 -729q-14 -68 -23 -119t-18 -104h-168l23 143q-20 -25 -52 -53.5t-73 -53t-90 -40.5t-104 -16q-59 0 -100.5 14t-78.5 53 l-88 -457h-176z" />
<glyph unicode="&#xb6;" horiz-adv-x="1009" d="M172 942q0 111 47 191.5t127 132t183.5 76t215.5 24.5l-143 -741q-90 0 -168 18.5t-136 57t-92 99t-34 142.5zM254 -250l149 778q29 -10 62 -13t63 -3h52l-148 -762h-178zM571 -250l314 1616h182l-313 -1616h-183z" />
<glyph unicode="&#xb7;" horiz-adv-x="497" d="M190 547l46 229h223l-45 -229h-224z" />
<glyph unicode="&#xb8;" horiz-adv-x="1105" d="M35 -430l39 111q31 -12 68.5 -20.5t74.5 -8.5q68 0 102.5 24.5t34.5 65.5q0 35 -24.5 48t-77.5 13q-35 0 -70 -7t-69 -19l34 112q33 10 72 18.5t103 8.5q82 0 131 -44t49 -110q0 -59 -22.5 -101t-60.5 -69.5t-89 -40t-109 -12.5q-86 0 -131 13.5t-55 17.5z" />
<glyph unicode="&#xb9;" horiz-adv-x="737" d="M254 1163l281 142h133l-136 -699h-151l104 531l-186 -86z" />
<glyph unicode="&#xba;" horiz-adv-x="770" d="M174 942q0 80 29.5 149.5t80 122t117 83t138.5 30.5q61 0 111 -19.5t87 -55t57.5 -86t20.5 -111.5q0 -84 -29.5 -154t-80 -122t-117 -80.5t-139.5 -28.5q-121 0 -198 75.5t-77 196.5zM319 967q0 -76 37 -122t107 -46q39 0 75.5 16t65.5 46t47.5 73t18.5 96q0 78 -38 123 t-112 45q-37 0 -72.5 -16.5t-64.5 -47t-46.5 -73.5t-17.5 -94z" />
<glyph unicode="&#xbb;" horiz-adv-x="987" d="M8 92l267 391l-119 400h164l131 -406l-269 -385h-174zM354 92l267 391l-119 400h164l131 -406l-269 -385h-174z" />
<glyph unicode="&#xbc;" horiz-adv-x="1826" d="M205 1163l281 142h133l-136 -699h-151l104 531l-186 -86zM312 0l985 1290h182l-985 -1290h-182zM1061 137l23 117l432 447h149l-88 -447h84l-20 -117h-84l-27 -133h-135l27 133h-361zM1217 254h225l58 287z" />
<glyph unicode="&#xbd;" horiz-adv-x="1826" d="M205 1163l281 142h133l-136 -699h-151l104 531l-186 -86zM279 0l985 1290h182l-985 -1290h-182zM1086 2l14 78q12 72 67.5 137.5t176.5 134.5q57 33 92 56.5t54.5 42t25.5 34t6 31.5q0 35 -24.5 54.5t-61.5 19.5q-53 0 -94 -20.5t-74 -55.5l-90 82q41 47 110.5 86 t170.5 39q111 0 169 -52t58 -126q0 -43 -11.5 -76t-36 -61.5t-65.5 -56t-98 -62.5q-59 -35 -122.5 -75t-90.5 -89h350l-26 -121h-500z" />
<glyph unicode="&#xbe;" horiz-adv-x="1826" d="M111 670l69 104q41 -29 83 -47t100 -18q72 0 113.5 31.5t41.5 90.5q0 55 -33.5 79t-78.5 24q-18 0 -38 -3t-36 -9l-33 55l228 205h-275l27 123h450l-24 -111l-201 -174q86 -23 122 -73t36 -111q0 -113 -84 -181.5t-226 -68.5q-86 0 -143 25.5t-98 58.5zM361 0l985 1290 h182l-985 -1290h-182zM1061 137l23 117l432 447h149l-88 -447h84l-20 -117h-84l-27 -133h-135l27 133h-361zM1217 254h225l58 287z" />
<glyph unicode="&#xbf;" horiz-adv-x="995" d="M37 -152q0 72 19.5 126.5t54 99.5t84 84t110.5 78q45 29 82 55t64.5 56t46 67t28.5 90l11 55h176l-11 -57q-20 -111 -79.5 -197t-176.5 -158q-102 -66 -163.5 -125t-61.5 -145q0 -74 49 -117t144 -43q80 0 151.5 30t149.5 114l123 -99q-84 -102 -196 -156.5t-241 -54.5 q-76 0 -142 19.5t-115.5 57.5t-78 93.5t-28.5 126.5zM547 727l43 225h219l-43 -225h-219z" />
<glyph unicode="&#xc0;" horiz-adv-x="1259" d="M-51 0l776 1366h193l249 -1366h-200l-62 383h-543l-208 -383h-205zM449 545h430l-99 608zM645 1782h215l84 -307h-156z" />
<glyph unicode="&#xc1;" horiz-adv-x="1259" d="M-51 0l776 1366h193l249 -1366h-200l-62 383h-543l-208 -383h-205zM449 545h430l-99 608zM725 1475l188 307h225l-254 -307h-159z" />
<glyph unicode="&#xc2;" horiz-adv-x="1259" d="M-51 0l776 1366h193l249 -1366h-200l-62 383h-543l-208 -383h-205zM449 545h430l-99 608zM528 1475l287 307h172l156 -307h-160l-104 188l-181 -188h-170z" />
<glyph unicode="&#xc3;" horiz-adv-x="1259" d="M-51 0l776 1366h193l249 -1366h-200l-62 383h-543l-208 -383h-205zM449 545h430l-99 608zM457 1632q45 41 108.5 80t147.5 39q45 0 76.5 -14.5t60.5 -32.5t57.5 -32.5t65.5 -14.5q59 0 96 21.5t76 52.5l68 -111q-45 -41 -108.5 -80t-147.5 -39q-45 0 -77 14.5t-60.5 33 t-57.5 32.5t-66 14q-55 0 -93 -20.5t-79 -52.5z" />
<glyph unicode="&#xc4;" horiz-adv-x="1259" d="M-51 0l776 1366h193l249 -1366h-200l-62 383h-543l-208 -383h-205zM449 545h430l-99 608zM555 1528l39 201h197l-39 -201h-197zM938 1528l39 201h199l-39 -201h-199z" />
<glyph unicode="&#xc5;" horiz-adv-x="1259" d="M-51 0l756 1329q-49 33 -79 85t-30 118q0 53 19.5 98t52 77t78 50.5t98.5 18.5q51 0 97 -17.5t79 -50.5t52.5 -77t19.5 -95q0 -84 -46.5 -145.5t-117.5 -85.5l239 -1305h-200l-62 383h-543l-208 -383h-205zM449 545h430l-99 608zM727 1532q0 -53 32 -87t87 -34 q53 0 85 35t32 90q0 53 -32 86t-87 33q-53 0 -85 -34t-32 -89z" />
<glyph unicode="&#xc6;" horiz-adv-x="1869" d="M-45 0l1067 1366h930l-33 -174h-639l-78 -399h481l-32 -172h-484l-86 -445h686l-32 -176h-873l72 371h-485l-291 -371h-203zM573 530h392l129 664z" />
<glyph unicode="&#xc7;" horiz-adv-x="1316" d="M137 563q0 164 57.5 315.5t161 267.5t246.5 185.5t313 69.5q178 0 294 -77t182 -208l-148 -94q-63 109 -142 157t-204 48t-228.5 -53.5t-177 -143.5t-113.5 -206.5t-40 -243.5q0 -92 25.5 -172t73.5 -138.5t120 -92.5t164 -34q131 0 230.5 54.5t172.5 146.5l127 -125 q-100 -119 -236 -186.5t-302 -67.5q-133 0 -238.5 44t-181.5 123t-116 188.5t-40 242.5zM395 -430l39 111q31 -12 73 -20.5t79 -8.5q59 0 96 24.5t37 65.5q0 35 -26.5 48t-71.5 13q-72 0 -148 -26l35 112q33 10 76 18.5t106 8.5q82 0 134.5 -44t52.5 -110q0 -59 -24.5 -101 t-64.5 -69.5t-91.5 -40t-106.5 -12.5q-86 0 -135 13.5t-60 17.5z" />
<glyph unicode="&#xc8;" horiz-adv-x="1085" d="M78 0l264 1366h825l-32 -174h-639l-78 -399h481l-33 -172h-483l-86 -445h686l-33 -176h-872zM580 1782h215l84 -307h-156z" />
<glyph unicode="&#xc9;" horiz-adv-x="1085" d="M78 0l264 1366h825l-32 -174h-639l-78 -399h481l-33 -172h-483l-86 -445h686l-33 -176h-872zM654 1475l188 307h225l-254 -307h-159z" />
<glyph unicode="&#xca;" horiz-adv-x="1085" d="M78 0l264 1366h825l-32 -174h-639l-78 -399h481l-33 -172h-483l-86 -445h686l-33 -176h-872zM460 1475l287 307h172l156 -307h-160l-104 188l-181 -188h-170z" />
<glyph unicode="&#xcb;" horiz-adv-x="1085" d="M78 0l264 1366h825l-32 -174h-639l-78 -399h481l-33 -172h-483l-86 -445h686l-33 -176h-872zM489 1528l39 201h197l-39 -201h-197zM872 1528l39 201h199l-39 -201h-199z" />
<glyph unicode="&#xcc;" horiz-adv-x="487" d="M78 0l264 1366h188l-264 -1366h-188zM264 1782h215l84 -307h-156z" />
<glyph unicode="&#xcd;" horiz-adv-x="487" d="M78 0l264 1366h188l-264 -1366h-188zM342 1475l188 307h225l-254 -307h-159z" />
<glyph unicode="&#xce;" horiz-adv-x="487" d="M78 0l264 1366h188l-264 -1366h-188zM141 1475l287 307h172l156 -307h-160l-104 188l-181 -188h-170z" />
<glyph unicode="&#xcf;" horiz-adv-x="487" d="M78 0l264 1366h188l-264 -1366h-188zM168 1528l39 201h197l-39 -201h-197zM551 1528l39 201h199l-39 -201h-199z" />
<glyph unicode="&#xd0;" horiz-adv-x="1433" d="M76 618l30 158h142l114 590h422q141 0 255 -38t194 -109.5t123 -173t43 -230.5q0 -180 -59.5 -329.5t-169 -257t-266 -168t-353.5 -60.5h-453l119 618h-141zM319 176h261q137 0 250.5 43t195.5 123t126 193.5t44 255.5q0 186 -111.5 292.5t-347.5 106.5h-219l-82 -414 h330l-31 -158h-329z" />
<glyph unicode="&#xd1;" horiz-adv-x="1390" d="M78 0l264 1366h190l506 -1081l211 1081h185l-265 -1366h-188l-508 1083l-211 -1083h-184zM524 1632q45 41 108.5 80t147.5 39q45 0 76.5 -14.5t60.5 -32.5t57.5 -32.5t65.5 -14.5q59 0 96 21.5t76 52.5l68 -111q-45 -41 -108.5 -80t-147.5 -39q-45 0 -77 14.5t-60.5 33 t-57.5 32.5t-66 14q-55 0 -93 -20.5t-79 -52.5z" />
<glyph unicode="&#xd2;" horiz-adv-x="1521" d="M137 541q0 172 56.5 327.5t159 274.5t246 188.5t319.5 69.5q123 0 229 -40t184 -115t123 -181.5t45 -239.5q0 -168 -55 -323.5t-155.5 -274t-242 -190.5t-311.5 -72q-135 0 -244.5 43t-188.5 120t-122 182.5t-43 230.5zM338 575q0 -92 25.5 -170.5t75.5 -137t126 -91.5 t174 -33q125 0 228.5 56.5t177.5 146.5t113.5 205t39.5 231q0 92 -23.5 173t-71.5 141.5t-122.5 95.5t-177.5 35q-133 0 -238.5 -57.5t-178 -149.5t-110.5 -209t-38 -236zM793 1782h215l84 -307h-156z" />
<glyph unicode="&#xd3;" horiz-adv-x="1521" d="M137 541q0 172 56.5 327.5t159 274.5t246 188.5t319.5 69.5q123 0 229 -40t184 -115t123 -181.5t45 -239.5q0 -168 -55 -323.5t-155.5 -274t-242 -190.5t-311.5 -72q-135 0 -244.5 43t-188.5 120t-122 182.5t-43 230.5zM338 575q0 -92 25.5 -170.5t75.5 -137t126 -91.5 t174 -33q125 0 228.5 56.5t177.5 146.5t113.5 205t39.5 231q0 92 -23.5 173t-71.5 141.5t-122.5 95.5t-177.5 35q-133 0 -238.5 -57.5t-178 -149.5t-110.5 -209t-38 -236zM820 1475l188 307h225l-254 -307h-159z" />
<glyph unicode="&#xd4;" horiz-adv-x="1521" d="M137 541q0 172 56.5 327.5t159 274.5t246 188.5t319.5 69.5q123 0 229 -40t184 -115t123 -181.5t45 -239.5q0 -168 -55 -323.5t-155.5 -274t-242 -190.5t-311.5 -72q-135 0 -244.5 43t-188.5 120t-122 182.5t-43 230.5zM338 575q0 -92 25.5 -170.5t75.5 -137t126 -91.5 t174 -33q125 0 228.5 56.5t177.5 146.5t113.5 205t39.5 231q0 92 -23.5 173t-71.5 141.5t-122.5 95.5t-177.5 35q-133 0 -238.5 -57.5t-178 -149.5t-110.5 -209t-38 -236zM614 1475l287 307h172l156 -307h-160l-104 188l-181 -188h-170z" />
<glyph unicode="&#xd5;" horiz-adv-x="1521" d="M137 541q0 172 56.5 327.5t159 274.5t246 188.5t319.5 69.5q123 0 229 -40t184 -115t123 -181.5t45 -239.5q0 -168 -55 -323.5t-155.5 -274t-242 -190.5t-311.5 -72q-135 0 -244.5 43t-188.5 120t-122 182.5t-43 230.5zM338 575q0 -92 25.5 -170.5t75.5 -137t126 -91.5 t174 -33q125 0 228.5 56.5t177.5 146.5t113.5 205t39.5 231q0 92 -23.5 173t-71.5 141.5t-122.5 95.5t-177.5 35q-133 0 -238.5 -57.5t-178 -149.5t-110.5 -209t-38 -236zM580 1632q45 41 108.5 80t147.5 39q45 0 76.5 -14.5t60.5 -32.5t57.5 -32.5t65.5 -14.5q59 0 96 21.5 t76 52.5l68 -111q-45 -41 -108.5 -80t-147.5 -39q-45 0 -77 14.5t-60.5 33t-57.5 32.5t-66 14q-55 0 -93 -20.5t-79 -52.5z" />
<glyph unicode="&#xd6;" horiz-adv-x="1521" d="M137 541q0 172 56.5 327.5t159 274.5t246 188.5t319.5 69.5q123 0 229 -40t184 -115t123 -181.5t45 -239.5q0 -168 -55 -323.5t-155.5 -274t-242 -190.5t-311.5 -72q-135 0 -244.5 43t-188.5 120t-122 182.5t-43 230.5zM338 575q0 -92 25.5 -170.5t75.5 -137t126 -91.5 t174 -33q125 0 228.5 56.5t177.5 146.5t113.5 205t39.5 231q0 92 -23.5 173t-71.5 141.5t-122.5 95.5t-177.5 35q-133 0 -238.5 -57.5t-178 -149.5t-110.5 -209t-38 -236zM632 1528l39 201h197l-39 -201h-197zM1015 1528l39 201h199l-39 -201h-199z" />
<glyph unicode="&#xd7;" d="M215 408l291 256l-184 245l122 99l187 -244l284 250l95 -107l-291 -256l184 -245l-123 -99l-186 244l-285 -250z" />
<glyph unicode="&#xd8;" horiz-adv-x="1521" d="M92 -27l170 197q-59 74 -92 167t-33 204q0 172 56.5 327.5t159 274.5t245.5 188.5t320 69.5q190 0 335 -94l158 180l113 -94l-160 -183q63 -74 99 -171t36 -214q0 -168 -55 -323.5t-155.5 -274t-242 -190.5t-311.5 -72q-109 0 -200 27.5t-164 77.5l-166 -191zM338 575 q0 -143 59 -249l733 837q-92 63 -227 64q-133 0 -238.5 -57.5t-178 -149.5t-110.5 -209t-38 -236zM498 215q47 -35 107.5 -53.5t133.5 -18.5q125 0 228.5 56.5t177.5 146.5t113.5 204.5t39.5 231.5q0 78 -16 147.5t-51 127.5z" />
<glyph unicode="&#xd9;" horiz-adv-x="1323" d="M156 391q0 61 12 129l164 846h188l-155 -799q-8 -41 -12.5 -76.5t-4.5 -70.5q0 -127 64.5 -201t220.5 -74q92 0 158.5 25t112.5 75t75 125.5t49 176.5l160 819h188l-168 -866q-25 -123 -69.5 -221.5t-116.5 -168t-172 -107.5t-234 -38q-115 0 -201.5 32t-144 89t-86 135 t-28.5 170zM678 1782h215l84 -307h-156z" />
<glyph unicode="&#xda;" horiz-adv-x="1323" d="M156 391q0 61 12 129l164 846h188l-155 -799q-8 -41 -12.5 -76.5t-4.5 -70.5q0 -127 64.5 -201t220.5 -74q92 0 158.5 25t112.5 75t75 125.5t49 176.5l160 819h188l-168 -866q-25 -123 -69.5 -221.5t-116.5 -168t-172 -107.5t-234 -38q-115 0 -201.5 32t-144 89t-86 135 t-28.5 170zM740 1475l188 307h225l-254 -307h-159z" />
<glyph unicode="&#xdb;" horiz-adv-x="1323" d="M156 391q0 61 12 129l164 846h188l-155 -799q-8 -41 -12.5 -76.5t-4.5 -70.5q0 -127 64.5 -201t220.5 -74q92 0 158.5 25t112.5 75t75 125.5t49 176.5l160 819h188l-168 -866q-25 -123 -69.5 -221.5t-116.5 -168t-172 -107.5t-234 -38q-115 0 -201.5 32t-144 89t-86 135 t-28.5 170zM553 1475l287 307h172l156 -307h-160l-104 188l-181 -188h-170z" />
<glyph unicode="&#xdc;" horiz-adv-x="1323" d="M156 391q0 61 12 129l164 846h188l-155 -799q-8 -41 -12.5 -76.5t-4.5 -70.5q0 -127 64.5 -201t220.5 -74q92 0 158.5 25t112.5 75t75 125.5t49 176.5l160 819h188l-168 -866q-25 -123 -69.5 -221.5t-116.5 -168t-172 -107.5t-234 -38q-115 0 -201.5 32t-144 89t-86 135 t-28.5 170zM581 1528l39 201h197l-39 -201h-197zM964 1528l39 201h199l-39 -201h-199z" />
<glyph unicode="&#xdd;" horiz-adv-x="1134" d="M203 1366h198l228 -588l456 588h213l-600 -756l-116 -610h-191l117 608zM648 1475l188 307h225l-254 -307h-159z" />
<glyph unicode="&#xde;" horiz-adv-x="1112" d="M98 0l264 1366h181l-49 -250h219q109 0 184.5 -31.5t121.5 -82t66.5 -112t20.5 -120.5q0 -127 -44 -218t-119 -150.5t-173 -87t-207 -27.5h-229l-55 -287h-181zM367 455h227q147 0 229 71.5t82 216.5q0 92 -56 148.5t-167 56.5h-221z" />
<glyph unicode="&#xdf;" horiz-adv-x="1132" d="M51 0l189 973q43 221 152.5 323.5t301.5 102.5q63 0 121.5 -19.5t102 -53.5t69 -81t25.5 -100q0 -57 -13.5 -99t-35 -75t-49 -59.5t-58.5 -53.5q-55 -51 -100 -92t-45 -96q0 -23 7 -39.5t24.5 -29.5t48 -28.5t77.5 -35.5q111 -47 151 -116t40 -145q0 -61 -24.5 -117.5 t-69.5 -97.5t-109.5 -65.5t-146.5 -24.5q-92 0 -173 18.5t-167 84.5l96 131q37 -29 69.5 -45.5t62.5 -24.5t56.5 -9t51.5 -1q86 0 130 38t44 97q0 35 -15.5 60.5t-40 45t-55.5 34t-63 28.5q-74 31 -122 75t-48 136q0 47 16 87t41.5 74t58.5 64.5t64 59.5q47 43 84 86t37 102 q0 57 -44 94t-124 37q-117 0 -173.5 -71.5t-82.5 -208.5l-187 -963h-174z" />
<glyph unicode="&#xe0;" horiz-adv-x="980" d="M45 227q0 88 34 159t95.5 120t147.5 74.5t192 25.5q66 0 125 -5t94 -13l6 33q6 25 6 49q0 72 -47 116.5t-147 44.5q-104 0 -169 -30.5t-112 -61.5l-73 119q27 20 63.5 42t84.5 40t108.5 29.5t134.5 11.5q145 0 235 -78t90 -215q0 -43 -8 -82l-82 -418q-10 -53 -19 -103 t-13 -85h-164l16 115q-72 -74 -151.5 -108t-167.5 -34q-55 0 -105.5 17.5t-89.5 50.5t-61.5 80t-22.5 106zM221 260q0 -76 40 -108.5t126 -32.5q47 0 96 18.5t91 50t73 75.5t41 93l19 97q-29 4 -71 9t-120 5q-84 0 -141.5 -17.5t-91 -46t-48 -66.5t-14.5 -77zM446 1386h190 l58 -278h-142z" />
<glyph unicode="&#xe1;" horiz-adv-x="980" d="M45 227q0 88 34 159t95.5 120t147.5 74.5t192 25.5q66 0 125 -5t94 -13l6 33q6 25 6 49q0 72 -47 116.5t-147 44.5q-104 0 -169 -30.5t-112 -61.5l-73 119q27 20 63.5 42t84.5 40t108.5 29.5t134.5 11.5q145 0 235 -78t90 -215q0 -43 -8 -82l-82 -418q-10 -53 -19 -103 t-13 -85h-164l16 115q-72 -74 -151.5 -108t-167.5 -34q-55 0 -105.5 17.5t-89.5 50.5t-61.5 80t-22.5 106zM221 260q0 -76 40 -108.5t126 -32.5q47 0 96 18.5t91 50t73 75.5t41 93l19 97q-29 4 -71 9t-120 5q-84 0 -141.5 -17.5t-91 -46t-48 -66.5t-14.5 -77zM518 1108 l151 278h195l-201 -278h-145z" />
<glyph unicode="&#xe2;" horiz-adv-x="980" d="M45 227q0 88 34 159t95.5 120t147.5 74.5t192 25.5q66 0 125 -5t94 -13l6 33q6 25 6 49q0 72 -47 116.5t-147 44.5q-104 0 -169 -30.5t-112 -61.5l-73 119q27 20 63.5 42t84.5 40t108.5 29.5t134.5 11.5q145 0 235 -78t90 -215q0 -43 -8 -82l-82 -418q-10 -53 -19 -103 t-13 -85h-164l16 115q-72 -74 -151.5 -108t-167.5 -34q-55 0 -105.5 17.5t-89.5 50.5t-61.5 80t-22.5 106zM221 260q0 -76 40 -108.5t126 -32.5q47 0 96 18.5t91 50t73 75.5t41 93l19 97q-29 4 -71 9t-120 5q-84 0 -141.5 -17.5t-91 -46t-48 -66.5t-14.5 -77zM312 1104 l252 280h165l140 -280h-162l-78 170l-156 -170h-161z" />
<glyph unicode="&#xe3;" horiz-adv-x="980" d="M45 227q0 88 34 159t95.5 120t147.5 74.5t192 25.5q66 0 125 -5t94 -13l6 33q6 25 6 49q0 72 -47 116.5t-147 44.5q-104 0 -169 -30.5t-112 -61.5l-73 119q27 20 63.5 42t84.5 40t108.5 29.5t134.5 11.5q145 0 235 -78t90 -215q0 -43 -8 -82l-82 -418q-10 -53 -19 -103 t-13 -85h-164l16 115q-72 -74 -151.5 -108t-167.5 -34q-55 0 -105.5 17.5t-89.5 50.5t-61.5 80t-22.5 106zM221 260q0 -76 40 -108.5t126 -32.5q47 0 96 18.5t91 50t73 75.5t41 93l19 97q-29 4 -71 9t-120 5q-84 0 -141.5 -17.5t-91 -46t-48 -66.5t-14.5 -77zM256 1239 q41 39 102.5 75t139.5 36q43 0 72.5 -14.5t56.5 -31t54.5 -30.5t62.5 -14q51 0 89 21.5t72 49.5l64 -104q-41 -39 -102.5 -75t-139.5 -36q-43 0 -72.5 14.5t-56 31t-54.5 30.5t-62 14q-51 0 -87 -20.5t-75 -50.5z" />
<glyph unicode="&#xe4;" horiz-adv-x="980" d="M45 227q0 88 34 159t95.5 120t147.5 74.5t192 25.5q66 0 125 -5t94 -13l6 33q6 25 6 49q0 72 -47 116.5t-147 44.5q-104 0 -169 -30.5t-112 -61.5l-73 119q27 20 63.5 42t84.5 40t108.5 29.5t134.5 11.5q145 0 235 -78t90 -215q0 -43 -8 -82l-82 -418q-10 -53 -19 -103 t-13 -85h-164l16 115q-72 -74 -151.5 -108t-167.5 -34q-55 0 -105.5 17.5t-89.5 50.5t-61.5 80t-22.5 106zM221 260q0 -76 40 -108.5t126 -32.5q47 0 96 18.5t91 50t73 75.5t41 93l19 97q-29 4 -71 9t-120 5q-84 0 -141.5 -17.5t-91 -46t-48 -66.5t-14.5 -77zM348 1147 l37 186h186l-37 -186h-186zM686 1147l37 186h182l-37 -186h-182z" />
<glyph unicode="&#xe5;" horiz-adv-x="980" d="M45 227q0 88 34 159t95.5 120t147.5 74.5t192 25.5q66 0 125 -5t94 -13l6 33q6 25 6 49q0 72 -47 116.5t-147 44.5q-104 0 -169 -30.5t-112 -61.5l-73 119q27 20 63.5 42t84.5 40t108.5 29.5t134.5 11.5q145 0 235 -78t90 -215q0 -43 -8 -82l-82 -418q-10 -53 -19 -103 t-13 -85h-164l16 115q-72 -74 -151.5 -108t-167.5 -34q-55 0 -105.5 17.5t-89.5 50.5t-61.5 80t-22.5 106zM221 260q0 -76 40 -108.5t126 -32.5q47 0 96 18.5t91 50t73 75.5t41 93l19 97q-29 4 -71 9t-120 5q-84 0 -141.5 -17.5t-91 -46t-48 -66.5t-14.5 -77zM426 1313 q0 47 17 87t47 69.5t70 46t87 16.5q45 0 86 -16.5t70.5 -45t47 -68.5t17.5 -87t-17.5 -88t-47 -70t-69.5 -45t-85 -16t-86 16t-72 45t-48 69t-17 87zM544 1313q0 -47 30 -78t73 -31t73.5 31t30.5 78t-30.5 76.5t-73.5 29.5t-73 -29.5t-30 -76.5z" />
<glyph unicode="&#xe6;" horiz-adv-x="1646" d="M29 229q0 84 32.5 149.5t93 112t146.5 71t193 24.5q66 0 125 -5.5t94 -13.5l10 54q6 25 6 49q0 72 -47 116.5t-147 44.5q-104 0 -169 -30.5t-112 -61.5l-74 119q27 20 64 42t85 40t108.5 29.5t133.5 11.5q104 0 176 -42t111 -114q70 70 155 114t201 44q100 0 171 -31.5 t116 -86t65.5 -127t20.5 -154.5q0 -80 -18 -162h-707q-2 -10 -2 -18.5v-12.5q0 -113 63.5 -189.5t186.5 -76.5q49 0 87 6t72 21.5t65.5 38t66.5 57.5l100 -107q-76 -82 -177 -126t-241 -44q-104 0 -195 43t-157 156q-68 -82 -163 -139.5t-240 -57.5q-61 0 -116.5 17.5 t-95.5 49.5t-63.5 80t-23.5 109zM205 260q0 -76 41 -108.5t125 -32.5q47 0 97 18.5t92 50t72 75.5t40 93l14 76q-29 4 -71 9t-119 5q-84 0 -140.5 -16t-90.5 -42t-47 -59.5t-13 -68.5zM885 557h532q0 10 1 18.5t1 18.5q0 104 -53 175t-164 71q-117 0 -198.5 -75t-118.5 -208 z" />
<glyph unicode="&#xe7;" horiz-adv-x="972" d="M96 371q0 135 42 246.5t116 193.5t174 127t217 45q242 0 338 -217l-133 -74q-37 66 -87 100.5t-142 34.5q-66 0 -127.5 -30.5t-108.5 -86t-75.5 -134t-28.5 -177.5q0 -119 66.5 -195.5t172.5 -76.5q86 0 144.5 30.5t113.5 84.5l99 -111q-66 -70 -158 -115t-223 -45 q-92 0 -167 31t-126 84t-79 127t-28 158zM182 -430l39 111q31 -12 68.5 -20.5t74.5 -8.5q68 0 102.5 24.5t34.5 65.5q0 35 -24.5 48t-77.5 13q-35 0 -70 -7t-69 -19l34 112q33 10 72 18.5t103 8.5q82 0 131 -44t49 -110q0 -59 -22.5 -101t-60.5 -69.5t-89 -40t-109 -12.5 q-86 0 -131 13.5t-55 17.5z" />
<glyph unicode="&#xe8;" horiz-adv-x="1058" d="M98 375q0 125 39 236.5t109.5 193.5t167 130t213.5 48q100 0 170.5 -31.5t115.5 -86t65.5 -127t20.5 -154.5q0 -80 -18 -162h-707q-2 -10 -2 -18.5v-12.5q0 -113 62.5 -189.5t189.5 -76.5q92 0 158 29.5t131 93.5l100 -107q-68 -72 -169 -121t-232 -49q-102 0 -179 31 t-129 85t-79 128t-27 160zM297 557h532q0 10 1 18.5t1 18.5q0 104 -53 175t-164 71q-117 0 -198.5 -75t-118.5 -208zM514 1386h190l58 -278h-142z" />
<glyph unicode="&#xe9;" horiz-adv-x="1058" d="M98 375q0 125 39 236.5t109.5 193.5t167 130t213.5 48q100 0 170.5 -31.5t115.5 -86t65.5 -127t20.5 -154.5q0 -80 -18 -162h-707q-2 -10 -2 -18.5v-12.5q0 -113 62.5 -189.5t189.5 -76.5q92 0 158 29.5t131 93.5l100 -107q-68 -72 -169 -121t-232 -49q-102 0 -179 31 t-129 85t-79 128t-27 160zM297 557h532q0 10 1 18.5t1 18.5q0 104 -53 175t-164 71q-117 0 -198.5 -75t-118.5 -208zM563 1108l151 278h195l-201 -278h-145z" />
<glyph unicode="&#xea;" horiz-adv-x="1058" d="M98 375q0 125 39 236.5t109.5 193.5t167 130t213.5 48q100 0 170.5 -31.5t115.5 -86t65.5 -127t20.5 -154.5q0 -80 -18 -162h-707q-2 -10 -2 -18.5v-12.5q0 -113 62.5 -189.5t189.5 -76.5q92 0 158 29.5t131 93.5l100 -107q-68 -72 -169 -121t-232 -49q-102 0 -179 31 t-129 85t-79 128t-27 160zM297 557h532q0 10 1 18.5t1 18.5q0 104 -53 175t-164 71q-117 0 -198.5 -75t-118.5 -208zM357 1104l252 280h165l140 -280h-162l-78 170l-156 -170h-161z" />
<glyph unicode="&#xeb;" horiz-adv-x="1058" d="M98 375q0 125 39 236.5t109.5 193.5t167 130t213.5 48q100 0 170.5 -31.5t115.5 -86t65.5 -127t20.5 -154.5q0 -80 -18 -162h-707q-2 -10 -2 -18.5v-12.5q0 -113 62.5 -189.5t189.5 -76.5q92 0 158 29.5t131 93.5l100 -107q-68 -72 -169 -121t-232 -49q-102 0 -179 31 t-129 85t-79 128t-27 160zM297 557h532q0 10 1 18.5t1 18.5q0 104 -53 175t-164 71q-117 0 -198.5 -75t-118.5 -208zM393 1147l37 186h186l-37 -186h-186zM731 1147l37 186h182l-37 -186h-182z" />
<glyph unicode="&#xec;" horiz-adv-x="436" d="M57 0l185 952h178l-184 -952h-179zM199 1386h190l58 -278h-142z" />
<glyph unicode="&#xed;" horiz-adv-x="436" d="M57 0l185 952h178l-184 -952h-179zM268 1108l151 278h195l-201 -278h-145z" />
<glyph unicode="&#xee;" horiz-adv-x="436" d="M57 0l185 952h178l-184 -952h-179zM66 1104l252 280h165l140 -280h-162l-78 170l-156 -170h-161z" />
<glyph unicode="&#xef;" horiz-adv-x="436" d="M57 0l185 952h178l-184 -952h-179zM92 1147l37 186h186l-37 -186h-186zM430 1147l37 186h182l-37 -186h-182z" />
<glyph unicode="&#xf0;" horiz-adv-x="1071" d="M70 383q0 109 37.5 207t106.5 173t165 119t215 44q61 0 121.5 -16.5t120.5 -45.5q-41 193 -191 293l-125 -143l-88 71l109 125q-74 27 -164 37l35 142q68 -8 126 -22.5t109 -35.5l129 146l88 -72l-110 -127q80 -51 133 -117.5t85 -142.5t45 -157t13 -161q0 -135 -37 -266 t-108.5 -234.5t-177 -166t-242.5 -62.5q-94 0 -168 30t-124 84t-76.5 130t-26.5 168zM250 412q0 -61 12 -113.5t40 -90.5t72 -59.5t107 -21.5q59 0 122 31.5t115 99.5t87 174t39 256q-57 43 -126 62.5t-134 19.5q-76 0 -137.5 -28.5t-105.5 -77t-67.5 -114t-23.5 -138.5z " />
<glyph unicode="&#xf1;" horiz-adv-x="1069" d="M51 0l144 745q12 63 21 109.5t17 97.5h168l-22 -143q78 86 158.5 126t189.5 40q123 0 198.5 -78t75.5 -209q0 -23 -2 -53.5t-8 -63.5l-110 -571h-176l106 557q10 51 10 86q0 82 -36.5 127t-120.5 45q-66 0 -124.5 -29.5t-103.5 -79t-76.5 -116t-46.5 -139.5l-86 -451 h-176zM348 1239q41 39 102.5 75t139.5 36q43 0 72.5 -14.5t56.5 -31t54.5 -30.5t62.5 -14q51 0 89 21.5t72 49.5l64 -104q-41 -39 -102.5 -75t-139.5 -36q-43 0 -72.5 14.5t-56 31t-54.5 30.5t-62 14q-51 0 -87 -20.5t-75 -50.5z" />
<glyph unicode="&#xf2;" horiz-adv-x="1124" d="M96 383q0 121 43 230.5t119 191.5t176 130t217 48q94 0 170 -28.5t130.5 -83t84 -131t29.5 -171.5q0 -125 -42 -234.5t-115.5 -190.5t-176 -127t-225.5 -46q-92 0 -167 30t-129 84t-84 130t-30 168zM276 412q0 -125 59.5 -205t186.5 -80q68 0 132.5 30.5t115.5 85 t83 131.5t32 169q0 133 -61.5 208.5t-192.5 75.5q-66 0 -129.5 -31.5t-113.5 -87t-81 -132t-31 -164.5zM537 1386h190l58 -278h-142z" />
<glyph unicode="&#xf3;" horiz-adv-x="1124" d="M96 383q0 121 43 230.5t119 191.5t176 130t217 48q94 0 170 -28.5t130.5 -83t84 -131t29.5 -171.5q0 -125 -42 -234.5t-115.5 -190.5t-176 -127t-225.5 -46q-92 0 -167 30t-129 84t-84 130t-30 168zM276 412q0 -125 59.5 -205t186.5 -80q68 0 132.5 30.5t115.5 85 t83 131.5t32 169q0 133 -61.5 208.5t-192.5 75.5q-66 0 -129.5 -31.5t-113.5 -87t-81 -132t-31 -164.5zM606 1108l151 278h195l-201 -278h-145z" />
<glyph unicode="&#xf4;" horiz-adv-x="1124" d="M96 383q0 121 43 230.5t119 191.5t176 130t217 48q94 0 170 -28.5t130.5 -83t84 -131t29.5 -171.5q0 -125 -42 -234.5t-115.5 -190.5t-176 -127t-225.5 -46q-92 0 -167 30t-129 84t-84 130t-30 168zM276 412q0 -125 59.5 -205t186.5 -80q68 0 132.5 30.5t115.5 85 t83 131.5t32 169q0 133 -61.5 208.5t-192.5 75.5q-66 0 -129.5 -31.5t-113.5 -87t-81 -132t-31 -164.5zM392 1104l252 280h165l140 -280h-162l-78 170l-156 -170h-161z" />
<glyph unicode="&#xf5;" horiz-adv-x="1124" d="M96 383q0 121 43 230.5t119 191.5t176 130t217 48q94 0 170 -28.5t130.5 -83t84 -131t29.5 -171.5q0 -125 -42 -234.5t-115.5 -190.5t-176 -127t-225.5 -46q-92 0 -167 30t-129 84t-84 130t-30 168zM276 412q0 -125 59.5 -205t186.5 -80q68 0 132.5 30.5t115.5 85 t83 131.5t32 169q0 133 -61.5 208.5t-192.5 75.5q-66 0 -129.5 -31.5t-113.5 -87t-81 -132t-31 -164.5zM346 1239q41 39 102.5 75t139.5 36q43 0 72.5 -14.5t56.5 -31t54.5 -30.5t62.5 -14q51 0 89 21.5t72 49.5l64 -104q-41 -39 -102.5 -75t-139.5 -36q-43 0 -72.5 14.5 t-56 31t-54.5 30.5t-62 14q-51 0 -87 -20.5t-75 -50.5z" />
<glyph unicode="&#xf6;" horiz-adv-x="1124" d="M96 383q0 121 43 230.5t119 191.5t176 130t217 48q94 0 170 -28.5t130.5 -83t84 -131t29.5 -171.5q0 -125 -42 -234.5t-115.5 -190.5t-176 -127t-225.5 -46q-92 0 -167 30t-129 84t-84 130t-30 168zM276 412q0 -125 59.5 -205t186.5 -80q68 0 132.5 30.5t115.5 85 t83 131.5t32 169q0 133 -61.5 208.5t-192.5 75.5q-66 0 -129.5 -31.5t-113.5 -87t-81 -132t-31 -164.5zM424 1147l37 186h186l-37 -186h-186zM762 1147l37 186h182l-37 -186h-182z" />
<glyph unicode="&#xf7;" d="M186 580l31 155h801l-31 -155h-801zM438 254l33 174h174l-33 -174h-174zM561 889l33 172h174l-33 -172h-174z" />
<glyph unicode="&#xf8;" horiz-adv-x="1124" d="M59 -33l125 146q-88 106 -88 270q0 121 43 230.5t119 191.5t176 130t217 48q137 0 236 -61l125 145l94 -76l-129 -149q41 -53 64.5 -121t23.5 -152q0 -125 -42 -234.5t-115.5 -190.5t-176 -127t-225.5 -46q-66 0 -125 16.5t-107 45.5l-120 -142zM276 412q0 -94 31 -158 l467 539q-59 34 -143 34q-66 0 -129.5 -31.5t-113.5 -87t-81 -132t-31 -164.5zM387 162q53 -35 135 -35q68 0 132.5 30.5t115.5 85t83 131.5t32 169t-31 157z" />
<glyph unicode="&#xf9;" horiz-adv-x="1058" d="M96 264q0 23 2 53.5t8 63.5l111 571h176l-106 -557q-10 -51 -11 -86q0 -82 36 -127t120 -45q66 0 123 30t103.5 79t77 115.5t44.5 140.5l86 450h176l-143 -745q-12 -63 -21.5 -109.5t-17.5 -97.5h-168l23 143q-78 -86 -158 -126t-188 -40q-123 0 -198 78t-75 209z M479 1386h190l58 -278h-142z" />
<glyph unicode="&#xfa;" horiz-adv-x="1058" d="M96 264q0 23 2 53.5t8 63.5l111 571h176l-106 -557q-10 -51 -11 -86q0 -82 36 -127t120 -45q66 0 123 30t103.5 79t77 115.5t44.5 140.5l86 450h176l-143 -745q-12 -63 -21.5 -109.5t-17.5 -97.5h-168l23 143q-78 -86 -158 -126t-188 -40q-123 0 -198 78t-75 209z M551 1108l151 278h195l-201 -278h-145z" />
<glyph unicode="&#xfb;" horiz-adv-x="1058" d="M96 264q0 23 2 53.5t8 63.5l111 571h176l-106 -557q-10 -51 -11 -86q0 -82 36 -127t120 -45q66 0 123 30t103.5 79t77 115.5t44.5 140.5l86 450h176l-143 -745q-12 -63 -21.5 -109.5t-17.5 -97.5h-168l23 143q-78 -86 -158 -126t-188 -40q-123 0 -198 78t-75 209z M367 1104l252 280h165l140 -280h-162l-78 170l-156 -170h-161z" />
<glyph unicode="&#xfc;" horiz-adv-x="1058" d="M96 264q0 23 2 53.5t8 63.5l111 571h176l-106 -557q-10 -51 -11 -86q0 -82 36 -127t120 -45q66 0 123 30t103.5 79t77 115.5t44.5 140.5l86 450h176l-143 -745q-12 -63 -21.5 -109.5t-17.5 -97.5h-168l23 143q-78 -86 -158 -126t-188 -40q-123 0 -198 78t-75 209z M393 1147l37 186h186l-37 -186h-186zM731 1147l37 186h182l-37 -186h-182z" />
<glyph unicode="&#xfd;" horiz-adv-x="987" d="M-98 -371l67 127q23 -16 48.5 -28.5t66.5 -12.5q31 0 55.5 12.5t49 41t52 73.5t64.5 111l35 61l-223 938h196l154 -719l399 719h199l-619 -1058q-45 -76 -84.5 -136.5t-80.5 -103.5t-87.5 -66.5t-101.5 -23.5t-102 13t-88 52zM502 1108l151 278h195l-201 -278h-145z" />
<glyph unicode="&#xfe;" horiz-adv-x="1107" d="M-29 -410l344 1778h172l-108 -559q18 18 46 47t69 54.5t97 45t132 19.5t136.5 -30t103.5 -80t65.5 -114.5t22.5 -134.5q0 -168 -52.5 -289.5t-133.5 -200.5t-181.5 -117t-196.5 -38q-80 0 -135 18.5t-119 57.5l-88 -457h-174zM266 207q43 -39 96 -59.5t123 -20.5 q115 0 196 56.5t128 148.5q23 47 40 110.5t17 132.5q0 113 -44 177.5t-148 64.5q-66 0 -125.5 -26.5t-107.5 -75.5t-81.5 -117t-48.5 -149z" />
<glyph unicode="&#xff;" horiz-adv-x="987" d="M-98 -371l67 127q23 -16 48.5 -28.5t66.5 -12.5q31 0 55.5 12.5t49 41t52 73.5t64.5 111l35 61l-223 938h196l154 -719l399 719h199l-619 -1058q-45 -76 -84.5 -136.5t-80.5 -103.5t-87.5 -66.5t-101.5 -23.5t-102 13t-88 52zM344 1147l37 186h186l-37 -186h-186z M682 1147l37 186h182l-37 -186h-182z" />
<glyph unicode="&#x152;" horiz-adv-x="2162" d="M137 541q0 172 56.5 327.5t159 274.5t245.5 188.5t320 69.5q166 0 277.5 -67.5t184.5 -184.5l43 217h822l-33 -174h-639l-78 -399h481l-32 -172h-482l-12 -56l-76 -389h686l-32 -176h-869l31 160q-88 -82 -203 -138.5t-252 -56.5q-135 0 -244.5 43t-188.5 120t-122 182.5 t-43 230.5zM338 575q0 -92 25.5 -170.5t75.5 -137t126 -91.5t174 -33q125 0 228.5 56.5t177.5 146.5t113.5 205t39.5 231q0 92 -23.5 173t-71.5 141.5t-122.5 95.5t-177.5 35q-133 0 -238.5 -57.5t-178 -149.5t-110.5 -209t-38 -236z" />
<glyph unicode="&#x153;" horiz-adv-x="1830" d="M96 383q0 121 43 230.5t119 191.5t176.5 130t216.5 48q129 0 212 -55.5t138 -157.5q86 104 177.5 158.5t220.5 54.5q100 0 170.5 -31.5t116 -86t66 -127t20.5 -154.5q0 -80 -19 -162h-704q-4 -12 -5 -19v-12q0 -113 63.5 -189.5t186.5 -76.5q49 0 87 6t72 21.5t65.5 38 t66.5 57.5l101 -107q-76 -82 -177.5 -126t-240.5 -44q-133 0 -215 56.5t-135 158.5q-78 -104 -186.5 -159.5t-225.5 -55.5q-92 0 -167 30t-129 84t-84 130t-30 168zM276 412q0 -125 59.5 -205t186.5 -80q68 0 132.5 30.5t115.5 85t83 131.5t32 169q0 133 -61.5 208.5 t-192.5 75.5q-66 0 -129.5 -31.5t-113.5 -87t-81 -132t-31 -164.5zM1069 557h533q0 10 1 18.5t1 18.5q0 104 -53.5 175t-164.5 71q-117 0 -198.5 -75t-118.5 -208z" />
<glyph unicode="&#x178;" horiz-adv-x="1134" d="M203 1366h198l228 -588l456 588h213l-600 -756l-116 -610h-191l117 608zM469 1528l39 201h197l-39 -201h-197zM852 1528l39 201h199l-39 -201h-199z" />
<glyph unicode="&#x2c6;" horiz-adv-x="806" d="M283 1104l252 280h165l140 -280h-162l-78 170l-156 -170h-161z" />
<glyph unicode="&#x2dc;" horiz-adv-x="821" d="M225 1239q41 39 102.5 75t139.5 36q43 0 72.5 -14.5t56.5 -31t54.5 -30.5t62.5 -14q51 0 89 21.5t72 49.5l64 -104q-41 -39 -102.5 -75t-139.5 -36q-43 0 -72.5 14.5t-56 31t-54.5 30.5t-62 14q-51 0 -87 -20.5t-75 -50.5z" />
<glyph unicode="&#x2000;" horiz-adv-x="891" />
<glyph unicode="&#x2001;" horiz-adv-x="1782" />
<glyph unicode="&#x2002;" horiz-adv-x="891" />
<glyph unicode="&#x2003;" horiz-adv-x="1782" />
<glyph unicode="&#x2004;" horiz-adv-x="594" />
<glyph unicode="&#x2005;" horiz-adv-x="445" />
<glyph unicode="&#x2006;" horiz-adv-x="297" />
<glyph unicode="&#x2007;" horiz-adv-x="297" />
<glyph unicode="&#x2008;" horiz-adv-x="222" />
<glyph unicode="&#x2009;" horiz-adv-x="356" />
<glyph unicode="&#x200a;" horiz-adv-x="99" />
<glyph unicode="&#x2010;" horiz-adv-x="862" d="M166 487l33 172h575l-33 -172h-575z" />
<glyph unicode="&#x2011;" horiz-adv-x="862" d="M166 487l33 172h575l-33 -172h-575z" />
<glyph unicode="&#x2012;" horiz-adv-x="862" d="M166 487l33 172h575l-33 -172h-575z" />
<glyph unicode="&#x2013;" horiz-adv-x="1024" d="M-14 485l32 177h1024l-32 -177h-1024z" />
<glyph unicode="&#x2014;" horiz-adv-x="2048" d="M-14 485l32 177h2048l-32 -177h-2048z" />
<glyph unicode="&#x2018;" horiz-adv-x="468" d="M225 958l176 406h138l-113 -406h-201z" />
<glyph unicode="&#x2019;" horiz-adv-x="468" d="M246 958l112 406h199l-174 -406h-137z" />
<glyph unicode="&#x201a;" horiz-adv-x="487" d="M37 -174l110 403h199l-172 -403h-137z" />
<glyph unicode="&#x201c;" horiz-adv-x="802" d="M225 958l176 406h138l-113 -406h-201zM559 958l176 406h138l-113 -406h-201z" />
<glyph unicode="&#x201d;" horiz-adv-x="802" d="M246 958l112 406h199l-174 -406h-137zM580 958l112 406h199l-174 -406h-137z" />
<glyph unicode="&#x201e;" horiz-adv-x="821" d="M37 -174l110 403h199l-172 -403h-137zM371 -174l110 403h199l-172 -403h-137z" />
<glyph unicode="&#x2022;" horiz-adv-x="786" d="M203 666q0 51 20.5 97t54 80t79.5 53t98 19q51 0 97 -19t80 -53t53.5 -80t19.5 -97t-19.5 -97.5t-53.5 -80t-80 -54t-97 -20.5t-97.5 20.5t-80 54t-54 80t-20.5 97.5z" />
<glyph unicode="&#x2026;" horiz-adv-x="1392" d="M66 -2l45 229h223l-45 -229h-223zM510 -2l45 229h223l-45 -229h-223zM955 -2l45 229h223l-45 -229h-223z" />
<glyph unicode="&#x202f;" horiz-adv-x="356" />
<glyph unicode="&#x2039;" horiz-adv-x="638" d="M178 498l268 385h175l-267 -391l119 -400h-164z" />
<glyph unicode="&#x203a;" horiz-adv-x="638" d="M57 92l267 391l-119 400h164l131 -406l-269 -385h-174z" />
<glyph unicode="&#x205f;" horiz-adv-x="445" />
<glyph unicode="&#x20ac;" d="M86 436l41 123h121q2 47 7 92t13 88h-123l41 123h115q35 102 91.5 188.5t129 148t160.5 95t188 33.5q115 0 201 -47t146 -152l-125 -88q-49 72 -103.5 98.5t-136.5 26.5q-123 0 -217 -80.5t-148 -222.5h459l-41 -123h-452q-8 -43 -13.5 -88t-5.5 -92h453l-41 -123h-408 q16 -141 80 -220t180 -79q86 0 144.5 30t113.5 83l97 -115q-68 -72 -158 -115t-207 -43q-184 0 -301 116t-137 343h-164z" />
<glyph unicode="&#x2122;" horiz-adv-x="1744" d="M209 1235l27 131h682l-27 -131h-266l-125 -653h-150l125 653h-266zM874 582l170 784h138l141 -393l305 393h146l-127 -784h-140l97 571l-289 -365h-58l-131 347l-122 -553h-130z" />
<glyph unicode="&#x25fc;" horiz-adv-x="952" d="M0 0v952h952v-952h-952z" />
</font>
</defs>
</svg>
