<?xml version="1.0" standalone="no"?>
<!DOCTYPE svg PUBLIC "-//W3C//DTD SVG 1.1//EN" "http://www.w3.org/Graphics/SVG/1.1/DTD/svg11.dtd" >
<svg xmlns="http://www.w3.org/2000/svg">
<metadata></metadata>
<defs>
<font id="effralight" horiz-adv-x="1116" >
<font-face units-per-em="2048" ascent="1638" descent="-410" />
<missing-glyph horiz-adv-x="370" />
<glyph unicode="&#xfb01;" horiz-adv-x="1048" d="M31 856v86h188v90q0 174 97.5 270.5t267.5 96.5q96 0 168.5 -31t119.5 -78l-59 -65q-51 43 -99 68.5t-128 25.5q-55 0 -105.5 -13.5t-87.5 -46t-59.5 -90t-22.5 -143.5v-84h592v-942h-92v856h-500v-856h-92v856h-188z" />
<glyph unicode="&#xfb02;" horiz-adv-x="1071" d="M31 856v86h188v74q0 180 95.5 281.5t306.5 101.5q84 0 166.5 -20.5t142.5 -65.5v-1313h-92v1270q-47 27 -97.5 38t-117.5 11q-166 0 -239 -70.5t-73 -238.5v-68h312v-86h-312v-856h-92v856h-188z" />
<glyph unicode="&#xfb03;" horiz-adv-x="1665" d="M31 856v86h188v90q0 174 74 270.5t215 96.5q92 0 153.5 -31t102.5 -78l-59 -57q-43 43 -86.5 62.5t-100.5 19.5q-45 0 -83 -12.5t-65.5 -45t-43 -89t-15.5 -142.5v-84h525v90q0 174 97 270.5t267 96.5q96 0 169 -31t120 -78l-59 -65q-51 43 -99.5 68.5t-128.5 25.5 q-55 0 -105 -13.5t-87 -46t-59.5 -90t-22.5 -143.5v-84h592v-942h-93v856h-499v-856h-92v856h-525v-856h-92v856h-188z" />
<glyph unicode="&#xfb04;" horiz-adv-x="1687" d="M31 856v86h188v90q0 174 74 270.5t215 96.5q92 0 153.5 -31t102.5 -78l-59 -57q-43 43 -86.5 62.5t-100.5 19.5q-45 0 -83 -12.5t-65.5 -45t-43 -89t-15.5 -142.5v-84h525v74q0 180 95 281.5t306 101.5q84 0 167 -20.5t142 -65.5v-1313h-92v1270q-47 27 -97 38t-118 11 q-166 0 -238.5 -70.5t-72.5 -238.5v-68h311v-86h-311v-856h-92v856h-525v-856h-92v856h-188z" />
<glyph unicode="&#xd;" horiz-adv-x="370" />
<glyph horiz-adv-x="0" />
<glyph horiz-adv-x="0" />
<glyph unicode=" "  horiz-adv-x="370" />
<glyph unicode="&#x09;" horiz-adv-x="370" />
<glyph unicode="&#xa0;" horiz-adv-x="370" />
<glyph unicode="!" horiz-adv-x="458" d="M164 0v133h129v-133h-129zM176 1366h107l-9 -1026h-90z" />
<glyph unicode="&#x22;" horiz-adv-x="669" d="M168 948v418h92v-418h-92zM434 948v418h92v-418h-92z" />
<glyph unicode="#" horiz-adv-x="1576" d="M125 381v78h348l92 352h-317v78h340l102 383h88l-102 -383h387l102 383h88l-102 -383h301v-78h-324l-92 -352h293v-78h-315l-103 -381h-88l103 381h-387l-103 -381h-88l103 381h-326zM561 459h387l92 352h-387z" />
<glyph unicode="$" d="M121 172l69 68q63 -78 145.5 -127.5t215.5 -53.5v584q-27 6 -47 14q-92 27 -154.5 59t-99.5 72.5t-53.5 92t-16.5 118.5q0 63 23.5 121t69.5 101t116 70.5t162 31.5v170h84v-170q70 -6 122 -24.5t91 -44t66.5 -55.5t46.5 -56l-66 -58q-16 20 -38.5 44t-53.5 45.5t-72 37 t-96 21.5v-514q74 -23 141.5 -53.5t117.5 -75.5t81 -109.5t31 -156.5q0 -76 -27 -137.5t-76 -106.5t-117.5 -72.5t-150.5 -36.5v-159h-84v155q-88 2 -156.5 21.5t-121 48.5t-89.5 64.5t-63 70.5zM276 1010q0 -49 9.5 -87t38 -69t83 -58.5t144.5 -56.5v494q-74 -4 -126 -23.5 t-85 -50.5t-48.5 -69.5t-15.5 -79.5zM635 61q141 14 206.5 82t65.5 187q0 55 -14 97t-46 76t-84 61.5t-128 53.5v-557z" />
<glyph unicode="%" horiz-adv-x="1720" d="M84 961q0 178 86 272t219 94q68 0 124.5 -23.5t97 -70.5t63.5 -115.5t23 -156.5q0 -178 -86.5 -274.5t-221.5 -96.5q-133 0 -219 96t-86 275zM178 961q0 -82 18.5 -137.5t49.5 -90.5t68.5 -50t74.5 -15q39 0 77 15t68.5 50t49 90.5t18.5 137.5t-18.5 137t-49 89t-68.5 48 t-77 14q-37 0 -74.5 -14t-68.5 -48t-49.5 -89.5t-18.5 -136.5zM391 0l831 1290h105l-832 -1290h-104zM1024 365q0 178 86 272t219 94q68 0 124.5 -23.5t97 -70.5t63.5 -115.5t23 -156.5q0 -178 -86.5 -274.5t-221.5 -96.5q-133 0 -219 96t-86 275zM1118 365 q0 -82 18.5 -137.5t49.5 -90.5t68.5 -50t74.5 -15q39 0 77 15t68.5 50t49 90.5t18.5 137.5t-18.5 137t-49 89t-68.5 48t-77 14q-37 0 -74.5 -14t-68.5 -48t-49.5 -89.5t-18.5 -136.5z" />
<glyph unicode="&#x26;" horiz-adv-x="1292" d="M113 330q0 147 84 251.5t217 188.5l-58 72q-45 55 -74.5 121.5t-29.5 146.5q0 53 21.5 105.5t61.5 93.5t99.5 65.5t136.5 24.5q125 0 199 -52.5t127 -166.5l-72 -43q-53 106 -112.5 141t-137.5 35q-55 0 -97 -17.5t-69.5 -45t-42 -64.5t-14.5 -74q0 -70 35 -135.5 t107 -147.5l446 -495l182 246l74 -54l-195 -260l240 -266h-123l-176 190q-39 -45 -82 -84.5t-95 -70.5t-113.5 -49.5t-135.5 -18.5q-94 0 -169 28t-127 77t-79.5 115.5t-27.5 142.5zM219 334q0 -57 20.5 -107.5t59.5 -87.5t95.5 -58.5t127.5 -21.5q61 0 113.5 16.5t95.5 44 t80 63.5t70 75l-406 444q-127 -78 -191.5 -160.5t-64.5 -207.5z" />
<glyph unicode="'" horiz-adv-x="362" d="M135 948v418h92v-418h-92z" />
<glyph unicode="(" horiz-adv-x="573" d="M145 629q0 150 25 279.5t60.5 235t74.5 182.5t68 120h88q-31 -61 -68 -138t-67.5 -176.5t-52 -223.5t-21.5 -279q0 -156 21.5 -280t52 -224t67.5 -177t68 -138h-88q-29 43 -68 119.5t-74.5 183t-60.5 236.5t-25 280z" />
<glyph unicode=")" horiz-adv-x="573" d="M113 -190q31 61 67.5 138t67.5 177t52.5 224t21.5 280t-21.5 279.5t-52.5 223t-68 176t-67 138.5h88q29 -43 67.5 -120t74.5 -182.5t60.5 -235.5t24.5 -279q0 -150 -24.5 -280t-60.5 -236.5t-75 -183t-67 -119.5h-88z" />
<glyph unicode="*" horiz-adv-x="1028" d="M145 897l306 164l-306 164l43 75l295 -184l-12 346h86l-12 -346l295 184l43 -75l-305 -164l305 -164l-43 -76l-295 185l12 -347h-86l12 347l-295 -185z" />
<glyph unicode="+" d="M147 610v92h365v355h92v-355h365v-92h-361v-356h-94v356h-367z" />
<glyph unicode="," horiz-adv-x="446" d="M139 -160l66 160h-49v141h135v-141l-90 -160h-62z" />
<glyph unicode="-" horiz-adv-x="894" d="M166 530v93h563v-93h-563z" />
<glyph unicode="." horiz-adv-x="448" d="M154 -4v143h139v-143h-139z" />
<glyph unicode="/" horiz-adv-x="768" d="M61 -33l545 1436h101l-545 -1436h-101z" />
<glyph unicode="0" d="M84 655q0 158 33 283t93 211t148 132t199 46t199 -46t148.5 -132t93 -211t32.5 -283t-32.5 -283.5t-93 -213.5t-148.5 -135.5t-199 -47.5t-199 47.5t-148 135.5t-93 214t-33 283zM188 655q0 -279 95.5 -432t271.5 -153q180 0 275.5 153.5t95.5 431.5q0 279 -95.5 429.5 t-275.5 150.5q-176 0 -271.5 -150.5t-95.5 -429.5z" />
<glyph unicode="1" d="M229 1118l336 189h99v-1217h243v-90h-585v90h243v1114l-295 -160z" />
<glyph unicode="2" d="M160 0v90q0 109 62.5 194t152.5 160q35 31 72.5 61t74.5 60q63 51 119.5 102.5t98.5 103.5t66.5 107.5t24.5 116.5q0 49 -16 92t-50 76t-85 52.5t-121 19.5t-120 -16.5t-87 -41t-63.5 -54t-46.5 -56.5l-74 51q18 31 50 67t79 67.5t111.5 53t148.5 21.5q94 0 166 -26.5 t120 -71.5t71.5 -105.5t23.5 -130.5q0 -80 -27.5 -145.5t-73.5 -121.5t-104.5 -107.5t-122.5 -102.5q-53 -43 -98 -79t-84 -70q-78 -68 -119 -130.5t-41 -144.5h690v-92h-798z" />
<glyph unicode="3" d="M115 102l61 78q20 -16 48 -36.5t68 -39t92 -32t124 -13.5q158 0 248 84t90 230q0 78 -23.5 133t-64.5 90t-95.5 51.5t-117.5 16.5q-49 0 -81 -7.5t-67 -17.5l-39 68l416 497h-567v90h692v-88l-401 -465q16 4 33.5 6.5t33.5 2.5q82 0 152.5 -26t121 -74t79 -117.5 t28.5 -159.5q0 -102 -34.5 -178t-96 -127.5t-142.5 -76t-173 -24.5q-84 0 -146.5 15.5t-108.5 37t-78 44t-52 38.5z" />
<glyph unicode="4" d="M127 299v90l623 905h102v-905h149v-90h-149v-299h-96v299h-629zM229 389h527v764z" />
<glyph unicode="5" d="M121 98l59 78q57 -43 134 -80t186 -37q80 0 144.5 23.5t109.5 65.5t69.5 100.5t24.5 130.5q0 53 -13.5 108.5t-47 101.5t-92 75.5t-150.5 29.5q-102 0 -165 -23.5t-112 -54.5l-49 37l109 641h575v-92h-502l-75 -471q33 16 89 35.5t142 19.5t158.5 -23.5t126 -73.5 t83 -127t29.5 -183q0 -86 -30.5 -162t-89 -131t-143.5 -87t-193 -32q-133 0 -224.5 41t-152.5 90z" />
<glyph unicode="6" d="M154 563q0 377 136 568.5t386 191.5q92 0 158.5 -29.5t97.5 -56.5l-51 -76q-29 23 -82.5 46.5t-130.5 23.5q-106 0 -182 -45t-125.5 -121t-75 -175t-31.5 -206q23 20 55.5 42t75.5 40t97.5 29.5t119.5 11.5q193 0 292 -110.5t99 -315.5q0 -106 -36.5 -184t-95 -129.5 t-129 -76t-138.5 -24.5q-119 0 -203 42t-136 120t-76.5 187.5t-24.5 246.5zM252 510q0 -86 17.5 -167t57.5 -144.5t103.5 -101.5t157.5 -38q51 0 105.5 19.5t98.5 58.5t73.5 99.5t29.5 142.5q0 68 -12.5 128t-46 105t-94 72t-156.5 27q-104 0 -186.5 -35t-145.5 -101 q-2 -10 -2 -26.5v-38.5z" />
<glyph unicode="7" d="M156 1202v92h809v-90q-33 -55 -79 -143t-97.5 -193.5t-104.5 -222.5t-101 -231.5t-89 -222t-66 -191.5h-111q53 158 125 333t146 340t143.5 304t120.5 225h-696z" />
<glyph unicode="8" d="M117 319q0 76 31.5 135.5t78.5 104.5t103.5 76.5t105.5 54.5q-55 27 -101 55.5t-80 65.5t-52.5 85t-18.5 114q0 68 24.5 126t72 100t117 66.5t159.5 24.5t159.5 -24.5t117 -65.5t72 -95.5t24.5 -115.5q0 -47 -13.5 -94t-44 -90t-82 -81t-124.5 -69q6 -2 58 -22.5 t113.5 -64.5t110.5 -114.5t49 -171.5q0 -61 -23.5 -123.5t-76.5 -113.5t-137 -83t-203 -32q-121 0 -204 32t-136 83t-76.5 113.5t-23.5 123.5zM221 326q0 -74 31 -124t79 -83t107.5 -47.5t118.5 -14.5t118.5 14.5t107.5 47.5t78 83t30 124q0 55 -28.5 104t-78 89 t-111.5 71.5t-130 54.5q-68 -23 -126.5 -54.5t-102.5 -71.5t-68.5 -89t-24.5 -104zM283 1010q0 -187 274 -275q129 45 201.5 112.5t72.5 178.5q0 92 -71.5 151.5t-202.5 59.5t-202.5 -61.5t-71.5 -165.5z" />
<glyph unicode="9" d="M113 913q0 106 36.5 184.5t95 129.5t129 75.5t138.5 24.5q119 0 203 -42t136 -120t76.5 -187.5t24.5 -246.5q0 -377 -136 -568.5t-386 -191.5q-92 0 -158.5 30t-97.5 56l51 76q29 -23 82 -46.5t131 -23.5q106 0 182 45.5t125.5 121t75 174t31.5 206.5 q-23 -20 -55.5 -41.5t-75.5 -40t-97.5 -30t-119.5 -11.5q-193 0 -292 111t-99 315zM211 915q0 -68 12.5 -128t46 -105t94 -71.5t156.5 -26.5q104 0 186.5 34.5t145.5 100.5q2 10 2 26.5v38.5q0 86 -17.5 167t-57.5 144.5t-103.5 101.5t-157.5 38q-51 0 -105.5 -19.5 t-98.5 -58.5t-73.5 -99.5t-29.5 -142.5z" />
<glyph unicode=":" horiz-adv-x="448" d="M166 -4v143h139v-143h-139zM166 803v143h139v-143h-139z" />
<glyph unicode=";" horiz-adv-x="448" d="M151 -160l66 160h-49v141h135v-141l-90 -160h-62zM166 803v143h139v-143h-139z" />
<glyph unicode="&#x3c;" d="M150 616v78l776 389l43 -84l-695 -344l695 -344l-41 -84z" />
<glyph unicode="=" d="M147 424v92h822v-92h-822zM147 778v92h822v-92h-822z" />
<glyph unicode="&#x3e;" d="M147 311l695 344l-695 344l41 84l779 -389v-78l-777 -389z" />
<glyph unicode="?" horiz-adv-x="1015" d="M90 1204q63 78 167.5 136.5t246.5 58.5q100 0 178 -24.5t130 -67.5t80 -102.5t28 -129.5q0 -63 -18.5 -111.5t-51.5 -90.5t-80 -79.5t-102 -78.5q-37 -27 -70 -55.5t-57.5 -64.5t-39 -81t-14.5 -106v-68h-90v78q0 78 20.5 135t54.5 100t76 77t85 65q37 27 69.5 54.5 t59 61t42 75.5t15.5 95q0 109 -89 167.5t-226 58.5q-115 0 -197 -41t-151 -125zM379 0v133h129v-133h-129z" />
<glyph unicode="@" horiz-adv-x="1953" d="M115 594q0 203 70.5 353.5t189.5 251.5t275.5 151.5t328.5 50.5q188 0 347 -51.5t273.5 -151.5t179 -247.5t64.5 -340.5q0 -186 -35.5 -310t-90 -197.5t-120 -104.5t-127.5 -31q-31 0 -65.5 6.5t-67 24.5t-58.5 52t-36 87q-37 -49 -82 -80.5t-90 -51t-87 -27t-75 -7.5 q-66 0 -128 14.5t-109 48.5t-76 89t-29 135q0 68 23.5 128t73 105.5t128 72t189.5 26.5q82 0 148.5 -6t113.5 -13v54q0 141 -73.5 195t-215.5 54q-109 0 -175 -34.5t-103 -65.5l-55 72q20 18 53 39.5t77 40t97 31t113 12.5q182 0 280 -75t100 -255v-430q0 -49 10.5 -79 t29 -47t43 -23.5t53.5 -6.5q49 0 96 29t84 95.5t60.5 173t23.5 259.5q0 174 -57.5 305.5t-160 219.5t-241.5 132t-303 44q-137 0 -272.5 -38t-244 -123t-176 -222t-67.5 -334q0 -115 23.5 -203t57.5 -154.5t74 -113.5t72 -80l-67 -63q-45 39 -92 99t-85 138t-62.5 173 t-24.5 204zM676 258q0 -92 61.5 -142t171.5 -50q66 0 126.5 21.5t107.5 57t74.5 83.5t27.5 102v151q-51 8 -109.5 14.5t-156.5 6.5q-109 0 -169 -25.5t-90 -63.5t-37 -80t-7 -75z" />
<glyph unicode="A" horiz-adv-x="1298" d="M41 0l559 1366h98l559 -1366h-112l-178 440h-643l-177 -440h-106zM360 532h570l-285 709z" />
<glyph unicode="B" horiz-adv-x="1189" d="M176 0v1366h453q100 0 171.5 -27.5t117 -73.5t66 -106.5t20.5 -128.5q0 -57 -18.5 -108.5t-50.5 -93.5t-77 -70.5t-100 -38.5q53 -8 110.5 -28.5t104.5 -60.5t77.5 -103.5t30.5 -157.5q0 -111 -41 -181.5t-111.5 -112.5t-163.5 -58.5t-198 -16.5h-391zM274 92h269 q78 0 155.5 7t140 35t101.5 83t39 152q0 92 -38 150.5t-96.5 90t-130 44t-139.5 12.5h-301v-574zM274 758h299q55 0 113.5 14t106 47t78 83t30.5 122q0 82 -29.5 131t-76.5 75.5t-105.5 35t-116.5 8.5h-299v-516z" />
<glyph unicode="C" horiz-adv-x="1376" d="M115 684q0 150 47 280t134 227t209 152.5t269 55.5q121 0 209 -33t148.5 -77t94.5 -87t46 -63l-74 -52q-12 16 -40 52.5t-78 73t-123.5 65.5t-178.5 29q-131 0 -234.5 -48.5t-175 -132.5t-109.5 -197.5t-38 -244.5t39 -244.5t110.5 -198.5t176 -133.5t237.5 -48.5 q96 0 169 29t123 65.5t80 72.5t42 53l74 -52q-12 -20 -46 -63t-94.5 -87t-148.5 -77t-209 -33q-147 0 -269 54.5t-209 150.5t-134 227t-47 285z" />
<glyph unicode="D" horiz-adv-x="1427" d="M176 0v1366h373q168 0 308 -40t241.5 -123t158 -212t56.5 -307t-56.5 -307t-158 -213t-241.5 -124t-308 -40h-373zM274 92h295q145 0 263 36t202 109.5t129 185.5t45 261q0 150 -46 260.5t-131 184t-205.5 109.5t-272.5 36h-279v-1182z" />
<glyph unicode="E" horiz-adv-x="1140" d="M176 0v1366h819v-92h-721v-516h564v-92h-564v-574h775v-92h-873z" />
<glyph unicode="F" horiz-adv-x="1069" d="M176 0v1366h819v-92h-721v-516h564v-92h-564v-666h-98z" />
<glyph unicode="G" horiz-adv-x="1468" d="M115 684q0 150 48 280t135 227t210 152.5t270 55.5q121 0 208 -33t146.5 -77t93.5 -87t46 -63l-74 -52q-12 16 -41 52.5t-79 73t-121.5 65.5t-168.5 29q-133 0 -238.5 -48.5t-178 -132.5t-111.5 -197.5t-39 -244.5t38 -244.5t110.5 -198.5t176 -133.5t232.5 -48.5 q158 0 259.5 35t166.5 82v379h-364v92h463v-512q-35 -31 -84.5 -60.5t-114 -54t-145 -39t-181.5 -14.5q-147 0 -270 52.5t-210 147.5t-135 227t-48 290z" />
<glyph unicode="H" horiz-adv-x="1409" d="M176 0v1366h98v-608h861v608h98v-1366h-98v666h-861v-666h-98z" />
<glyph unicode="I" horiz-adv-x="450" d="M176 0v1366h98v-1366h-98z" />
<glyph unicode="J" horiz-adv-x="964" d="M43 145l74 62q49 -59 118.5 -103.5t170.5 -44.5q68 0 122 18.5t92.5 61.5t59 111.5t20.5 169.5v946h99v-963q0 -227 -104.5 -331.5t-295.5 -104.5q-72 0 -127 16.5t-98 43t-75.5 57.5t-55.5 61z" />
<glyph unicode="K" horiz-adv-x="1177" d="M176 0v1366h98v-713l672 713h121l-516 -551l586 -815h-117l-541 741l-205 -219v-522h-98z" />
<glyph unicode="L" horiz-adv-x="1105" d="M176 0v1366h98v-1274h775v-92h-873z" />
<glyph unicode="M" horiz-adv-x="1603" d="M160 0l61 1366h107l475 -811l485 811h94l62 -1366h-98l-48 1212l-471 -782h-63l-459 780l-47 -1210h-98z" />
<glyph unicode="N" horiz-adv-x="1427" d="M176 0v1366h103l876 -1219v1219h96v-1366h-102l-877 1202v-1202h-96z" />
<glyph unicode="O" horiz-adv-x="1585" d="M115 682q0 150 51 281t141 228t214 152.5t272 55.5q147 0 271 -55.5t214 -152.5t141 -228.5t51 -280.5q0 -152 -51 -282t-141 -226t-214 -151.5t-271 -55.5t-271.5 55.5t-214.5 151.5t-141 226t-51 282zM219 682q0 -129 41 -242.5t116 -198.5t181.5 -133.5t235.5 -48.5 t235.5 48.5t181 133.5t115.5 198.5t41 242.5t-41 243.5t-115.5 198.5t-181 133.5t-235.5 49.5t-235.5 -49.5t-181.5 -133.5t-116 -198.5t-41 -243.5z" />
<glyph unicode="P" horiz-adv-x="1185" d="M176 0v1366h420q133 0 224 -29.5t146.5 -83t80 -125t24.5 -155.5t-24.5 -156t-80 -125t-146.5 -82.5t-224 -29.5h-322v-580h-98zM274 672h351q172 0 256 76.5t84 224.5q0 147 -84 224t-256 77h-351v-602z" />
<glyph unicode="Q" horiz-adv-x="1585" d="M115 682q0 150 51 281t141 228t214 152.5t272 55.5q147 0 271 -55.5t214 -152.5t141 -228.5t51 -280.5q0 -180 -70.5 -327.5t-193.5 -245.5l178 -207l-71 -60l-183 213q-74 -41 -158.5 -64.5t-178.5 -23.5q-147 0 -271.5 55.5t-214.5 151.5t-141 226t-51 282zM219 682 q0 -129 41 -242.5t116 -198.5t181.5 -133.5t235.5 -48.5q78 0 147.5 17.5t128.5 50.5l-190 225l71 60l197 -232q104 86 161.5 216t57.5 286q0 129 -41 243.5t-115.5 198.5t-181 133.5t-235.5 49.5t-235.5 -49.5t-181.5 -133.5t-116 -198.5t-41 -243.5z" />
<glyph unicode="R" horiz-adv-x="1220" d="M176 0v1366h412q133 0 225 -28.5t149.5 -81t83 -123t25.5 -154.5q0 -133 -68.5 -236.5t-218.5 -138.5l326 -604h-113l-317 592h-406v-592h-98zM274 684h355q338 0 338 295q0 147 -89.5 221t-261.5 74h-342v-590z" />
<glyph unicode="S" horiz-adv-x="1155" d="M96 180l72 70q70 -84 167 -137.5t236 -53.5q80 0 146.5 18.5t115 54.5t75 90t26.5 126q0 76 -30 129t-79 89t-111.5 58.5t-125.5 41.5q-78 20 -156 45.5t-139.5 67.5t-99 106.5t-37.5 167.5q0 70 28.5 133t83 110t133 75t179.5 28q86 0 152.5 -18.5t116.5 -46t84 -60.5 t56 -64l-69 -59q-18 25 -47 52.5t-70 51t-97.5 39t-130.5 15.5q-84 0 -144 -22.5t-99 -59.5t-57.5 -83t-18.5 -95q0 -74 34 -122t89 -80t123.5 -52.5t138.5 -38.5q72 -18 143.5 -46t128 -74t92 -115.5t35.5 -172.5q0 -88 -36.5 -158.5t-99 -120t-148.5 -76t-185 -26.5 q-86 0 -159.5 18.5t-134 48t-106.5 67.5t-75 79z" />
<glyph unicode="T" horiz-adv-x="1261" d="M51 1278v88h1159v-88h-530v-1278h-98v1278h-531z" />
<glyph unicode="U" horiz-adv-x="1376" d="M166 545v821h98v-770q0 -117 18.5 -215t66.5 -170t130 -112t209 -40t209 40t130 112t66.5 170t18.5 215v770h98v-821q0 -121 -25.5 -226.5t-86 -183.5t-160.5 -123t-250 -45t-250 45t-160.5 123t-86 183.5t-25.5 226.5z" />
<glyph unicode="V" horiz-adv-x="1290" d="M37 1366h113l499 -1245l498 1245h106l-559 -1366h-98z" />
<glyph unicode="W" horiz-adv-x="1789" d="M61 1366h111l328 -1227l346 1186h121l329 -1178l326 1219h107l-383 -1366h-109l-334 1180l-350 -1180h-115z" />
<glyph unicode="X" horiz-adv-x="1204" d="M35 0l510 711l-469 655h119l405 -573l410 573h114l-467 -649l512 -717h-118l-449 635l-452 -635h-115z" />
<glyph unicode="Y" horiz-adv-x="1105" d="M33 1366h119l403 -643l403 643h115l-471 -739v-627h-98v627z" />
<glyph unicode="Z" horiz-adv-x="1261" d="M100 0v90l920 1184h-875v92h1002v-90l-920 -1184h934v-92h-1061z" />
<glyph unicode="[" horiz-adv-x="598" d="M176 -190v1636h361v-88h-265v-1460h265v-88h-361z" />
<glyph unicode="\" horiz-adv-x="768" d="M61 1403h101l545 -1436h-101z" />
<glyph unicode="]" horiz-adv-x="598" d="M61 -102h265v1460h-265v88h361v-1636h-361v88z" />
<glyph unicode="^" horiz-adv-x="1081" d="M131 631l375 735h72l374 -735h-102l-311 624l-310 -624h-98z" />
<glyph unicode="_" horiz-adv-x="1048" d="M12 -158h1024v-92h-1024v92z" />
<glyph unicode="`" horiz-adv-x="741" d="M250 1372h119l123 -262h-86z" />
<glyph unicode="a" horiz-adv-x="1007" d="M98 256q0 68 22.5 128t72 104t127 70t188.5 26q86 0 153.5 -6.5t114.5 -14.5v53q0 78 -18.5 129.5t-55 82t-90 43t-123.5 12.5q-117 0 -185 -34t-105 -65l-49 64q39 37 125.5 78t211.5 41q182 0 281.5 -78t99.5 -258v-434v-77t2 -63q2 -33 4 -57h-88q-2 18 -2 41 q-2 20 -2 49v68q-37 -53 -81 -89t-92 -56.5t-94 -29t-85 -8.5q-59 0 -118.5 12.5t-106.5 44t-77 86t-30 138.5zM197 256q0 -102 68.5 -149.5t174.5 -47.5q70 0 131.5 25t107.5 65.5t72.5 93t26.5 105.5v133q-43 10 -107.5 17.5t-164.5 7.5q-104 0 -165.5 -25.5t-93.5 -63.5 t-41 -82t-9 -79z" />
<glyph unicode="b" horiz-adv-x="1097" d="M141 35v1331h92v-592q18 31 46 64.5t69 62.5t97.5 47.5t134.5 18.5q109 0 188.5 -38t131.5 -104.5t78 -158t26 -197.5q0 -119 -40 -211t-111 -154.5t-166 -95.5t-206 -33q-102 0 -193 17.5t-147 42.5zM231 98q25 -8 85.5 -22.5t166.5 -14.5q90 0 167 26t134.5 77t89 128 t31.5 179q0 82 -18.5 156.5t-58.5 130t-103 88.5t-156 33q-86 0 -149.5 -37t-105.5 -92.5t-62.5 -122t-20.5 -125.5v-404z" />
<glyph unicode="c" horiz-adv-x="1013" d="M94 471q0 104 36 195.5t99.5 158t150.5 104.5t187 38q125 0 212 -44t149 -122l-70 -53q-47 61 -117.5 97t-173.5 36q-82 0 -150.5 -33t-118.5 -88t-77.5 -130t-27.5 -159t28.5 -158.5t78.5 -130t118.5 -88.5t148.5 -33q102 0 181 37t126 99l66 -58q-59 -72 -154.5 -118 t-218.5 -46q-102 0 -189 38t-150.5 104.5t-98.5 158t-35 195.5z" />
<glyph unicode="d" horiz-adv-x="1101" d="M94 463q0 115 36 208t100.5 158.5t153.5 101.5t196 36q59 0 109 -14.5t91 -30.5q45 -20 86 -45v489h90v-1169v-77t2 -63q0 -33 3 -57h-91q-2 27 -2 53q-2 23 -2 52.5v58.5q-31 -53 -82 -94q-43 -35 -108.5 -65t-157.5 -30q-109 0 -188.5 38t-132 103.5t-78 154.5 t-25.5 192zM193 461q0 -80 18 -151.5t58 -127t103.5 -88.5t155.5 -33q86 0 149.5 32t105.5 79t62.5 99.5t20.5 93.5v411q-31 29 -71 51q-35 20 -90.5 37t-126.5 17q-74 0 -142.5 -23.5t-123 -75t-87 -131.5t-32.5 -190z" />
<glyph unicode="e" horiz-adv-x="1093" d="M94 471q0 102 34 192.5t93.5 158t143.5 106.5t184 39q96 0 179 -34t143.5 -99.5t94 -163t33.5 -224.5h-802q2 -80 30.5 -150.5t77.5 -122.5t118 -82t152 -30q43 0 89.5 9.5t89.5 28t78.5 43t60.5 55.5l65 -56q-61 -78 -166.5 -122t-216.5 -44q-104 0 -193 36 t-152.5 101.5t-99.5 156.5t-36 202zM199 526h700q-18 174 -110.5 264.5t-239.5 90.5q-76 0 -138.5 -28t-107.5 -76t-72.5 -112.5t-31.5 -138.5z" />
<glyph unicode="f" horiz-adv-x="645" d="M31 856v86h188v109q0 168 75 258t216 90q92 0 152.5 -31t101.5 -78l-59 -57q-43 43 -86.5 62.5t-100.5 19.5q-45 0 -83 -12.5t-65.5 -46t-43 -92t-15.5 -150.5v-72h312v-86h-312v-856h-92v856h-188z" />
<glyph unicode="g" horiz-adv-x="1093" d="M94 463q0 115 40 208t110.5 158.5t166 101.5t205.5 36q102 0 193.5 -20.5t146.5 -45.5v-881q0 -104 -24.5 -189t-78.5 -143.5t-139 -90t-206 -31.5q-68 0 -123 11t-96 28.5t-71 36t-46 32.5l53 70q33 -27 102.5 -58.5t184.5 -31.5q102 0 170 27.5t108.5 75.5t57 114 t16.5 143v144q-33 -53 -84 -92q-43 -35 -107.5 -63t-154.5 -28q-109 0 -188.5 38t-132 103.5t-78 154.5t-25.5 192zM193 461q0 -80 18 -151.5t58 -127t103.5 -88.5t155.5 -33q90 0 153.5 34t104.5 82t60.5 100.5t19.5 87.5v473q-31 12 -67 20q-33 8 -79 15.5t-106 7.5 q-86 0 -161.5 -28t-134 -81t-92 -132t-33.5 -179z" />
<glyph unicode="h" horiz-adv-x="1089" d="M141 0v1366h92v-612q16 31 46 68.5t75 69.5t104.5 53.5t137.5 21.5q100 0 169 -29t112 -83t61 -131t18 -171v-553h-92v522q0 104 -18.5 174t-54 111t-88 57.5t-119.5 16.5q-90 0 -156 -37t-109 -94.5t-64.5 -127t-21.5 -137.5v-485h-92z" />
<glyph unicode="i" horiz-adv-x="382" d="M127 1141v133h129v-133h-129zM145 0v942h93v-942h-93z" />
<glyph unicode="j" horiz-adv-x="382" d="M-195 -336l50 68q35 -31 65.5 -45.5t71.5 -14.5q31 0 58.5 10.5t49 41t33.5 86t12 147.5v985h93v-971q0 -90 -10.5 -160.5t-38 -119.5t-77 -75t-124.5 -26q-59 0 -107.5 22.5t-75.5 51.5zM127 1141v133h129v-133h-129z" />
<glyph unicode="k" horiz-adv-x="929" d="M141 0v1366h92v-895l484 471h121l-361 -350l432 -592h-110l-387 526l-179 -172v-354h-92z" />
<glyph unicode="l" horiz-adv-x="374" d="M141 0v1366h92v-1366h-92z" />
<glyph unicode="m" horiz-adv-x="1734" d="M141 942h86q2 -23 3 -41t2 -39.5t1 -49.5v-67q16 31 45 70t72 73t102.5 56.5t137.5 22.5q137 0 208.5 -58.5t100.5 -165.5v2q14 29 46 67t79 73t108.5 58.5t137.5 23.5q94 0 158.5 -29t102.5 -83t54.5 -131t16.5 -171v-553h-93v522q0 104 -16 174t-49 111t-79 57.5 t-108 16.5q-70 0 -131 -29t-107 -76t-72.5 -107.5t-26.5 -125.5v-543h-93v522q0 104 -16 174t-48 111t-78 57.5t-107 16.5q-84 0 -147.5 -37t-106.5 -94.5t-64.5 -127t-21.5 -137.5v-485h-93v743v67v49.5t-1 41t-3 41.5z" />
<glyph unicode="n" horiz-adv-x="1093" d="M141 942h86q2 -23 3 -41t2 -39.5t1 -49.5v-67q16 31 46 70t74 73t105.5 56.5t141.5 22.5q100 0 169 -29t112 -83t61.5 -131t18.5 -171v-553h-93v522q0 104 -18.5 174t-54 111t-88 57.5t-119.5 16.5q-90 0 -155.5 -37t-108.5 -94.5t-64.5 -127t-21.5 -137.5v-485h-93v743 v67v49.5t-1 41t-3 41.5z" />
<glyph unicode="o" horiz-adv-x="1159" d="M94 471q0 102 38 192.5t104.5 158t154.5 106.5t189 39q100 0 188 -39t154.5 -106.5t104.5 -158t38 -192.5t-38 -192.5t-104.5 -158t-154.5 -106.5t-188 -39t-188.5 39t-155 106.5t-104.5 158t-38 192.5zM190 471q0 -84 31 -157.5t83 -131t124 -90.5t152 -33 q82 0 153.5 33t123.5 88.5t82 130t30 160.5q0 82 -31 156.5t-83 132t-124 90.5t-151 33q-84 0 -155 -33t-123 -88t-82 -130t-30 -161z" />
<glyph unicode="p" horiz-adv-x="1101" d="M141 942h86q2 -23 3 -40t2 -35.5t2.5 -42t1.5 -56.5q10 18 32.5 51t64.5 66t103.5 57.5t147.5 24.5q109 0 188.5 -39t131.5 -106.5t78 -159t26 -197.5q0 -111 -36 -201t-100.5 -154.5t-151.5 -99.5t-190 -35q-100 0 -171.5 28t-122.5 56v-469h-91v1153v67v49.5t-1 41 t-3 41.5zM236 164l38.5 -27.5t61.5 -34t85 -29t109 -12.5q78 0 148 27t121 78t80.5 126t29.5 173q0 82 -18.5 157.5t-58 133t-103 91.5t-156.5 34q-61 0 -111 -18.5t-89 -50.5t-68 -74t-45 -87q-14 -37 -19 -88t-5 -104v-295z" />
<glyph unicode="q" horiz-adv-x="1097" d="M94 463q0 115 40 208t110.5 158.5t166 101.5t205.5 36q102 0 193.5 -20.5t146.5 -45.5v-1311h-92v568q-33 -53 -82 -92q-41 -35 -106.5 -63t-157.5 -28q-109 0 -188.5 38t-132 103.5t-78 154.5t-25.5 192zM193 461q0 -80 18 -151.5t58 -127t103.5 -88.5t155.5 -33t157 35 t104.5 84t58 100.5t18.5 84.5v473q-31 12 -67 20q-33 8 -79 15.5t-106 7.5q-86 0 -161.5 -28t-134 -81t-92 -132t-33.5 -179z" />
<glyph unicode="r" horiz-adv-x="690" d="M141 942h86q2 -23 3 -43t2 -44t1 -52.5v-67.5q16 31 44 69t71 70.5t100.5 55t133.5 22.5q45 0 77 -14l-26 -88q-14 6 -33.5 8t-36.5 2q-74 0 -133 -32.5t-102 -86t-66.5 -122t-23.5 -138.5v-481h-93v743v67v49.5t-1 41t-3 41.5z" />
<glyph unicode="s" horiz-adv-x="946" d="M84 119l59 65q59 -59 136 -91t182 -32q57 0 108.5 11.5t90 33t61 54.5t22.5 78q0 51 -20.5 83.5t-60 54t-100 37t-138.5 33.5q-66 14 -120 34t-93 48.5t-61.5 72.5t-22.5 110q0 63 28.5 111t77 81t111 48.5t129.5 15.5q111 0 196 -41t138 -105l-64 -57q-49 53 -113.5 86 t-154.5 33q-45 0 -90 -7.5t-82 -27t-59.5 -53t-22.5 -88.5q0 -45 25.5 -76t66.5 -51.5t94.5 -34t106.5 -25.5q57 -12 115.5 -30.5t106.5 -48t78 -76t30 -115.5q0 -72 -33 -123t-86 -85t-120.5 -50.5t-135.5 -16.5q-133 0 -226 39t-159 105z" />
<glyph unicode="t" horiz-adv-x="727" d="M37 856v86h188v311h92v-311h312v-86h-312v-545q0 -84 12.5 -134t36 -75.5t54.5 -34t67 -8.5q51 0 88 18.5t74 63.5l58 -55q-41 -53 -93.5 -82t-136.5 -29q-55 0 -102 13.5t-80 49.5t-51.5 96.5t-18.5 154.5v567h-188z" />
<glyph unicode="u" horiz-adv-x="1081" d="M133 389v553h92v-522q0 -104 17.5 -174t52.5 -111t86 -57.5t119 -16.5q88 0 153.5 37t107.5 94.5t62.5 127t20.5 137.5v485h92v-743v-68v-48.5t1 -40.5t3 -42h-86q-2 23 -3 41t-2 39.5t-1 48.5v68q-16 -31 -45 -70t-72 -73t-103.5 -56.5t-140.5 -22.5q-100 0 -167.5 29 t-109.5 83t-59.5 130t-17.5 172z" />
<glyph unicode="v" horiz-adv-x="948" d="M20 942h105l354 -829l352 829h97l-410 -942h-86z" />
<glyph unicode="w" horiz-adv-x="1392" d="M31 942h102l262 -821l271 821h88l264 -836l250 836h94l-301 -942h-100l-261 803l-264 -803h-88z" />
<glyph unicode="x" horiz-adv-x="933" d="M31 0l372 504l-333 438h114l283 -371l274 371h103l-326 -438l385 -504h-115l-333 436l-322 -436h-102z" />
<glyph unicode="y" horiz-adv-x="946" d="M33 942h104l363 -817l313 817h100l-462 -1165q-12 -31 -31 -68t-46.5 -68.5t-66.5 -53t-92 -21.5q-59 0 -99 17.5t-71 45.5l47 66q18 -18 50 -32.5t73 -14.5q61 0 95 43t65 123l78 198z" />
<glyph unicode="z" horiz-adv-x="985" d="M125 0v86l631 774h-606v82h716v-86l-635 -772h650v-84h-756z" />
<glyph unicode="{" horiz-adv-x="544" d="M63 592v74q78 10 120 65t46 119l29 348q8 90 30.5 149.5t69.5 98.5h105q-37 -37 -67.5 -90t-37.5 -135l-26 -369q-8 -104 -53.5 -154.5t-104.5 -68.5q59 -18 104.5 -68.5t53.5 -150.5l26 -375q6 -82 37 -135.5t68 -89.5h-105q-47 39 -69.5 98t-30.5 149l-29 351 q-4 63 -46 118.5t-120 65.5z" />
<glyph unicode="|" horiz-adv-x="440" d="M176 -336v2042h88v-2042h-88z" />
<glyph unicode="}" horiz-adv-x="544" d="M82 -190q37 37 67.5 90t36.5 135l27 375q8 100 53 150t105 69q-59 18 -104.5 68.5t-53.5 154.5l-27 369q-6 82 -36.5 135t-67.5 90h104q47 -39 70 -98.5t31 -149.5l28 -348q4 -63 46 -118.5t120 -65.5v-74q-78 -10 -120 -65.5t-46 -118.5l-28 -351q-8 -90 -31 -149.5 t-70 -97.5h-104z" />
<glyph unicode="~" horiz-adv-x="909" d="M98 602q6 6 20.5 24.5t41 39t63.5 37t86 16.5q53 0 88 -15.5t76 -37.5q29 -16 62.5 -30.5t72.5 -14.5q53 0 92 28.5t56 50.5l53 -63q-6 -10 -21.5 -26.5t-40 -34t-59.5 -31t-80 -13.5q-57 0 -92 15.5t-76 38.5q-29 16 -63.5 31.5t-69.5 15.5q-29 0 -53.5 -9.5 t-42.5 -22.5t-31.5 -28.5t-21.5 -25.5z" />
<glyph unicode="&#xa1;" horiz-adv-x="458" d="M166 809v133h129v-133h-129zM176 -424l8 1026h90l9 -1026h-107z" />
<glyph unicode="&#xa2;" d="M145 643q0 98 32 185t88.5 153t133 107.5t166.5 52.5v188h84v-186q113 -4 192 -48t138 -116l-70 -53q-45 57 -107.5 92t-152.5 39v-828q92 6 162 42t115 94l63 -60q-55 -68 -142 -111.5t-198 -50.5v-182h-84v184q-92 8 -170 50.5t-133 108t-86 152.5t-31 187zM244 643 q0 -78 23.5 -147.5t66.5 -124t102.5 -91t128.5 -47.5v822q-72 -10 -131 -46t-101 -91.5t-65.5 -125t-23.5 -149.5z" />
<glyph unicode="&#xa3;" d="M152 645v92h141v181q0 55 10 125.5t49 133t113 106.5t203 44q68 0 121 -19.5t91 -44t60.5 -46t26.5 -25.5l-60 -66q-10 12 -30.5 32t-50 38t-70.5 30.5t-92 12.5q-82 0 -134.5 -26.5t-83 -72.5t-42 -109.5t-11.5 -137.5v-156h430v-92h-430v-553h639v-92h-739v645h-141z " />
<glyph unicode="&#xa4;" d="M92 315l141 138q-41 53 -62 115.5t-21 133.5q0 70 21.5 132.5t59.5 115.5l-139 137l70 72l139 -137q53 43 119.5 67.5t140.5 24.5q72 0 137.5 -24.5t118.5 -65.5l139 135l70 -72l-139 -135q41 -53 63.5 -115.5t22.5 -134.5t-22.5 -135t-63.5 -116l139 -136l-70 -73 l-139 137q-53 -41 -118.5 -64.5t-137.5 -23.5q-150 0 -258 90l-141 -139zM242 702q0 -66 25.5 -124t68.5 -101t101.5 -68.5t123.5 -25.5q66 0 124 25.5t101 68.5t69 101.5t26 123.5q0 66 -26 124.5t-69 101.5t-101 68.5t-124 25.5t-124 -25.5t-101 -68.5t-68.5 -101.5 t-25.5 -124.5z" />
<glyph unicode="&#xa5;" d="M72 1292h114l375 -633l377 633h111l-381 -633h297v-81h-349l-8 -15v-192h357v-82h-357v-289h-90v289h-375v82h375v192l-10 15h-365v81h312z" />
<glyph unicode="&#xa6;" horiz-adv-x="440" d="M176 -336v776h88v-776h-88zM176 930v776h88v-776h-88z" />
<glyph unicode="&#xa7;" horiz-adv-x="985" d="M160 1028q0 78 30.5 145.5t83 118.5t121 80t142.5 29q55 0 100 -10.5t81 -24.5t60.5 -30.5t36.5 -26.5l-53 -80q-59 43 -115.5 62.5t-111.5 19.5q-68 0 -119 -25.5t-86 -66.5t-52.5 -90.5t-17.5 -96.5q0 -63 22.5 -111.5t55.5 -85t69.5 -63.5t67.5 -45l373 -240l-53 -81 l-351 221q-49 31 -100 68.5t-92 84.5t-66.5 108.5t-25.5 139.5zM184 477l54 82l350 -221q49 -31 100 -69t92 -85t66.5 -108.5t25.5 -138.5q0 -78 -27.5 -145.5t-77.5 -119t-119.5 -80t-151.5 -28.5q-113 0 -188 34.5t-111 63.5l51 74q66 -43 120 -62.5t130 -19.5 q74 0 126 25.5t84.5 66.5t48 90t15.5 96q0 63 -22.5 111.5t-55 85.5t-69.5 63.5t-68 45.5z" />
<glyph unicode="&#xa8;" horiz-adv-x="716" d="M145 1157v129h123v-129h-123zM449 1157v129h122v-129h-122z" />
<glyph unicode="&#xa9;" horiz-adv-x="1654" d="M115 684q0 150 55 280t151.5 227t226.5 152.5t281 55.5q150 0 280 -55.5t225.5 -152.5t150.5 -227t55 -280t-55 -280t-150.5 -227t-225.5 -152.5t-280 -55.5q-152 0 -281.5 55.5t-226 152.5t-151.5 227t-55 280zM217 682q0 -129 45 -243.5t127 -199.5t193.5 -134.5 t244.5 -49.5t245 49.5t193 134.5t126 199.5t45 243.5t-45 243.5t-126 199.5t-192.5 134.5t-245.5 49.5q-133 0 -244.5 -49.5t-193.5 -134.5t-127 -199.5t-45 -243.5zM451 676q0 82 29.5 153.5t80.5 124t122 82t151 29.5q100 0 182 -45t133 -123l-72 -49q-41 57 -106.5 94 t-136.5 37q-61 0 -113.5 -23.5t-90.5 -64.5t-60.5 -96.5t-22.5 -118.5q0 -61 20.5 -115.5t57.5 -96.5t90 -65.5t119 -23.5q80 0 144 40t105 97l66 -55q-51 -78 -134 -124t-181 -46q-84 0 -155 29.5t-122 82t-78.5 123t-27.5 154.5z" />
<glyph unicode="&#xaa;" horiz-adv-x="786" d="M121 895q0 90 70.5 149.5t218.5 59.5q47 0 89 -4t70 -8v18q0 82 -51 110.5t-131 28.5q-72 0 -119 -22.5t-71 -42.5l-50 59q29 27 90.5 55.5t147.5 28.5q123 0 196.5 -48t73.5 -159v-254q0 -49 1 -78.5t3 -52.5h-79q-2 20 -3.5 32.5t-1.5 37.5q-49 -47 -116.5 -66.5 t-120.5 -19.5q-39 0 -78 8t-69.5 27.5t-50 53.5t-19.5 87zM213 895q0 -51 37 -76.5t102 -25.5q39 0 78 11t70.5 32.5t52 51.5t20.5 64v70q-29 4 -70.5 7t-92.5 3q-63 0 -102.5 -14t-60 -34.5t-27.5 -44.5t-7 -44z" />
<glyph unicode="&#xab;" horiz-adv-x="921" d="M157 479l217 393h101l-215 -393l215 -393h-101zM460 479l217 393h101l-215 -393l215 -393h-101z" />
<glyph unicode="&#xac;" d="M147 616v93h822v-336h-92v243h-730z" />
<glyph unicode="&#xad;" horiz-adv-x="894" d="M178 530v93h563v-93h-563z" />
<glyph unicode="&#xae;" horiz-adv-x="1654" d="M115 684q0 150 55 280t151.5 227t226.5 152.5t281 55.5q150 0 280 -55.5t225.5 -152.5t150.5 -227t55 -280t-55 -280t-150.5 -227t-225.5 -152.5t-280 -55.5q-152 0 -281.5 55.5t-226 152.5t-151.5 227t-55 280zM217 682q0 -129 45 -243.5t127 -199.5t193.5 -134.5 t244.5 -49.5t245 49.5t193 134.5t126 199.5t45 243.5t-45 243.5t-126 199.5t-192.5 134.5t-245.5 49.5q-133 0 -244.5 -49.5t-193.5 -134.5t-127 -199.5t-45 -243.5zM606 307v748h250q125 0 184.5 -62.5t59.5 -150.5q0 -80 -40 -137.5t-120 -86.5l184 -311h-100l-178 301 h-152v-301h-88zM694 684h160q76 0 116 42t40 114q0 139 -176 139h-140v-295z" />
<glyph unicode="&#xaf;" horiz-adv-x="722" d="M123 1182v86h477v-86h-477z" />
<glyph unicode="&#xb0;" horiz-adv-x="661" d="M63 1063q0 57 20.5 105.5t56.5 83t85 55t105 20.5q57 0 106 -19.5t85 -55t56.5 -84t20.5 -103.5q0 -57 -20.5 -105.5t-56.5 -84t-85 -55t-104 -19.5q-57 0 -106.5 19.5t-85.5 55t-56.5 84t-20.5 103.5zM152 1063q0 -37 14 -69.5t38.5 -57.5t57.5 -39t70 -14t68.5 14 t56 40t39 58.5t14.5 69.5t-14.5 68.5t-39 56t-57 39t-69.5 14.5t-69 -14.5t-56.5 -39t-38.5 -57t-14 -69.5z" />
<glyph unicode="&#xb1;" d="M147 0v92h822v-92h-822zM147 610v92h365v355h92v-355h365v-92h-361v-356h-94v356h-367z" />
<glyph unicode="&#xb2;" horiz-adv-x="737" d="M88 1200q35 45 103.5 86t160.5 41q63 0 110.5 -17.5t78 -46t45 -65.5t14.5 -76q0 -51 -21.5 -91t-55.5 -72.5t-75.5 -59.5t-82.5 -49q-63 -37 -113.5 -72t-50.5 -86h405v-82h-506v78q0 37 17.5 67.5t47.5 57.5t66.5 51.5t75.5 46.5q37 23 72 45.5t62.5 47t45 52 t17.5 60.5q0 68 -48 98.5t-112 30.5q-61 0 -112.5 -29.5t-81.5 -70.5z" />
<glyph unicode="&#xb3;" horiz-adv-x="737" d="M86 653l45 68q35 -27 79 -41t97 -14q86 0 141.5 39.5t55.5 109.5q0 41 -14.5 68.5t-37 45t-52 25t-62.5 7.5q-18 0 -38.5 -2.5t-39.5 -8.5l-24 47l219 240h-318v70h430v-58l-217 -227q8 2 16.5 3t20.5 1q96 0 151.5 -61.5t55.5 -143.5q0 -102 -77 -166.5t-208 -64.5 q-66 0 -120 16.5t-103 46.5z" />
<glyph unicode="&#xb4;" horiz-adv-x="499" d="M129 1104l127 262h113l-154 -262h-86z" />
<glyph unicode="&#xb5;" horiz-adv-x="1081" d="M131 -410v1352h94v-522q0 -90 9.5 -145.5t25.5 -90.5q39 -72 98.5 -97.5t141.5 -25.5q88 0 153.5 37t107.5 94.5t62.5 127t20.5 137.5v485h92v-743v-68v-48.5t1 -40.5t3 -42h-86q-2 23 -3 41t-2 39.5t-1 48.5v68q-16 -31 -45 -70t-72 -73t-103.5 -56.5t-140.5 -22.5 q-92 0 -153.5 24t-108.5 81v-490h-94z" />
<glyph unicode="&#xb6;" horiz-adv-x="1030" d="M115 1006q0 102 41 170.5t106.5 110.5t148.5 60.5t167 18.5v-719q-84 0 -167 17.5t-148.5 59.5t-106.5 110.5t-41 171.5zM481 -250v785q29 -4 51.5 -5.5t45.5 -1.5v-778h-97zM758 -250v1616h96v-1616h-96z" />
<glyph unicode="&#xb7;" horiz-adv-x="425" d="M152 590v143h139v-143h-139z" />
<glyph unicode="&#xb8;" horiz-adv-x="694" d="M139 -408l17 70q29 -12 67.5 -23.5t87.5 -11.5q74 0 114 25.5t40 73.5q0 41 -31 64.5t-98 23.5q-41 0 -77 -7.5t-83 -23.5l12 72q25 8 61 19t111 11q49 0 86 -14t59.5 -35.5t34 -50.5t11.5 -55q0 -86 -66.5 -130t-167.5 -44q-76 0 -115.5 13t-62.5 23z" />
<glyph unicode="&#xb9;" horiz-adv-x="737" d="M137 1182l258 125h78v-697h-90v607l-213 -103z" />
<glyph unicode="&#xba;" horiz-adv-x="792" d="M84 1022q0 63 22.5 118.5t63.5 96.5t98.5 65.5t128.5 24.5q70 0 127.5 -24.5t98.5 -65.5t63.5 -96.5t22.5 -118.5t-22.5 -118.5t-63.5 -97.5t-98.5 -65.5t-127.5 -23.5q-72 0 -129 23.5t-98 65.5t-63.5 97.5t-22.5 118.5zM170 1022q0 -39 13.5 -80t41 -73.5t70.5 -53 t102 -20.5q57 0 100.5 20.5t71 53t41 73.5t13.5 80t-13.5 80t-41 72.5t-70.5 52t-101 20.5q-59 0 -102 -20.5t-70.5 -52t-41 -72.5t-13.5 -80z" />
<glyph unicode="&#xbb;" horiz-adv-x="921" d="M168 86l215 393l-215 393h100l217 -393l-217 -393h-100zM471 86l215 393l-215 393h100l217 -393l-217 -393h-100z" />
<glyph unicode="&#xbc;" horiz-adv-x="1720" d="M86 1182l258 125h78v-697h-90v607l-213 -103zM367 0l831 1290h105l-832 -1290h-104zM1034 164v72l387 469h92v-467h88v-74h-88v-154h-82v154h-397zM1130 238h301v366z" />
<glyph unicode="&#xbd;" horiz-adv-x="1720" d="M106 1182l258 125h78v-697h-90v607l-213 -103zM307 0l831 1290h105l-832 -1290h-104zM1063 598q35 45 103.5 86t160.5 41q63 0 110.5 -17.5t78 -46t45 -65.5t14.5 -76q0 -51 -21.5 -91t-55.5 -72.5t-75.5 -59.5t-82.5 -49q-63 -37 -113.5 -72t-50.5 -86h405v-82h-506v78 q0 37 17.5 67.5t47.5 57.5t66.5 51.5t75.5 46.5q37 23 72 45.5t62.5 47t45 52t17.5 60.5q0 68 -48 98.5t-112 30.5q-61 0 -112.5 -29.5t-81.5 -70.5z" />
<glyph unicode="&#xbe;" horiz-adv-x="1720" d="M92 653l45 68q35 -27 79 -41t97 -14q86 0 141.5 39.5t55.5 109.5q0 41 -14.5 68.5t-37 45t-52 25t-62.5 7.5q-18 0 -38.5 -2.5t-39.5 -8.5l-24 47l219 240h-318v70h430v-58l-217 -227q8 2 16.5 3t20.5 1q96 0 151.5 -61.5t55.5 -143.5q0 -102 -77 -166.5t-208 -64.5 q-66 0 -120 16.5t-103 46.5zM412 0l831 1290h105l-832 -1290h-104zM1059 164v72l387 469h92v-467h88v-74h-88v-154h-82v154h-397zM1155 238h301v366z" />
<glyph unicode="&#xbf;" horiz-adv-x="1015" d="M141 -133q0 63 18.5 111.5t51.5 90.5t80 79.5t102 78.5q37 27 70 55.5t57.5 64.5t38.5 81t14 107v67h91v-78q0 -78 -20.5 -135t-54.5 -100t-76 -77t-85 -65q-37 -27 -69.5 -54t-59.5 -61t-42 -76t-15 -95q0 -109 89 -167.5t226 -58.5q115 0 197 41t151 125l66 -63 q-63 -78 -168 -136.5t-246 -58.5q-100 0 -178 24.5t-130 67.5t-80 102.5t-28 129.5zM553 809v133h129v-133h-129z" />
<glyph unicode="&#xc0;" horiz-adv-x="1298" d="M41 0l559 1366h98l559 -1366h-112l-178 440h-643l-177 -440h-106zM360 532h570l-285 709zM455 1774h125l154 -289h-91z" />
<glyph unicode="&#xc1;" horiz-adv-x="1298" d="M41 0l559 1366h98l559 -1366h-112l-178 440h-643l-177 -440h-106zM360 532h570l-285 709zM571 1485l151 289h132l-193 -289h-90z" />
<glyph unicode="&#xc2;" horiz-adv-x="1298" d="M41 0l559 1366h98l559 -1366h-112l-178 440h-643l-177 -440h-106zM350 1485l240 289h108l232 -289h-107l-182 221l-182 -221h-109zM360 532h570l-285 709z" />
<glyph unicode="&#xc3;" horiz-adv-x="1298" d="M41 0l559 1366h98l559 -1366h-112l-178 440h-643l-177 -440h-106zM305 1616q41 45 95 74.5t114 29.5q49 0 83.5 -15t64.5 -32.5t58.5 -33t63.5 -15.5q41 0 74.5 17.5t76.5 58.5l58 -62q-41 -45 -95.5 -73.5t-113.5 -28.5q-49 0 -83 15.5t-63.5 33t-58.5 32.5t-65 15 q-41 0 -78 -17.5t-80 -58.5zM360 532h570l-285 709z" />
<glyph unicode="&#xc4;" horiz-adv-x="1298" d="M41 0l559 1366h98l559 -1366h-112l-178 440h-643l-177 -440h-106zM360 532h570l-285 709zM412 1556v142h135v-142h-135zM752 1556v142h135v-142h-135z" />
<glyph unicode="&#xc5;" horiz-adv-x="1298" d="M41 0l532 1303q-61 23 -100 76t-39 124q0 96 61.5 155.5t151.5 59.5q92 0 154.5 -59.5t62.5 -151.5q0 -76 -40 -129t-101 -75l534 -1303h-112l-178 440h-643l-177 -440h-106zM360 532h570l-285 709zM514 1503q0 -55 37 -96t100 -41q53 0 93 40t40 101q0 59 -39.5 97 t-97.5 38q-55 0 -94 -38.5t-39 -100.5z" />
<glyph unicode="&#xc6;" horiz-adv-x="1945" d="M20 0l912 1366h868v-92h-721v-516h563v-92h-563v-574h774v-92h-872v399h-584l-264 -399h-113zM459 492h522v788z" />
<glyph unicode="&#xc7;" horiz-adv-x="1376" d="M115 684q0 150 47 280t134 227t209 152.5t269 55.5q121 0 209 -33t148.5 -77t94.5 -87t46 -63l-74 -52q-12 16 -40 52.5t-78 73t-123.5 65.5t-178.5 29q-131 0 -234.5 -48.5t-175 -132.5t-109.5 -197.5t-38 -244.5t39 -244.5t110.5 -198.5t176 -133.5t237.5 -48.5 q96 0 169 29t123 65.5t80 72.5t42 53l74 -52q-12 -20 -46 -63t-94.5 -87t-148.5 -77t-209 -33q-147 0 -269 54.5t-209 150.5t-134 227t-47 285zM553 -408l16 80q29 -12 70 -23t92 -11q160 0 160 92q0 80 -133 80q-43 0 -82 -7.5t-86 -23.5l14 82q37 12 77 21t105 9 q53 0 91 -14t62.5 -37.5t36 -51.5t11.5 -54q0 -86 -70.5 -132t-173.5 -46q-74 0 -120 13t-70 23z" />
<glyph unicode="&#xc8;" horiz-adv-x="1140" d="M176 0v1366h819v-92h-721v-516h564v-92h-564v-574h775v-92h-873zM422 1774h125l154 -289h-91z" />
<glyph unicode="&#xc9;" horiz-adv-x="1140" d="M176 0v1366h819v-92h-721v-516h564v-92h-564v-574h775v-92h-873zM514 1485l151 289h132l-193 -289h-90z" />
<glyph unicode="&#xca;" horiz-adv-x="1140" d="M176 0v1366h819v-92h-721v-516h564v-92h-564v-574h775v-92h-873zM301 1485l240 289h108l232 -289h-107l-182 221l-182 -221h-109z" />
<glyph unicode="&#xcb;" horiz-adv-x="1140" d="M176 0v1366h819v-92h-721v-516h564v-92h-564v-574h775v-92h-873zM348 1556v142h135v-142h-135zM688 1556v142h135v-142h-135z" />
<glyph unicode="&#xcc;" horiz-adv-x="450" d="M20 1774h125l154 -289h-91zM176 0v1366h98v-1366h-98z" />
<glyph unicode="&#xcd;" horiz-adv-x="450" d="M166 1485l151 289h132l-193 -289h-90zM176 0v1366h98v-1366h-98z" />
<glyph unicode="&#xce;" horiz-adv-x="450" d="M-53 1485l240 289h108l232 -289h-107l-182 221l-182 -221h-109zM176 0v1366h98v-1366h-98z" />
<glyph unicode="&#xcf;" horiz-adv-x="450" d="M-4 1556v142h135v-142h-135zM176 0v1366h98v-1366h-98zM336 1556v142h135v-142h-135z" />
<glyph unicode="&#xd0;" horiz-adv-x="1456" d="M41 662v86h164v618h373q168 0 308 -40t241.5 -123t157.5 -212t56 -307t-56 -307t-157.5 -213t-242 -124t-307.5 -40h-373v662h-164zM303 92h295q145 0 263 36t202 109.5t129 185.5t45 261q0 150 -46 260.5t-131 184t-206 109.5t-272 36h-279v-526h391v-86h-391v-570z" />
<glyph unicode="&#xd1;" horiz-adv-x="1427" d="M176 0v1366h103l876 -1219v1219h96v-1366h-102l-877 1202v-1202h-96zM373 1616q41 45 95 74.5t114 29.5q49 0 83.5 -15t64.5 -32.5t58.5 -33t63.5 -15.5q41 0 74.5 17.5t76.5 58.5l58 -62q-41 -45 -95.5 -73.5t-113.5 -28.5q-49 0 -83 15.5t-63.5 33t-58.5 32.5t-65 15 q-41 0 -78 -17.5t-80 -58.5z" />
<glyph unicode="&#xd2;" horiz-adv-x="1585" d="M115 682q0 150 51 281t141 228t214 152.5t272 55.5q147 0 271 -55.5t214 -152.5t141 -228.5t51 -280.5q0 -152 -51 -282t-141 -226t-214 -151.5t-271 -55.5t-271.5 55.5t-214.5 151.5t-141 226t-51 282zM219 682q0 -129 41 -242.5t116 -198.5t181.5 -133.5t235.5 -48.5 t235.5 48.5t181 133.5t115.5 198.5t41 242.5t-41 243.5t-115.5 198.5t-181 133.5t-235.5 49.5t-235.5 -49.5t-181.5 -133.5t-116 -198.5t-41 -243.5zM612 1774h125l154 -289h-91z" />
<glyph unicode="&#xd3;" horiz-adv-x="1585" d="M115 682q0 150 51 281t141 228t214 152.5t272 55.5q147 0 271 -55.5t214 -152.5t141 -228.5t51 -280.5q0 -152 -51 -282t-141 -226t-214 -151.5t-271 -55.5t-271.5 55.5t-214.5 151.5t-141 226t-51 282zM219 682q0 -129 41 -242.5t116 -198.5t181.5 -133.5t235.5 -48.5 t235.5 48.5t181 133.5t115.5 198.5t41 242.5t-41 243.5t-115.5 198.5t-181 133.5t-235.5 49.5t-235.5 -49.5t-181.5 -133.5t-116 -198.5t-41 -243.5zM735 1485l151 289h132l-193 -289h-90z" />
<glyph unicode="&#xd4;" horiz-adv-x="1585" d="M115 682q0 150 51 281t141 228t214 152.5t272 55.5q147 0 271 -55.5t214 -152.5t141 -228.5t51 -280.5q0 -152 -51 -282t-141 -226t-214 -151.5t-271 -55.5t-271.5 55.5t-214.5 151.5t-141 226t-51 282zM219 682q0 -129 41 -242.5t116 -198.5t181.5 -133.5t235.5 -48.5 t235.5 48.5t181 133.5t115.5 198.5t41 242.5t-41 243.5t-115.5 198.5t-181 133.5t-235.5 49.5t-235.5 -49.5t-181.5 -133.5t-116 -198.5t-41 -243.5zM494 1485l240 289h108l232 -289h-107l-182 221l-182 -221h-109z" />
<glyph unicode="&#xd5;" horiz-adv-x="1585" d="M115 682q0 150 51 281t141 228t214 152.5t272 55.5q147 0 271 -55.5t214 -152.5t141 -228.5t51 -280.5q0 -152 -51 -282t-141 -226t-214 -151.5t-271 -55.5t-271.5 55.5t-214.5 151.5t-141 226t-51 282zM219 682q0 -129 41 -242.5t116 -198.5t181.5 -133.5t235.5 -48.5 t235.5 48.5t181 133.5t115.5 198.5t41 242.5t-41 243.5t-115.5 198.5t-181 133.5t-235.5 49.5t-235.5 -49.5t-181.5 -133.5t-116 -198.5t-41 -243.5zM453 1616q41 45 95 74.5t114 29.5q49 0 83.5 -15t64.5 -32.5t58.5 -33t63.5 -15.5q41 0 74.5 17.5t76.5 58.5l58 -62 q-41 -45 -95.5 -73.5t-113.5 -28.5q-49 0 -83 15.5t-63.5 33t-58.5 32.5t-65 15q-41 0 -78 -17.5t-80 -58.5z" />
<glyph unicode="&#xd6;" horiz-adv-x="1585" d="M115 682q0 150 51 281t141 228t214 152.5t272 55.5q147 0 271 -55.5t214 -152.5t141 -228.5t51 -280.5q0 -152 -51 -282t-141 -226t-214 -151.5t-271 -55.5t-271.5 55.5t-214.5 151.5t-141 226t-51 282zM219 682q0 -129 41 -242.5t116 -198.5t181.5 -133.5t235.5 -48.5 t235.5 48.5t181 133.5t115.5 198.5t41 242.5t-41 243.5t-115.5 198.5t-181 133.5t-235.5 49.5t-235.5 -49.5t-181.5 -133.5t-116 -198.5t-41 -243.5zM553 1556v142h135v-142h-135zM893 1556v142h135v-142h-135z" />
<glyph unicode="&#xd7;" d="M217 381l277 274l-277 277l66 65l276 -276l275 276l65 -65l-276 -275l276 -276l-65 -66l-275 277l-276 -277z" />
<glyph unicode="&#xd8;" horiz-adv-x="1585" d="M117 682q0 150 51 281t141 228t214 152.5t272 55.5q102 0 192 -28t168 -77l121 172l74 -47l-125 -176q117 -98 182.5 -242.5t65.5 -318.5q0 -152 -51.5 -282t-141.5 -226t-214 -151.5t-271 -55.5q-111 0 -207 31t-176 86l-131 -184l-74 47l135 192q-106 98 -165.5 237.5 t-59.5 305.5zM221 682q0 -139 45 -258t131 -205l705 1000q-66 41 -142.5 64.5t-164.5 23.5q-129 0 -235.5 -49.5t-181.5 -133.5t-116 -198.5t-41 -243.5zM465 162q68 -49 150.5 -76t179.5 -27q129 0 235.5 48.5t181 133.5t115.5 198.5t41 242.5q0 147 -52 272t-147 211z" />
<glyph unicode="&#xd9;" horiz-adv-x="1376" d="M166 545v821h98v-770q0 -117 18.5 -215t66.5 -170t130 -112t209 -40t209 40t130 112t66.5 170t18.5 215v770h98v-821q0 -121 -25.5 -226.5t-86 -183.5t-160.5 -123t-250 -45t-250 45t-160.5 123t-86 183.5t-25.5 226.5zM522 1774h125l154 -289h-91z" />
<glyph unicode="&#xda;" horiz-adv-x="1376" d="M166 545v821h98v-770q0 -117 18.5 -215t66.5 -170t130 -112t209 -40t209 40t130 112t66.5 170t18.5 215v770h98v-821q0 -121 -25.5 -226.5t-86 -183.5t-160.5 -123t-250 -45t-250 45t-160.5 123t-86 183.5t-25.5 226.5zM588 1485l151 289h132l-193 -289h-90z" />
<glyph unicode="&#xdb;" horiz-adv-x="1376" d="M166 545v821h98v-770q0 -117 18.5 -215t66.5 -170t130 -112t209 -40t209 40t130 112t66.5 170t18.5 215v770h98v-821q0 -121 -25.5 -226.5t-86 -183.5t-160.5 -123t-250 -45t-250 45t-160.5 123t-86 183.5t-25.5 226.5zM397 1485l240 289h108l232 -289h-107l-182 221 l-182 -221h-109z" />
<glyph unicode="&#xdc;" horiz-adv-x="1376" d="M166 545v821h98v-770q0 -117 18.5 -215t66.5 -170t130 -112t209 -40t209 40t130 112t66.5 170t18.5 215v770h98v-821q0 -121 -25.5 -226.5t-86 -183.5t-160.5 -123t-250 -45t-250 45t-160.5 123t-86 183.5t-25.5 226.5zM451 1556v142h135v-142h-135zM791 1556v142h135 v-142h-135z" />
<glyph unicode="&#xdd;" horiz-adv-x="1105" d="M33 1366h119l403 -643l403 643h115l-471 -739v-627h-98v627zM492 1485l151 289h132l-193 -289h-90z" />
<glyph unicode="&#xde;" horiz-adv-x="1183" d="M176 0v1366h98v-270h322q133 0 224 -30t146.5 -83t80 -125t24.5 -156t-24.5 -155.5t-80 -124.5t-146.5 -83t-224 -30h-322v-309h-98zM274 401h351q172 0 256 77t84 224t-84 224.5t-256 77.5h-351v-603z" />
<glyph unicode="&#xdf;" horiz-adv-x="1140" d="M141 0v979q0 119 30 200t81 130t120.5 69.5t149.5 20.5q74 0 131.5 -20.5t97.5 -54.5t61.5 -80t21.5 -97q0 -90 -41 -147.5t-90.5 -103.5t-90.5 -91t-41 -111q0 -55 35 -85.5t88.5 -51t113.5 -39t113.5 -50.5t88 -85t34.5 -143q0 -117 -81.5 -197t-241.5 -80 q-100 0 -175 26.5t-132 65.5l51 76q55 -43 120.5 -63.5t131.5 -20.5q113 0 169 51.5t56 137.5q0 76 -34 116.5t-86 65t-111.5 41t-111.5 41t-86 67.5t-34 121q0 55 19.5 96t48 76t62.5 64.5t62.5 60.5t48 66.5t19.5 81.5q0 70 -50 125t-169 55q-86 0 -141 -25.5t-87 -72 t-45.5 -110t-13.5 -138.5v-967h-92z" />
<glyph unicode="&#xe0;" horiz-adv-x="1007" d="M98 256q0 68 22.5 128t72 104t127 70t188.5 26q86 0 153.5 -6.5t114.5 -14.5v53q0 78 -18.5 129.5t-55 82t-90 43t-123.5 12.5q-117 0 -185 -34t-105 -65l-49 64q39 37 125.5 78t211.5 41q182 0 281.5 -78t99.5 -258v-434v-77t2 -63q2 -33 4 -57h-88q-2 18 -2 41 q-2 20 -2 49v68q-37 -53 -81 -89t-92 -56.5t-94 -29t-85 -8.5q-59 0 -118.5 12.5t-106.5 44t-77 86t-30 138.5zM197 256q0 -102 68.5 -149.5t174.5 -47.5q70 0 131.5 25t107.5 65.5t72.5 93t26.5 105.5v133q-43 10 -107.5 17.5t-164.5 7.5q-104 0 -165.5 -25.5t-93.5 -63.5 t-41 -82t-9 -79zM352 1372h119l123 -262h-86z" />
<glyph unicode="&#xe1;" horiz-adv-x="1007" d="M98 256q0 68 22.5 128t72 104t127 70t188.5 26q86 0 153.5 -6.5t114.5 -14.5v53q0 78 -18.5 129.5t-55 82t-90 43t-123.5 12.5q-117 0 -185 -34t-105 -65l-49 64q39 37 125.5 78t211.5 41q182 0 281.5 -78t99.5 -258v-434v-77t2 -63q2 -33 4 -57h-88q-2 18 -2 41 q-2 20 -2 49v68q-37 -53 -81 -89t-92 -56.5t-94 -29t-85 -8.5q-59 0 -118.5 12.5t-106.5 44t-77 86t-30 138.5zM197 256q0 -102 68.5 -149.5t174.5 -47.5q70 0 131.5 25t107.5 65.5t72.5 93t26.5 105.5v133q-43 10 -107.5 17.5t-164.5 7.5q-104 0 -165.5 -25.5t-93.5 -63.5 t-41 -82t-9 -79zM430 1104l127 262h113l-154 -262h-86z" />
<glyph unicode="&#xe2;" horiz-adv-x="1007" d="M98 256q0 68 22.5 128t72 104t127 70t188.5 26q86 0 153.5 -6.5t114.5 -14.5v53q0 78 -18.5 129.5t-55 82t-90 43t-123.5 12.5q-117 0 -185 -34t-105 -65l-49 64q39 37 125.5 78t211.5 41q182 0 281.5 -78t99.5 -258v-434v-77t2 -63q2 -33 4 -57h-88q-2 18 -2 41 q-2 20 -2 49v68q-37 -53 -81 -89t-92 -56.5t-94 -29t-85 -8.5q-59 0 -118.5 12.5t-106.5 44t-77 86t-30 138.5zM197 256q0 -102 68.5 -149.5t174.5 -47.5q70 0 131.5 25t107.5 65.5t72.5 93t26.5 105.5v133q-43 10 -107.5 17.5t-164.5 7.5q-104 0 -165.5 -25.5t-93.5 -63.5 t-41 -82t-9 -79zM266 1104l188 262h90l189 -262h-98l-136 192l-135 -192h-98z" />
<glyph unicode="&#xe3;" horiz-adv-x="1007" d="M98 256q0 68 22.5 128t72 104t127 70t188.5 26q86 0 153.5 -6.5t114.5 -14.5v53q0 78 -18.5 129.5t-55 82t-90 43t-123.5 12.5q-117 0 -185 -34t-105 -65l-49 64q39 37 125.5 78t211.5 41q182 0 281.5 -78t99.5 -258v-434v-77t2 -63q2 -33 4 -57h-88q-2 18 -2 41 q-2 20 -2 49v68q-37 -53 -81 -89t-92 -56.5t-94 -29t-85 -8.5q-59 0 -118.5 12.5t-106.5 44t-77 86t-30 138.5zM191 1212q39 45 91 73t107 28q47 0 81 -15.5t61.5 -33t54.5 -32.5t62 -15q37 0 69.5 18t73.5 59l47 -61q-39 -45 -91 -71.5t-108 -26.5q-47 0 -79.5 15 t-60.5 32.5t-55.5 33t-62.5 15.5q-37 0 -69.5 -14.5t-73.5 -55.5zM197 256q0 -102 68.5 -149.5t174.5 -47.5q70 0 131.5 25t107.5 65.5t72.5 93t26.5 105.5v133q-43 10 -107.5 17.5t-164.5 7.5q-104 0 -165.5 -25.5t-93.5 -63.5t-41 -82t-9 -79z" />
<glyph unicode="&#xe4;" horiz-adv-x="1007" d="M98 256q0 68 22.5 128t72 104t127 70t188.5 26q86 0 153.5 -6.5t114.5 -14.5v53q0 78 -18.5 129.5t-55 82t-90 43t-123.5 12.5q-117 0 -185 -34t-105 -65l-49 64q39 37 125.5 78t211.5 41q182 0 281.5 -78t99.5 -258v-434v-77t2 -63q2 -33 4 -57h-88q-2 18 -2 41 q-2 20 -2 49v68q-37 -53 -81 -89t-92 -56.5t-94 -29t-85 -8.5q-59 0 -118.5 12.5t-106.5 44t-77 86t-30 138.5zM197 256q0 -102 68.5 -149.5t174.5 -47.5q70 0 131.5 25t107.5 65.5t72.5 93t26.5 105.5v133q-43 10 -107.5 17.5t-164.5 7.5q-104 0 -165.5 -25.5t-93.5 -63.5 t-41 -82t-9 -79zM297 1157v129h123v-129h-123zM601 1157v129h122v-129h-122z" />
<glyph unicode="&#xe5;" horiz-adv-x="1007" d="M98 256q0 68 22.5 128t72 104t127 70t188.5 26q86 0 153.5 -6.5t114.5 -14.5v53q0 78 -18.5 129.5t-55 82t-90 43t-123.5 12.5q-117 0 -185 -34t-105 -65l-49 64q39 37 125.5 78t211.5 41q182 0 281.5 -78t99.5 -258v-434v-77t2 -63q2 -33 4 -57h-88q-2 18 -2 41 q-2 20 -2 49v68q-37 -53 -81 -89t-92 -56.5t-94 -29t-85 -8.5q-59 0 -118.5 12.5t-106.5 44t-77 86t-30 138.5zM197 256q0 -102 68.5 -149.5t174.5 -47.5q70 0 131.5 25t107.5 65.5t72.5 93t26.5 105.5v133q-43 10 -107.5 17.5t-164.5 7.5q-104 0 -165.5 -25.5t-93.5 -63.5 t-41 -82t-9 -79zM303 1303q0 88 57 143t141 55q86 0 143.5 -55t57.5 -141q0 -88 -57.5 -144.5t-141.5 -56.5q-86 0 -143 56.5t-57 142.5zM376 1303q0 -55 37 -92t90 -37q51 0 88 36.5t37 94.5q0 55 -36.5 91t-90.5 36q-53 0 -89 -36t-36 -93z" />
<glyph unicode="&#xe6;" horiz-adv-x="1767" d="M98 252q0 68 23.5 123t74 95t127 62.5t185.5 22.5q78 0 143.5 -6t124.5 -10v77q0 78 -18.5 129.5t-55 82t-90 43t-123.5 12.5q-117 0 -185 -34t-105 -65l-49 64q39 37 125.5 78t211.5 41q143 0 235.5 -48.5t127.5 -156.5q59 92 154.5 148.5t218.5 56.5q96 0 179 -33 t143.5 -97.5t94 -160.5t33.5 -223h-803q2 -80 31 -151t78 -125t117.5 -85t152.5 -31q43 0 89 9.5t89 28t79 43t61 55.5l65 -56q-61 -78 -166.5 -122t-216.5 -44q-141 0 -248.5 61.5t-166.5 172.5q-45 -68 -92.5 -113t-98.5 -71.5t-105.5 -38t-113.5 -11.5q-53 0 -111.5 12.5 t-105.5 43t-78 84t-31 137.5zM197 252q0 -102 68.5 -147.5t172.5 -45.5q70 0 132.5 25t108.5 65.5t72.5 93t26.5 105.5v109q-68 10 -134 15t-138 5q-100 0 -160.5 -22.5t-93.5 -56t-44 -73.5t-11 -73zM872 532h701q-18 174 -110.5 261.5t-239.5 87.5q-76 0 -138.5 -27 t-107.5 -74t-72.5 -110.5t-32.5 -137.5z" />
<glyph unicode="&#xe7;" horiz-adv-x="1013" d="M94 471q0 104 36 195.5t99.5 158t150.5 104.5t187 38q125 0 212 -44t149 -122l-70 -53q-47 61 -117.5 97t-173.5 36q-82 0 -150.5 -33t-118.5 -88t-77.5 -130t-27.5 -159t28.5 -158.5t78.5 -130t118.5 -88.5t148.5 -33q102 0 181 37t126 99l66 -58q-59 -72 -154.5 -118 t-218.5 -46q-102 0 -189 38t-150.5 104.5t-98.5 158t-35 195.5zM360 -408l17 70q29 -12 67.5 -23.5t87.5 -11.5q74 0 114 25.5t40 73.5q0 41 -31 64.5t-98 23.5q-41 0 -77 -7.5t-83 -23.5l12 72q25 8 61 19t111 11q49 0 86 -14t59.5 -35.5t34 -50.5t11.5 -55 q0 -86 -66.5 -130t-167.5 -44q-76 0 -115.5 13t-62.5 23z" />
<glyph unicode="&#xe8;" horiz-adv-x="1093" d="M94 471q0 102 34 192.5t93.5 158t143.5 106.5t184 39q96 0 179 -34t143.5 -99.5t94 -163t33.5 -224.5h-802q2 -80 30.5 -150.5t77.5 -122.5t118 -82t152 -30q43 0 89.5 9.5t89.5 28t78.5 43t60.5 55.5l65 -56q-61 -78 -166.5 -122t-216.5 -44q-104 0 -193 36 t-152.5 101.5t-99.5 156.5t-36 202zM199 526h700q-18 174 -110.5 264.5t-239.5 90.5q-76 0 -138.5 -28t-107.5 -76t-72.5 -112.5t-31.5 -138.5zM400 1372h119l123 -262h-86z" />
<glyph unicode="&#xe9;" horiz-adv-x="1093" d="M94 471q0 102 34 192.5t93.5 158t143.5 106.5t184 39q96 0 179 -34t143.5 -99.5t94 -163t33.5 -224.5h-802q2 -80 30.5 -150.5t77.5 -122.5t118 -82t152 -30q43 0 89.5 9.5t89.5 28t78.5 43t60.5 55.5l65 -56q-61 -78 -166.5 -122t-216.5 -44q-104 0 -193 36 t-152.5 101.5t-99.5 156.5t-36 202zM199 526h700q-18 174 -110.5 264.5t-239.5 90.5q-76 0 -138.5 -28t-107.5 -76t-72.5 -112.5t-31.5 -138.5zM491 1104l127 262h113l-154 -262h-86z" />
<glyph unicode="&#xea;" horiz-adv-x="1093" d="M94 471q0 102 34 192.5t93.5 158t143.5 106.5t184 39q96 0 179 -34t143.5 -99.5t94 -163t33.5 -224.5h-802q2 -80 30.5 -150.5t77.5 -122.5t118 -82t152 -30q43 0 89.5 9.5t89.5 28t78.5 43t60.5 55.5l65 -56q-61 -78 -166.5 -122t-216.5 -44q-104 0 -193 36 t-152.5 101.5t-99.5 156.5t-36 202zM199 526h700q-18 174 -110.5 264.5t-239.5 90.5q-76 0 -138.5 -28t-107.5 -76t-72.5 -112.5t-31.5 -138.5zM315 1104l188 262h90l189 -262h-98l-136 192l-135 -192h-98z" />
<glyph unicode="&#xeb;" horiz-adv-x="1093" d="M94 471q0 102 34 192.5t93.5 158t143.5 106.5t184 39q96 0 179 -34t143.5 -99.5t94 -163t33.5 -224.5h-802q2 -80 30.5 -150.5t77.5 -122.5t118 -82t152 -30q43 0 89.5 9.5t89.5 28t78.5 43t60.5 55.5l65 -56q-61 -78 -166.5 -122t-216.5 -44q-104 0 -193 36 t-152.5 101.5t-99.5 156.5t-36 202zM199 526h700q-18 174 -110.5 264.5t-239.5 90.5q-76 0 -138.5 -28t-107.5 -76t-72.5 -112.5t-31.5 -138.5zM331 1157v129h123v-129h-123zM635 1157v129h122v-129h-122z" />
<glyph unicode="&#xec;" horiz-adv-x="382" d="M14 1372h119l123 -262h-86zM145 0v942h93v-942h-93z" />
<glyph unicode="&#xed;" horiz-adv-x="382" d="M133 1104l127 262h113l-154 -262h-86zM145 0v942h93v-942h-93z" />
<glyph unicode="&#xee;" horiz-adv-x="382" d="M-35 1104l188 262h90l189 -262h-98l-136 192l-135 -192h-98zM145 0v942h93v-942h-93z" />
<glyph unicode="&#xef;" horiz-adv-x="382" d="M-15 1157v129h123v-129h-123zM145 0v942h93v-942h-93zM289 1157v129h122v-129h-122z" />
<glyph unicode="&#xf0;" horiz-adv-x="1153" d="M94 444q0 94 35 179.5t99.5 150t153.5 102t200 37.5q123 0 204.5 -32.5t139.5 -69.5q-43 152 -130 253t-198 161l-127 -160l-61 47l116 148q-111 41 -219 47l10 84q72 -4 139.5 -20.5t127.5 -41.5l116 148l62 -47l-107 -134q96 -53 172 -129.5t127.5 -173t78 -207 t26.5 -231.5q0 -152 -40 -261.5t-107.5 -182t-157.5 -107.5t-191 -35q-94 0 -179 31t-149.5 91.5t-102.5 148.5t-38 204zM195 440q0 -86 28.5 -156.5t78.5 -119.5t116.5 -77t142.5 -28q74 0 145.5 28t128 87t91.5 152.5t35 224.5q0 39 -3.5 75.5t-7.5 71.5q-23 18 -55.5 40 t-77.5 41.5t-103.5 32.5t-131.5 13q-82 0 -153 -27.5t-123 -78.5t-81.5 -122t-29.5 -157z" />
<glyph unicode="&#xf1;" horiz-adv-x="1093" d="M141 942h86q2 -23 3 -41t2 -39.5t1 -49.5v-67q16 31 46 70t74 73t105.5 56.5t141.5 22.5q100 0 169 -29t112 -83t61.5 -131t18.5 -171v-553h-93v522q0 104 -18.5 174t-54 111t-88 57.5t-119.5 16.5q-90 0 -155.5 -37t-108.5 -94.5t-64.5 -127t-21.5 -137.5v-485h-93v743 v67v49.5t-1 41t-3 41.5zM223 1212q39 45 91 73t107 28q47 0 81 -15.5t61.5 -33t54.5 -32.5t62 -15q37 0 69.5 18t73.5 59l47 -61q-39 -45 -91 -71.5t-108 -26.5q-47 0 -79.5 15t-60.5 32.5t-55.5 33t-62.5 15.5q-37 0 -69.5 -14.5t-73.5 -55.5z" />
<glyph unicode="&#xf2;" horiz-adv-x="1159" d="M94 471q0 102 38 192.5t104.5 158t154.5 106.5t189 39q100 0 188 -39t154.5 -106.5t104.5 -158t38 -192.5t-38 -192.5t-104.5 -158t-154.5 -106.5t-188 -39t-188.5 39t-155 106.5t-104.5 158t-38 192.5zM190 471q0 -84 31 -157.5t83 -131t124 -90.5t152 -33 q82 0 153.5 33t123.5 88.5t82 130t30 160.5q0 82 -31 156.5t-83 132t-124 90.5t-151 33q-84 0 -155 -33t-123 -88t-82 -130t-30 -161zM418 1372h119l123 -262h-86z" />
<glyph unicode="&#xf3;" horiz-adv-x="1159" d="M94 471q0 102 38 192.5t104.5 158t154.5 106.5t189 39q100 0 188 -39t154.5 -106.5t104.5 -158t38 -192.5t-38 -192.5t-104.5 -158t-154.5 -106.5t-188 -39t-188.5 39t-155 106.5t-104.5 158t-38 192.5zM190 471q0 -84 31 -157.5t83 -131t124 -90.5t152 -33 q82 0 153.5 33t123.5 88.5t82 130t30 160.5q0 82 -31 156.5t-83 132t-124 90.5t-151 33q-84 0 -155 -33t-123 -88t-82 -130t-30 -161zM524 1104l127 262h113l-154 -262h-86z" />
<glyph unicode="&#xf4;" horiz-adv-x="1159" d="M94 471q0 102 38 192.5t104.5 158t154.5 106.5t189 39q100 0 188 -39t154.5 -106.5t104.5 -158t38 -192.5t-38 -192.5t-104.5 -158t-154.5 -106.5t-188 -39t-188.5 39t-155 106.5t-104.5 158t-38 192.5zM190 471q0 -84 31 -157.5t83 -131t124 -90.5t152 -33 q82 0 153.5 33t123.5 88.5t82 130t30 160.5q0 82 -31 156.5t-83 132t-124 90.5t-151 33q-84 0 -155 -33t-123 -88t-82 -130t-30 -161zM342 1104l188 262h90l189 -262h-98l-136 192l-135 -192h-98z" />
<glyph unicode="&#xf5;" horiz-adv-x="1159" d="M94 471q0 102 38 192.5t104.5 158t154.5 106.5t189 39q100 0 188 -39t154.5 -106.5t104.5 -158t38 -192.5t-38 -192.5t-104.5 -158t-154.5 -106.5t-188 -39t-188.5 39t-155 106.5t-104.5 158t-38 192.5zM190 471q0 -84 31 -157.5t83 -131t124 -90.5t152 -33 q82 0 153.5 33t123.5 88.5t82 130t30 160.5q0 82 -31 156.5t-83 132t-124 90.5t-151 33q-84 0 -155 -33t-123 -88t-82 -130t-30 -161zM258 1212q39 45 91 73t107 28q47 0 81 -15.5t61.5 -33t54.5 -32.5t62 -15q37 0 69.5 18t73.5 59l47 -61q-39 -45 -91 -71.5t-108 -26.5 q-47 0 -79.5 15t-60.5 32.5t-55.5 33t-62.5 15.5q-37 0 -69.5 -14.5t-73.5 -55.5z" />
<glyph unicode="&#xf6;" horiz-adv-x="1159" d="M94 471q0 102 38 192.5t104.5 158t154.5 106.5t189 39q100 0 188 -39t154.5 -106.5t104.5 -158t38 -192.5t-38 -192.5t-104.5 -158t-154.5 -106.5t-188 -39t-188.5 39t-155 106.5t-104.5 158t-38 192.5zM190 471q0 -84 31 -157.5t83 -131t124 -90.5t152 -33 q82 0 153.5 33t123.5 88.5t82 130t30 160.5q0 82 -31 156.5t-83 132t-124 90.5t-151 33q-84 0 -155 -33t-123 -88t-82 -130t-30 -161zM364 1157v129h123v-129h-123zM668 1157v129h122v-129h-122z" />
<glyph unicode="&#xf7;" d="M147 608v92h822v-92h-822zM496 285v125h125v-125h-125zM496 899v125h125v-125h-125z" />
<glyph unicode="&#xf8;" horiz-adv-x="1159" d="M94 471q0 102 38 192.5t104.5 158t154.5 106.5t189 39q68 0 131 -18.5t118 -53.5l103 147l67 -43l-106 -149q80 -70 126 -167t46 -212q0 -102 -38 -192.5t-104.5 -158t-154.5 -106.5t-188 -39q-139 0 -250 70l-101 -141l-67 43l102 145q-78 70 -124 167t-46 212zM190 471 q0 -88 34 -167t93 -136l461 655q-45 29 -95 44.5t-103 15.5q-84 0 -155 -33t-123 -88t-82 -130t-30 -161zM381 119q43 -29 93 -44.5t106 -15.5q82 0 153.5 33t123.5 88.5t82 130t30 160.5q0 88 -35 167t-94 136z" />
<glyph unicode="&#xf9;" horiz-adv-x="1081" d="M133 389v553h92v-522q0 -104 17.5 -174t52.5 -111t86 -57.5t119 -16.5q88 0 153.5 37t107.5 94.5t62.5 127t20.5 137.5v485h92v-743v-68v-48.5t1 -40.5t3 -42h-86q-2 23 -3 41t-2 39.5t-1 48.5v68q-16 -31 -45 -70t-72 -73t-103.5 -56.5t-140.5 -22.5q-100 0 -167.5 29 t-109.5 83t-59.5 130t-17.5 172zM373 1372h119l123 -262h-86z" />
<glyph unicode="&#xfa;" horiz-adv-x="1081" d="M133 389v553h92v-522q0 -104 17.5 -174t52.5 -111t86 -57.5t119 -16.5q88 0 153.5 37t107.5 94.5t62.5 127t20.5 137.5v485h92v-743v-68v-48.5t1 -40.5t3 -42h-86q-2 23 -3 41t-2 39.5t-1 48.5v68q-16 -31 -45 -70t-72 -73t-103.5 -56.5t-140.5 -22.5q-100 0 -167.5 29 t-109.5 83t-59.5 130t-17.5 172zM473 1104l127 262h113l-154 -262h-86z" />
<glyph unicode="&#xfb;" horiz-adv-x="1081" d="M133 389v553h92v-522q0 -104 17.5 -174t52.5 -111t86 -57.5t119 -16.5q88 0 153.5 37t107.5 94.5t62.5 127t20.5 137.5v485h92v-743v-68v-48.5t1 -40.5t3 -42h-86q-2 23 -3 41t-2 39.5t-1 48.5v68q-16 -31 -45 -70t-72 -73t-103.5 -56.5t-140.5 -22.5q-100 0 -167.5 29 t-109.5 83t-59.5 130t-17.5 172zM303 1104l188 262h90l189 -262h-98l-136 192l-135 -192h-98z" />
<glyph unicode="&#xfc;" horiz-adv-x="1081" d="M133 389v553h92v-522q0 -104 17.5 -174t52.5 -111t86 -57.5t119 -16.5q88 0 153.5 37t107.5 94.5t62.5 127t20.5 137.5v485h92v-743v-68v-48.5t1 -40.5t3 -42h-86q-2 23 -3 41t-2 39.5t-1 48.5v68q-16 -31 -45 -70t-72 -73t-103.5 -56.5t-140.5 -22.5q-100 0 -167.5 29 t-109.5 83t-59.5 130t-17.5 172zM317 1157v129h123v-129h-123zM621 1157v129h122v-129h-122z" />
<glyph unicode="&#xfd;" horiz-adv-x="946" d="M33 942h104l363 -817l313 817h100l-462 -1165q-12 -31 -31 -68t-46.5 -68.5t-66.5 -53t-92 -21.5q-59 0 -99 17.5t-71 45.5l47 66q18 -18 50 -32.5t73 -14.5q61 0 95 43t65 123l78 198zM403 1104l127 262h113l-154 -262h-86z" />
<glyph unicode="&#xfe;" horiz-adv-x="1101" d="M143 1364h93v-596q10 18 32.5 51t64.5 66t103.5 57.5t147.5 24.5q109 0 188.5 -39t131.5 -106.5t78 -159t26 -197.5q0 -111 -36 -201t-100.5 -154.5t-151.5 -99.5t-190 -35q-100 0 -171.5 28t-122.5 56v-469h-91zM236 164l38.5 -27.5t61.5 -34t85 -29t109 -12.5 q78 0 148 27t121 78t80.5 126t29.5 173q0 82 -18.5 157.5t-58 133t-103 91.5t-156.5 34q-61 0 -111 -18.5t-89 -50.5t-68 -74t-45 -87q-14 -37 -19 -88t-5 -104v-295z" />
<glyph unicode="&#xff;" horiz-adv-x="946" d="M33 942h104l363 -817l313 817h100l-462 -1165q-12 -31 -31 -68t-46.5 -68.5t-66.5 -53t-92 -21.5q-59 0 -99 17.5t-71 45.5l47 66q18 -18 50 -32.5t73 -14.5q61 0 95 43t65 123l78 198zM262 1157v129h123v-129h-123zM566 1157v129h122v-129h-122z" />
<glyph unicode="&#x152;" horiz-adv-x="2336" d="M115 682q0 150 51 281t141 228t214 152.5t272 55.5q94 0 185 -24.5t168 -72t135 -115t91 -155.5v334h819v-92h-721v-516h564v-92h-564v-574h775v-92h-873v330q-33 -86 -92 -153.5t-136 -114t-167 -71t-184 -24.5q-147 0 -271.5 55.5t-214.5 151.5t-141 226t-51 282z M219 682q0 -129 41 -242.5t116 -198.5t181.5 -133.5t235.5 -48.5t235.5 48.5t181 133.5t115.5 198.5t41 242.5t-41 243.5t-115.5 198.5t-181 133.5t-235.5 49.5t-235.5 -49.5t-181.5 -133.5t-116 -198.5t-41 -243.5z" />
<glyph unicode="&#x153;" horiz-adv-x="1968" d="M94 471q0 102 38 192.5t104.5 158t154.5 106.5t189 39q72 0 137 -19.5t121.5 -56.5t100.5 -87t75 -112q53 123 159.5 199t249.5 76q96 0 179.5 -34t143.5 -99.5t94 -163t34 -224.5h-803q2 -80 30.5 -150.5t78 -122.5t118 -82t152.5 -30q43 0 89 9.5t89 28t79 43t60 55.5 l66 -56q-61 -78 -166.5 -122t-216.5 -44q-154 0 -267.5 73t-168.5 200q-59 -123 -175 -198t-259 -75q-100 0 -188.5 39t-155 106.5t-104.5 158t-38 192.5zM190 471q0 -84 31 -157.5t83 -131t124 -90.5t152 -33q82 0 153.5 33t123.5 88.5t82 130t30 160.5q0 82 -31 156.5 t-83 132t-124 90.5t-151 33q-84 0 -155 -33t-123 -88t-82 -130t-30 -161zM1073 526h701q-18 174 -110.5 264.5t-240.5 90.5q-76 0 -138 -28t-107 -76t-73 -112.5t-32 -138.5z" />
<glyph unicode="&#x178;" horiz-adv-x="1105" d="M33 1366h119l403 -643l403 643h115l-471 -739v-627h-98v627zM324 1556v142h135v-142h-135zM664 1556v142h135v-142h-135z" />
<glyph unicode="&#x2c6;" horiz-adv-x="716" d="M125 1104l188 262h90l189 -262h-98l-136 192l-135 -192h-98z" />
<glyph unicode="&#x2dc;" horiz-adv-x="716" d="M35 1212q39 45 91 73t107 28q47 0 81 -15.5t61.5 -33t54.5 -32.5t62 -15q37 0 69.5 18t73.5 59l47 -61q-39 -45 -91 -71.5t-108 -26.5q-47 0 -79.5 15t-60.5 32.5t-55.5 33t-62.5 15.5q-37 0 -69.5 -14.5t-73.5 -55.5z" />
<glyph unicode="&#x2000;" horiz-adv-x="887" />
<glyph unicode="&#x2001;" horiz-adv-x="1774" />
<glyph unicode="&#x2002;" horiz-adv-x="887" />
<glyph unicode="&#x2003;" horiz-adv-x="1774" />
<glyph unicode="&#x2004;" horiz-adv-x="591" />
<glyph unicode="&#x2005;" horiz-adv-x="443" />
<glyph unicode="&#x2006;" horiz-adv-x="295" />
<glyph unicode="&#x2007;" horiz-adv-x="295" />
<glyph unicode="&#x2008;" horiz-adv-x="221" />
<glyph unicode="&#x2009;" horiz-adv-x="354" />
<glyph unicode="&#x200a;" horiz-adv-x="98" />
<glyph unicode="&#x2010;" horiz-adv-x="894" d="M166 530v93h563v-93h-563z" />
<glyph unicode="&#x2011;" horiz-adv-x="894" d="M166 530v93h563v-93h-563z" />
<glyph unicode="&#x2012;" horiz-adv-x="894" d="M166 530v93h563v-93h-563z" />
<glyph unicode="&#x2013;" horiz-adv-x="1024" d="M0 528v93h1024v-93h-1024z" />
<glyph unicode="&#x2014;" horiz-adv-x="2048" d="M0 528v93h2048v-93h-2048z" />
<glyph unicode="&#x2018;" horiz-adv-x="395" d="M131 1001l59 365h80l-37 -365h-102z" />
<glyph unicode="&#x2019;" horiz-adv-x="395" d="M150 1001l36 365h103l-60 -365h-79z" />
<glyph unicode="&#x201a;" horiz-adv-x="395" d="M147 -219l37 364h103l-60 -364h-80z" />
<glyph unicode="&#x201c;" horiz-adv-x="679" d="M143 1001l59 365h80l-37 -365h-102zM428 1001l59 365h80l-37 -365h-102z" />
<glyph unicode="&#x201d;" horiz-adv-x="679" d="M162 1001l36 365h103l-60 -365h-79zM447 1001l36 365h103l-60 -365h-79z" />
<glyph unicode="&#x201e;" horiz-adv-x="679" d="M147 -219l37 364h103l-60 -364h-80zM434 -219l37 364h103l-60 -364h-80z" />
<glyph unicode="&#x2022;" horiz-adv-x="696" d="M129 606q0 45 17.5 85t47 70t69.5 47t85 17t85 -17t69.5 -47t47 -70t17.5 -85t-17.5 -85t-47 -69.5t-69.5 -47t-85 -17.5t-85 17.5t-69.5 47t-47 69.5t-17.5 85z" />
<glyph unicode="&#x2026;" horiz-adv-x="1390" d="M166 -4v143h139v-143h-139zM637 -4v143h139v-143h-139zM1108 -4v143h139v-143h-139z" />
<glyph unicode="&#x202f;" horiz-adv-x="354" />
<glyph unicode="&#x2039;" horiz-adv-x="618" d="M145 479l217 393h101l-215 -393l215 -393h-101z" />
<glyph unicode="&#x203a;" horiz-adv-x="618" d="M156 86l215 393l-215 393h100l217 -393l-217 -393h-100z" />
<glyph unicode="&#x205f;" horiz-adv-x="443" />
<glyph unicode="&#x20ac;" d="M51 459l31 82h158q-4 27 -4 52v54v50.5t4 50.5h-189l31 81h168q16 100 54 191.5t98.5 159t144.5 107.5t194 40q66 0 120 -15.5t96 -37t72 -45t46 -37.5l-61 -72q-10 8 -31.5 27.5t-55.5 39t-80 34t-106 14.5q-150 0 -251 -104.5t-136 -301.5h549l-31 -81h-528 q-4 -25 -4 -49.5v-51.5q0 -29 1 -55.5t3 -50.5h559l-31 -82h-518q35 -193 137.5 -296.5t249.5 -103.5q57 0 103.5 14.5t80 33t56.5 38t33 29.5l61 -72q-10 -10 -37.5 -32.5t-69.5 -45t-99.5 -40t-127.5 -17.5q-111 0 -194.5 39t-143 106.5t-97.5 156.5t-54 190h-201z" />
<glyph unicode="&#x2122;" horiz-adv-x="1902" d="M51 1284v82h697v-82h-302v-702h-90v702h-305zM918 582l18 784h100l271 -455l262 455h114l21 -784h-90l-19 667l-264 -446h-57l-256 430l-19 -651h-81z" />
<glyph unicode="&#xe000;" horiz-adv-x="942" d="M0 0v942h942v-942h-942z" />
</font>
</defs>
</svg>
