<svg xmlns="http://www.w3.org/2000/svg" xmlns:xlink="http://www.w3.org/1999/xlink" viewBox="0 0 252.04 280.58"><defs><style>.a{fill:none;}.b{fill:#fff;}.c{fill:url(#a);}.d{fill:url(#b);}.e{fill:url(#c);}.f{fill:url(#d);}.g{fill:url(#e);}.h{fill:url(#f);}.i{fill:url(#g);}.j{fill:url(#h);}.k{fill:url(#i);}.l{fill:url(#j);}.m{fill:url(#k);}.n{fill:url(#l);}.o{fill:url(#m);}.p{fill:#015691;}.q{fill:#005495;}.r{fill:#14b1e7;}.s{fill:#009edb;}.t{fill:#ffe600;}.u{fill:#bed747;}.v{fill:#2275b4;}.w{fill:#b9e5fb;}.x{fill:#deb655;}.y{fill:#4caf45;}.z{fill:#008a4b;}.aa{fill:#754d25;}.ab{fill:#72bf44;}.ac{fill:#b1d34a;}.ad{fill:#073;}.ae{fill:#48a842;}.af{fill:#f2f2f2;}.ag{fill:#d9d9d9;}.ah{fill:#8bd7f8;}.ai{fill:#ed1c24;}.aj{fill:#9a6636;}</style><linearGradient id="a" x1="36.47" y1="282.41" x2="36.47" y2="64.97" gradientUnits="userSpaceOnUse"><stop offset="0" stop-color="#0082bd"/><stop offset="0.39" stop-color="#0070ad"/><stop offset="0.85" stop-color="#005495"/></linearGradient><linearGradient id="b" x1="20.18" y1="282.41" x2="20.18" y2="64.97" xlink:href="#a"/><linearGradient id="c" x1="113.81" y1="280.99" x2="113.81" y2="240.29" gradientUnits="userSpaceOnUse"><stop offset="0" stop-color="#14b1e7"/><stop offset="0.16" stop-color="#13abe2"/><stop offset="0.37" stop-color="#0f9bd3"/><stop offset="0.6" stop-color="#0980bc"/><stop offset="0.85" stop-color="#015a9b"/><stop offset="0.89" stop-color="#005495"/></linearGradient><linearGradient id="d" x1="6.39" y1="260.4" x2="220.54" y2="260.4" gradientUnits="userSpaceOnUse"><stop offset="0" stop-color="#14b1e7"/><stop offset="0.16" stop-color="#13abe2"/><stop offset="0.37" stop-color="#0f9bd3"/><stop offset="0.61" stop-color="#0980bc"/><stop offset="0.86" stop-color="#015a9b"/><stop offset="0.9" stop-color="#005495"/></linearGradient><linearGradient id="e" x1="190.19" y1="280.99" x2="190.19" y2="240.29" xlink:href="#c"/><linearGradient id="f" x1="6.39" y1="248.73" x2="220.54" y2="248.73" xlink:href="#d"/><linearGradient id="g" x1="119.61" y1="280.91" x2="119.61" y2="240.21" xlink:href="#c"/><linearGradient id="h" x1="0.82" y1="248.76" x2="214.97" y2="248.76" xlink:href="#d"/><linearGradient id="i" x1="47.06" y1="239.25" x2="248.8" y2="37.5" gradientUnits="userSpaceOnUse"><stop offset="0" stop-color="#abe1fa"/><stop offset="0.35" stop-color="#63c5ed"/><stop offset="0.65" stop-color="#2eb0e3"/><stop offset="0.88" stop-color="#0ca3dd"/><stop offset="1" stop-color="#009edb"/></linearGradient><linearGradient id="j" x1="181.64" y1="164.76" x2="236.11" y2="110.28" xlink:href="#i"/><linearGradient id="k" x1="81.5" y1="117.24" x2="119.63" y2="79.11" gradientTransform="translate(15.58 -13.74) rotate(8.48)" xlink:href="#i"/><linearGradient id="l" x1="61.5" y1="259.18" x2="263.24" y2="57.43" xlink:href="#i"/><linearGradient id="m" x1="52.31" y1="244.5" x2="254.05" y2="42.75" xlink:href="#i"/></defs><title>TIAA ICON suitcase</title><path class="a" d="M188.62,248.8h0l1.47-.05-1.48,0v0h0Z" transform="translate(-5.57 -0.08)"/><path class="a" d="M193.92,248.47c-0.71.07-1.43,0.11-2.15,0.16l-1,.07,0.95-.06Q192.84,248.58,193.92,248.47Z" transform="translate(-5.57 -0.08)"/><path class="b" d="M108.13,28.63A70.25,70.25,0,0,0,58.2,49.45a71.82,71.82,0,0,0-12.09,16c-0.3.55-.6,1.11-0.89,1.66l-0.38.75q-0.7,1.39-1.34,2.81l-0.38.84q-0.34.79-.67,1.59c-0.15.37-.29,0.75-0.44,1.12q-0.45,1.16-.85,2.34C41,77,40.86,77.5,40.72,78s-0.29.91-.43,1.37c-0.24.79-.46,1.59-0.67,2.39-0.09.36-.18,0.73-0.27,1.09q-0.23.95-.43,1.9c-0.07.34-.15,0.68-0.21,1q-0.26,1.35-.47,2.71c0,0.29-.08.58-0.13,0.87q-0.17,1.23-.31,2.47c0,0.19,0,.37-0.06.56-0.1,1-.17,2-0.22,3,0,0.24,0,.49,0,0.73,0,1-.08,2.05-0.08,3.09v149.7H166.69l19.4,0-30.38,0-34.41-9H46.42V185.66a32.55,32.55,0,0,1,0-29.58v-57c0-33.51,27.84-61.49,61.72-61.49h49.48a30.24,30.24,0,0,1,32.69,0h58.32V178.11a61.83,61.83,0,0,1-54.27,61.25q-1.7.21-3.43,0.32l-2.31,9.1,1.48,0,0.72,0,1-.07c0.72,0,1.44-.09,2.15-0.16l0.55-.06q1.36-.15,2.7-0.34l0.68-.1q1.47-.23,2.92-0.52l0.82-.17q1.26-.27,2.5-0.58l0.56-.14c0.92-.24,1.83-0.5,2.74-0.78l1-.3c0.88-.28,1.75-0.57,2.61-0.89l0.81-.31q1-.38,2-0.78l1-.41q1.21-.52,2.4-1.09l1-.48q0.91-.45,1.8-0.92l0.85-.45a70.76,70.76,0,0,0,36.84-62V28.63H108.13Z" transform="translate(-5.57 -0.08)"/><path class="c" d="M26.83,110.69V259.27H27l10.44-10.44V99.12c0-1,0-2.06.08-3.09,0-.24,0-0.49,0-0.73,0.05-1,.13-2,0.22-3,0-.19,0-0.37.06-0.56q0.13-1.24.31-2.47c0-.29.08-0.58,0.13-0.87q0.21-1.36.47-2.71c0.07-.34.14-0.68,0.21-1q0.2-1,.43-1.9c0.09-.36.17-0.73,0.27-1.09,0.21-.8.43-1.6,0.67-2.39,0.14-.46.28-0.91,0.43-1.37s0.3-.91.46-1.37q0.4-1.18.85-2.34c0.14-.37.29-0.75,0.44-1.12q0.32-.8.67-1.59l0.38-.84q0.64-1.42,1.34-2.81l0.38-.75c0.29-.56.58-1.11,0.89-1.66h0l-1.29-1.29-5.17,5.17c-1.35,2.59-2.91,5.53-4.3,8A69.65,69.65,0,0,0,26.83,110.69Z" transform="translate(-5.57 -0.08)"/><path class="d" d="M24.83,261.27V110.69a71.67,71.67,0,0,1,8.78-34.34c0.38-.67.78-1.4,1.19-2.13L21.43,87.57a55.55,55.55,0,0,0-15.86,38.9V280.66L25,261.27H24.83Z" transform="translate(-5.57 -0.08)"/><path class="e" d="M218.12,241.53l-1,.48q-1.19.57-2.4,1.09l-1,.41q-1,.41-2,0.78l-0.81.31c-0.86.31-1.74,0.61-2.61,0.89l-1,.3c-0.91.28-1.82,0.54-2.74,0.78l-0.56.14q-1.24.31-2.5,0.58l-0.82.17q-1.45.29-2.92,0.52l-0.68.1q-1.34.2-2.7,0.34l-0.55.06q-1.07.11-2.16,0.18l0,0.14h-3.1L175,255l-19.27-6.19H143l-35.7,0v0H37.41L27,259.27H50.41c0.65-1.56,1.6-2.55,2.66-2.55h8.49a2.12,2.12,0,0,1,1.45.66,2.12,2.12,0,0,1,1.45-.66h8.49a2.11,2.11,0,0,1,1.45.66,2.12,2.12,0,0,1,1.45-.66h8.49c1.06,0,2,1,2.66,2.55h46.93c0.65-1.56,1.6-2.55,2.66-2.55h8.49a2.12,2.12,0,0,1,1.45.66,2.12,2.12,0,0,1,1.45-.66h8.49a2.11,2.11,0,0,1,1.45.66,2.12,2.12,0,0,1,1.45-.66h8.49c1.06,0,2,1,2.66,2.55h4.92a69.67,69.67,0,0,0,33.38-8.53c2.69-1.53,5.88-3.27,8.49-4.67l-5,5-2.5,1.41a71.69,71.69,0,0,1-34.36,8.79h-4.32a15,15,0,0,1,.29,3c0,4.15-1.59,7.52-3.55,7.52h-8.49a2.12,2.12,0,0,1-1.45-.66,2.11,2.11,0,0,1-1.45.66H148a2.12,2.12,0,0,1-1.45-.66,2.12,2.12,0,0,1-1.45.66h-8.49c-2,0-3.55-3.37-3.55-7.52a15,15,0,0,1,.29-3H87.59a15,15,0,0,1,.29,3c0,4.15-1.59,7.52-3.55,7.52H75.84a2.12,2.12,0,0,1-1.45-.66,2.11,2.11,0,0,1-1.45.66H64.45A2.12,2.12,0,0,1,63,271.1a2.12,2.12,0,0,1-1.45.66H53.07c-2,0-3.55-3.37-3.55-7.52a15,15,0,0,1,.29-3H25l-19.4,19.4H159.76a55.55,55.55,0,0,0,38.9-15.86l23.39-23.39-1.27-1.27h0l-0.85.45Q219,241.08,218.12,241.53Z" transform="translate(-5.57 -0.08)"/><path class="f" d="M218.12,241.53l-1,.48q-1.19.57-2.4,1.09l-1,.41q-1,.41-2,0.78l-0.81.31c-0.86.31-1.74,0.61-2.61,0.89l-1,.3c-0.91.28-1.82,0.54-2.74,0.78l-0.56.14q-1.24.31-2.5,0.58l-0.82.17q-1.45.29-2.92,0.52l-0.68.1q-1.34.2-2.7,0.34l-0.55.06q-1.07.11-2.16,0.18l0,0.14h-3.1L175,255l-19.27-6.19H143l-35.7,0v0H37.41L27,259.27H50.41c0.65-1.56,1.6-2.55,2.66-2.55h8.49a2.12,2.12,0,0,1,1.45.66,2.12,2.12,0,0,1,1.45-.66h8.49a2.11,2.11,0,0,1,1.45.66,2.12,2.12,0,0,1,1.45-.66h8.49c1.06,0,2,1,2.66,2.55h46.93c0.65-1.56,1.6-2.55,2.66-2.55h8.49a2.12,2.12,0,0,1,1.45.66,2.12,2.12,0,0,1,1.45-.66h8.49a2.11,2.11,0,0,1,1.45.66,2.12,2.12,0,0,1,1.45-.66h8.49c1.06,0,2,1,2.66,2.55h4.92a69.67,69.67,0,0,0,33.38-8.53c2.69-1.53,5.88-3.27,8.49-4.67l-5,5-2.5,1.41a71.69,71.69,0,0,1-34.36,8.79h-4.32a15,15,0,0,1,.29,3c0,4.15-1.59,7.52-3.55,7.52h-8.49a2.12,2.12,0,0,1-1.45-.66,2.11,2.11,0,0,1-1.45.66H148a2.12,2.12,0,0,1-1.45-.66,2.12,2.12,0,0,1-1.45.66h-8.49c-2,0-3.55-3.37-3.55-7.52a15,15,0,0,1,.29-3H87.59a15,15,0,0,1,.29,3c0,4.15-1.59,7.52-3.55,7.52H75.84a2.12,2.12,0,0,1-1.45-.66,2.11,2.11,0,0,1-1.45.66H64.45A2.12,2.12,0,0,1,63,271.1a2.12,2.12,0,0,1-1.45.66H53.07c-2,0-3.55-3.37-3.55-7.52a15,15,0,0,1,.29-3H25l-19.4,19.4H159.76a55.55,55.55,0,0,0,38.9-15.86l23.39-23.39-1.27-1.27h0l-0.85.45Q219,241.08,218.12,241.53Z" transform="translate(-5.57 -0.08)"/><path class="g" d="M188.62,248.8h3.1l0-.14-0.95.06-0.72,0-1.47.05h0Z" transform="translate(-5.57 -0.08)"/><path class="h" d="M188.62,248.8h3.1l0-.14-0.95.06-0.72,0-1.47.05h0Z" transform="translate(-5.57 -0.08)"/><polygon class="i" points="137.46 248.75 101.76 248.75 101.76 248.77 137.46 248.75"/><polygon class="j" points="137.46 248.75 101.76 248.75 101.76 248.77 137.46 248.75"/><path class="b" d="M207,193.9l-12.69,45.46a61.83,61.83,0,0,0,54.27-61.25V37.64H190.3a30.27,30.27,0,0,1,13.07,32.57c-0.23,1-.52,1.92-0.84,2.84a30.26,30.26,0,0,1-58.4-15c0.12-.67.24-1.34,0.41-2s0.4-1.49.63-2.21a30.14,30.14,0,0,1,12.45-16.15H108.14c-33.87,0-61.72,28-61.72,61.49v57a32.55,32.55,0,1,1,1.69,32.51,32.92,32.92,0,0,1-1.69-2.93v54.17H107.6L109.74,169Z" transform="translate(-5.57 -0.08)"/><path class="b" d="M186.38,106.14h0.06l9.71-1.2,10.36-1.28,16.21-2a8.6,8.6,0,0,1,9.57,7.45l1.64,13.23,3.39,27.31,0.53,4.26,0.71,5.68a8.5,8.5,0,0,1-.77,4.7,8.58,8.58,0,0,1-6.55,4.84l-0.13,0L205,172.36l-10.14,1.26a8.61,8.61,0,0,1-9.56-7.45l-0.7-5.67L184,156.25l-5-40.55A8.6,8.6,0,0,1,186.38,106.14Z" transform="translate(-5.57 -0.08)"/><ellipse class="b" cx="100.5" cy="98.25" rx="28.77" ry="23.48" transform="matrix(0.99, -0.15, 0.15, 0.99, -18.96, 15.81)"/><path class="k" d="M194.35,239.36a61.83,61.83,0,0,0,54.27-61.25V37.64H190.3a30.27,30.27,0,0,1,13.07,32.57c-0.23,1-.52,1.92-0.84,2.84a30.26,30.26,0,0,1-58.4-15c0.12-.67.24-1.34,0.41-2s0.4-1.49.63-2.21a30.14,30.14,0,0,1,12.45-16.15H108.14c-33.87,0-61.72,28-61.72,61.49v57a32.55,32.55,0,1,1,1.69,32.51,32.92,32.92,0,0,1-1.69-2.93v54.17H107.6l36.85,1.08,49.9-1.55" transform="translate(-5.57 -0.08)"/><path class="l" d="M186.38,106.14h0.06l9.71-1.2,10.36-1.28,16.21-2a8.6,8.6,0,0,1,9.57,7.45l1.64,13.23,3.39,27.31,0.53,4.26,0.71,5.68a8.5,8.5,0,0,1-.77,4.7,8.58,8.58,0,0,1-6.55,4.84l-0.13,0L205,172.36l-10.14,1.26a8.61,8.61,0,0,1-9.56-7.45l-0.7-5.67L184,156.25l-5-40.55A8.6,8.6,0,0,1,186.38,106.14Z" transform="translate(-5.57 -0.08)"/><ellipse class="m" cx="100.5" cy="98.25" rx="28.77" ry="23.48" transform="matrix(0.99, -0.15, 0.15, 0.99, -18.96, 15.81)"/><polygon class="b" points="105.86 237.18 121.49 177.32 121.1 177.22 105.86 237.18"/><polygon class="n" points="105.86 237.18 121.49 177.32 121.1 177.22 105.86 237.18"/><path class="b" d="M186.44,106.13h-0.06l9.77-1.21Z" transform="translate(-5.57 -0.08)"/><path class="o" d="M186.44,106.13h-0.06l9.77-1.21Z" transform="translate(-5.57 -0.08)"/><path class="p" d="M24.83,110.69V261.27h25a10.81,10.81,0,0,1,.6-2H26.83V110.69a69.65,69.65,0,0,1,8.52-33.37c1.38-2.43,2.95-5.37,4.3-8l0.23-.44-4.83,4.83-0.25.46c-0.4.74-.8,1.46-1.19,2.13A71.67,71.67,0,0,0,24.83,110.69Z" transform="translate(-5.57 -0.08)"/><path class="p" d="M133.31,261.27a10.81,10.81,0,0,1,.6-2H87a10.81,10.81,0,0,1,.6,2h45.72Z" transform="translate(-5.57 -0.08)"/><path class="p" d="M175.41,261.27a71.69,71.69,0,0,0,34.36-8.79l2.5-1.41,5-5c-2.61,1.4-5.8,3.14-8.49,4.67a69.67,69.67,0,0,1-33.38,8.53h-4.92a10.81,10.81,0,0,1,.6,2h4.32Z" transform="translate(-5.57 -0.08)"/><path class="q" d="M78.5,259.27a10.81,10.81,0,0,1,.6,2,15,15,0,0,1,.29,3c0,4.14-1.58,7.51-3.54,7.52h8.48c2,0,3.55-3.37,3.55-7.52a15,15,0,0,0-.29-3,10.81,10.81,0,0,0-.6-2c-0.65-1.56-1.6-2.55-2.66-2.55H75.85C76.9,256.73,77.85,257.71,78.5,259.27Z" transform="translate(-5.57 -0.08)"/><path class="r" d="M75.6,259.27a10.81,10.81,0,0,1,.6,2,15,15,0,0,1,.29,3c0,3-.86,5.67-2.09,6.85h0a2.12,2.12,0,0,0,1.45.66h0c2,0,3.54-3.37,3.54-7.52a15,15,0,0,0-.29-3,10.81,10.81,0,0,0-.6-2c-0.65-1.55-1.59-2.54-2.65-2.55h0a2.12,2.12,0,0,0-1.45.66h0A5.56,5.56,0,0,1,75.6,259.27Z" transform="translate(-5.57 -0.08)"/><path class="q" d="M67.11,259.27a10.8,10.8,0,0,1,.6,2,15,15,0,0,1,.29,3c0,4.14-1.58,7.5-3.54,7.52h8.48a2.11,2.11,0,0,0,1.45-.66h0c1.23-1.18,2.09-3.8,2.09-6.85a15,15,0,0,0-.29-3,10.81,10.81,0,0,0-.6-2,5.56,5.56,0,0,0-1.2-1.88h0a2.11,2.11,0,0,0-1.45-.66H64.46C65.52,256.73,66.46,257.71,67.11,259.27Z" transform="translate(-5.57 -0.08)"/><path class="r" d="M64.21,259.27a10.81,10.81,0,0,1,.6,2,15,15,0,0,1,.29,3c0,3-.86,5.67-2.09,6.85h0a2.12,2.12,0,0,0,1.45.66h0c2,0,3.54-3.37,3.54-7.52a15,15,0,0,0-.29-3,10.8,10.8,0,0,0-.6-2c-0.65-1.55-1.59-2.54-2.65-2.55h0a2.12,2.12,0,0,0-1.45.66h0A5.56,5.56,0,0,1,64.21,259.27Z" transform="translate(-5.57 -0.08)"/><path class="q" d="M55.73,259.27a10.81,10.81,0,0,1,.6,2,15,15,0,0,1,.29,3c0,4.14-1.58,7.51-3.54,7.52h8.48A2.12,2.12,0,0,0,63,271.1h0c1.23-1.18,2.09-3.8,2.09-6.85a15,15,0,0,0-.29-3,10.81,10.81,0,0,0-.6-2,5.56,5.56,0,0,0-1.2-1.88h0a2.12,2.12,0,0,0-1.45-.66H53.08C54.13,256.72,55.08,257.71,55.73,259.27Z" transform="translate(-5.57 -0.08)"/><path class="r" d="M49.52,264.24c0,4.15,1.59,7.52,3.55,7.52h0c2,0,3.54-3.37,3.54-7.52a15,15,0,0,0-.29-3,10.81,10.81,0,0,0-.6-2c-0.65-1.55-1.59-2.54-2.65-2.55h0c-1.06,0-2,1-2.66,2.55a10.81,10.81,0,0,0-.6,2A15,15,0,0,0,49.52,264.24Z" transform="translate(-5.57 -0.08)"/><path class="q" d="M162,259.27a10.81,10.81,0,0,1,.6,2,15,15,0,0,1,.29,3c0,4.14-1.58,7.51-3.54,7.52h8.48c2,0,3.55-3.37,3.55-7.52a15,15,0,0,0-.29-3,10.81,10.81,0,0,0-.6-2c-0.65-1.56-1.6-2.55-2.66-2.55h-8.48C160.4,256.73,161.35,257.71,162,259.27Z" transform="translate(-5.57 -0.08)"/><path class="r" d="M159.1,259.27a10.81,10.81,0,0,1,.6,2,15,15,0,0,1,.29,3c0,3-.86,5.67-2.09,6.85h0a2.12,2.12,0,0,0,1.45.66h0c2,0,3.54-3.37,3.54-7.52a15,15,0,0,0-.29-3,10.81,10.81,0,0,0-.6-2c-0.65-1.55-1.59-2.54-2.65-2.55h0a2.12,2.12,0,0,0-1.45.66h0A5.56,5.56,0,0,1,159.1,259.27Z" transform="translate(-5.57 -0.08)"/><path class="q" d="M150.61,259.27a10.8,10.8,0,0,1,.6,2,15,15,0,0,1,.29,3c0,4.14-1.58,7.5-3.54,7.52h8.48a2.11,2.11,0,0,0,1.45-.66h0c1.23-1.18,2.09-3.8,2.09-6.85a15,15,0,0,0-.29-3,10.81,10.81,0,0,0-.6-2,5.56,5.56,0,0,0-1.2-1.88h0a2.11,2.11,0,0,0-1.45-.66H148C149,256.73,150,257.71,150.61,259.27Z" transform="translate(-5.57 -0.08)"/><path class="r" d="M147.71,259.27a10.81,10.81,0,0,1,.6,2,15,15,0,0,1,.29,3c0,3-.86,5.67-2.09,6.85h0a2.12,2.12,0,0,0,1.45.66h0c2,0,3.54-3.37,3.54-7.52a15,15,0,0,0-.29-3,10.8,10.8,0,0,0-.6-2c-0.65-1.55-1.59-2.54-2.65-2.55h0a2.12,2.12,0,0,0-1.45.66h0A5.56,5.56,0,0,1,147.71,259.27Z" transform="translate(-5.57 -0.08)"/><path class="q" d="M139.23,259.27a10.81,10.81,0,0,1,.6,2,15,15,0,0,1,.29,3c0,4.14-1.58,7.51-3.54,7.52h8.48a2.12,2.12,0,0,0,1.45-.66h0c1.23-1.18,2.09-3.8,2.09-6.85a15,15,0,0,0-.29-3,10.81,10.81,0,0,0-.6-2,5.56,5.56,0,0,0-1.2-1.88h0a2.12,2.12,0,0,0-1.45-.66h-8.48C137.63,256.72,138.58,257.71,139.23,259.27Z" transform="translate(-5.57 -0.08)"/><path class="r" d="M133,264.24c0,4.15,1.59,7.52,3.55,7.52h0c2,0,3.54-3.37,3.54-7.52a15,15,0,0,0-.29-3,10.81,10.81,0,0,0-.6-2c-0.65-1.55-1.59-2.54-2.65-2.55h0c-1.06,0-2,1-2.66,2.55a10.81,10.81,0,0,0-.6,2A15,15,0,0,0,133,264.24Z" transform="translate(-5.57 -0.08)"/><polygon class="q" points="99.76 16 99.78 16 99.78 11.39 187.09 11.39 187.11 11.39 187.11 16 187.11 16.02 187.09 16.02 187.09 28.55 196.09 28.55 196.09 0 194.96 0 187.09 0 99.76 0 96.56 0 90.76 0 90.76 28.55 99.76 28.55 99.76 16"/><polygon class="s" points="187.11 16 187.11 11.39 187.09 11.39 99.78 11.39 99.78 16 99.78 16.02 187.09 16.02 187.11 16.02 187.11 16"/><ellipse class="b" cx="100.5" cy="98.25" rx="28.77" ry="23.48" transform="translate(-18.96 15.81) rotate(-8.48)"/><path class="b" d="M119.86,96.93l-0.75.13-0.26,0L108.19,99a0.48,0.48,0,0,0-.42.35q-3.23,8.6-6.47,17.19a0.46,0.46,0,0,1-.42.34l-3.71.64-0.3.08,0,0a0.83,0.83,0,0,0,0-.11q1.14-8.37,2.27-16.74c0-.09,0-0.17,0-0.35a2.44,2.44,0,0,1-.34.12c-2.66.46-5.32,0.93-8,1.38a0.72,0.72,0,0,0-.58.43c-0.65,1.24-1.33,2.46-2,3.7a0.49,0.49,0,0,1-.39.28l-2.91.5-0.26,0c0-.14,0-0.24,0-0.34,0.24-1.85.49-3.69,0.71-5.54a1,1,0,0,0-.09-0.52q-1.26-2.5-2.55-5l-0.14-.28,0.11,0c1.05-.19,2.11-0.37,3.16-0.54a0.45,0.45,0,0,1,.32.12q1.65,1.48,3.28,3a0.46,0.46,0,0,0,.44.12l8.18-1.43,0.25-.06L98.31,96,90.6,80.92a2.45,2.45,0,0,0-.14-0.21l0,0,0.28,0L94.54,80a0.45,0.45,0,0,1,.49.18L107.1,94.51a0.52,0.52,0,0,0,.56.21l10.4-1.82,0.49-.08,0.59-.1A2.14,2.14,0,1,1,119.86,96.93Z" transform="translate(-5.57 -0.08)"/><path d="M119.13,92.71l-0.59.1-0.49.08-10.4,1.82a0.52,0.52,0,0,1-.56-0.21L95,80.14A0.45,0.45,0,0,0,94.54,80l-3.76.66-0.28,0,0,0a2.45,2.45,0,0,1,.14.21L98.31,96l0.11,0.23-0.25.06L90,97.71a0.46,0.46,0,0,1-.44-0.12q-1.63-1.49-3.28-3a0.45,0.45,0,0,0-.32-0.12c-1.06.17-2.11,0.36-3.16,0.54l-0.11,0,0.14,0.28q1.28,2.5,2.55,5a1,1,0,0,1,.09.52c-0.23,1.85-.47,3.69-0.71,5.54,0,0.1,0,.21,0,0.34l0.26,0,2.91-.5a0.49,0.49,0,0,0,.39-0.28c0.66-1.23,1.33-2.46,2-3.7a0.72,0.72,0,0,1,.58-0.43c2.67-.45,5.32-0.92,8-1.38a2.44,2.44,0,0,0,.34-0.12c0,0.18,0,.26,0,0.35q-1.13,8.37-2.27,16.74a0.83,0.83,0,0,1,0,.11l0,0,0.3-.08,3.71-.64a0.46,0.46,0,0,0,.42-0.34q3.23-8.59,6.47-17.19a0.48,0.48,0,0,1,.42-0.35l10.66-1.86,0.26,0,0.75-.13A2.14,2.14,0,1,0,119.13,92.71Z" transform="translate(-5.57 -0.08)"/><path class="t" d="M93.14,198.17a32.55,32.55,0,1,0-46.72-12.5,32.92,32.92,0,0,0,1.69,2.93A32.55,32.55,0,0,0,93.14,198.17Z" transform="translate(-5.57 -0.08)"/><circle class="t" cx="75.42" cy="170.86" r="26.64" transform="translate(-86.45 68.53) rotate(-32.99)"/><circle class="u" cx="75.42" cy="170.86" r="26.64" transform="translate(-86.45 68.53) rotate(-32.99)"/><path class="u" d="M61.52,169.25a17.93,17.93,0,0,1,2.6-1.38,20.85,20.85,0,0,0,7.15,5.88,5,5,0,0,1-.64-1.53,20.61,20.61,0,0,1-6.18-6c-3.62-5.57.93-12.53,0.93-12.53s8.2-1.32,11.82,4.25a18.14,18.14,0,0,1,1.38,2.6,21,21,0,0,0-5.17,5.84,5,5,0,0,1,1.5-.44,20.32,20.32,0,0,1,5.32-5.21c5.57-3.62,12.53.93,12.53,0.93s1.32,8.2-4.25,11.82a18.3,18.3,0,0,1-2.6,1.38,21,21,0,0,0-5.4-4.91,5,5,0,0,1,.08,1.41,20.27,20.27,0,0,1,5.13,5.27c3.62,5.57-.93,12.53-0.93,12.53s-8.2,1.32-11.81-4.25a17.9,17.9,0,0,1-1.38-2.6,21,21,0,0,0,5.57-6.54,5,5,0,0,1-1.54.27A20.51,20.51,0,0,1,69.8,182c-5.57,3.62-12.53-.93-12.53-0.93S56,172.87,61.52,169.25Z" transform="translate(-5.57 -0.08)"/><path class="b" d="M72.77,166.74a5,5,0,0,1,.63-0.33,21,21,0,0,1,5.17-5.84,18.14,18.14,0,0,0-1.38-2.6c-3.62-5.57-11.82-4.25-11.82-4.25s-4.54,7-.93,12.53a20.61,20.61,0,0,0,6.18,6A5.06,5.06,0,0,1,72.77,166.74Z" transform="translate(-5.57 -0.08)"/><path class="b" d="M79.79,168.23a5.06,5.06,0,0,1,.7,1.75,21,21,0,0,1,5.4,4.91,18.3,18.3,0,0,0,2.6-1.38c5.57-3.62,4.25-11.82,4.25-11.82s-7-4.54-12.53-.93A20.32,20.32,0,0,0,74.9,166,5.07,5.07,0,0,1,79.79,168.23Z" transform="translate(-5.57 -0.08)"/><path class="b" d="M78.29,175.25a5,5,0,0,1-1.14.54,21,21,0,0,1-5.57,6.54,17.9,17.9,0,0,0,1.38,2.6c3.62,5.57,11.81,4.25,11.81,4.25s4.54-7,.93-12.53a20.27,20.27,0,0,0-5.13-5.27A5,5,0,0,1,78.29,175.25Z" transform="translate(-5.57 -0.08)"/><path class="b" d="M69.8,182a20.51,20.51,0,0,0,5.81-5.93,5.05,5.05,0,0,1-4.33-2.3h0a20.85,20.85,0,0,1-7.15-5.88,17.93,17.93,0,0,0-2.6,1.38c-5.57,3.62-4.25,11.81-4.25,11.81S64.22,185.61,69.8,182Z" transform="translate(-5.57 -0.08)"/><path class="t" d="M75.61,176.06a5,5,0,1,0-4.33-2.3h0A5.05,5.05,0,0,0,75.61,176.06Z" transform="translate(-5.57 -0.08)"/><path class="v" d="M184,156.25l28.63-3.56a45.77,45.77,0,0,0-1.67-5.6,53.66,53.66,0,0,0-5.48-11,41,41,0,0,1-5.14,9.25c-2.85,4.49-2.3,7.26-2.3,7.26s-4.79-2.88-5.36-11.32c-0.46.27-.84,0.49-1.11,0.66-4.27,2.71-4.75,5.13-4.75,5.13s-4.17-4.71,0-13.11a25.11,25.11,0,0,1,3.35-5.2c-1.2-.42-2.13-0.88-2.61-1.07-2.91-1.13-4.45-.29-4.45-0.29s1.39-4.46,7.51-6c4.67-1.17,7.28-.16,8.67,1-0.63-2.08-.61-5.73,3.8-10.56a15.87,15.87,0,0,1,3-2.58,17.66,17.66,0,0,1,.41-5.62l-10.36,1.28-9.77,1.21A8.6,8.6,0,0,0,179,115.7Z" transform="translate(-5.57 -0.08)"/><path class="v" d="M221.29,125.32l-0.91.61c9.24,4.56,11,10.83,11,10.83s-2.63-1.81-7.89-1.3c-1.84.18-7.35,1.36-13.23-.1a71.4,71.4,0,0,1,6.9,11.36c0.84,1.73,1.64,3.46,2.36,5.11l17.82-2.21-3.39-27.31A17.55,17.55,0,0,1,221.29,125.32Z" transform="translate(-5.57 -0.08)"/><path class="t" d="M206.1,109.27a11.33,11.33,0,0,1,7.78-2s-1.79,1.17-2.26,4.93c-0.09.7-.14,2.21-0.46,4a32.7,32.7,0,0,1,5.15-.6c10.83-.47,14.78,5.57,14.78,5.57s-2.89-.56-7.34,2.43c-0.52.35-1.35,1-2.44,1.75a17.55,17.55,0,0,0,12.65-3l-1.64-13.23a8.6,8.6,0,0,0-9.57-7.45l-16.21,2A17.66,17.66,0,0,0,206.1,109.27Z" transform="translate(-5.57 -0.08)"/><path class="w" d="M212.66,152.69L184,156.25l0.53,4.25,29-3.6C213.28,155.54,213,154.12,212.66,152.69Z" transform="translate(-5.57 -0.08)"/><path class="w" d="M221.25,155.94l16.6-2.06-0.53-4.26-17.82,2.21C220.14,153.28,220.73,154.66,221.25,155.94Z" transform="translate(-5.57 -0.08)"/><path class="x" d="M224.3,163.85a1.75,1.75,0,0,1-.41,2.13,6.24,6.24,0,0,1-3.43,1.29c-2.72.39-4.16,0.13-4.93-.25a1.35,1.35,0,0,1-.88-1s-0.26-4.14-1.13-9.14l-29,3.6,0.7,5.67a8.61,8.61,0,0,0,9.56,7.45L205,172.36l26.14-3.24,0.13,0a8.58,8.58,0,0,0,6.55-4.84,8.5,8.5,0,0,0,.77-4.7l-0.71-5.68-16.6,2.06C223.14,160.54,224.3,163.85,224.3,163.85Z" transform="translate(-5.57 -0.08)"/><path class="y" d="M196.94,141.47a25,25,0,0,1,1.12-3.81,39.15,39.15,0,0,1-5.35,3.64c0.57,8.43,5.36,11.32,5.36,11.32A20,20,0,0,1,196.94,141.47Z" transform="translate(-5.57 -0.08)"/><path class="z" d="M198.06,137.66a25,25,0,0,0-1.12,3.81,20,20,0,0,0,1.14,11.15s-0.55-2.77,2.3-7.26a41,41,0,0,0,5.14-9.25,27.28,27.28,0,0,0-2.94-3.73A18.18,18.18,0,0,1,198.06,137.66Z" transform="translate(-5.57 -0.08)"/><path class="aa" d="M214.65,166a1.35,1.35,0,0,0,.88,1c0.77,0.38,2.21.64,4.93,0.25a6.24,6.24,0,0,0,3.43-1.29,1.75,1.75,0,0,0,.41-2.13s-1.15-3.31-3-7.91c-0.53-1.28-1.12-2.67-1.75-4.1-0.73-1.65-1.52-3.38-2.36-5.11a71.4,71.4,0,0,0-6.9-11.36,20.52,20.52,0,0,1-4.07-1.46c-0.45-.22-0.89-0.45-1.34-0.71a12.06,12.06,0,0,1-2-1.43c-0.09.2-.19,0.41-0.3,0.6a27.28,27.28,0,0,1,2.94,3.73,53.66,53.66,0,0,1,5.48,11,45.77,45.77,0,0,1,1.67,5.6c0.34,1.43.62,2.85,0.86,4.21C214.39,161.91,214.65,166,214.65,166Z" transform="translate(-5.57 -0.08)"/><path class="z" d="M220.49,130.47a44.36,44.36,0,0,0-7.19-1.1,16.73,16.73,0,0,1-6.66.72h0a8.62,8.62,0,0,1-2.95-.82,7.5,7.5,0,0,1-.22,1c-0.05.17-.12,0.32-0.18,0.49-0.13.36-.27,0.71-0.42,1a12.06,12.06,0,0,0,2,1.43c0.44,0.26.89,0.49,1.34,0.71a20.52,20.52,0,0,0,4.07,1.46c5.88,1.45,11.39.28,13.23,0.1,5.26-.51,7.89,1.3,7.89,1.3A27,27,0,0,0,220.49,130.47Z" transform="translate(-5.57 -0.08)"/><path class="y" d="M189.8,137.68a27.59,27.59,0,0,1,3.34-3.63,44.43,44.43,0,0,0,4.92-5.12l0,0,0,0a8.68,8.68,0,0,1-3.66.68,13.6,13.6,0,0,1-4.21-.82,25.11,25.11,0,0,0-3.35,5.2c-4.15,8.4,0,13.11,0,13.11A15.6,15.6,0,0,1,189.8,137.68Z" transform="translate(-5.57 -0.08)"/><path class="ab" d="M202.57,132.37c0.11-.2.2-0.4,0.3-0.6s0.3-.69.42-1c0.06-.16.13-0.32,0.18-0.49a7.5,7.5,0,0,0,.22-1,5.91,5.91,0,0,1-2.37-2.08,6,6,0,0,1-.62-1.24c-0.06-.17-0.11-0.33-0.15-0.47v0a5.47,5.47,0,0,1-.16-0.86h0a8.09,8.09,0,0,1-3.28.74H197a15.37,15.37,0,0,1-2.54-.14,27.42,27.42,0,0,0-5-.44,11.65,11.65,0,0,0-6.33,2.66s1.54-.84,4.45.29c0.48,0.19,1.41.65,2.61,1.07a13.6,13.6,0,0,0,4.21.82,8.68,8.68,0,0,0,3.66-.68l0,0,0,0a44.43,44.43,0,0,1-4.92,5.12,27.59,27.59,0,0,0-3.34,3.63,15.6,15.6,0,0,0-2.94,9.41s0.48-2.42,4.75-5.13c0.27-.17.65-0.39,1.11-0.66a39.15,39.15,0,0,0,5.35-3.64A18.18,18.18,0,0,0,202.57,132.37Z" transform="translate(-5.57 -0.08)"/><path class="ab" d="M207.36,112.5c-0.16.25-.31,0.52-0.46,0.8-0.81,1.56-1.43,3.53-2.17,5.34a16.41,16.41,0,0,1,3.8-1.77,23.11,23.11,0,0,1,2.61-.69c0.33-1.78.38-3.29,0.46-4,0.47-3.76,2.26-4.93,2.26-4.93A14.2,14.2,0,0,0,207.36,112.5Z" transform="translate(-5.57 -0.08)"/><path class="u" d="M194.43,125.2a15.37,15.37,0,0,0,2.54.14h0.1a8.09,8.09,0,0,0,3.28-.74h0v-0.21c0-.06,0-0.17.07-0.33l0.07-.24v0a7.46,7.46,0,0,1,.44-1.09,10.37,10.37,0,0,1,3.78-4.06c0.74-1.8,1.36-3.78,2.17-5.34,0.15-.28.3-0.55,0.46-0.8a14.2,14.2,0,0,1,6.52-5.25,11.33,11.33,0,0,0-7.78,2,15.87,15.87,0,0,0-3,2.58c-4.41,4.83-4.43,8.48-3.8,10.56-1.4-1.13-4-2.14-8.67-1-6.13,1.54-7.51,6-7.51,6a11.65,11.65,0,0,1,6.33-2.66A27.42,27.42,0,0,1,194.43,125.2Z" transform="translate(-5.57 -0.08)"/><path class="ac" d="M204.74,118.64A10.37,10.37,0,0,0,201,122.7a7.46,7.46,0,0,0-.44,1.09v0l-0.07.24c0,0.15-.06.26-0.07,0.33v0.07h0l0.11,0h0l0.3,0.09,0.36,0.08,0.28,0,0.68,0.06a15.3,15.3,0,0,0,3-.16c0.41-.06.84-0.13,1.31-0.22l0.5-.1a29.92,29.92,0,0,0,4.54-1.46l1.85-.74A35.94,35.94,0,0,1,219.5,120a20.91,20.91,0,0,1,11.57,1.13s-3.95-6-14.78-5.57a32.7,32.7,0,0,0-5.15.6,23.11,23.11,0,0,0-2.61.69A16.41,16.41,0,0,0,204.74,118.64Z" transform="translate(-5.57 -0.08)"/><path class="y" d="M219.5,120a35.94,35.94,0,0,0-6.16,2.09l-1.85.74a29.92,29.92,0,0,1-4.54,1.46l-0.5.1c-0.47.09-.9,0.17-1.31,0.22a15.3,15.3,0,0,1-3,.16l-0.68-.06-0.28,0-0.36-.08-0.3-.09h0l-0.11,0h0v0.15a5.47,5.47,0,0,0,.16.86v0c0,0.15.09,0.31,0.15,0.47a6,6,0,0,0,.62,1.24,5.91,5.91,0,0,0,2.37,2.08,8.62,8.62,0,0,0,2.95.82h0a16.73,16.73,0,0,0,6.66-.72,44.36,44.36,0,0,1,7.19,1.1,27,27,0,0,1,10.87,6.3s-1.75-6.27-11-10.83l0.91-.61c1.09-.76,1.93-1.41,2.44-1.75,4.45-3,7.34-2.43,7.34-2.43A20.91,20.91,0,0,0,219.5,120Z" transform="translate(-5.57 -0.08)"/><polygon class="ad" points="169.46 254.95 183.05 248.72 183.05 248.72 183.05 248.72 183.03 248.72 183.03 248.72 183.03 248.72 182.99 248.72 182.35 248.72 180.51 248.72 161.11 248.75 150.19 248.76 169.46 254.95"/><polygon class="ae" points="128.64 225.83 137.08 228.03 141.64 212.32 142.52 209.31 133.05 206.84 132.55 208.97 128.64 225.83"/><polygon class="ae" points="143.39 229.68 151.83 231.88 155.98 217.6 157.27 213.16 147.8 210.69 146.97 214.28 143.39 229.68"/><polygon class="ae" points="158.15 233.53 166.58 235.74 170.31 222.88 172.02 217.02 162.55 214.54 161.38 219.59 158.15 233.53"/><polygon class="ae" points="182.99 248.72 183.03 248.72 183.03 248.72 183.03 248.72 183.03 248.7 185.35 239.6 196.21 196.83 121.49 177.32 105.86 237.18 115.72 239.75 150.13 248.74 180.51 248.72 182.35 248.72 182.99 248.72"/><polygon class="ae" points="177.3 218.4 175.79 224.9 172.9 237.38 174.22 237.73 173.69 239.75 173.64 239.94 175.21 240.35 174.63 242.57 176.2 242.98 175.63 245.19 177.39 245.65 176.76 248.06 144.96 239.75 113.97 231.66 114.59 229.25 116.35 229.71 116.93 227.5 118.5 227.91 119.08 225.69 120.65 226.1 121.23 223.89 122.32 224.18 127.31 207.04 127.77 205.46 123.14 204.25 124.17 200.34 124.22 200.35 157.63 193 182.92 215.68 175.13 213.65 182.91 215.68 181.89 219.59 177.3 218.4"/><polygon class="af" points="132.55 208.97 127.31 207.04 122.32 224.18 128.64 225.83 132.55 208.97"/><polygon class="af" points="141.64 212.32 137.08 228.03 143.39 229.68 146.97 214.28 141.64 212.32"/><polygon class="af" points="155.98 217.6 151.83 231.88 158.15 233.53 161.38 219.59 155.98 217.6"/><polygon class="af" points="166.58 235.74 172.9 237.38 175.79 224.9 170.31 222.88 166.58 235.74"/><polygon class="ag" points="133.05 206.84 127.77 205.46 127.31 207.04 132.55 208.97 133.05 206.84"/><polygon class="ag" points="146.97 214.28 147.8 210.69 142.52 209.31 141.64 212.32 146.97 214.28"/><polygon class="ag" points="161.38 219.59 162.55 214.54 157.27 213.16 155.98 217.6 161.38 219.59"/><polygon class="ag" points="170.31 222.88 175.79 224.9 177.3 218.4 172.02 217.02 170.31 222.88"/><polygon class="af" points="182.92 215.68 157.63 193 124.22 200.35 175.13 213.65 182.92 215.68"/><polygon class="af" points="133.65 200.53 157 195.39 174.66 211.24 133.65 200.53"/><polygon class="ag" points="133.65 200.53 174.66 211.24 157 195.39 133.65 200.53"/><polygon class="ag" points="175.13 213.65 124.22 200.35 124.17 200.34 143.27 206.71 148.33 208.4 157.74 211.54 162.85 213.24 172.21 216.37 177.37 218.09 181.89 219.59 182.91 215.68 175.13 213.65"/><polygon class="af" points="172.21 216.37 162.85 213.24 157.74 211.54 148.33 208.4 143.27 206.71 124.17 200.34 123.14 204.25 127.77 205.46 133.05 206.84 142.52 209.31 147.8 210.69 157.27 213.16 162.55 214.54 172.02 217.02 177.3 218.4 181.89 219.59 177.37 218.09 172.21 216.37"/><polygon class="af" points="172.1 239.75 120.6 226.3 120.65 226.1 119.08 225.69 118.5 227.91 163.84 239.75 174.63 242.57 175.21 240.35 173.64 239.94 173.59 240.14 172.1 239.75"/><polygon class="ag" points="158.15 233.53 151.83 231.88 143.39 229.68 137.08 228.03 128.64 225.83 122.32 224.18 121.23 223.89 120.65 226.1 120.6 226.3 172.1 239.75 173.59 240.14 173.64 239.94 173.69 239.75 174.22 237.73 172.9 237.38 166.58 235.74 158.15 233.53"/><polygon class="ag" points="118.5 227.91 116.93 227.5 116.35 229.71 154.8 239.75 175.63 245.19 176.2 242.98 174.63 242.57 163.84 239.75 118.5 227.91"/><polygon class="af" points="116.35 229.71 114.59 229.25 113.97 231.66 144.96 239.75 176.76 248.06 177.39 245.65 175.63 245.19 154.8 239.75 116.35 229.71"/><path class="ah" d="M199.06,79l-5.35-1.29h0l-7.9-1.91h-0.05l-2.53-.61a61.09,61.09,0,0,1-8.51,5.15l-0.06,0h0.06l-1.64,2.17-0.32-.08-2.07-.5-2.26-.54-2.06-.5L166,80.86l-0.46-2.68,0.13,0-0.1-.11a70.1,70.1,0,0,1-8.83-16.93l-7.29-1.76a1.78,1.78,0,0,1-.69-0.17l-3.91-.94h-0.06l-0.38-.09v0a2.24,2.24,0,0,1-.28-0.16,30.26,30.26,0,0,0,55.5,21.11,3.59,3.59,0,0,1-.57-0.08h0Z" transform="translate(-5.57 -0.08)"/><path class="ah" d="M162.23,79.27a1.66,1.66,0,0,1-2,1.23h0l-9.39-2.27h0a2,2,0,1,1,1.6-3.65,2.37,2.37,0,0,1,4.5,0,2.76,2.76,0,0,1,4.61,2.91A1.66,1.66,0,0,1,162.23,79.27Z" transform="translate(-5.57 -0.08)"/><path class="ah" d="M170.17,90.21a0.7,0.7,0,0,1-.85.52l-3.73-.9a0.71,0.71,0,0,1-.52-0.85L166,85.16a0.74,0.74,0,0,1,.85-0.52L168,84.93l1.42,0.34,1.14,0.28a0.73,0.73,0,0,1,.52.85Z" transform="translate(-5.57 -0.08)"/><path class="ah" d="M145.17,53.78a2.17,2.17,0,0,1,1.68.56A3.47,3.47,0,0,1,152,53.18a4,4,0,0,1,2.86-1.08,11.22,11.22,0,0,1,.26-2.74c1.26-5.2,4-9.49,8.66-11.73,4-1.89,9.4-2.32,16.61-.58,0.74,0.18,1.45.37,2.14,0.58,13.9,4.08,16.94,12.75,14.73,21.9a16,16,0,0,1-3.16,5.82,7.34,7.34,0,0,1,.78,2.77,4.77,4.77,0,0,1,4.76,3.79A3.5,3.5,0,0,1,202.53,73c0.32-.92.6-1.87,0.84-2.84A30.26,30.26,0,0,0,145.17,53.78Z" transform="translate(-5.57 -0.08)"/><path class="b" d="M144.4,58.2l0.38,0.09h0.06l3.91,0.94a1.78,1.78,0,0,0,.69.17l7.29,1.76,0-.11c-0.14-.4-0.29-0.81-0.41-1.21-0.26-.83-0.49-1.64-0.69-2.44-0.07-.28-0.13-0.56-0.19-0.83a22.23,22.23,0,0,1-.58-4.48A4,4,0,0,0,152,53.18a3.47,3.47,0,0,0-5.11,1.15,2.17,2.17,0,0,0-1.68-.56c-0.23.73-.45,1.46-0.63,2.21s-0.29,1.34-.41,2a2.24,2.24,0,0,0,.28.16v0Z" transform="translate(-5.57 -0.08)"/><path class="t" d="M194,58.77A15.67,15.67,0,0,1,192.17,63a7.38,7.38,0,0,1,1.88,2.35,16,16,0,0,0,3.16-5.82c2.21-9.15-.83-17.82-14.73-21.9-0.69-.2-1.4-0.4-2.14-0.58,0.72,0.17,1.41.37,2.07,0.58C194,41.25,196.22,49.68,194,58.77Z" transform="translate(-5.57 -0.08)"/><path class="t" d="M174,80.22l0.68,0.16,0.06,0a61.09,61.09,0,0,0,8.51-5.15l-1.73-.42a57.18,57.18,0,0,1-7.47,5.4Z" transform="translate(-5.57 -0.08)"/><path class="t" d="M155.59,57.41c0.2,0.8.42,1.61,0.69,2.44,0.13,0.4.27,0.81,0.41,1.21l0,0.11a70.1,70.1,0,0,0,8.83,16.93l0.1,0.11,0.68,0.16-0.08-.11a67.8,67.8,0,0,1-7.12-17c-0.3-1.17-.55-2.31-0.75-3.43-0.17-1-.3-1.91-0.37-2.82,0-.43,0-0.84-0.06-1.26a14.26,14.26,0,0,1,.31-3.63c1.36-5.65,4.14-10.28,8.92-12.49,3.34-1.55,7.66-1.91,13.16-.58-7.21-1.74-12.62-1.31-16.61.58-4.71,2.24-7.41,6.52-8.66,11.73a11.22,11.22,0,0,0-.26,2.74,22.23,22.23,0,0,0,.58,4.48C155.45,56.86,155.52,57.13,155.59,57.41Z" transform="translate(-5.57 -0.08)"/><path class="ai" d="M167.18,37.64c-4.77,2.21-7.55,6.85-8.92,12.49a14.26,14.26,0,0,0-.31,3.63c0,0.41,0,.83.06,1.26,0.07,0.9.2,1.85,0.37,2.82,0.2,1.12.45,2.27,0.75,3.43a67.8,67.8,0,0,0,7.12,17l0.08,0.11-0.68-.16-0.13,0L166,80.86,166.35,81l2.06,0.5L170.67,82l2.07,0.5,0.32,0.08,1.64-2.17h-0.06L174,80.22l0.06,0a57.18,57.18,0,0,0,7.47-5.4l-2.89-.7h0a56.73,56.73,0,0,1-5.71,5.83l0,0-1.52-.37,0,0c1.1-1.85,2.59-4.68,4.1-7.88a5,5,0,0,1,3.23-7.4,66,66,0,0,0,2.85-8.53c2.07-8.56,2.7-15.92,0-18.11a2.86,2.86,0,0,0-1.14-.58,3.12,3.12,0,0,0-2.57.58c-2.82,1.94-5.17,8.08-7,15.52-1.76,7.29-2.14,20-1.81,25.78,0,0,0,.06,0,0.09l-1.52-.37-0.05-.1c-2.51-6.32-5.52-19.83-3.76-27.12,1.56-6.44,4.34-11.7,8.8-13.8a11.58,11.58,0,0,1,7.87-.58C174.84,35.73,170.52,36.09,167.18,37.64Z" transform="translate(-5.57 -0.08)"/><path class="ai" d="M188.61,57.46a21.22,21.22,0,0,1-1.42,3.87,7.25,7.25,0,0,1,5,1.68A15.67,15.67,0,0,0,194,58.77c2.19-9.08-.06-17.52-11.61-21.13-0.66-.21-1.35-0.4-2.07-0.58a15.25,15.25,0,0,1,1.85.58C189.81,40.53,190.77,48.54,188.61,57.46Z" transform="translate(-5.57 -0.08)"/><path class="t" d="M172.47,37.64c-4.46,2.1-7.25,7.37-8.8,13.8-1.76,7.29,1.25,20.8,3.76,27.12l0.05,0.1L169,79s0-.05,0-0.09c-0.33-5.79,0-18.49,1.81-25.78,1.8-7.45,4.15-13.58,7-15.52a3.12,3.12,0,0,1,2.57-.58A11.58,11.58,0,0,0,172.47,37.64Z" transform="translate(-5.57 -0.08)"/><path class="t" d="M171.28,79.57l1.52,0.37,0,0a56.73,56.73,0,0,0,5.71-5.83,5,5,0,0,1-3.15-2.41c-1.51,3.2-3,6-4.1,7.88Z" transform="translate(-5.57 -0.08)"/><path class="t" d="M181.48,55.74a66,66,0,0,1-2.85,8.53,4.24,4.24,0,0,1,2.86.16,7.37,7.37,0,0,1,5.7-3.1,21.22,21.22,0,0,0,1.42-3.87c2.16-8.93,1.19-16.93-6.43-19.83a15.25,15.25,0,0,0-1.85-.58,2.86,2.86,0,0,1,1.14.58C184.19,39.82,183.55,47.18,181.48,55.74Z" transform="translate(-5.57 -0.08)"/><path class="b" d="M199.59,71.93a4.77,4.77,0,0,0-4.76-3.79,7.35,7.35,0,0,0-13.33-3.7,4.24,4.24,0,0,0-2.86-.16,5.05,5.05,0,0,0-.08,9.81h0l2.89,0.7,1.73,0.42,2.53,0.61h0.05l7.9,1.91h0L199.06,79h0a3.59,3.59,0,0,0,.57.08,30.09,30.09,0,0,0,2.9-6.06A3.5,3.5,0,0,0,199.59,71.93Z" transform="translate(-5.57 -0.08)"/><path class="b" d="M161.51,77.49a2.77,2.77,0,0,0-4.61-2.91,2.37,2.37,0,0,0-4.5,0,2,2,0,1,0-1.6,3.65h0l9.39,2.27h0A1.66,1.66,0,0,0,161.51,77.49Z" transform="translate(-5.57 -0.08)"/><path class="aj" d="M170.57,85.55l-1.14-.28L168,84.93l-1.18-.28a0.74,0.74,0,0,0-.85.52L165.07,89a0.71,0.71,0,0,0,.52.85l3.73,0.9a0.7,0.7,0,0,0,.85-0.52l0.92-3.82A0.73,0.73,0,0,0,170.57,85.55Z" transform="translate(-5.57 -0.08)"/></svg>