<?xml version="1.0" encoding="utf-8"?>
<!-- Generator: Adobe Illustrator 19.1.0, SVG Export Plug-In . SVG Version: 6.00 Build 0)  -->
<svg version="1.1" xmlns="http://www.w3.org/2000/svg" xmlns:xlink="http://www.w3.org/1999/xlink" x="0px" y="0px"
	 width="252.04px" height="252.02px" viewBox="0 0 252.04 252.02" enable-background="new 0 0 252.04 252.02" xml:space="preserve">
<g id="shadow">
</g>
<g id="window">
	<path fill="#FFFFFF" d="M102.55,0C83.79,0,66.07,7.39,52.63,20.81C39.22,34.2,31.84,51.85,31.84,70.49v149.7h149.44
		c39.02,0,70.76-31.72,70.76-70.72V0H102.55z"/>
	<linearGradient id="SVGID_1_" gradientUnits="userSpaceOnUse" x1="20.2701" y1="253.772" x2="20.2701" y2="36.3254">
		<stop  offset="0" style="stop-color:#0082BD"/>
		<stop  offset="0.2182" style="stop-color:#0078B4"/>
		<stop  offset="0.6558" style="stop-color:#00609E"/>
		<stop  offset="0.85" style="stop-color:#005495"/>
	</linearGradient>
	<path fill="url(#SVGID_1_)" d="M31.84,70.49c0-11.91,3.03-23.4,8.7-33.65l-1.29-1.29L15.86,58.93C6.06,68.99,0,82.7,0,97.84v154.19
		l31.84-31.84V70.49z"/>
	<linearGradient id="SVGID_2_" gradientUnits="userSpaceOnUse" x1="0.8222" y1="231.7637" x2="214.9717" y2="231.7637">
		<stop  offset="0" style="stop-color:#14B1E7"/>
		<stop  offset="0.1118" style="stop-color:#14ADE2"/>
		<stop  offset="0.2581" style="stop-color:#13A3D8"/>
		<stop  offset="0.4237" style="stop-color:#0E92C9"/>
		<stop  offset="0.6033" style="stop-color:#087CB6"/>
		<stop  offset="0.7923" style="stop-color:#0064A1"/>
		<stop  offset="0.9" style="stop-color:#005495"/>
	</linearGradient>
	<path fill="url(#SVGID_2_)" d="M181.28,220.19H31.84l0,0L0,252.02h154.19c15.14,0,28.85-6.06,38.9-15.86l23.39-23.39l-1.27-1.27
		C205.13,217.03,193.57,220.19,181.28,220.19z"/>
	<linearGradient id="SVGID_3_" gradientUnits="userSpaceOnUse" x1="41.4791" y1="210.6094" x2="243.2241" y2="8.8644">
		<stop  offset="0" style="stop-color:#ABE1FA"/>
		<stop  offset="0.1867" style="stop-color:#8CCDF1"/>
		<stop  offset="0.563" style="stop-color:#4EB2E5"/>
		<stop  offset="0.8455" style="stop-color:#00A3DE"/>
		<stop  offset="1" style="stop-color:#009EDB"/>
	</linearGradient>
	<path fill="url(#SVGID_3_)" d="M40.84,211.19V70.49c0-33.51,27.84-61.49,61.72-61.49h140.49v140.48
		c0,34.03-27.74,61.72-61.76,61.72H40.84z"/>
</g>
<g id="nest">
	<rect x="61.6" y="54.55" fill="#3F230D" width="157.6" height="111.91"/>
	<g>
		<path fill-rule="evenodd" clip-rule="evenodd" fill="#5B3815" stroke="#5B3815" stroke-width="11" stroke-miterlimit="10" d="
			M110.65,185.48c-8.33-5.86-16.72-10.95-24.55-17.46c-12.78-10.63-23.62-24.53-31.58-42.57c-3.37-7.63-5.88-15.78-6.43-24.89
			c-0.84-13.84,3.11-24.43,11.67-30.55c5.51-3.94,11.68-6.03,17.26-8.8c-3.94-2.22-8.6-5.08-13.5-2.19
			c-4.42,2.6-8.92,5.53-12.7,9.59c-8.06,8.67-9.37,20.94-7.44,34.28c1.76,12.23,5.82,22.97,11.11,32.73
			c13.45,24.77,30.76,41.77,51.65,51.42C108.02,187.91,109.82,188.63,110.65,185.48z"/>
		<path fill-rule="evenodd" clip-rule="evenodd" fill="#5B3815" stroke="#5B3815" stroke-width="11" stroke-miterlimit="10" d="
			M93.88,209.47c-3.49-4.4-6.24-8.42-9.37-11.71c-10.39-10.93-18.14-24.84-23.94-41.2c-1.85-5.23-4.35-10.01-6.7-14.85
			c-1.85-3.82-3.91-7.43-5.9-11.17C45.46,155.26,71.97,205.2,93.88,209.47z"/>
		<path fill-rule="evenodd" clip-rule="evenodd" fill="#5B3815" stroke="#5B3815" stroke-width="11" stroke-miterlimit="10" d="
			M63.91,176.28c7.14,15.96,17.68,18.97,29.53,16.6c14.06-2.81,26.53-10.84,37.35-23.96c1.33-1.61,2.39-3.66,3.16-6.38
			c-10.47,9.98-21.46,17.64-33.93,20.1C87.63,185.09,75.51,184,63.91,176.28z"/>
		<path fill-rule="evenodd" clip-rule="evenodd" fill="#5B3815" stroke="#5B3815" stroke-width="11" stroke-miterlimit="10" d="
			M125.45,157.91c-7.07-2.01-14.32-3.25-21.18-6.24c-8.26-3.6-16.38-8.13-24.23-13.29c-6.33-4.17-11.33-11.12-15.55-19.24
			c-1.91-3.68-4.72-6.43-7.12-9.6c-0.28,0.23-0.55,0.46-0.83,0.68c1.31,4.13,2.05,8.94,4.04,12.25c3.81,6.37,7.77,13.07,12.62,17.53
			C89.05,154.55,106.85,158.93,125.45,157.91z"/>
		<path fill-rule="evenodd" clip-rule="evenodd" fill="#5B3815" stroke="#5B3815" stroke-width="11" stroke-miterlimit="10" d="
			M160.96,63.69c-15.98-16.64-60.84-25.34-82.49-23.98c1.11,3.24,3.65,3.87,6.34,4.02c25.85,1.51,51.05,8.09,75.53,20.09
			C160.51,63.9,160.75,63.74,160.96,63.69z"/>
		<path fill-rule="evenodd" clip-rule="evenodd" fill="#5B3815" stroke="#5B3815" stroke-width="11" stroke-miterlimit="10" d="
			M180.02,176.01c16.18,3.88,47.55,1.8,56.71-17.96c3.5-6.08,4.89-25.38,3.83-24.33c-1.05,1.04-15.08,18.97-15.75,19.58
			c-8.5,7.75-18.92,12.75-30.21,15.23C188.92,169.04,184.87,172.52,180.02,176.01z"/>
		<path fill-rule="evenodd" clip-rule="evenodd" fill="#5B3815" stroke="#5B3815" stroke-width="11" stroke-miterlimit="10" d="
			M213.32,52.55c1.75,6,7.53,74.64-6.04,95.06c3.17,0.07,10.72-3.86,12.6-7.04c8.67-14.67,15.58-30.72,17.98-49.92
			c0.55-4.39-0.55-7.86-1.55-12.11C231.57,55.8,211.57,46.55,213.32,52.55z"/>
		<path fill-rule="evenodd" clip-rule="evenodd" fill="#5B3815" stroke="#5B3815" stroke-width="11" stroke-miterlimit="10" d="
			M37.54,98.53c-6.63,30.8,6.51,69.75,18.78,81.64c-0.51-1.51,0.16-0.35-0.28-1.29c-7.65-16.5-11.72-34.55-11.76-54.4
			c0-2.12-0.54-4.26-0.93-6.35C42.32,112.56,38.72,104.68,37.54,98.53z"/>
		<path fill-rule="evenodd" clip-rule="evenodd" fill="#5B3815" stroke="#5B3815" stroke-width="11" stroke-miterlimit="10" d="
			M165.88,168.14c2.05,4.22,4.34,5.98,7.49,4.4c1.65-0.83,3.29-1.79,4.84-2.95c13.48-10.12,25.06-23.6,34.71-40.39
			c2.46-4.29,4.81-8.83,5.14-14c-7.55,10.71-14.94,22.19-23.09,32.44C186.77,157.96,177.01,164.79,165.88,168.14z"/>
		<path fill-rule="evenodd" clip-rule="evenodd" fill="#5B3815" stroke="#5B3815" stroke-width="11" stroke-miterlimit="10" d="
			M120.11,176.75c-3.55-1.71-9.61-4.24-12.73-6.06c-2.42-1.42-5.12-2.8-6.89-5.35c-6.49-9.33-15.86-9.94-23.07-16.91
			c-0.19,0.34-0.39,0.69-0.58,1.03c2.08,3.05,4.01,6.33,6.26,9.1c8.37,10.3,18.16,16.77,28.7,21.25
			C114.7,181.05,118.46,179.47,120.11,176.75z"/>
		<path fill-rule="evenodd" clip-rule="evenodd" fill="#5B3815" stroke="#5B3815" stroke-width="11" stroke-miterlimit="10" d="
			M37.41,101.38c0.9-1.04,5.6-23.35,6.52-24.34c13.13-14.3,23.16-26.96,39.31-20.53c1.56,0.62,3.35,0.08,5.8,0.08
			c-2.94-6.43-5.58-9.46-10.24-9.37c-9.77,0.19-17.63-2.92-30.88,9.41c-4.1,3.82-7.19,8.31-9.5,11.92
			c-2.31,3.44-2.83,7.5-3.42,13.08S36.87,101.74,37.41,101.38z"/>
		<path fill-rule="evenodd" clip-rule="evenodd" fill="#5B3815" stroke="#5B3815" stroke-width="11" stroke-miterlimit="10" d="
			M199.74,51.8c0.09,1.63,1.88,2.55,2.49,3.57c14.35,24.32,15.58,27.85,20.54,60.85c3.08-4.44,4.76-8.83,3.4-15.38
			c-4.05-19.49-12.64-34.45-22.76-48.01c-0.54-0.72-1.01-1.52-1.52-2.28L199.74,51.8z"/>
		<path fill-rule="evenodd" clip-rule="evenodd" fill="#5B3815" stroke="#5B3815" stroke-width="11" stroke-miterlimit="10" d="
			M155.53,185.05c-15.65,14.77-32.92,14.84-50.62,11.25C117.75,211.16,147.96,204.23,155.53,185.05z"/>
		<path fill-rule="evenodd" clip-rule="evenodd" fill="#5B3815" stroke="#5B3815" stroke-width="11" stroke-miterlimit="10" d="
			M62.43,100.2c5.74-19.56,18.77-29.69,30.95-37.4c-1.21-3.72-2.84-4.66-5.58-3.13c-9.85,5.52-19.79,12.34-26.15,24.97
			C58.61,90.7,58.83,94.04,62.43,100.2z"/>
		<path fill-rule="evenodd" clip-rule="evenodd" fill="#5B3815" stroke="#5B3815" stroke-width="11" stroke-miterlimit="10" d="
			M234.82,86.3c2.92,25.43,0.09,52.43-12.48,67.81c-0.74,0.91-1.58,1.64-2.53,2.61c8.37-0.99,14.67-6.83,18.18-16.98
			c3.75-10.87,0.89-31.07,0.05-43.27C237.79,92.71,237.45,88.77,234.82,86.3z"/>
		<path fill-rule="evenodd" clip-rule="evenodd" fill="#5B3815" stroke="#5B3815" stroke-width="11" stroke-miterlimit="10" d="
			M225.49,167.22c-7.61,6.73-15.72,11.21-24.5,13.05c-8.88,1.86-17.71,2.34-26.96-0.16c2.05,4.63,4.11,7.49,8.09,7.55
			c14.12,0.22,27.58-3.13,39.92-13.37c1.56-1.29,2.82-3.3,4.22-4.98C226,168.61,225.74,167.92,225.49,167.22z"/>
		<path fill-rule="evenodd" clip-rule="evenodd" fill="#5B3815" stroke="#5B3815" stroke-width="11" stroke-miterlimit="10" d="
			M187.24,65.34c-13.58-13.13-42.34-24.94-54.19-21.45c0.89,0.38,1.76,0.95,2.67,1.12c13.31,2.5,25.88,8.49,37.95,16.6
			C178.01,64.52,182.2,67.25,187.24,65.34z"/>
		<path fill-rule="evenodd" clip-rule="evenodd" fill="#5B3815" stroke="#5B3815" stroke-width="11" stroke-miterlimit="10" d="
			M123.99,169.73c12.17-0.08,24.18-2.25,36.42-6.16c-1.67-3.8-2.93-6.45-6.67-5.51c-7.78,1.96-15.71,2.61-23.5,4.48
			c-2.42,0.58-4.57,3.36-6.84,5.13C123.59,168.35,123.79,169.04,123.99,169.73z"/>
		<path fill-rule="evenodd" clip-rule="evenodd" fill="#5B3815" stroke="#5B3815" stroke-width="11" stroke-miterlimit="10" d="
			M71.1,170.1c8.15,12.43,16.3,24.86,24.95,38.04c1.35-2.09,2.21-3.42,2.88-4.47c-4.78-8.22-8.82-16.57-13.88-23.39
			c-3.64-4.91-8.64-7.76-13.03-11.54C71.71,169.19,71.41,169.64,71.1,170.1z"/>
		<path fill-rule="evenodd" clip-rule="evenodd" fill="#5B3815" stroke="#5B3815" stroke-width="11" stroke-miterlimit="10" d="
			M149.44,176.98c-2.06-3.83-3.96-3.84-6.98-3.05c-6.51,1.7-13.25,2.13-19.89,2.1c-2.98-0.01-5.08,0.42-6.7,5.09
			C127.39,184.31,138.45,184.33,149.44,176.98z"/>
		<path fill-rule="evenodd" clip-rule="evenodd" fill="#5B3815" stroke="#5B3815" stroke-width="11" stroke-miterlimit="10" d="
			M125.82,210.05c-13.68-6.63-36.48-22.46-47.01-37.35c-1.38,2.65-0.71,2.67-2.11,5.37C88.25,194.11,110.76,208.53,125.82,210.05z"
			/>
		<path fill-rule="evenodd" clip-rule="evenodd" fill="#5B3815" stroke="#5B3815" stroke-width="11" stroke-miterlimit="10" d="
			M156.41,157.49c-20.5,4.89-0.06,7.85,3.59,6.18c14.6-5.07,28.75-15.03,34.27-22.55C183.06,146.43,176.91,152.6,156.41,157.49z"/>
		<path fill-rule="evenodd" clip-rule="evenodd" fill="#5B3815" stroke="#5B3815" stroke-width="11" stroke-miterlimit="10" d="
			M176.08,185.04c-2.63-2.45-5.22-5.01-7.92-7.31c-2.43-2.07-5.38-3.25-7.37-5.92c-2.45-3.29-4.7-3.83-7.59-2.15
			c-0.96,0.56-2,0.82-3.48,1.41c7.74,9.31,16.3,13.84,25.67,15.59C175.62,186.12,175.85,185.58,176.08,185.04z"/>
		<path fill-rule="evenodd" clip-rule="evenodd" fill="#5B3815" stroke="#5B3815" stroke-width="11" stroke-miterlimit="10" d="
			M153.71,192.96c7.61,2.86,19.46,0.4,27.21-5.5c-1.26-3.95-2.95-5.21-6.14-3.75c-3.62,1.66-7.49,2.9-11.28,3.05
			C159.5,186.93,156.91,190.1,153.71,192.96z"/>
		<path fill-rule="evenodd" clip-rule="evenodd" fill="#5B3815" stroke="#5B3815" stroke-width="11" stroke-miterlimit="10" d="
			M231.87,96.99c-0.28-3.31-0.05-6.42-0.83-8.88c-3.97-12.55-12.11-24.32-19.66-29.02C218,71.33,224.62,83.58,231.87,96.99z"/>
		<path fill-rule="evenodd" clip-rule="evenodd" fill="#5B3815" stroke="#5B3815" stroke-width="11" stroke-miterlimit="10" d="
			M160.75,44.86c12.52,3.73,24.7,7.37,36.87,11c0.05-0.42,0.1-0.83,0.16-1.25C186.49,44.66,174.04,43.16,160.75,44.86z"/>
		<path fill-rule="evenodd" clip-rule="evenodd" fill="#5B3815" stroke="#5B3815" stroke-width="11" stroke-miterlimit="10" d="
			M92.64,58c1.16,3.5,2.57,4.4,5.11,3.28c10.05-4.46,20.41-6.19,31.15-5.78C121.41,51.42,101.36,52.84,92.64,58z"/>
		<path fill-rule="evenodd" clip-rule="evenodd" fill="#5B3815" stroke="#5B3815" stroke-width="11" stroke-miterlimit="10" d="
			M226.65,139.54c-9.28,10.16-19.97,15.24-31.11,19.25C203.69,164.19,223.46,151.97,226.65,139.54z"/>
		<path fill-rule="evenodd" clip-rule="evenodd" fill="#5B3815" stroke="#5B3815" stroke-width="11" stroke-miterlimit="10" d="
			M72.81,86.17c9.27-5.09,17.76-9.75,26.45-14.53c-0.78-2.79-1.94-4.16-4.54-2.76C87.08,73,79.84,78.1,72.81,86.17z"/>
		<path fill-rule="evenodd" clip-rule="evenodd" fill="#5B3815" stroke="#5B3815" stroke-width="11" stroke-miterlimit="10" d="
			M81.19,44.67c-1.39-4.11,9.06-13.85,6.17-13.17c-4.22,1-14.74,5.81-20.04,9.7c-2.42,1.78-3.83,2.15-5.98,4.85
			c-2.34,2.7-8.18,13.04-8.08,13.42C60.74,58.81,73.4,45.34,81.19,44.67z"/>
		<path fill-rule="evenodd" clip-rule="evenodd" fill="#5B3815" stroke="#5B3815" stroke-width="11" stroke-miterlimit="10" d="
			M105.43,162.77c4.37,4.15,15.12,8.05,20.58,6.89c2.01-0.42,8.3-4.11,10.16-5.9c-0.15-0.56-0.45-1.74-0.6-2.3
			C122.25,163.11,112.06,162.77,105.43,162.77z"/>
		<path fill-rule="evenodd" clip-rule="evenodd" fill="#5B3815" stroke="#5B3815" stroke-width="11" stroke-miterlimit="10" d="
			M185.8,196.46c1.25,4.51,6.76,12.38,9.66,9.84c4.28-3.75,24.42-19.58,29.01-29.04C217.75,176.81,192.31,194.8,185.8,196.46z"/>
		<path fill-rule="evenodd" clip-rule="evenodd" fill="#5B3815" stroke="#5B3815" stroke-width="11" stroke-miterlimit="10" d="
			M98.43,66.74c3.54,6.76,10.01,4.84,16.31-4.75C109.45,63.53,104.17,65.07,98.43,66.74z"/>
		<path fill-rule="evenodd" clip-rule="evenodd" fill="#5B3815" stroke="#5B3815" stroke-width="11" stroke-miterlimit="10" d="
			M170.01,70.22c-6.53,0-13.06,0-19.59,0c0,0.37,0,0.75,0,1.12c4.52,0.95,9.02,2.33,13.56,2.64c2.04,0.14,4.15-1.85,6.23-2.88
			C170.15,70.81,170.08,70.51,170.01,70.22z"/>
		<path fill-rule="evenodd" clip-rule="evenodd" fill="#5B3815" stroke="#5B3815" stroke-width="11" stroke-miterlimit="10" d="
			M134.72,191.96c-4.91-1.47-22.06-6.74-27-7.96c-0.96-0.24-2.11,0.97-3.07,2.24c5.91,3.11,18.08,5.57,24.01,5.37
			C128.69,191.07,134.69,192.52,134.72,191.96z"/>
		<path fill-rule="evenodd" clip-rule="evenodd" fill="#5B3815" stroke="#5B3815" stroke-width="11" stroke-miterlimit="10" d="
			M203.95,50.11c-4.74-4.7-11.92-6.81-16.75-11.31c-1.65-1.54-7.77-4.12-9.62-5.23c-0.13,0.38,3.84,2.62,3.7,3.01
			c0.75,0.78,1.49,1.6,2.26,2.33c4.65,4.39,14.85,12.65,19.34,17.37c-4.82-5.07,1.96-1.07-0.99-5.72
			C201.89,50.56,203.95,50.11,203.95,50.11z"/>
		<path fill-rule="evenodd" clip-rule="evenodd" fill="#5B3815" stroke="#5B3815" stroke-width="11" stroke-miterlimit="10" d="
			M99.76,51.56C95.37,50.4,83.12,48.12,78,46.78c2.29,4.79,7.32,11.53,11.1,9.49c1.85-0.99,8.59-3.5,10.59-3.92
			C99.72,52.09,99.74,51.82,99.76,51.56z"/>
		<path fill-rule="evenodd" clip-rule="evenodd" fill="#5B3815" stroke="#5B3815" stroke-width="11" stroke-miterlimit="10" d="
			M194.03,59.88c-5.05-2.38-10.09-4.75-15.14-7.13c-0.06,0.22-0.11,0.45-0.17,0.67c4.08,3.12,11.86,8.28,15.96,12.34
			c0.65,0.65,3-1.4,4.01-1.66C198.71,63.4,194.01,60.6,194.03,59.88z"/>
		<path fill-rule="evenodd" clip-rule="evenodd" fill="#5B3815" stroke="#5B3815" stroke-width="11" stroke-miterlimit="10" d="
			M185.67,131.03c-1.51,0.79-3.02,1.59-4.86,2.56c0.68,2.47,1.29,4.66,1.89,6.85c0.33,0.06,0.67,0.12,1,0.19
			c0.88-2.92,1.77-5.83,2.65-8.75C186.13,131.59,185.9,131.31,185.67,131.03z"/>
		<path fill-rule="evenodd" clip-rule="evenodd" fill="#5B3815" stroke="#5B3815" stroke-width="11" stroke-miterlimit="10" d="
			M155.82,75.67c-10.38-12.06-32.44-9.85-36.25-10.88c-0.08,0.65,0.45-2.27,0.38-1.62c3.84,0.91,25.78,1.09,29.62,2
			C149.83,62.17,155.57,78.59,155.82,75.67z"/>
		<path fill-rule="evenodd" clip-rule="evenodd" fill="#5B3815" stroke="#5B3815" stroke-width="11" stroke-miterlimit="10" d="
			M178.05,142.84c1.2-0.58,2.18-1.06,3.43-1.67c-0.75-2.55-1.39-4.69-2.03-6.84c-0.28,0.07-0.56,0.13-0.85,0.19
			C178.44,137.14,178.26,139.75,178.05,142.84z"/>
	</g>
	<path fill-rule="evenodd" clip-rule="evenodd" fill="#5B3815" d="M138.58,216.08l58-5.5l7-10.5l8.5-16.5l-2.5-14
		c0,0-55.65,1.25-55.83,2.88s-52.67,21.12-52.17,23.62s-7.94,13.42-7.94,13.42l7.02,6.87L138.58,216.08z"/>
	<path fill-rule="evenodd" clip-rule="evenodd" fill="#5B3815" stroke="#5B3815" stroke-width="11" stroke-miterlimit="10" d="
		M74.12,56.33c41.94-30.15,82.17-24.13,122.03-9.08C171.4,5.97,99.87,10.87,74.12,56.33z"/>
	<path fill="#FFE600" d="M149.65,106.9c10.02,25.63,1.54,47.7-16.77,54.86c-18.31,7.16-39.51-3.3-49.53-28.93
		c-10.02-25.63-5.07-56.74,13.24-63.9C114.9,61.77,139.63,81.27,149.65,106.9z"/>
	<g>
		<path fill-rule="evenodd" clip-rule="evenodd" fill="#754D25" d="M185.4,218.73c3.76-4.87,6.72-9.32,10.1-12.97
			c11.2-12.11,19.55-27.5,25.8-45.63c2-5.79,4.69-11.09,7.22-16.45c1.99-4.23,4.79-9.25,6.93-13.39
			C238.15,157.68,209.01,214,185.4,218.73z"/>
		<path fill-rule="evenodd" clip-rule="evenodd" fill="#754D25" d="M151.38,161.62c7.62-2.23,15.43-3.6,22.82-6.91
			c8.9-3.98,17.65-9.01,26.11-14.72c6.83-4.61,12.21-12.31,16.75-21.3c2.06-4.08,5.08-7.12,7.67-10.63c0.3,0.25,0.59,0.5,0.89,0.76
			c-1.41,4.58-2.21,9.9-4.35,13.56c-4.1,7.05-8.37,14.48-13.6,19.42c-16.64,15.71-36.56,21.21-56.05,20.41
			C151.12,162.18,149.9,162,151.38,161.62z"/>
		<path fill-rule="evenodd" clip-rule="evenodd" fill="#754D25" d="M95.49,182.33c-20.37,1.67-52.4-5.16-62.27-27.05
			c-0.48-0.9-0.12-1.43,0.28-1.11c1.12,0.9,2.16,2,3.25,2.96c17.7,15.57,20.09,14.68,42.34,18.51c2.39,0.22,10.01,1.44,10.07,1.5
			C89.83,177.8,92.3,179.97,95.49,182.33z"/>
		<path fill-rule="evenodd" clip-rule="evenodd" fill="#754D25" d="M28.87,72.84c5.41,32.03,20.19,54.68,35.9,76.55
			c-3.41,0.24-12.82-3.4-15.02-6.82c-10.12-15.77-19.41-32.89-21.66-54.19c-0.71-6.69-0.43-10.26-0.09-15.28
			C28.12,71.96,28.71,71.9,28.87,72.84z"/>
		<path fill-rule="evenodd" clip-rule="evenodd" fill="#754D25" d="M243.4,98.45c6.32,29.5-3.87,80.49-18.26,89.68
			c-1.24,0.63,1.02-3.19,1.59-4.35c8.8-18.01,12.07-37.19,12.12-59.17c0.01-2.35,0.58-4.72,1-7.04
			C240.96,111.4,242.13,105.25,243.4,98.45z"/>
		<path fill-rule="evenodd" clip-rule="evenodd" fill="#754D25" d="M111.41,174.51c-2.21,4.67-3.27,3.01-6.47,2.29
			c-1.9-0.62-10.58,0.54-12.25-0.75c-14.53-11.21-25.15-27.62-35.55-46.21c-2.66-4.75-4.97-12.29-5.33-18.02
			c8.14,11.86,15.89,27.08,24.67,38.44C85.31,161.68,99.4,170.8,111.41,174.51z"/>
		<path fill-rule="evenodd" clip-rule="evenodd" fill="#754D25" d="M218.58,94.64c-6.18-21.66-19.51-29.8-32.64-38.35
			c1.3-4.12,3.06-5.16,6.01-3.46c10.61,6.12,19.02,13.93,25.86,27.91C221.09,87.45,222.46,87.81,218.58,94.64z"/>
		<path fill-rule="evenodd" clip-rule="evenodd" fill="#754D25" d="M33.32,91.12c-5.34,27.82,1.38,48.63,13.54,66.67
			c0.72,1.06,1.56,1.94,2.49,3.09c-8.91-1.8-15.17-8.78-18.06-20.28c-3.09-12.32-4.28-25.13-2.32-38.53
			C29.58,97.96,30.29,93.63,33.32,91.12z"/>
		<path fill-rule="evenodd" clip-rule="evenodd" fill="#754D25" d="M43.63,171.21c8.2,7.45,16.1,11.92,25.56,13.96
			c9.56,2.06,20.16,5.89,30.12,3.12c-4.12,4.62-15.04,3.72-21.01,3.05c-5.97-0.67-17.82-2.33-31.12-13.68
			c-1.68-1.43-2.57-3.11-4.08-4.97c-0.59-0.81-0.95-1.88-0.92-2.25C42.21,169.94,43.28,170.93,43.63,171.21z"/>
		<path fill-rule="evenodd" clip-rule="evenodd" fill="#754D25" d="M99.61,49.03c16.25-12.71,45.94-20.75,57.9-17.38
			c2.64,1.02,2.72,1.36,1.73,1.43c-23.6,1.62-36.78,9.92-50.76,17.3C103.45,53.03,104.76,51.78,99.61,49.03z"/>
		<path fill-rule="evenodd" clip-rule="evenodd" fill="#754D25" d="M216.35,177.72c-21.17,10.67-23.97,24.94-33.29,39.53
			c-1.45-2.32-2.38-3.79-3.1-4.95c5.15-9.1,11.19-19.69,16.64-27.25c4.85-5.59,14.58-10,20.58-14
			C217.51,171.55,216.02,177.21,216.35,177.72z"/>
		<path fill-rule="evenodd" clip-rule="evenodd" fill="#754D25" d="M112.32,182.17c2.22-4.24,15.36-2.5,18.62-1.62
			c7.02,1.89,11.12,3.5,26.88,1.62c3.19-0.38,2.51-0.17,4.25,5C149.65,190.72,124.16,190.32,112.32,182.17z"/>
		<path fill-rule="evenodd" clip-rule="evenodd" fill="#754D25" d="M152.89,219.47c14.74-7.35,37.41-24.97,48.75-41.46
			c1.49,2.94,0.77,2.96,2.27,5.95C191.47,201.71,169.12,217.78,152.89,219.47z"/>
		<path fill-rule="evenodd" clip-rule="evenodd" fill="#754D25" d="M92.57,176.58c5.05-0.03,9.99-0.17,15.24-0.74
			c5.25-0.57,11.76-0.73,17.33-2.93c5.62-2.22,2.59,0,1.38,0.91c-1.14,0.86-5.26,2.97-9.18,4.44c-9.86,3.7-18.54,3.47-18.54,3.47
			S93.1,177.01,92.57,176.58z"/>
		<path fill-rule="evenodd" clip-rule="evenodd" fill="#754D25" d="M40.84,94.26c-1.08,3.75-1.76-7.8,0.49-15.72
			c4.33-15.83,17.08-26.3,14.5-22.38C45.58,72.91,47.24,78.75,40.84,94.26z"/>
		<path fill-rule="evenodd" clip-rule="evenodd" fill="#754D25" d="M113.35,36.42c-13.49,4.14-26.61,8.16-39.73,12.18
			c-0.06-0.46-0.11-0.92-0.17-1.39C85.61,36.2,99.03,34.54,113.35,36.42z"/>
		<path fill-rule="evenodd" clip-rule="evenodd" fill="#754D25" d="M186.77,51.42c-1.45,3.81-3.02,4.72-5.69,3.34
			c-10.08-5.26-20.64-7.26-31.66-7.64c-0.52-0.02-0.64-0.46-0.12-0.63C158.43,43.33,178.18,45.56,186.77,51.42z"/>
		<path fill-rule="evenodd" clip-rule="evenodd" fill="#754D25" d="M43.18,128.92c7.6,14.73,20.01,32.9,31.41,40.81
			c2.28,1.39-1.26,0.86-2.13,0.59C60.27,166.45,43.28,143.57,43.18,128.92z"/>
		<path fill-rule="evenodd" clip-rule="evenodd" fill="#754D25" d="M208.1,82.17c-9.99-5.64-19.13-10.8-28.5-16.09
			c0.84-3.08,2.09-4.61,4.89-3.06C192.73,67.59,200.53,73.24,208.1,82.17z"/>
		<path fill-rule="evenodd" clip-rule="evenodd" fill="#754D25" d="M203.45,34.88c-3.93-1.67-9.32-2.55-14.78-2.67
			c-10.76-0.23-59.15,7.5-75.55,25.06c0.23,0.06,0.49,0.24,0.67,0.14c27.82-14.15,69.61-21.12,76.8-21.26
			c7.19-0.14,8.94,0.11,16.29,1.63C207.69,37.85,209.33,37.38,203.45,34.88z"/>
		<path fill-rule="evenodd" clip-rule="evenodd" fill="#754D25" d="M180.5,60.66c-3.81,7.49-10.78,5.36-17.57-5.26
			C168.62,57.1,174.31,58.81,180.5,60.66z"/>
		<path fill-rule="evenodd" clip-rule="evenodd" fill="#754D25" d="M83.24,27.21c-5.36,4.82-12.75,11.93-16.44,16.75
			C55.52,58.7,47.23,76.85,42.86,98.43c-1.47,7.25,0.34,12.11,3.66,17.03c5.3-36.26,18.75-62.61,22.9-67.61
			c4.15-5,18.4-15.62,23.3-20.38c0.83-0.81,7.03-5.66,6.88-6.09C99.06,20.03,88.09,22.83,83.24,27.21z"/>
		<path fill-rule="evenodd" clip-rule="evenodd" fill="#754D25" d="M236.27,60.57c-1.51-2.25-3.2-4.83-7.66-9
			c-8.7-8.16-15.59-8.96-26.06-10.14c-2.19-0.25-8.11-0.18-9.88,0.12c-6.31,0.44-13.29,1.22-16.39,1.87c0,0.3,6.5,8.81,6.5,8.81
			l9.46-2.01c0.41-0.01,7.81-1.66,7.81-1.66c15.09-2.14,25.65,1.28,36.71,16.21c0.88,1.19,1.93,2.73,2.57,3.7
			c0.64,0.97,0.82,0.24,0.64-0.62C239.42,66.35,237.05,61.73,236.27,60.57z"/>
		<path fill-rule="evenodd" clip-rule="evenodd" fill="#754D25" d="M79.76,127.39c-5.1-3.43-10.74-7.11-14.2-12.97
			c-7.14-12.08-8.51-21.37-2.88-33.25c3.38-7.12,6.64-11.09,10.88-17.31c1.04-1.52,2.19-2.69,5.12-5.44s9.56-6.82,17.12-11.46
			c-0.06-0.25-0.75-0.11-0.81-0.36c-5.44,2.63-16.31,5.38-21.56,10.19c-2.79,2.56-10.41,10.16-13.94,16
			c-8.78,14.5-7.27,31.48,1.81,45.62c6.73,10.48,14.93,16.41,24.64,22.21C84.97,134.13,83.72,130.05,79.76,127.39z"/>
		<path fill-rule="evenodd" clip-rule="evenodd" fill="#754D25" d="M86.5,131.85c1.63,0.88,3.26,1.76,5.24,2.83
			c-0.73,2.74-1.38,5.16-2.03,7.58c-0.36,0.07-0.72,0.14-1.08,0.21c-0.95-3.23-1.91-6.46-2.86-9.69
			C86,132.48,86.25,132.16,86.5,131.85z"/>
		<path fill-rule="evenodd" clip-rule="evenodd" fill="#754D25" d="M94.7,144.94c-1.29-0.65-2.35-1.17-3.7-1.85
			c0.81-2.82,1.5-5.2,2.18-7.57c0.3,0.07,0.61,0.14,0.91,0.21C94.29,138.63,94.48,141.52,94.7,144.94z"/>
	</g>
	<g>
		<path fill-rule="evenodd" clip-rule="evenodd" fill="#754D25" d="M83.17,35.6c21.92-18.25,37.79-18.74,66.1-14.48
			c0.97,0.25,2.12,0.11,1.15-0.34C120.21,6.93,84.55,18.25,83.17,35.6z"/>
		<path fill-rule="evenodd" clip-rule="evenodd" fill="#754D25" d="M42.3,88.05c1.44-16.83,7.05-33.34,18.99-43.16
			c2.09-1.74,0.51-1.38,0.03-1.29C51.11,45.62,35.88,69.79,42.3,88.05z"/>
		<path fill-rule="evenodd" clip-rule="evenodd" fill="#754D25" d="M37.73,92.73c-1.84-16.79,1.91-33.81,11.73-45.75
			c1.71-2.11,0.2-1.53-0.22-1.27c-13.69,8.46-20.26,29.56-11.9,48.27C37.56,94.43,37.88,93.61,37.73,92.73z"/>
		<path fill-rule="evenodd" clip-rule="evenodd" fill="#754D25" d="M100.91,216.34c-3.44-4.45-6.14-8.52-9.23-11.85
			c-10.23-11.07-17.97-25.38-23.69-41.94c-1.82-5.29-4.18-9.89-6.49-14.8c-1.82-3.87-3.85-7.52-5.81-11.31
			C50.32,143.72,79.32,212.02,100.91,216.34z"/>
		<path fill-rule="evenodd" clip-rule="evenodd" fill="#754D25" d="M99.07,193.05c7.38,13.12,26.76,9.52,35.5,8.25
			c13.09-1.9,25.25-6.08,35.35-19.49c1.31-1.63,2.36-3.7,3.12-6.45c-10.31,10.1-21.13,17.86-33.42,20.35
			C127.42,198.18,113.2,199.3,99.07,193.05z"/>
		<path fill-rule="evenodd" clip-rule="evenodd" fill="#754D25" d="M136.63,165.42c-6.97-2.04-18.74-4.57-25.5-7.59
			c-8.14-3.64-16.13-8.24-23.86-13.46c-6.24-4.22-11.16-11.25-15.31-19.47c-1.89-3.73-4.64-6.51-7.01-9.72
			c-0.27,0.23-0.54,0.46-0.82,0.69c1.29,4.18,2.02,9.05,3.97,12.4c3.75,6.44,7.65,13.24,12.43,17.75
			C96.14,160.75,118.32,166.46,136.63,165.42z"/>
		<path fill-rule="evenodd" clip-rule="evenodd" fill="#754D25" d="M185.74,182.48c15.93,3.93,51.65-12.08,60.67-32.09
			c0.83-2.5-0.31-1.45-1.58-0.17c-16.67,16.75-25.83,22.97-44.71,24.69C194.5,175.41,190.51,178.94,185.74,182.48z"/>
		<path fill-rule="evenodd" clip-rule="evenodd" fill="#754D25" d="M240.57,85.67c-0.65-5.64-2.14-16.05-8.38-22.95
			c-4.08-4.5-9.73-6.17-14.49-9.05c-5.28-3.2-9.5-1.6-13.74,0.85c6.02,3.07,12.66,5.38,18.6,9.74c9.22,6.78,13.49,18.51,12.58,33.84
			c-0.6,10.1-3.31,19.12-6.93,27.57c-2.65,6.18-5.61,11.92-8.83,17.26c-0.09,0.15-7.05,12.74-25.2,29.88
			c-7.53,7.12-20.12,16.1-24.68,18.08c-7.4,3.2-23.54,7.32-28.44,8.82c0.03,0.62,5.75-0.19,10.24-0.5
			c4.49-0.32,12.29-1.93,19.16-4.54c0.95-0.34,1.65-0.64,2.39-0.99c15.49-7.36,28.9-18.36,40.64-33.58
			c0.07-0.07,1.89-2.58,1.98-2.68c10.88-12.25,22.99-39.03,25.38-57.38C241.4,95.61,241.22,91.32,240.57,85.67z"/>
		<path fill-rule="evenodd" clip-rule="evenodd" fill="#754D25" d="M47.9,106.41c-5.53,25.81,4.19,74.62,20.56,87.18
			c0.8,0.61,2.79,2.35,2.66,1.37c-0.5-1.53-6.48-10.29-7.45-12.07c-8.78-16.08-11.55-32.47-11.6-52.57
			c-0.01-2.15-0.54-4.31-0.92-6.43C50.12,118.25,49.05,112.63,47.9,106.41z"/>
		<path fill-rule="evenodd" clip-rule="evenodd" fill="#754D25" d="M200.47,153.75c-5.32,5.16-16.05,14.52-22.64,18.07
			c-6.58,3.55-16.48,8.77-20.31,10.67c1.75,0.88,8.96,3.39,8.96,3.39s8.94-4.12,13.25-7.01c1.45-0.89,2.91-1.89,4.21-2.89
			c13.28-10.24,24.68-23.89,34.19-40.88c2.43-4.34,3.97-10.43,4.3-15.66C215,130.27,205.79,148.59,200.47,153.75z"/>
		<path fill-rule="evenodd" clip-rule="evenodd" fill="#754D25" d="M205.47,62.79c0.19,1.64-0.02,3.85,0.64,4.84
			c14.27,21.97,16.23,26.81,21.26,51.78c0.2,1,0.88,1.96,1.54,0.65c2.23-4.8,3.17-7.29,1.42-13.82
			C225.09,86.81,217.91,78.07,207.1,65C206.53,64.31,206.01,63.53,205.47,62.79L205.47,62.79z"/>
		<path fill-rule="evenodd" clip-rule="evenodd" fill="#754D25" d="M135.32,61.55c-3.67-0.28-17.71-0.68-22.88,0.06
			c-5.18,0.75-13.74,3.33-15.78,4.26C86.47,70.52,77.82,76.42,72.5,84.25c-3.58,5.82-5.11,11.73-4.13,16.93
			c7.89-20.88,19.51-25.44,32.2-32.07c12.75-5,33.4-5.9,44.19-5.56C146.47,63.6,144.99,62.3,135.32,61.55z"/>
		<path fill-rule="evenodd" clip-rule="evenodd" fill="#754D25" d="M243.35,97.48c2.87,25.73-3.56,47.26-15.93,62.83
			c-0.73,0.92-1.56,1.66-2.49,2.64c0.97,0.12,2.03,0.29,2.51,0.1c6.19-2.38,12.56-8.83,15.4-17.29c3.7-11,5.71-22.59,4.88-34.94
			C247.46,107.02,245.94,99.98,243.35,97.48z"/>
		<path fill-rule="evenodd" clip-rule="evenodd" fill="#754D25" d="M92.57,134.81c-13.82-10.27-32.18-20.7-24.87-45.57
			c2.62-6.19-0.26-1.65-0.62-1c-2.59,4.58-4.01,9.43-3.63,16.44c0.44,8,10.44,21.62,20.27,27.36c2.68,1.87,5.63,2.9,8.46,4.32
			C92.3,135.84,92.43,135.32,92.57,134.81z"/>
		<path fill-rule="evenodd" clip-rule="evenodd" fill="#754D25" d="M234.42,170.14c-11.27,11.72-19.18,14.9-28.83,16.27
			c-36.2,5.13-62.34-10.19-76.82-19.59c0.91,3.19,4.83,6.36,6.69,8.08c15.65,14.09,25.66,15.35,42.36,18.65
			c11.86,2.35,26.27,2,35.65-3.48c5.33-2.11,10.43-5.17,15.12-9.56c1.59-1.49,2.12-2.3,3.64-4.1
			C233.78,174.23,234.7,170.88,234.42,170.14z"/>
		<path fill-rule="evenodd" clip-rule="evenodd" fill="#754D25" d="M192.85,70.45c-13.37-13.29-39.01-23.08-51.51-20.27
			c-2.32,0.81-0.22,1.09,0.68,1.24c20.94,3.56,25.58,7.04,37.47,15.25C183.75,69.62,187.88,72.39,192.85,70.45z"/>
		<path fill-rule="evenodd" clip-rule="evenodd" fill="#754D25" d="M151.95,182.42c-6.41,1.72-19.01-0.27-33.44-6.25
			c-21.52-8.92-39.84-29.12-40.75-29.12c-1.1,0.09,9.54,14.7,11.75,17.5c8.25,10.43,19.07,14.61,32.75,19.5
			c11.36,3.24,23.49,8.19,34.31,0.75C154.54,180.93,154.93,181.62,151.95,182.42z"/>
		<path fill-rule="evenodd" clip-rule="evenodd" fill="#754D25" d="M129.62,203.05c-12.66,2.34-32.49,1.16-48.57-2.84
			c-8.68-2.27-16.92-7.19-23.96-11.56c-1.3-0.8-4.49-3.6-4.86-2.84c-0.37,0.77,10.98,13.15,23.59,17.74
			c17.26,5.79,37.21,6.06,53.12,0.43C129.48,203.79,130.81,202.83,129.62,203.05z"/>
		<path fill-rule="evenodd" clip-rule="evenodd" fill="#754D25" d="M169.45,165.3c-6.09,1.11-18.05,1.33-24.38,1.25
			c-8.85-0.61-26.08-5.25-26.66-5.39c-22.09-5.41-28.71-12.25-40.79-18.13c5.9,8.26,19.82,18.47,36.65,24.28
			c4.89,1.69,17.17,4.25,26.56,5c11.93,0.96,23-0.83,30.38-3.25c8.38-2.75,15.5-5.25,22.38-11.88
			C182.53,162.55,180.45,163.3,169.45,165.3z"/>
		<path fill-rule="evenodd" clip-rule="evenodd" fill="#754D25" d="M183.99,194.38c-2.29-3.5-4.53-1.09-7.17,1.17
			c-1.17,1-3.67,3.58-4.92,4.58c-2.76,2.21-9.83,5.54-17.83,8.04c-9.03,2.82-46.87,0.29-61.61-9.42c-1.68-0.41-0.52,0.92,0.11,1.67
			c11.84,14.08,60.68,16.48,78.08,5.96C175.49,202.8,180.69,198.9,183.99,194.38z"/>
		<path fill-rule="evenodd" clip-rule="evenodd" fill="#754D25" d="M236.8,102.49c-0.27-3.35-0.05-6.5-0.81-8.98
			c-3.68-11.98-9.71-23.93-16.72-29.33c-0.43-0.33-3.88-3.62-0.62,1.88C225.15,78.45,229.66,88.92,236.8,102.49z"/>
		<path fill-rule="evenodd" clip-rule="evenodd" fill="#754D25" d="M229.79,142.05c-8.78,13.97-13.33,16.5-21.78,19.74
			c-0.71,1.51-0.84,3.38,1.2,3.2C217.53,164.26,231.01,162.44,229.79,142.05z"/>
		<path fill-rule="evenodd" clip-rule="evenodd" fill="#754D25" d="M80.15,91.54c9.13-5.16,17.49-9.87,26.05-14.71
			c-0.77-2.82-1.91-4.21-4.47-2.79C94.2,78.21,87.08,83.37,80.15,91.54z"/>
		<path fill-rule="evenodd" clip-rule="evenodd" fill="#754D25" d="M83.08,44.97c-0.56-0.11-1.17-0.09-1.82,0.04
			c-0.48,0.02-0.96,0.04-1.41,0.06c0.03,0.08,0.07,0.15,0.11,0.23c-3.78,0.87-7.59,1.57-11.34,2.68c-1.44,0.42-2.73,1.95-4.08,2.98
			c0.09,0.38,0.19,0.77,0.29,1.15c7.38-0.66,18.5-1.96,26.94-1.44c25.46,1.57,50.48,6.09,74.59,18.23c0.17,0.09,0.4-0.08,0.61-0.13
			C151.98,52.73,105.83,44.7,83.08,44.97z"/>
		<path fill-rule="evenodd" clip-rule="evenodd" fill="#754D25" d="M112.29,197.3c1.57,4.46,15.32,1.25,18.98,0.12
			c8.04-2.48,16.18-6.26,19.16-8.9c1.53-1.36-0.79-2.97-3.37-2.8C141.49,187.72,133.95,194.28,112.29,197.3z"/>
		<path fill-rule="evenodd" clip-rule="evenodd" fill="#754D25" d="M133.98,203.52c-0.78-0.22-0.51,0.07-0.36,0.19
			c5.1,3.87,18.11,3.96,22.92,3.77c5.64-0.22,16.35-3.29,19.3-7.66c0.79-1.12-1.35,0.2-5.54,1.95c-0.25,0.1-6.69,2.73-14.17,2.92
			C144.29,205,138.59,204.63,133.98,203.52z"/>
		<path fill-rule="evenodd" clip-rule="evenodd" fill="#754D25" d="M175.88,75.39c-6.43,0-12.86,0-19.29,0c0,0.38,0,0.76,0,1.13
			c4.45,0.96,8.89,2.36,13.36,2.67c2.01,0.14,4.09-1.88,6.13-2.91C176.01,75.99,175.94,75.69,175.88,75.39z"/>
		<path fill-rule="evenodd" clip-rule="evenodd" fill="#754D25" d="M119.28,190.22c-8.94-4-19.87-11.93-24.96-16.29
			c-12.59-10.76-24.34-24.37-32.17-42.63c-3.32-7.73-5.79-15.97-6.34-25.2c-0.83-14.01,2.96-25.6,11.39-31.8
			c5.43-3.99,16.06-8.06,23.94-10.5c3.83-1.24,1.92-1.75,0.69-1.75c-2.81,0-11.56,0.56-18.44,2.94c-5.59,1.93-10.34,5.26-14.06,9.38
			c-7.94,8.77-10.05,20.59-8.16,34.1c1.74,12.38,5.73,23.25,10.95,33.13c13.25,25.07,31.72,40.85,52.29,50.63
			c0.68,0.32,1.34,0.62,1.96,0.72c6.28,2.38,13.93,5.5,18.79,5.34C135.18,197.71,125.85,193.16,119.28,190.22z"/>
		<path fill-rule="evenodd" clip-rule="evenodd" fill="#754D25" d="M207.27,55.49c-4.66-4.76-9.28-9.64-14.03-14.21
			c-1.62-1.56-7.65-4.18-9.47-5.29c-0.13,0.39,3.78,2.66,3.65,3.04c0.74,0.79,1.46,1.61,2.22,2.35
			c4.58,4.45,14.19,15.11,18.61,19.89C209.73,62.88,209.17,58.57,207.27,55.49C207.27,55.49,207.27,55.49,207.27,55.49z"/>
		<path fill-rule="evenodd" clip-rule="evenodd" fill="#754D25" d="M85.49,52.13c-6.92-0.33-18.76,1.25-27.2,7.82
			c-4.4,3.43-8.19,8.58-12.18,13.11c-0.84,0.96-1.31,2.6-1.96,3.93c0.18,0.21,0.35,0.41,0.53,0.62c0.88-1.05-1.53,4.27-0.63,3.26
			c11.58-16.68,30.7-25.88,46.63-22.19c2.03,0.47,7.93,1.42,9.28,1.74c-0.04-0.09,3.84-1.86,8.09-3.86
			C104.58,55.6,92.41,52.45,85.49,52.13z"/>
		<path fill-rule="evenodd" clip-rule="evenodd" fill="#754D25" d="M199.53,64.93c-4.97-2.4-9.94-4.81-14.91-7.21
			c-0.06,0.23-0.11,0.45-0.17,0.68c4.01,3.16,11.68,8.38,15.72,12.49c0.64,0.66,2.96-1.42,3.95-1.68
			C204.14,68.49,199.51,65.65,199.53,64.93z"/>
		<path fill-rule="evenodd" clip-rule="evenodd" fill="#754D25" d="M154.16,70.31c-3.76-1.04-7.51-2.07-11.27-3.11
			c-0.08,0.65-0.15,1.31-0.23,1.96c3.79,0.93,7.57,1.85,11.36,2.78C154.06,71.4,154.11,70.85,154.16,70.31z"/>
	</g>
	<g>
		<path fill-rule="evenodd" clip-rule="evenodd" fill="#754D25" d="M174.77,22.61c0.01-0.05,0.02-0.1,0.03-0.15
			c-0.81-0.37-1.64-0.75-2.47-1.14c-0.37-0.19-0.74-0.39-1.11-0.58c0,0.02,0,0.04-0.01,0.06c-15.8-7.36-33.65-12.03-48.53-8.97
			c-1.97,0.37-0.64,0.82,0.26,0.91c15.81,1.61,31.25,3.4,49.12,14.49c13.99,8.68,14.8,11.78,22.04,15.87
			c5.59,3.16,11.68,3.58,17.54,5.23c0.11-0.61,0.23-1.22,0.34-1.83C199.99,38.7,187.39,29.47,174.77,22.61z"/>
		<path fill-rule="evenodd" clip-rule="evenodd" fill="#754D25" d="M135.96,22.53c5.25-0.25-3.98-1.74-5.92-1.75
			c-11.99-0.07-30.06,1.36-45.68,17.06c-1.73,2.02,2.37-0.71,3.27-1.23c13.09-7.67,16.37-9.58,34-12.58
			C127.49,23.34,131.83,22.73,135.96,22.53z"/>
		<path fill-rule="evenodd" clip-rule="evenodd" fill="#754D25" d="M184.81,34.51c-26.16-9.99-72.15-9.33-86.46-1.07
			c-2.04,1.04,3.75,0.17,5.08-0.08c20.53-3.88,39.72-2.44,60.72,1.18C171.69,35.84,178.95,38.46,184.81,34.51z"/>
		<path fill-rule="evenodd" clip-rule="evenodd" fill="#8D633A" d="M184.82,30.42c-2.83,1.58,8.31,5.48,12.38,8.25
			c13.49,9.2,18.12,14.38,24.12,26c2.79,5.41,8.38,19.12,10.75,24.88c1.03,2.48,1.63,3.4,1.54-0.6
			C228.95,60.11,212.21,34.91,184.82,30.42z"/>
		<path fill-rule="evenodd" clip-rule="evenodd" fill="#8D633A" d="M181.28,26.34c-7.26-14.66-33.79-15.38-44.13-12.13
			c-14.75,4.64-24.42,10.22-28.62,15.31c-1.47,1.75-3.99,6.86-2.19,5.69c11.52-10.8,21.8-14.17,30.8-16.67
			C152.79,14.08,167.94,19.18,181.28,26.34z"/>
		<path fill-rule="evenodd" clip-rule="evenodd" fill="#8D633A" d="M125.47,58.28c-4.46,0.47-2.45,1.12-0.17,1.24
			c9.06,0.47,38.18-0.24,49.64,5.21c8.68,4.44,19.22,10.19,27.37,16.33c6.58,4.96,12,14.45,16.21,22.17
			c2.38,4.46,3.95,7.36,6.11,12.22c0.95,1.51,1.19-3.09,0.98-4.22c-0.65-4.7-0.65-7.01-3.66-12.92
			c-3.7-7.27-12.51-19.93-17.48-25.14C188.26,56.21,151.41,55.25,125.47,58.28z"/>
		<path fill-rule="evenodd" clip-rule="evenodd" fill="#8D633A" d="M110.16,40.13c-28.33-3.25-69.75,8.34-79.25,29.42
			c-0.62,2.03,2.92-2.64,4.33-3.92C52.75,49.84,66.91,48.55,74.99,46.8s27.17-4.58,30.83-5.25
			C109.22,40.93,113.36,40.69,110.16,40.13z"/>
		<path fill-rule="evenodd" clip-rule="evenodd" fill="#8D633A" d="M31.43,150.34c3.83-32.26,17.54-55.71,32.16-78.33
			c1.46-2.1-0.43-1.21-0.75-1.09c-4,1.46-7.73,5.87-10.06,8.79c-13.88,17.37-19.41,33.87-22.15,55.39
			c-0.62,4.86-0.09,10.01-0.09,15.03C30.51,150.92,31.32,151.33,31.43,150.34z"/>
		<path fill-rule="evenodd" clip-rule="evenodd" fill="#8D633A" d="M243.79,123.78c2.96-39.94-9.16-66.8-23.55-75.99
			c-4.42-2.09,4.34,5.68,6.05,9.35c9.54,20.53,10.76,22.98,12.95,40.49c0.29,2.33,0.58,4.72,1,7.04
			C241.35,110.83,242.52,116.97,243.79,123.78z"/>
		<path fill-rule="evenodd" clip-rule="evenodd" fill="#8D633A" d="M138.77,40.36c1.13-0.49,3.54-1.44,2.26-1.29
			c-4.37,0.52-17.38,3.28-22.63,4.53c-5.51,1.31-14.39,4.36-22.47,8.57C87.68,57.17,81.07,62,77.02,66.22
			c-4.31,4.5-11.15,11.15-17.72,23.72c-1.76,3.15-3.33,5.89-4.48,9.38c-0.58,1.76-2.81,8.77-2,8.58
			c7.83-17.67,15.1-24.83,23.88-36.18C91.73,54.46,126.76,44.07,138.77,40.36z"/>
		<path fill-rule="evenodd" clip-rule="evenodd" fill="#8D633A" d="M124.42,74.71c15.01-2.76,23.88-3.93,38.92-6.7
			c0.03-0.18,0.05-0.36,0.07-0.54c-5.07-0.56-10.14-1.56-15.21-1.6c-14.48-0.12-23.26,0.17-37.36,5.04
			C109.87,71.23,124.43,74.9,124.42,74.71z"/>
		<path fill-rule="evenodd" clip-rule="evenodd" fill="#8D633A" d="M28.55,128.46c-0.59-28.33,9.63-47.56,24.65-63.3
			c0.88-0.93,2.01-1.75,3.12-2.73c0.97-0.71,0.66-1.11,0.19-0.99c-9.07,2.43-15.54,9.63-21.3,18.64
			c-6.12,9.57-8.41,19.95-8.73,33.49c-0.08,3.65-0.58,11.51,1.14,14.4C27.86,128.39,28.59,129.71,28.55,128.46z"/>
		<path fill-rule="evenodd" clip-rule="evenodd" fill="#8D633A" d="M197.24,91.04c14.4,12.14,25.13,29.56,30.46,53.08
			c1.6-3.71,4.08-8.06,4.08-8.06s-0.77-4.61-2.24-8.04c-5.86-13.65-12.98-25.57-22.82-33.37c-2.8-2.22-5.96-3.54-8.95-5.28
			C197.59,89.94,197.42,90.49,197.24,91.04z"/>
		<path fill-rule="evenodd" clip-rule="evenodd" fill="#8D633A" d="M114.25,183.58c10.16,4.93,20.66,5.78,28.04,3.84
			c0.87-0.29,2.57-1.02-1.96-1.49c-16.71-1.74-25.92-5.18-32.04-9.16c-5.21-3.4-11.82-8.43-13.34-10.1
			C93.99,165.63,99.2,176.27,114.25,183.58z"/>
		<path fill-rule="evenodd" clip-rule="evenodd" fill="#8D633A" d="M89.38,161.86c17.44,7.38,36.5,3.44,36.5,3.44s0.05-0.15-4.5-0.5
			c-18.62-1.44-36.57-8.36-42.38-12.56c-2.5-1.81-6.19-4.31-7.88-5.88C70.1,145.4,76.4,156.37,89.38,161.86z"/>
		<path fill-rule="evenodd" clip-rule="evenodd" fill="#8D633A" d="M196.7,59.42c-8.62-10.9-16.91-17.14-31.12-21.75
			c-9.19-2.98-15.82-1.68-20.34-0.87c-2.66,0.47-0.46,0.67,2.91,0.81c4.04,0.16,6.73,0.36,15.84,3.88
			c12.12,4.69,31.77,21.9,39.54,29.62c0.21-0.38,0.42-0.76,0.62-1.14C201.91,66.58,199.12,62.49,196.7,59.42z"/>
		<path fill-rule="evenodd" clip-rule="evenodd" fill="#8D633A" d="M38.65,125.89c-1.17-2.82-2.2,5.18-0.6,9.94
			c3.31,10.31,7.71,18.21,14.85,26.71c0.13,0.16,6.47,6.77,8.5,7.42C50.32,156.11,43.52,142.52,38.65,125.89z"/>
		<path fill-rule="evenodd" clip-rule="evenodd" fill="#8D633A" d="M130.23,190.97c2.87-1.12-0.11-1.06-1.64-0.99
			c-6.83,0.3-17.8-0.21-27.57-3.19c-13.01-3.97-16.9-8.8-20.64-13.51c-1.19-1.44-3.12-4.28-2.24-1.49
			c1.94,5.65,6.48,15.58,21.93,19.38C112,194.11,124.23,193.97,130.23,190.97z"/>
		<path fill-rule="evenodd" clip-rule="evenodd" fill="#8D633A" d="M220.79,124.91c-6.18,21.64-25.62,36.9-34.43,41.01
			c-11.37,5.3-35.03,10.44-45.44,10.29c-1.67-0.01,0.89,0.71,2.56,0.94c13.71,1.91,36.57-2.76,43.84-6.59
			c9.17-4.83,24.6-15.83,31.32-29.55c1.51-3.09,4.34-10.85,4.34-10.85C222.43,128.69,221.62,126.97,220.79,124.91z"/>
		<path fill-rule="evenodd" clip-rule="evenodd" fill="#8D633A" d="M54.61,73.71c10.4-11.47,27.93-23.1,43.13-26.81
			c2.5-0.39,0.96-0.73,0.46-0.68c-21.25,1.84-39.53,13.91-43.89,27.2C54.19,73.8,54,74.62,54.61,73.71z"/>
		<path fill-rule="evenodd" clip-rule="evenodd" fill="#8D633A" d="M223.33,185.63c-7.43,2.41-31.97,1.68-32.26,1.67
			c-9.1-0.39-18.3-1.47-25.5-2.25c-17.45-1.9-31.59-6.68-47.15-14.2c-4.96-2.39-3.1-0.68-2.6-0.18c10.5,8.75,40.31,20.41,75.87,21.5
			c6.22,0.19,20.81,0.13,24.93-1.54c1.52-0.62,3.03-0.97,4.59-2.53C222.02,187.53,224,185.54,223.33,185.63z"/>
		<path fill-rule="evenodd" clip-rule="evenodd" fill="#8D633A" d="M172.88,54.92c12.92,1.8,2.31-1.25-1.44-2.56
			c-5.51-1.92-9.79-3.43-27-3.12c-17.21,0.31-32.37,6.19-37.5,8.44c-12.08,6.05-18.22,7.42-31.42,18.96
			c-2.64,2.31-5.96,6.72-4.9,5.97c15.62-12.56,32.25-19.84,49.6-25.31c6.76-1.62,14.22-2.7,22.58-3.75
			C151.19,52.5,166.3,54.92,172.88,54.92z"/>
		<path fill-rule="evenodd" clip-rule="evenodd" fill="#8D633A" d="M107.79,23.83c-5.35-2.79-20.6-0.73-27.58,2.25
			c-5.04,2.15-11.36,5.99-16.68,14.38c-0.63,1.27,0.32,1.44,2.86-0.81c3.27-2.89,5.92-4.62,7.95-6.01
			c8.25-5.66,14.19-6.88,20.27-7.69c2.21-0.3,7.4-1.21,9.45-1.33C106.56,24.48,110.21,24.99,107.79,23.83z"/>
		<path fill-rule="evenodd" clip-rule="evenodd" fill="#8D633A" d="M183.62,156.3c-15.35,6.4-34.55,6.49-45.37,7.8
			c-0.72,0.09-0.53,0.62,10.42,0.71c4.6,0.04,20.51,0.45,35.61-5.4c8.78-3.4,19.17-12.74,27.4-21.08c3.16-3.17,2.28-4.07,0.72-2.6
			C204.51,143.19,190.53,153.06,183.62,156.3z"/>
		<g>
			<polygon fill-rule="evenodd" clip-rule="evenodd" fill="#8D633A" points="69.41,179.5 69.41,179.49 69.41,179.49 			"/>
			<path fill-rule="evenodd" clip-rule="evenodd" fill="#8D633A" d="M117.82,198.55c0,0-20.52-0.56-32.34-8.34
				c-6.63-4.36-10.92-10.71-16.93-19.36c-14.14-24.75-16.8-30.58-21.98-65.99c-3.32,4.92-4.79,11.68-3.32,18.93
				c4.37,21.59,13.62,38.15,24.53,53.17c0.26,0.36,5.98,8.36,13.05,13.83c1.95,1.51,9.44,6.16,19.4,7.8
				C115.53,201.11,117.82,198.55,117.82,198.55z"/>
		</g>
		<path fill-rule="evenodd" clip-rule="evenodd" fill="#8D633A" d="M241.59,160.05c-0.97,1.15-1.74,2.11-2.73,3.22
			c-14.15,15.84-34.12,12.09-52.91,12.09c-0.12,0-2.03,1.88-5.59,4.1c3.95,1.07,8.42,1.39,12.96,1.83
			c4.54,0.44,15.84,0.23,18.75-0.12c10.45-1.29,13.41-3.7,17.62-6.25c5.22-3.17,6.89-5.33,10.39-10.2c0.81-1.13,1.55-2.77,2.25-4.23
			C242.6,159.52,242.15,159.5,241.59,160.05z"/>
		<path fill-rule="evenodd" clip-rule="evenodd" fill="#8D633A" d="M95.63,174.74c-4.42-3.32-14.94-9.61-19.26-15.07
			c-4.67-5.91-9.33-11.67-12.87-18.72c-5.9-11.75-4.94-23.49,2.41-32.93c4.18-5.37,9.05-9.92,14.07-13.46
			c3.9-2.75,5.06-6.85,5.88-13.38C76.3,87.2,67.89,93.6,61.41,104.23c-8.76,14.35-8.96,31,0.15,45.3c3.18,4.99,6.94,9.7,9.98,12.88
			c3.04,3.18,7.73,6.3,9.31,7.18c4.28,2.85,6.58,4.11,11.35,5.09C92.81,174.92,96.56,175.18,95.63,174.74z"/>
		<path fill-rule="evenodd" clip-rule="evenodd" fill="#8D633A" d="M86.88,90.38c1.63-0.88,3.26-1.76,5.24-2.83
			c-0.73-2.74-1.38-5.16-2.03-7.58c-0.36-0.07-0.72-0.14-1.08-0.21c-0.95,3.23-1.91,6.46-2.86,9.69
			C86.39,89.75,86.64,90.06,86.88,90.38z"/>
		<path fill-rule="evenodd" clip-rule="evenodd" fill="#8D633A" d="M95.09,77.29c-1.29,0.65-2.35,1.17-3.7,1.85
			c0.81,2.82,1.5,5.19,2.18,7.57c0.3-0.07,0.61-0.14,0.91-0.22C94.68,83.6,94.87,80.71,95.09,77.29z"/>
	</g>
	<path fill="#FFE600" d="M149.65,106.9c10.02,25.63-71.45,7.5-71.4-1.48c0.11-16.92,6.37-31.82,18.33-36.49
		C114.9,61.77,139.63,81.27,149.65,106.9z"/>
	<path fill="#FFFFFF" d="M203.12,114.45c-9.98,25.65-76.33-0.16-66.35-25.81c9.98-25.65,34.68-45.19,53-38.06
		C208.09,57.7,213.09,88.8,203.12,114.45z"/>
	<path fill="#754D25" d="M136.5,149.97c-2.04-0.66-4.83-1.39-8.61-2.19c-23.56-5-47.74-20.39-47.74-20.39s-24.32-9.52-5.36,5.49
		c18.96,15.01,38.93,18.89,47.12,20.93c2.42,0.6,4.72,0.95,6.76,1.13c6.47,0.99,12.99,1.85,19.52,1.43
		c25.75-1.69,35.96-7.81,35.94-7.99C169.88,152.75,144.29,151.14,136.5,149.97z"/>
	<path fill-rule="evenodd" clip-rule="evenodd" fill="#8D633A" d="M110.37,125.62c0.45-0.91-0.72-0.12-1.8,0.43
		c-17.56,8.92-32.3,4.44-47.38-5C68.06,136.41,98.8,142.37,110.37,125.62z"/>
	<g>
		<path fill="#FFE600" d="M149.65,106.9c-2.93-7.49-7.11-14.44-12.02-20.37c-0.3,0.7-0.59,1.4-0.86,2.1
			c-9.57,24.6-2.11,45.88,14.68,53.87C155.06,132.68,154.88,120.28,149.65,106.9z"/>
		<path fill="#FFE600" d="M189.77,50.57c-16.77-6.52-38.87,9.29-50.15,31.68c-0.71,1.4-1.37,2.83-1.99,4.27
			c4.91,5.93,9.1,12.88,12.02,20.37c5.23,13.38,5.41,25.78,1.79,35.6c0.71,0.34,1.44,0.66,2.19,0.96c0.95,0.37,1.91,0.68,2.87,0.96
			c17.62,5.03,37.15-5.65,46.61-29.97C213.09,88.8,208.09,57.7,189.77,50.57z"/>
	</g>
	<g>
		<defs>
			<path id="SVGID_4_" d="M138.2,101c0-22.53,24.69-37.92,47.21-37.92c11.63,0,22.11,4.87,29.54,12.67l-1.06-32.58h-79.64v63.18
				l15.19,0.28C146.37,100.91,138.2,107.95,138.2,101z"/>
		</defs>
		<clipPath id="SVGID_5_">
			<use xlink:href="#SVGID_4_"  overflow="visible"/>
		</clipPath>
		<path clip-path="url(#SVGID_5_)" fill="#FFF799" d="M188.46,55.44c-14.68-5.71-34.02,8.13-43.89,27.73
			c-0.62,1.23-3.89,8.95-4.43,10.21c4.3,5.19,10.65,4.8,13.21,11.35c4.58,11.71,4.74,22.56,1.57,31.16c0.63,0.3,1.26,0.58,1.91,0.84
			c0.83,0.32,1.67,0.6,2.51,0.84c15.42,4.4,32.51-4.95,40.79-26.23C208.88,88.89,204.5,61.68,188.46,55.44z"/>
	</g>
	<path fill-rule="evenodd" clip-rule="evenodd" fill="#754D25" d="M187.41,126.36c11.49-6.8,30.4-22.21,39.96-42.77
		c3.13,6.39,2.99,9.87-0.62,14.79c-8.36,11.43-17.69,21.04-29.06,26.38c-3.24,1.52-6.68,2.16-10.03,3.2
		C186.23,128.4,184.15,128.28,187.41,126.36z"/>
	<g>
		<defs>
			<path id="SVGID_6_" d="M145.17,119.41c-0.14-20.97-22.95-37.85-43.92-37.71c-10.82,0.07-20.55,4.67-27.41,11.99l0.78-30.34
				l74.12-0.5l0.5,74.12l-14.13,0.36C137.94,131.98,145.22,125.88,145.17,119.41z"/>
		</defs>
		<clipPath id="SVGID_7_">
			<use xlink:href="#SVGID_6_"  overflow="visible"/>
		</clipPath>
		<path clip-path="url(#SVGID_7_)" fill="#FFF799" d="M98.37,74.61c13.62-5.41,31.72,7.36,41.03,25.53
			c0.58,1.14,1.13,2.29,1.64,3.47c-3.97,4.86-7.34,10.54-9.68,16.66c-4.19,10.93-4.27,21.03-1.27,29.01
			c-0.58,0.28-1.17,0.55-1.78,0.79c-0.77,0.31-1.55,0.57-2.33,0.79c-14.32,4.2-30.29-4.4-38.13-24.15
			C79.58,105.87,83.49,80.52,98.37,74.61z"/>
	</g>
	<path fill-rule="evenodd" clip-rule="evenodd" fill="#FFFFFF" d="M78.7,219.4h106.88l12.97-3.32l6.83-9.81c0,0-12.1,4.91-25.1,4.91
		c-13,0-101.5,0-101.5,0L78.7,219.4z"/>
	<path fill-opacity="0.2" d="M153.48,106.9c-3.66-9.37-8.01-16.44-14.58-23.17c-0.71,1.4-0.65,1.35-1.27,2.8
		c4.91,5.93,9.1,12.88,12.02,20.37c5.23,13.38,5.41,25.78,1.79,35.6c0.71,0.34,1.44,0.66,2.19,0.96c0.95,0.37,0.14,0.12,1.11,0.4
		C159.13,133.76,159.05,121.16,153.48,106.9z"/>
	<path fill-rule="evenodd" clip-rule="evenodd" fill="#754D25" d="M192.32,142.22c8.98-5.12,16.56-9.68,22.89-19.13
		c8.55-12.76,10.44-30.69,2.68-44.1c-3.4-5.89-6.87-2.84-3.91,3.73c4.93,10.96,3.25,28.83-3.83,37.17c-4.03,4.74-8.28,8.96-13,12
		c-0.52,0.34-13.85,8.73-40.92,15.5c-4.83,1.21,2.02,3.13,13.92,0.83C175.15,147.25,184.74,146.2,192.32,142.22z"/>
	<path fill-rule="evenodd" clip-rule="evenodd" fill="#8D633A" d="M190.94,146.24c0.75-0.81-0.37-0.35-0.74-0.19
		c-32.2,13.26-66.23,11.03-99.62,6.15c-1.4-0.19-0.05,0.56,0.39,0.83C113.46,167.01,176.11,162.14,190.94,146.24z"/>
	<path fill-rule="evenodd" clip-rule="evenodd" fill="#8D633A" d="M125.86,196.91c4.32,4.22,19.52,6.63,27.06,5.78
		c5.44-0.61,12.61-2.47,20.12-8.97c0.97-1.04,0.13-0.93-2.95,0.49c-3.97,1.83-7.21,2.97-9.61,3.5c-9.61,2.14-15.32,1.93-21.38,0.95
		c-2.21-0.36-7.43-0.97-9.43-1.45C127.22,196.64,123.87,195.09,125.86,196.91z"/>
	<path fill-rule="evenodd" clip-rule="evenodd" fill="#8D633A" d="M37.35,147.28c0.14,6.03,5.78,18.79,10.81,24.46
		c3.63,4.1,9.4,9.09,19.04,11.48c1.41,0.2,0.84-0.43-2.1-2.13c-3.78-2.19-6.18-4.03-8-5.68c-7.28-6.63-10.26-10.42-12.96-15.94
		c-0.98-2-3.4-7.14-4.3-9.98C39.08,147.1,37.21,141.25,37.35,147.28z"/>
	<path fill-rule="evenodd" clip-rule="evenodd" fill="#8D633A" d="M143.87,147.44c-35.25,2.48-51.29-1.97-81.65-17.57
		c15.88,21.87,59.29,29.24,82.35,18.35C145.16,147.94,146.24,147.22,143.87,147.44z"/>
	<path fill-rule="evenodd" clip-rule="evenodd" fill="#8D633A" d="M238.45,117.05c-1.9-13.54-4.51-20.96-10.22-31.76
		c-14.47-27.38-32.77-45.91-55.22-56.61c-17.51-6.69-37.62-11.31-52.62,5.31c-0.59,0.65-2.12,3.69-0.75,2.56
		c15.25-14.79,40.56-7.88,49.94-3.12c13.83,7.01,16.17,8.78,24.6,15.98c13.77,11.77,25.45,27.17,34.03,47.14
		c3.63,8.45,6.33,17.48,6.93,27.57c0.91,15.33-1.96,28.15-11.18,34.93c-5.94,4.37-9.95,6.21-16.53,9.15
		c-1.38,1.62-3.47,3.83-3.47,3.83s8.74-1,14.65-4.01c5.18-2.64,8.78-5.09,12.86-9.59C240.32,148.8,240.32,128.42,238.45,117.05z"/>
</g>
</svg>
