<?xml version="1.0" encoding="utf-8"?>
<!-- Generator: Adobe Illustrator 19.1.0, SVG Export Plug-In . SVG Version: 6.00 Build 0)  -->
<svg version="1.1" xmlns="http://www.w3.org/2000/svg" xmlns:xlink="http://www.w3.org/1999/xlink" x="0px" y="0px"
	 width="252.05px" height="252.02px" viewBox="0 0 252.05 252.02" style="enable-background:new 0 0 252.05 252.02;"
	 xml:space="preserve">
<style type="text/css">
	.st0{fill:#FFFFFF;}
	.st1{fill:url(#SVGID_1_);}
	.st2{fill:url(#SVGID_2_);}
	.st3{fill:url(#SVGID_3_);}
	.st4{fill:#009EDB;}
	.st5{fill:url(#SVGID_4_);}
	.st6{fill:url(#SVGID_5_);}
	.st7{fill:url(#SVGID_6_);}
	.st8{fill:url(#SVGID_7_);}
	.st9{fill:url(#SVGID_8_);}
	.st10{fill:url(#SVGID_9_);}
	.st11{fill:url(#SVGID_10_);}
	.st12{fill:url(#SVGID_11_);}
	.st13{fill:url(#SVGID_12_);}
	.st14{fill:url(#SVGID_13_);}
	.st15{fill:url(#SVGID_14_);}
	.st16{fill:url(#SVGID_15_);}
	.st17{fill:url(#SVGID_16_);}
	.st18{fill:url(#SVGID_17_);}
	.st19{fill:url(#SVGID_18_);}
	.st20{fill:url(#SVGID_19_);}
	.st21{fill:url(#SVGID_20_);}
	.st22{fill:url(#SVGID_21_);}
	.st23{fill:url(#SVGID_22_);}
	.st24{fill:url(#SVGID_23_);}
	.st25{fill:url(#SVGID_24_);}
	.st26{fill:#0082BD;}
	.st27{fill:#005495;}
	.st28{fill:url(#SVGID_25_);}
	.st29{fill:#015691;}
	.st30{opacity:0.8;}
	.st31{fill:#14B1E7;}
</style>
<g id="shadow">
</g>
<g id="window">
	<path class="st0" d="M102.55-0.01c-18.76,0-36.49,7.39-49.92,20.81C39.22,34.2,31.84,51.84,31.84,70.48v149.7h149.44
		c39.02,0,70.76-31.72,70.76-70.72V-0.01H102.55z"/>
	<linearGradient id="SVGID_1_" gradientUnits="userSpaceOnUse" x1="20.27" y1="253.769" x2="20.27" y2="36.3225">
		<stop  offset="0" style="stop-color:#0082BD"/>
		<stop  offset="0.2182" style="stop-color:#0078B4"/>
		<stop  offset="0.6558" style="stop-color:#00609E"/>
		<stop  offset="0.85" style="stop-color:#005495"/>
	</linearGradient>
	<path class="st1" d="M31.84,70.48c0-11.91,3.03-23.4,8.7-33.65l-1.29-1.29L15.86,58.93C6.06,68.98,0,82.7,0,97.83v154.19
		l31.84-31.84V70.48z"/>
	<linearGradient id="SVGID_2_" gradientUnits="userSpaceOnUse" x1="0.8222" y1="231.7603" x2="214.9717" y2="231.7603">
		<stop  offset="0" style="stop-color:#14B1E7"/>
		<stop  offset="0.1118" style="stop-color:#14ADE2"/>
		<stop  offset="0.2581" style="stop-color:#13A3D8"/>
		<stop  offset="0.4237" style="stop-color:#0E92C9"/>
		<stop  offset="0.6033" style="stop-color:#087CB6"/>
		<stop  offset="0.7923" style="stop-color:#0064A1"/>
		<stop  offset="0.9" style="stop-color:#005495"/>
	</linearGradient>
	<path class="st2" d="M181.28,220.18H31.84v0L0,252.02h154.19c15.14,0,28.85-6.06,38.9-15.86l23.39-23.39l-1.27-1.27
		C205.13,217.03,193.57,220.18,181.28,220.18z"/>
	<linearGradient id="SVGID_3_" gradientUnits="userSpaceOnUse" x1="41.4905" y1="210.61" x2="243.2359" y2="8.8646">
		<stop  offset="0" style="stop-color:#ABE1FA"/>
		<stop  offset="0.1867" style="stop-color:#8CCDF1"/>
		<stop  offset="0.563" style="stop-color:#4EB2E5"/>
		<stop  offset="0.8455" style="stop-color:#00A3DE"/>
		<stop  offset="1" style="stop-color:#009EDB"/>
	</linearGradient>
	<path class="st3" d="M40.85,211.19V70.49c0-33.51,27.84-61.49,61.72-61.49h140.49v140.48c0,34.03-27.74,61.72-61.76,61.72H40.85z"
		/>
</g>
<g id="safe">
	<path class="st4" d="M193.86,111.49c0,29.58-23.98,53.57-53.57,53.57c-29.58,0-53.57-23.98-53.57-53.57
		c0-29.59,23.99-53.57,53.57-53.57C169.88,57.91,193.86,81.9,193.86,111.49z"/>
	
		<linearGradient id="SVGID_4_" gradientUnits="userSpaceOnUse" x1="96.209" y1="111.4839" x2="184.7784" y2="111.4839" gradientTransform="matrix(-1 0 0 1 280.7852 0)">
		<stop  offset="0" style="stop-color:#0082BD"/>
		<stop  offset="0.2182" style="stop-color:#0078B4"/>
		<stop  offset="0.6558" style="stop-color:#00609E"/>
		<stop  offset="0.85" style="stop-color:#005495"/>
	</linearGradient>
	<circle class="st5" cx="140.29" cy="111.49" r="44.28"/>
	<linearGradient id="SVGID_5_" gradientUnits="userSpaceOnUse" x1="132.3154" y1="70.3941" x2="148.2813" y2="70.3941">
		<stop  offset="0" style="stop-color:#A7A9AC"/>
		<stop  offset="0.5" style="stop-color:#D1D3D4"/>
		<stop  offset="1" style="stop-color:#A7A9AC"/>
	</linearGradient>
	<rect x="132.32" y="30.92" class="st6" width="15.97" height="78.95"/>
	<g>
		<g>
			<linearGradient id="SVGID_6_" gradientUnits="userSpaceOnUse" x1="157.2129" y1="78.2251" x2="162.419" y2="78.2251">
				<stop  offset="0" style="stop-color:#14B1E7"/>
				<stop  offset="0.1118" style="stop-color:#14ADE2"/>
				<stop  offset="0.2581" style="stop-color:#13A3D8"/>
				<stop  offset="0.4237" style="stop-color:#0E92C9"/>
				<stop  offset="0.6033" style="stop-color:#087CB6"/>
				<stop  offset="0.7923" style="stop-color:#0064A1"/>
				<stop  offset="0.9" style="stop-color:#005495"/>
			</linearGradient>
			<circle class="st7" cx="159.82" cy="78.23" r="2.6"/>
			<linearGradient id="SVGID_7_" gradientUnits="userSpaceOnUse" x1="157.2129" y1="145.4297" x2="162.419" y2="145.4297">
				<stop  offset="0" style="stop-color:#14B1E7"/>
				<stop  offset="0.1118" style="stop-color:#14ADE2"/>
				<stop  offset="0.2581" style="stop-color:#13A3D8"/>
				<stop  offset="0.4237" style="stop-color:#0E92C9"/>
				<stop  offset="0.6033" style="stop-color:#087CB6"/>
				<stop  offset="0.7923" style="stop-color:#0064A1"/>
				<stop  offset="0.9" style="stop-color:#005495"/>
			</linearGradient>
			<circle class="st8" cx="159.82" cy="145.43" r="2.6"/>
			<linearGradient id="SVGID_8_" gradientUnits="userSpaceOnUse" x1="176.334" y1="112.042" x2="181.5391" y2="112.042">
				<stop  offset="0" style="stop-color:#14B1E7"/>
				<stop  offset="0.1118" style="stop-color:#14ADE2"/>
				<stop  offset="0.2581" style="stop-color:#13A3D8"/>
				<stop  offset="0.4237" style="stop-color:#0E92C9"/>
				<stop  offset="0.6033" style="stop-color:#087CB6"/>
				<stop  offset="0.7923" style="stop-color:#0064A1"/>
				<stop  offset="0.9" style="stop-color:#005495"/>
			</linearGradient>
			<circle class="st9" cx="178.94" cy="112.04" r="2.6"/>
			<linearGradient id="SVGID_9_" gradientUnits="userSpaceOnUse" x1="118.167" y1="145.4297" x2="123.3711" y2="145.4297">
				<stop  offset="0" style="stop-color:#14B1E7"/>
				<stop  offset="0.1118" style="stop-color:#14ADE2"/>
				<stop  offset="0.2581" style="stop-color:#13A3D8"/>
				<stop  offset="0.4237" style="stop-color:#0E92C9"/>
				<stop  offset="0.6033" style="stop-color:#087CB6"/>
				<stop  offset="0.7923" style="stop-color:#0064A1"/>
				<stop  offset="0.9" style="stop-color:#005495"/>
			</linearGradient>
			<circle class="st10" cx="120.77" cy="145.43" r="2.6"/>
			<linearGradient id="SVGID_10_" gradientUnits="userSpaceOnUse" x1="118.167" y1="78.2251" x2="123.3711" y2="78.2251">
				<stop  offset="0" style="stop-color:#14B1E7"/>
				<stop  offset="0.1118" style="stop-color:#14ADE2"/>
				<stop  offset="0.2581" style="stop-color:#13A3D8"/>
				<stop  offset="0.4237" style="stop-color:#0E92C9"/>
				<stop  offset="0.6033" style="stop-color:#087CB6"/>
				<stop  offset="0.7923" style="stop-color:#0064A1"/>
				<stop  offset="0.9" style="stop-color:#005495"/>
			</linearGradient>
			<circle class="st11" cx="120.77" cy="78.23" r="2.6"/>
			<linearGradient id="SVGID_11_" gradientUnits="userSpaceOnUse" x1="99.0449" y1="111.6133" x2="104.251" y2="111.6133">
				<stop  offset="0" style="stop-color:#14B1E7"/>
				<stop  offset="0.1118" style="stop-color:#14ADE2"/>
				<stop  offset="0.2581" style="stop-color:#13A3D8"/>
				<stop  offset="0.4237" style="stop-color:#0E92C9"/>
				<stop  offset="0.6033" style="stop-color:#087CB6"/>
				<stop  offset="0.7923" style="stop-color:#0064A1"/>
				<stop  offset="0.9" style="stop-color:#005495"/>
			</linearGradient>
			<circle class="st12" cx="101.65" cy="111.61" r="2.6"/>
		</g>
	</g>
	<g>
		<linearGradient id="SVGID_12_" gradientUnits="userSpaceOnUse" x1="131.3193" y1="28.621" x2="149.2754" y2="28.621">
			<stop  offset="0" style="stop-color:#005495"/>
			<stop  offset="0.0703" style="stop-color:#005D9C"/>
			<stop  offset="0.2583" style="stop-color:#0070AD"/>
			<stop  offset="0.4081" style="stop-color:#007DB9"/>
			<stop  offset="0.5" style="stop-color:#0082BD"/>
			<stop  offset="0.5919" style="stop-color:#007DB9"/>
			<stop  offset="0.7417" style="stop-color:#0070AD"/>
			<stop  offset="0.9297" style="stop-color:#005D9C"/>
			<stop  offset="1" style="stop-color:#005495"/>
		</linearGradient>
		<path class="st13" d="M149.28,30.4c0,0.53-0.43,0.96-0.96,0.96h-16.04c-0.53,0-0.96-0.43-0.96-0.96v-3.56
			c0-0.53,0.43-0.96,0.96-0.96h16.04c0.53,0,0.96,0.43,0.96,0.96V30.4z"/>
	</g>
	
		<linearGradient id="SVGID_13_" gradientUnits="userSpaceOnUse" x1="132.3154" y1="179.9653" x2="148.2813" y2="179.9653" gradientTransform="matrix(1 0 0 -1 0 331.6465)">
		<stop  offset="0" style="stop-color:#A7A9AC"/>
		<stop  offset="0.5" style="stop-color:#D1D3D4"/>
		<stop  offset="1" style="stop-color:#A7A9AC"/>
	</linearGradient>
	<rect x="132.32" y="112.21" class="st14" width="15.97" height="78.95"/>
	<g>
		
			<linearGradient id="SVGID_14_" gradientUnits="userSpaceOnUse" x1="131.6397" y1="141.2163" x2="148.9561" y2="141.2163" gradientTransform="matrix(1 0 0 -1 0 331.6465)">
			<stop  offset="0" style="stop-color:#005495"/>
			<stop  offset="0.0703" style="stop-color:#005D9C"/>
			<stop  offset="0.2583" style="stop-color:#0070AD"/>
			<stop  offset="0.4081" style="stop-color:#007DB9"/>
			<stop  offset="0.5" style="stop-color:#0082BD"/>
			<stop  offset="0.5919" style="stop-color:#007DB9"/>
			<stop  offset="0.7417" style="stop-color:#0070AD"/>
			<stop  offset="0.9297" style="stop-color:#005D9C"/>
			<stop  offset="1" style="stop-color:#005495"/>
		</linearGradient>
		<path class="st15" d="M148.96,188.75c0-0.53-0.43-0.96-0.96-0.96h-15.4c-0.53,0-0.96,0.43-0.96,0.96v3.36
			c0,0.53,0.43,0.96,0.96,0.96H148c0.53,0,0.96-0.43,0.96-0.96V188.75z"/>
	</g>
	
		<linearGradient id="SVGID_15_" gradientUnits="userSpaceOnUse" x1="132.5285" y1="70.1252" x2="148.495" y2="70.1252" gradientTransform="matrix(0.5004 0.8658 -0.8658 0.5004 165.8887 -66.0464)">
		<stop  offset="0" style="stop-color:#A7A9AC"/>
		<stop  offset="0.5" style="stop-color:#D1D3D4"/>
		<stop  offset="1" style="stop-color:#A7A9AC"/>
	</linearGradient>
	<polygon class="st16" points="145.3,117.37 137.31,103.54 205.67,64.03 213.66,77.86 	"/>
	<g>
		
			<linearGradient id="SVGID_16_" gradientUnits="userSpaceOnUse" x1="131.5324" y1="28.3524" x2="149.4887" y2="28.3524" gradientTransform="matrix(0.5004 0.8658 -0.8658 0.5004 165.8887 -66.0464)">
			<stop  offset="0" style="stop-color:#005495"/>
			<stop  offset="0.0703" style="stop-color:#005D9C"/>
			<stop  offset="0.2583" style="stop-color:#0070AD"/>
			<stop  offset="0.4081" style="stop-color:#007DB9"/>
			<stop  offset="0.5" style="stop-color:#0082BD"/>
			<stop  offset="0.5919" style="stop-color:#007DB9"/>
			<stop  offset="0.7417" style="stop-color:#0070AD"/>
			<stop  offset="0.9297" style="stop-color:#005D9C"/>
			<stop  offset="1" style="stop-color:#005495"/>
		</linearGradient>
		<path class="st17" d="M214.6,78.46c-0.46,0.26-1.05,0.11-1.31-0.35l-8.02-13.88c-0.26-0.46-0.11-1.05,0.35-1.31l3.08-1.78
			c0.46-0.26,1.05-0.11,1.31,0.35l8.03,13.88c0.26,0.46,0.11,1.05-0.35,1.31L214.6,78.46z"/>
	</g>
	
		<linearGradient id="SVGID_17_" gradientUnits="userSpaceOnUse" x1="132.1694" y1="180.1517" x2="148.1377" y2="180.1517" gradientTransform="matrix(0.5004 0.8658 0.8658 -0.5004 -120.9993 100.1804)">
		<stop  offset="0" style="stop-color:#A7A9AC"/>
		<stop  offset="0.5" style="stop-color:#D1D3D4"/>
		<stop  offset="1" style="stop-color:#A7A9AC"/>
	</linearGradient>
	<polygon class="st18" points="143.28,118.53 135.29,104.71 66.94,144.22 74.93,158.04 	"/>
	<g>
		
			<linearGradient id="SVGID_18_" gradientUnits="userSpaceOnUse" x1="131.1754" y1="138.3793" x2="149.1316" y2="138.3793" gradientTransform="matrix(0.5004 0.8658 0.8658 -0.5004 -120.9993 100.1804)">
			<stop  offset="0" style="stop-color:#005495"/>
			<stop  offset="0.0703" style="stop-color:#005D9C"/>
			<stop  offset="0.2583" style="stop-color:#0070AD"/>
			<stop  offset="0.4081" style="stop-color:#007DB9"/>
			<stop  offset="0.5" style="stop-color:#0082BD"/>
			<stop  offset="0.5919" style="stop-color:#007DB9"/>
			<stop  offset="0.7417" style="stop-color:#0070AD"/>
			<stop  offset="0.9297" style="stop-color:#005D9C"/>
			<stop  offset="1" style="stop-color:#005495"/>
		</linearGradient>
		<path class="st19" d="M74.98,159.16c0.46-0.26,0.62-0.85,0.35-1.31l-8.03-13.88c-0.26-0.46-0.85-0.62-1.31-0.35l-3.08,1.78
			c-0.46,0.26-0.62,0.85-0.35,1.31l8.02,13.88c0.26,0.46,0.85,0.62,1.31,0.35L74.98,159.16z"/>
	</g>
	
		<linearGradient id="SVGID_19_" gradientUnits="userSpaceOnUse" x1="132.0759" y1="70.2721" x2="148.0419" y2="70.2721" gradientTransform="matrix(-0.4973 0.8676 -0.8676 -0.4973 306.1768 44.6819)">
		<stop  offset="0" style="stop-color:#A7A9AC"/>
		<stop  offset="0.5" style="stop-color:#D1D3D4"/>
		<stop  offset="1" style="stop-color:#A7A9AC"/>
	</linearGradient>
	<polygon class="st20" points="137.34,118.54 145.28,104.69 213.78,143.96 205.84,157.81 	"/>
	<g>
		
			<linearGradient id="SVGID_20_" gradientUnits="userSpaceOnUse" x1="131.0817" y1="28.5" x2="149.0378" y2="28.5" gradientTransform="matrix(-0.4973 0.8676 -0.8676 -0.4973 306.1768 44.6819)">
			<stop  offset="0" style="stop-color:#005495"/>
			<stop  offset="0.0703" style="stop-color:#005D9C"/>
			<stop  offset="0.2583" style="stop-color:#0070AD"/>
			<stop  offset="0.4081" style="stop-color:#007DB9"/>
			<stop  offset="0.5" style="stop-color:#0082BD"/>
			<stop  offset="0.5919" style="stop-color:#007DB9"/>
			<stop  offset="0.7417" style="stop-color:#0070AD"/>
			<stop  offset="0.9297" style="stop-color:#005D9C"/>
			<stop  offset="1" style="stop-color:#005495"/>
		</linearGradient>
		<path class="st21" d="M205.79,158.93c-0.46-0.26-0.62-0.85-0.36-1.31l7.98-13.91c0.26-0.46,0.85-0.62,1.31-0.36l3.09,1.77
			c0.46,0.26,0.62,0.85,0.36,1.31l-7.97,13.91c-0.26,0.46-0.85,0.62-1.31,0.36L205.79,158.93z"/>
	</g>
	
		<linearGradient id="SVGID_21_" gradientUnits="userSpaceOnUse" x1="132.3948" y1="179.7781" x2="148.3635" y2="179.7781" gradientTransform="matrix(-0.4973 0.8676 0.8676 0.4973 18.8699 -120.3714)">
		<stop  offset="0" style="stop-color:#A7A9AC"/>
		<stop  offset="0.5" style="stop-color:#D1D3D4"/>
		<stop  offset="1" style="stop-color:#A7A9AC"/>
	</linearGradient>
	<polygon class="st22" points="135.31,117.38 143.25,103.53 74.76,64.27 66.82,78.12 	"/>
	<g>
		
			<linearGradient id="SVGID_22_" gradientUnits="userSpaceOnUse" x1="131.3997" y1="138.006" x2="149.3568" y2="138.006" gradientTransform="matrix(-0.4973 0.8676 0.8676 0.4973 18.8699 -120.3714)">
			<stop  offset="0" style="stop-color:#005495"/>
			<stop  offset="0.0703" style="stop-color:#005D9C"/>
			<stop  offset="0.2583" style="stop-color:#0070AD"/>
			<stop  offset="0.4081" style="stop-color:#007DB9"/>
			<stop  offset="0.5" style="stop-color:#0082BD"/>
			<stop  offset="0.5919" style="stop-color:#007DB9"/>
			<stop  offset="0.7417" style="stop-color:#0070AD"/>
			<stop  offset="0.9297" style="stop-color:#005D9C"/>
			<stop  offset="1" style="stop-color:#005495"/>
		</linearGradient>
		<path class="st23" d="M65.87,78.73c0.46,0.26,1.05,0.1,1.31-0.36l7.97-13.91c0.26-0.46,0.1-1.05-0.36-1.31l-3.09-1.77
			c-0.46-0.26-1.05-0.1-1.31,0.36l-7.97,13.91c-0.26,0.46-0.1,1.05,0.36,1.31L65.87,78.73z"/>
	</g>
	<linearGradient id="SVGID_23_" gradientUnits="userSpaceOnUse" x1="105.3067" y1="112.5205" x2="173.4111" y2="112.5205">
		<stop  offset="0.15" style="stop-color:#005495"/>
		<stop  offset="0.3442" style="stop-color:#00609E"/>
		<stop  offset="0.7818" style="stop-color:#0078B4"/>
		<stop  offset="1" style="stop-color:#0082BD"/>
	</linearGradient>
	<path class="st24" d="M173.41,112.52c0,18.8-15.25,34.05-34.05,34.05s-34.05-15.25-34.05-34.05c0-18.81,15.25-34.05,34.05-34.05
		S173.41,93.71,173.41,112.52z"/>
	<linearGradient id="SVGID_24_" gradientUnits="userSpaceOnUse" x1="106.3438" y1="111.4834" x2="174.4483" y2="111.4834">
		<stop  offset="0" style="stop-color:#0082BD"/>
		<stop  offset="0.2182" style="stop-color:#0078B4"/>
		<stop  offset="0.6558" style="stop-color:#00609E"/>
		<stop  offset="0.85" style="stop-color:#005495"/>
	</linearGradient>
	<path class="st25" d="M174.45,111.49c0,18.81-15.25,34.05-34.05,34.05c-18.81,0-34.05-15.24-34.05-34.05
		c0-18.81,15.24-34.05,34.05-34.05C159.2,77.43,174.45,92.68,174.45,111.49z"/>
	<circle class="st26" cx="140.29" cy="111.49" r="44.28"/>
	<rect x="132.32" y="30.92" class="st27" width="15.97" height="78.95"/>
	<g>
		<g>
			<circle class="st27" cx="159.82" cy="78.23" r="2.6"/>
			<circle class="st27" cx="159.82" cy="145.43" r="2.6"/>
			<circle class="st27" cx="178.94" cy="112.04" r="2.6"/>
			<circle class="st27" cx="120.77" cy="145.43" r="2.6"/>
			<circle class="st27" cx="120.77" cy="78.23" r="2.6"/>
			<circle class="st27" cx="101.65" cy="111.61" r="2.6"/>
		</g>
	</g>
	<g>
		<path class="st26" d="M149.28,30.4c0,0.53-0.43,0.96-0.96,0.96h-16.04c-0.53,0-0.96-0.43-0.96-0.96v-3.56
			c0-0.53,0.43-0.96,0.96-0.96h16.04c0.53,0,0.96,0.43,0.96,0.96V30.4z"/>
	</g>
	<rect x="132.32" y="112.21" class="st27" width="15.97" height="78.95"/>
	<g>
		<path class="st26" d="M148.96,188.75c0-0.53-0.43-0.96-0.96-0.96h-15.4c-0.53,0-0.96,0.43-0.96,0.96v3.36
			c0,0.53,0.43,0.96,0.96,0.96H148c0.53,0,0.96-0.43,0.96-0.96V188.75z"/>
	</g>
	
		<rect x="167.5" y="51.22" transform="matrix(0.5004 0.8658 -0.8658 0.5004 166.2016 -106.6212)" class="st27" width="15.97" height="78.95"/>
	<g>
		<path class="st26" d="M214.6,78.46c-0.46,0.26-1.05,0.11-1.31-0.35l-8.02-13.88c-0.26-0.46-0.11-1.05,0.35-1.31l3.08-1.78
			c0.46-0.26,1.05-0.11,1.31,0.35l8.03,13.88c0.26,0.46,0.11,1.05-0.35,1.31L214.6,78.46z"/>
	</g>
	
		<rect x="97.13" y="91.9" transform="matrix(0.5004 0.8658 -0.8658 0.5004 166.2583 -25.3667)" class="st27" width="15.97" height="78.95"/>
	<g>
		<path class="st26" d="M74.98,159.16c0.46-0.26,0.62-0.85,0.35-1.31l-8.03-13.88c-0.26-0.46-0.85-0.62-1.31-0.35l-3.08,1.78
			c-0.46,0.26-0.62,0.85-0.35,1.31l8.02,13.88c0.26,0.46,0.85,0.62,1.31,0.35L74.98,159.16z"/>
	</g>
	
		<rect x="167.58" y="91.77" transform="matrix(-0.4973 0.8676 -0.8676 -0.4973 376.7336 44.2135)" class="st27" width="15.96" height="78.95"/>
	<g>
		<path class="st26" d="M205.79,158.93c-0.46-0.26-0.62-0.85-0.36-1.31l7.98-13.91c0.26-0.46,0.85-0.62,1.31-0.36l3.09,1.77
			c0.46,0.26,0.62,0.85,0.36,1.31l-7.97,13.91c-0.26,0.46-0.85,0.62-1.31,0.36L205.79,158.93z"/>
	</g>
	
		<rect x="97.05" y="51.35" transform="matrix(-0.4973 0.8676 -0.8676 -0.4973 236.0674 44.8639)" class="st27" width="15.97" height="78.95"/>
	<g>
		<path class="st26" d="M65.87,78.73c0.46,0.26,1.05,0.1,1.31-0.36l7.97-13.91c0.26-0.46,0.1-1.05-0.36-1.31l-3.09-1.77
			c-0.46-0.26-1.05-0.1-1.31,0.36l-7.97,13.91c-0.26,0.46-0.1,1.05,0.36,1.31L65.87,78.73z"/>
	</g>
	<linearGradient id="SVGID_25_" gradientUnits="userSpaceOnUse" x1="185.6442" y1="66.2353" x2="116.939" y2="134.9404">
		<stop  offset="0" style="stop-color:#57B5E6"/>
		<stop  offset="0" style="stop-color:#7AC4ED"/>
		<stop  offset="0" style="stop-color:#9ED7F5"/>
		<stop  offset="0" style="stop-color:#ABE1FA"/>
		<stop  offset="0.6338" style="stop-color:#4BB1E4"/>
		<stop  offset="1" style="stop-color:#009EDB"/>
	</linearGradient>
	<path class="st28" d="M174.45,111.49c0,18.81-15.25,34.05-34.05,34.05c-18.81,0-34.05-15.24-34.05-34.05
		c0-18.81,15.24-34.05,34.05-34.05C159.2,77.43,174.45,92.68,174.45,111.49z"/>
	<path class="st29" d="M203.22,222.3c-10.19,5.58-21.73,8.53-33.38,8.53H21.26V82.25c0-11.65,2.95-23.19,8.52-33.37
		c1.46-2.56,3.13-5.71,4.53-8.4l-4.83,4.83c-0.49,0.9-0.98,1.78-1.44,2.59c-5.74,10.48-8.78,22.36-8.78,34.34v150.58h150.58
		c11.99,0,23.86-3.04,34.36-8.79c0.8-0.46,1.64-0.93,2.5-1.41l5.01-5.01C209.1,219.03,205.91,220.76,203.22,222.3z"/>
	<g>
		<g>
			<g>
				<path class="st27" d="M28.05,87.36V77.13c0-2.37-4.07-4.28-9.08-4.28c-5.02,0-9.08,1.92-9.08,4.28v10.23
					c0,2.37,4.07,4.29,9.08,4.29C23.98,91.65,28.05,89.73,28.05,87.36"/>
			</g>
			<g>
				<g>
					<g class="st30">
						<g>
							<path class="st31" d="M18.97,91.67c5.02,0,9.08-1.92,9.08-4.29c0-2.37-4.07-4.29-9.08-4.29c-5.02,0-9.08,1.92-9.08,4.29
								C9.88,89.75,13.95,91.67,18.97,91.67"/>
						</g>
					</g>
				</g>
			</g>
		</g>
		<g>
			<g>
				<path class="st27" d="M28.05,101.11V90.88c0-2.37-4.07-4.28-9.08-4.28c-5.02,0-9.08,1.92-9.08,4.28v10.23
					c0,2.37,4.07,4.29,9.08,4.29C23.98,105.4,28.05,103.48,28.05,101.11"/>
			</g>
			<g>
				<g>
					<g class="st30">
						<g>
							<path class="st31" d="M18.97,105.43c5.02,0,9.08-1.92,9.08-4.29c0-2.37-4.07-4.29-9.08-4.29c-5.02,0-9.08,1.92-9.08,4.29
								C9.88,103.51,13.95,105.43,18.97,105.43"/>
						</g>
					</g>
				</g>
			</g>
		</g>
		<g>
			<g>
				<path class="st27" d="M28.05,114.87v-10.23c0-2.37-4.07-4.29-9.08-4.29c-5.02,0-9.08,1.92-9.08,4.29v10.23
					c0,2.37,4.07,4.29,9.08,4.29C23.98,119.15,28.05,117.23,28.05,114.87"/>
			</g>
			<g>
				<g>
					<g class="st30">
						<g>
							<path class="st31" d="M18.97,119.18c5.02,0,9.08-1.92,9.08-4.29c0-2.37-4.07-4.29-9.08-4.29c-5.02,0-9.08,1.92-9.08,4.29
								C9.88,117.26,13.95,119.18,18.97,119.18"/>
						</g>
					</g>
				</g>
			</g>
		</g>
	</g>
	<g>
		<g>
			<g>
				<path class="st27" d="M28.05,183.69v-10.23c0-2.37-4.07-4.28-9.08-4.28c-5.02,0-9.08,1.92-9.08,4.28v10.23
					c0,2.37,4.07,4.29,9.08,4.29C23.98,187.98,28.05,186.06,28.05,183.69"/>
			</g>
			<g>
				<g>
					<g class="st30">
						<g>
							<path class="st31" d="M18.97,188c5.02,0,9.08-1.92,9.08-4.29s-4.07-4.29-9.08-4.29c-5.02,0-9.08,1.92-9.08,4.29
								S13.95,188,18.97,188"/>
						</g>
					</g>
				</g>
			</g>
		</g>
		<g>
			<g>
				<path class="st27" d="M28.05,197.44v-10.23c0-2.37-4.07-4.28-9.08-4.28c-5.02,0-9.08,1.92-9.08,4.28v10.23
					c0,2.37,4.07,4.29,9.08,4.29C23.98,201.73,28.05,199.81,28.05,197.44"/>
			</g>
			<g>
				<g>
					<g class="st30">
						<g>
							<path class="st31" d="M18.97,201.76c5.02,0,9.08-1.92,9.08-4.29c0-2.37-4.07-4.29-9.08-4.29c-5.02,0-9.08,1.92-9.08,4.29
								C9.88,199.84,13.95,201.76,18.97,201.76"/>
						</g>
					</g>
				</g>
			</g>
		</g>
		<g>
			<g>
				<path class="st27" d="M28.05,211.2v-10.23c0-2.37-4.07-4.29-9.08-4.29c-5.02,0-9.08,1.92-9.08,4.29v10.23
					c0,2.37,4.07,4.29,9.08,4.29C23.98,215.48,28.05,213.56,28.05,211.2"/>
			</g>
			<g>
				<g>
					<g class="st30">
						<g>
							<path class="st31" d="M18.97,215.51c5.02,0,9.08-1.92,9.08-4.29c0-2.37-4.07-4.29-9.08-4.29c-5.02,0-9.08,1.92-9.08,4.29
								C9.88,213.59,13.95,215.51,18.97,215.51"/>
						</g>
					</g>
				</g>
			</g>
		</g>
	</g>
</g>
</svg>
