<?xml version="1.0" encoding="utf-8"?>
<!-- Generator: Adobe Illustrator 19.1.0, SVG Export Plug-In . SVG Version: 6.00 Build 0)  -->
<svg version="1.1" xmlns="http://www.w3.org/2000/svg" xmlns:xlink="http://www.w3.org/1999/xlink" x="0px" y="0px"
	 width="252.04px" height="252.02px" viewBox="0 0 252.04 252.02" enable-background="new 0 0 252.04 252.02" xml:space="preserve">
<g id="shadow">
</g>
<g id="window">
	<path fill="#FFFFFF" d="M102.55,0C83.79,0,66.07,7.39,52.63,20.81c-13.41,13.4-20.79,31.04-20.79,49.68v149.7h149.44
		c39.02,0,70.76-31.72,70.76-70.72V0H102.55z"/>
	<linearGradient id="SVGID_1_" gradientUnits="userSpaceOnUse" x1="20.2701" y1="253.7729" x2="20.2701" y2="36.3264">
		<stop  offset="0" style="stop-color:#0082BD"/>
		<stop  offset="0.2182" style="stop-color:#0078B4"/>
		<stop  offset="0.6558" style="stop-color:#00609E"/>
		<stop  offset="0.85" style="stop-color:#005495"/>
	</linearGradient>
	<path fill="url(#SVGID_1_)" d="M31.84,70.49c0-11.91,3.03-23.4,8.7-33.65l-1.29-1.29L15.86,58.94C6.06,68.99,0,82.7,0,97.84v154.19
		l31.84-31.84V70.49z"/>
	<linearGradient id="SVGID_2_" gradientUnits="userSpaceOnUse" x1="0.8222" y1="231.7641" x2="214.9717" y2="231.7641">
		<stop  offset="0" style="stop-color:#14B1E7"/>
		<stop  offset="0.1118" style="stop-color:#14ADE2"/>
		<stop  offset="0.2581" style="stop-color:#13A3D8"/>
		<stop  offset="0.4237" style="stop-color:#0E92C9"/>
		<stop  offset="0.6033" style="stop-color:#087CB6"/>
		<stop  offset="0.7923" style="stop-color:#0064A1"/>
		<stop  offset="0.9" style="stop-color:#005495"/>
	</linearGradient>
	<path fill="url(#SVGID_2_)" d="M181.28,220.19H31.84v0L0,252.02h154.19c15.14,0,28.85-6.06,38.9-15.86l23.39-23.39l-1.27-1.27
		C205.13,217.03,193.57,220.19,181.28,220.19z"/>
	<linearGradient id="SVGID_3_" gradientUnits="userSpaceOnUse" x1="41.4788" y1="210.61" x2="243.2242" y2="8.8646">
		<stop  offset="0" style="stop-color:#9DDCF9"/>
		<stop  offset="1" style="stop-color:#009EDB"/>
	</linearGradient>
	<path fill="url(#SVGID_3_)" d="M40.84,211.19V70.49c0-33.51,27.84-61.49,61.72-61.49h140.49v140.48
		c0,34.03-27.74,61.72-61.76,61.72H40.84z"/>
</g>
<g id="family">
	<g>
		<defs>
			<path id="SVGID_4_" d="M40.83,211.18V70.48c0-33.51,27.84-61.49,61.72-61.49h140.49v140.48c0,34.03-27.74,61.72-61.76,61.72
				H40.83z"/>
		</defs>
		<clipPath id="SVGID_5_">
			<use xlink:href="#SVGID_4_"  overflow="visible"/>
		</clipPath>
		<g clip-path="url(#SVGID_5_)">
			<g>
				<circle fill="#FFFFFF" cx="60.18" cy="30.93" r="16.5"/>
				<circle fill="#FFFFFF" cx="84.92" cy="36.43" r="14.85"/>
				<circle fill="#FFFFFF" cx="42.4" cy="32.95" r="11.02"/>
				<circle fill="#FFFFFF" cx="105.01" cy="42.85" r="8.45"/>
				<circle fill="#FFFFFF" cx="31.91" cy="42.85" r="8.45"/>
			</g>
			<polygon fill="#FFFFFF" points="31.99,31.04 104.99,40.79 104.99,51.29 31.99,51.29 			"/>
		</g>
		<g clip-path="url(#SVGID_5_)">
			<g>
				<circle fill="#FFFFFF" cx="218.93" cy="25.47" r="6.94"/>
				<circle fill="#FFFFFF" cx="208.52" cy="27.79" r="6.25"/>
				<circle fill="#FFFFFF" cx="226.41" cy="26.33" r="4.63"/>
				<circle fill="#FFFFFF" cx="200.07" cy="30.49" r="3.55"/>
				<circle fill="#FFFFFF" cx="230.82" cy="30.49" r="3.55"/>
			</g>
			<polygon fill="#FFFFFF" points="230.79,25.52 200.08,29.62 200.08,34.04 230.79,34.04 			"/>
		</g>
		<path clip-path="url(#SVGID_5_)" fill="#3A7F2D" d="M192.8,138.74c0,37.56-47.34,68.01-105.75,68.01
			c-58.4,0-105.75-30.45-105.75-68.01c0-37.56,47.35-68.02,105.75-68.02C145.46,70.72,192.8,101.18,192.8,138.74z"/>
		<path clip-path="url(#SVGID_5_)" fill="#48A842" d="M418.2,336.59c0,140.1-113.57,253.68-253.68,253.68
			c-140.1,0-253.68-113.58-253.68-253.68c0-140.11,113.58-253.69,253.68-253.69C304.63,82.9,418.2,196.48,418.2,336.59z"/>
		<g clip-path="url(#SVGID_5_)">
			<path fill="#298DCC" d="M98.31,100.75c-25.42,0-46.03,6.86-46.03,27.55v130.14h92.05V128.29
				C144.33,107.61,123.72,100.75,98.31,100.75z"/>
			<rect x="88.95" y="94.03" fill="#E49D25" width="18.44" height="9.07"/>
			<g>
				<defs>
					<path id="SVGID_6_" d="M98.35,100.75c-25.42,0-46.03,6.86-46.03,27.55v130.14h92.05V128.29
						C144.37,107.61,123.76,100.75,98.35,100.75z"/>
				</defs>
				<clipPath id="SVGID_7_">
					<use xlink:href="#SVGID_6_"  overflow="visible"/>
				</clipPath>
				<path clip-path="url(#SVGID_7_)" fill="#E49D25" d="M98.34,111.05c-10.52,0-14.46-9.56-14.46-9.56l14.46-18.04l14.46,18.04
					C112.8,101.48,108.86,111.05,98.34,111.05z"/>
			</g>
			<g>
				<path fill="#2571A2" d="M69.19,142.63c-0.28,0-0.5,0.22-0.5,0.5v97.73c0,0.28,0.22,0.5,0.5,0.5s0.5-0.22,0.5-0.5v-97.73
					C69.69,142.85,69.47,142.63,69.19,142.63"/>
			</g>
		</g>
		<linearGradient id="SVGID_8_" gradientUnits="userSpaceOnUse" x1="98.1553" y1="88.3116" x2="98.1553" y2="104.9775">
			<stop  offset="0" style="stop-color:#3F230D"/>
			<stop  offset="0.7102" style="stop-color:#3F230D;stop-opacity:0"/>
		</linearGradient>
		<rect x="88.94" y="90.31" opacity="0.2" clip-path="url(#SVGID_5_)" fill="url(#SVGID_8_)" width="18.44" height="13.82"/>
		<path clip-path="url(#SVGID_5_)" fill="#260C00" d="M211.46,71.43c0,11.09-12.03,20.08-26.86,20.08
			c-14.1,0-26.86-8.99-26.86-20.08c0-11.09,12.03-20.08,26.86-20.08C199.43,51.35,211.46,60.34,211.46,71.43z"/>
		<g clip-path="url(#SVGID_5_)">
			<path fill-rule="evenodd" clip-rule="evenodd" fill="#3F230D" d="M166.83,77.28c-1.11-1.29-2.66-2.52-4.04-3.76
				c0.1,1.83,0.25,4.59,0.24,6.39c-0.12,10.29-1.12,19.78-10.01,28.31c10.8,0.59,25.5-5.74,28.62-14.28
				C181.64,93.93,173.95,85.53,166.83,77.28z"/>
			<path fill-rule="evenodd" clip-rule="evenodd" fill="#3F230D" d="M202.37,77.28c1.11-1.29,2.66-2.52,4.04-3.76
				c-0.1,1.83-0.25,4.59-0.24,6.39c0.12,10.29,1.12,19.78,10.01,28.31c-10.8,0.59-25.5-5.74-28.62-14.28
				C187.56,93.93,195.25,85.53,202.37,77.28z"/>
		</g>
		<path clip-path="url(#SVGID_5_)" fill="#ED1C24" d="M184.61,107.49c-25.41,0-46.03,6.86-46.03,27.55v136.6h92.05v-136.6
			C230.63,114.35,210.02,107.49,184.61,107.49z"/>
		<g clip-path="url(#SVGID_5_)">
			<defs>
				<path id="SVGID_9_" d="M184.61,107.49c-25.41,0-46.03,6.86-46.03,27.55v136.6h92.05v-136.6
					C230.63,114.35,210.02,107.49,184.61,107.49z"/>
			</defs>
			<clipPath id="SVGID_10_">
				<use xlink:href="#SVGID_9_"  overflow="visible"/>
			</clipPath>
			<g clip-path="url(#SVGID_10_)">
				<ellipse fill="#9B6A26" cx="184.35" cy="95.62" rx="20.34" ry="20.35"/>
			</g>
		</g>
		<rect x="175.38" y="99.21" clip-path="url(#SVGID_5_)" fill="#9B6A26" width="18.44" height="13.82"/>
		<linearGradient id="SVGID_11_" gradientUnits="userSpaceOnUse" x1="184.6046" y1="96.2159" x2="184.6046" y2="112.8818">
			<stop  offset="0" style="stop-color:#3F230D"/>
			<stop  offset="0.7102" style="stop-color:#3F230D;stop-opacity:0"/>
		</linearGradient>
		<rect x="175.38" y="98.21" opacity="0.3" clip-path="url(#SVGID_5_)" fill="url(#SVGID_11_)" width="18.44" height="13.82"/>
		<g clip-path="url(#SVGID_5_)">
			<path fill="#B82025" d="M217.22,236.8c-0.28,0-0.5-0.22-0.5-0.5v-93.17c0-0.28,0.22-0.5,0.5-0.5s0.5,0.22,0.5,0.5v93.17
				C217.72,236.57,217.5,236.8,217.22,236.8z"/>
		</g>
		<g clip-path="url(#SVGID_5_)">
			<path fill="#3F230D" d="M198.8,151.95c0,8.01,0.29,25.65-3.48,31.1c-0.69,1-8.9-6.73-10.45-6.73c0,0-25.02,7.99-28.05,5.73
				c-2.13-1.59-3.32-22.1-3.32-30.1c0-16.45,6.44-29.78,22.65-29.78C192.37,122.18,198.8,135.51,198.8,151.95z"/>
			<path fill="#298DCC" d="M176.96,171.08c-18.96,0-34.33,5.12-34.33,20.55v76.15h68.66v-76.15
				C211.28,176.19,195.92,171.08,176.96,171.08z"/>
			<rect x="170.32" y="161.55" fill-rule="evenodd" clip-rule="evenodd" fill="#E49D25" width="12.5" height="14"/>
			<g>
				<defs>
					<path id="SVGID_12_" d="M176.96,171.08c-18.96,0-34.33,5.12-34.33,20.55v76.15h68.66v-76.15
						C211.28,176.19,195.92,171.08,176.96,171.08z"/>
				</defs>
				<clipPath id="SVGID_13_">
					<use xlink:href="#SVGID_12_"  overflow="visible"/>
				</clipPath>
				<circle clip-path="url(#SVGID_13_)" fill-rule="evenodd" clip-rule="evenodd" fill="#E49D25" cx="176.8" cy="171.61" r="8.59"/>
			</g>
		</g>
		<g clip-path="url(#SVGID_5_)">
			<rect x="102.25" y="166.7" fill="#9B6A26" width="13.97" height="9.12"/>
			<ellipse fill="#260C00" cx="109.79" cy="153.8" rx="22.64" ry="16.48"/>
			<path fill="#3F230D" d="M110.07,175.43c-18.96,0-34.33,5.12-34.33,20.55v76.16h68.66v-76.16
				C144.39,180.55,129.02,175.43,110.07,175.43z"/>
			<ellipse fill="#9B6A26" cx="109.22" cy="175.67" rx="6.98" ry="2.25"/>
		</g>
		<g clip-path="url(#SVGID_5_)">
			<path fill="#9B6A26" d="M208.01,77.51c0,14.32-10.48,25.93-23.4,25.93c-12.93,0-23.41-11.61-23.41-25.93
				c0-14.32,10.48-25.93,23.41-25.93C197.53,51.58,208.01,63.19,208.01,77.51z"/>
		</g>
		<path clip-path="url(#SVGID_5_)" fill-rule="evenodd" clip-rule="evenodd" fill="#3F230D" d="M202.67,66.17
			c1.67,4.81,11.08,10.12,11.05,9.02c-0.29-10.75-4.45-18.96-12.31-24.9c-10.41-7.87-21.62-8.26-32.48-1.13
			c-7.63,5.01-12.05,12.1-13.45,21.37C155.09,73.08,177.33,81.81,202.67,66.17z"/>
		<g clip-path="url(#SVGID_5_)">
			<path fill="#E49D25" d="M121.18,71.1c0,14.11-10.22,25.55-22.82,25.55c-12.61,0-22.82-11.44-22.82-25.55
				c0-14.12,10.21-25.55,22.82-25.55C110.96,45.55,121.18,56.99,121.18,71.1z"/>
		</g>
		<path clip-path="url(#SVGID_5_)" fill-rule="evenodd" clip-rule="evenodd" fill="#3F230D" d="M81.29,58.97
			c5.68-2.23,14.05-2.82,19.72-1.28c11.96,3.24,14.42,3.24,17.35,0.5c3.51-3.29,5.11-5.77,4.72-6.78c-0.65-1.69-3.77,0.69-7.28-1.44
			c-10.54-6.39-19.01-8.36-29.84-3.36C72.46,52.83,75.54,64.82,81.29,58.97z"/>
		<path clip-path="url(#SVGID_5_)" fill-rule="evenodd" clip-rule="evenodd" fill="#3F230D" d="M75.71,67.59
			c0.59-0.72,3.85-8.66,9.44-12.19C78.23,56.09,76.58,58.27,75.71,67.59z"/>
		<path clip-path="url(#SVGID_5_)" fill-rule="evenodd" clip-rule="evenodd" fill="#3F230D" d="M120.96,67.59
			c-0.59-0.72-3.85-8.66-9.44-12.19C118.45,56.09,120.1,58.27,120.96,67.59z"/>
		<linearGradient id="SVGID_14_" gradientUnits="userSpaceOnUse" x1="176.5655" y1="162.7683" x2="176.5655" y2="175.7715">
			<stop  offset="0" style="stop-color:#3F230D"/>
			<stop  offset="0.7102" style="stop-color:#3F230D;stop-opacity:0"/>
		</linearGradient>
		<rect x="170.31" y="164.32" opacity="0.2" clip-path="url(#SVGID_5_)" fill="url(#SVGID_14_)" width="12.51" height="10.78"/>
		<linearGradient id="SVGID_15_" gradientUnits="userSpaceOnUse" x1="109.2237" y1="166.0005" x2="109.2237" y2="179.0224">
			<stop  offset="0" style="stop-color:#3F230D"/>
			<stop  offset="0.7102" style="stop-color:#3F230D;stop-opacity:0"/>
		</linearGradient>
		<polygon opacity="0.3" clip-path="url(#SVGID_5_)" fill="url(#SVGID_15_)" points="116.22,178.34 102.23,178.36 102.23,167.57 
			116.22,167.56 		"/>
		<path clip-path="url(#SVGID_5_)" fill="#E49D25" d="M195.73,149.11c0,10.89-8.82,19.71-19.7,19.71c-10.88,0-19.7-8.82-19.7-19.71
			c0-10.88,8.82-19.7,19.7-19.7C186.91,129.41,195.73,138.23,195.73,149.11z"/>
		<path clip-path="url(#SVGID_5_)" fill-rule="evenodd" clip-rule="evenodd" fill="#3F230D" d="M196.78,145.88
			c-7.07-2.38-18.19-7.32-21.15-12.46c-2.73,5.21-10.99,10.43-20.22,13.2c-0.38-8.08,2.55-14.12,8.65-18.38
			c7.33-5.12,15.23-5.38,22.87-0.74C193.79,131.67,197.18,137.34,196.78,145.88z"/>
		<g clip-path="url(#SVGID_5_)">
			<path fill="#9B6A26" d="M128.38,153.22c0,10.58-8.58,19.15-19.15,19.15c-10.57,0-19.15-8.57-19.15-19.15
				c0-10.58,8.57-19.15,19.15-19.15C119.81,134.07,128.38,142.64,128.38,153.22z"/>
		</g>
		<path clip-path="url(#SVGID_5_)" fill="#3F230D" d="M119.69,137.12c-0.26,16.35,11.43,24.33,11.64,24.47
			c1.83-3.47,2.87-7.42,2.87-11.61c0-13.76-11.11-24.92-24.81-24.92c-13.7,0-24.81,11.16-24.81,24.92c0,0.69,0.05,1.36,0.1,2.03
			C114.15,161.18,119.69,137.12,119.69,137.12z"/>
		<rect x="52.29" y="206.22" clip-path="url(#SVGID_5_)" fill="#E49D25" width="16.4" height="13.67"/>
	</g>
</g>
</svg>
