<?xml version="1.0" encoding="utf-8"?>
<!-- Generator: Adobe Illustrator 19.1.0, SVG Export Plug-In . SVG Version: 6.00 Build 0)  -->
<svg version="1.1" xmlns="http://www.w3.org/2000/svg" xmlns:xlink="http://www.w3.org/1999/xlink" x="0px" y="0px"
	 width="252.05px" height="252.02px" viewBox="0 0 252.05 252.02" style="enable-background:new 0 0 252.05 252.02;"
	 xml:space="preserve">
<style type="text/css">
	.st0{fill:#FFFFFF;}
	.st1{fill:url(#SVGID_1_);}
	.st2{fill:url(#SVGID_2_);}
	.st3{fill:url(#SVGID_3_);}
	.st4{opacity:0.4;clip-path:url(#SVGID_5_);}
	.st5{clip-path:url(#SVGID_7_);}
	.st6{clip-path:url(#SVGID_9_);fill:none;stroke:#FFFFFF;stroke-width:2.9918;}
	.st7{clip-path:url(#SVGID_5_);fill:#90A73F;}
	.st8{clip-path:url(#SVGID_5_);fill:#D5E04E;}
	.st9{clip-path:url(#SVGID_5_);fill:#D67C19;}
	.st10{clip-path:url(#SVGID_5_);fill:#FAA61A;}
	.st11{clip-path:url(#SVGID_5_);fill:#005495;}
	.st12{clip-path:url(#SVGID_5_);fill:#2A83BE;}
	.st13{clip-path:url(#SVGID_5_);fill:#BDAD14;}
	.st14{clip-path:url(#SVGID_5_);fill:#FFE600;}
</style>
<g id="shadow">
</g>
<g id="window">
	<path class="st0" d="M102.55,0C83.79,0,66.07,7.39,52.63,20.81c-13.41,13.4-20.79,31.04-20.79,49.68v149.7h149.44
		c39.02,0,70.76-31.72,70.76-70.72V0H102.55z"/>
	<linearGradient id="SVGID_1_" gradientUnits="userSpaceOnUse" x1="20.27" y1="253.7739" x2="20.27" y2="36.3274">
		<stop  offset="0" style="stop-color:#0082BD"/>
		<stop  offset="0.2182" style="stop-color:#0078B4"/>
		<stop  offset="0.6558" style="stop-color:#00609E"/>
		<stop  offset="0.85" style="stop-color:#005495"/>
	</linearGradient>
	<path class="st1" d="M31.84,70.49c0-11.91,3.03-23.4,8.7-33.65l-1.29-1.29L15.86,58.94C6.06,68.99,0,82.7,0,97.84v154.19
		l31.84-31.84V70.49z"/>
	<linearGradient id="SVGID_2_" gradientUnits="userSpaceOnUse" x1="0.8222" y1="231.7652" x2="214.9717" y2="231.7652">
		<stop  offset="0" style="stop-color:#14B1E7"/>
		<stop  offset="0.1118" style="stop-color:#14ADE2"/>
		<stop  offset="0.2581" style="stop-color:#13A3D8"/>
		<stop  offset="0.4237" style="stop-color:#0E92C9"/>
		<stop  offset="0.6033" style="stop-color:#087CB6"/>
		<stop  offset="0.7923" style="stop-color:#0064A1"/>
		<stop  offset="0.9" style="stop-color:#005495"/>
	</linearGradient>
	<path class="st2" d="M181.28,220.19H31.84v0L0,252.02h154.19c15.14,0,28.85-6.06,38.9-15.86l23.39-23.39l-1.27-1.27
		C205.13,217.04,193.57,220.19,181.28,220.19z"/>
	<linearGradient id="SVGID_3_" gradientUnits="userSpaceOnUse" x1="41.4905" y1="210.6149" x2="243.236" y2="8.8694">
		<stop  offset="0" style="stop-color:#ABE1FA"/>
		<stop  offset="0.1867" style="stop-color:#8CCDF1"/>
		<stop  offset="0.563" style="stop-color:#4EB2E5"/>
		<stop  offset="0.8455" style="stop-color:#00A3DE"/>
		<stop  offset="1" style="stop-color:#009EDB"/>
	</linearGradient>
	<path class="st3" d="M40.85,211.19V70.49C40.85,36.98,68.69,9,102.57,9h140.49v140.48c0,34.03-27.74,61.72-61.76,61.72H40.85z"/>
</g>
<g id="chart">
	<g>
		<defs>
			<path id="SVGID_4_" d="M40.86,211.19V70.49c0-33.51,27.84-61.49,61.72-61.49h140.49v140.48c0,34.03-27.74,61.72-61.76,61.72
				H40.86z"/>
		</defs>
		<clipPath id="SVGID_5_">
			<use xlink:href="#SVGID_4_"  style="overflow:visible;"/>
		</clipPath>
		<g class="st4">
			<g>
				<defs>
					<rect id="SVGID_6_" x="38.67" y="40.43" width="206.12" height="140.61"/>
				</defs>
				<clipPath id="SVGID_7_">
					<use xlink:href="#SVGID_6_"  style="overflow:visible;"/>
				</clipPath>
				<g class="st5">
					<defs>
						<rect id="SVGID_8_" x="38.67" y="40.43" width="206.12" height="140.61"/>
					</defs>
					<clipPath id="SVGID_9_">
						<use xlink:href="#SVGID_8_"  style="overflow:visible;"/>
					</clipPath>
					<line class="st6" x1="38.67" y1="179.55" x2="244.8" y2="179.55"/>
					<line class="st6" x1="38.67" y1="145.14" x2="244.8" y2="145.14"/>
					<line class="st6" x1="38.67" y1="110.74" x2="244.8" y2="110.74"/>
					<line class="st6" x1="38.67" y1="76.33" x2="244.8" y2="76.33"/>
					<line class="st6" x1="38.67" y1="41.93" x2="244.8" y2="41.93"/>
				</g>
			</g>
		</g>
		<polygon class="st7" points="132.76,90.16 102.43,87.86 98.71,92 98.71,217.69 132.76,215.79 		"/>
		<rect x="102.44" y="87.84" class="st8" width="32.14" height="127.88"/>
		<polygon class="st9" points="83.32,73.49 56.23,71.18 52.51,75.33 52.51,217.63 83.32,215.72 		"/>
		<rect x="56.23" y="71.17" class="st10" width="32.16" height="144.55"/>
		<polygon class="st11" points="180.61,31.97 150.25,29.67 145.72,33.81 145.72,217.63 180.61,215.72 		"/>
		<rect x="149.83" y="29.66" class="st12" width="32.17" height="186.06"/>
		<polygon class="st13" points="227.19,61.47 196.84,59.16 193.12,63.31 193.12,217.66 227.19,215.76 		"/>
		<polygon class="st14" points="229,59.22 196.84,59.16 196.84,215.72 229,215.72 		"/>
	</g>
</g>
</svg>
