<?xml version="1.0" encoding="utf-8"?>
<!-- Generator: Adobe Illustrator 19.1.0, SVG Export Plug-In . SVG Version: 6.00 Build 0)  -->
<svg version="1.1" xmlns="http://www.w3.org/2000/svg" xmlns:xlink="http://www.w3.org/1999/xlink" x="0px" y="0px"
	 width="252.04px" height="252.02px" viewBox="0 0 252.04 252.02" enable-background="new 0 0 252.04 252.02" xml:space="preserve">
<g id="shadow">
</g>
<g id="window">
	<path fill="#FFFFFF" d="M102.55,0C83.79,0,66.07,7.39,52.63,20.81C39.22,34.2,31.84,51.85,31.84,70.49v149.7h149.44
		c39.02,0,70.76-31.72,70.76-70.72V0H102.55z"/>
	<linearGradient id="SVGID_1_" gradientUnits="userSpaceOnUse" x1="108.2417" y1="252.3505" x2="108.2417" y2="211.6509">
		<stop  offset="0" style="stop-color:#14B1E7"/>
		<stop  offset="0.1106" style="stop-color:#14ADE2"/>
		<stop  offset="0.2553" style="stop-color:#13A3D8"/>
		<stop  offset="0.419" style="stop-color:#0E92C9"/>
		<stop  offset="0.5966" style="stop-color:#087CB6"/>
		<stop  offset="0.7835" style="stop-color:#0064A1"/>
		<stop  offset="0.89" style="stop-color:#005495"/>
	</linearGradient>
	<path fill="url(#SVGID_1_)" d="M181.28,220.19H31.84l0,0L0,252.02h154.19c15.14,0,28.85-6.06,38.9-15.86l23.39-23.39l-1.27-1.27
		C205.13,217.03,193.57,220.19,181.28,220.19z"/>
	<linearGradient id="SVGID_2_" gradientUnits="userSpaceOnUse" x1="20.2701" y1="253.7726" x2="20.2701" y2="36.3259">
		<stop  offset="0" style="stop-color:#0082BD"/>
		<stop  offset="0.2182" style="stop-color:#0078B4"/>
		<stop  offset="0.6558" style="stop-color:#00609E"/>
		<stop  offset="0.85" style="stop-color:#005495"/>
	</linearGradient>
	<path fill="url(#SVGID_2_)" d="M31.84,70.49c0-11.91,3.03-23.4,8.7-33.65l-1.29-1.29L15.86,58.94C6.06,68.99,0,82.7,0,97.84v154.19
		l31.84-31.84V70.49z"/>
	<linearGradient id="SVGID_3_" gradientUnits="userSpaceOnUse" x1="0.8222" y1="231.7642" x2="214.9717" y2="231.7642">
		<stop  offset="0" style="stop-color:#14B1E7"/>
		<stop  offset="0.1118" style="stop-color:#14ADE2"/>
		<stop  offset="0.2581" style="stop-color:#13A3D8"/>
		<stop  offset="0.4237" style="stop-color:#0E92C9"/>
		<stop  offset="0.6033" style="stop-color:#087CB6"/>
		<stop  offset="0.7923" style="stop-color:#0064A1"/>
		<stop  offset="0.9" style="stop-color:#005495"/>
	</linearGradient>
	<path fill="url(#SVGID_3_)" d="M181.28,220.19H31.84l0,0L0,252.02h154.19c15.14,0,28.85-6.06,38.9-15.86l23.39-23.39l-1.27-1.27
		C205.13,217.03,193.57,220.19,181.28,220.19z"/>
	<linearGradient id="SVGID_4_" gradientUnits="userSpaceOnUse" x1="41.479" y1="210.6098" x2="243.2243" y2="8.8646">
		<stop  offset="0" style="stop-color:#ABE1FA"/>
		<stop  offset="0.1867" style="stop-color:#8CCDF1"/>
		<stop  offset="0.563" style="stop-color:#4EB2E5"/>
		<stop  offset="0.8455" style="stop-color:#00A3DE"/>
		<stop  offset="1" style="stop-color:#009EDB"/>
	</linearGradient>
	<path fill="url(#SVGID_4_)" d="M40.84,211.19V70.49c0-33.51,27.84-61.49,61.72-61.49h140.49v140.48
		c0,34.03-27.74,61.72-61.76,61.72H40.84z"/>
</g>
<g id="ribbon">
	<rect x="31.85" y="97.32" opacity="0.2" width="220.19" height="28.11"/>
	<rect x="31.85" y="94.46" fill="#FFE600" width="220.18" height="28.11"/>
	<g>
		<polygon opacity="0.2" points="0,157.24 31.85,125.44 31.85,97.32 0,129.13 		"/>
		<polygon fill="#E1C800" points="0,154.4 31.85,122.58 31.85,94.47 0,126.28 		"/>
	</g>
	<g>
		<rect x="126.2" y="0.03" opacity="0.2" width="28.11" height="220.18"/>
		<rect x="129.05" y="0.02" fill="#FFE600" width="28.11" height="220.2"/>
	</g>
	<polygon opacity="0.2" points="154.32,220.22 122.52,252.06 94.41,252.06 126.21,220.22 	"/>
	<polygon fill="#E1C800" points="157.18,220.22 125.36,252.06 97.25,252.06 129.07,220.22 	"/>
</g>
<g id="bow_under">
	<g opacity="0.2">
		<path d="M214.04,126.25l0,0.29C214.03,126.54,214.04,126.43,214.04,126.25z"/>
		<path d="M72.34,97.65l0.04,2.94l0,0c0,0,0.19,13.91,0.29,21.08l0.05,4.01c0,0,0,0,0-0.01c0,0.01,0,0.02,0,0.02
			c0.04,2.98,3.38,3.26,6.37,3.21c1.96-0.03,28.29-0.39,46.17-0.63c4.8,0.8,10.22,1.28,16.77,1.19c6.55,0.09,11.96-0.39,16.75-1.18
			c17.98,0.24,44.24,0.6,46.19,0.62c2.98,0.04,6.33-0.23,6.37-3.21c0-0.01,0-0.04,0-0.05c0,0.01,0,0.02,0,0.04l0.12-8.79
			c0.1-7.26,0.22-16.29,0.22-16.29l0,0l0.04-2.94c0,0,0.86-8.49-17.2-6.1c-18.95,2.51-28.13,8.06-50.29,8.12l-1.49-0.02l-0.77-0.02
			v0.13v-0.11c-0.01,0-0.01,0-0.02,0v-0.03l-0.66,0.02l-0.87,0.01c-15.61-0.08-24.97-4.67-50.91-8.11
			C71.48,89.16,72.34,97.65,72.34,97.65z"/>
		<path d="M75.42,126.54l0-0.29C75.41,126.43,75.42,126.54,75.42,126.54z"/>
	</g>
	<g>
		<path fill="#ECD100" d="M213.42,98.53c0,0-0.32,23.03-0.35,25.1c-0.04,2.98-3.38,3.26-6.37,3.21c-2.98-0.04-62.95-0.85-62.95-0.85
			l-0.04-28.42l0.77,0.02L213.42,98.53z"/>
		
			<linearGradient id="SVGID_5_" gradientUnits="userSpaceOnUse" x1="66.1112" y1="295.986" x2="139.4039" y2="295.986" gradientTransform="matrix(0.7071 -0.7071 0.7071 0.7071 -103.2913 -26.144)">
			<stop  offset="0" style="stop-color:#FFF78F"/>
			<stop  offset="0.2992" style="stop-color:#FFF06D"/>
			<stop  offset="0.7712" style="stop-color:#FFE925"/>
			<stop  offset="1" style="stop-color:#FFE600"/>
		</linearGradient>
		<path fill="url(#SVGID_5_)" d="M143.75,127.41c24.15,0.33,32.89-7.05,52.12-9.6c18.06-2.4,17.2,6.1,17.2,6.1l0.38-28.31
			c0,0,0.86-8.49-17.2-6.1c-19.58,2.59-28.73,8.43-52.53,8.11L143.75,127.41z"/>
	</g>
	<g>
		<path fill="#ECD100" d="M74.1,98.53c0,0,0.32,23.03,0.35,25.1c0.04,2.98,3.38,3.25,6.37,3.21s62.6-0.85,62.6-0.85l0.28-28.42
			l-0.66,0.02L74.1,98.53z"/>
		
			<linearGradient id="SVGID_6_" gradientUnits="userSpaceOnUse" x1="19.5839" y1="246.6253" x2="87.1589" y2="246.6253" gradientTransform="matrix(0.7071 -0.7071 0.7071 0.7071 -103.2913 -26.144)">
			<stop  offset="0" style="stop-color:#FFE600"/>
			<stop  offset="0.2288" style="stop-color:#FFE925"/>
			<stop  offset="0.7008" style="stop-color:#FFF06D"/>
			<stop  offset="1" style="stop-color:#FFF78F"/>
		</linearGradient>
		<path fill="url(#SVGID_6_)" d="M143.76,127.41c-24.14,0.33-32.88-7.05-52.11-9.6c-18.06-2.4-17.2,6.1-17.2,6.1l-0.39-28.31
			c0,0-0.86-8.49,17.19-6.1c26.78,3.55,35.89,8.33,52.45,8.1L143.76,127.41z"/>
	</g>
	<g opacity="0.2">
		<path d="M132.16,184.04l-0.29,0C131.87,184.04,131.98,184.05,132.16,184.04z"/>
		<path d="M157.49,45.04l-2.94,0.04v0c0,0-13.91,0.19-21.08,0.29l-4,0.05c0,0,0,0,0,0c-0.01,0-0.02,0-0.02,0
			c-2.98,0.04-3.25,3.38-3.21,6.37c0.03,1.96,1.07,28.13,0.63,46.17c-0.79,4.8,0.46,26.64,0.12,33.42
			c-0.24,17.98-0.72,44.35-0.75,46.3c-0.04,2.98,0.23,6.33,3.21,6.37c0.01,0,0.04,0,0.05,0c-0.01,0-0.03,0-0.04,0l8.79,0.12
			c7.26,0.1,16.29,0.22,16.29,0.22v0l2.94,0.04c0,0,8.74-0.29,6.34-18.34c-2.51-18.95-8.16-31.45-8.22-53.61v-6.77
			c0.08-15.61,4.11-17.9,7.55-43.84C165.56,43.81,157.49,45.04,157.49,45.04z"/>
		<path d="M131.87,45.42l0.29,0C131.98,45.41,131.87,45.42,131.87,45.42z"/>
	</g>
	<g>
		<path fill="#ECD100" d="M157.41,180.78c0,0-23.03-0.32-25.1-0.35c-2.98-0.04-3.25-3.38-3.21-6.37c0.04-2.98-0.02-62.95-0.02-62.95
			l28.42-0.04l0.86,0.77L157.41,180.78z"/>
		
			<linearGradient id="SVGID_7_" gradientUnits="userSpaceOnUse" x1="54.1397" y1="334.2783" x2="54.1397" y2="260.9859" gradientTransform="matrix(0.7071 -0.7071 0.7071 0.7071 -103.2913 -26.144)">
			<stop  offset="0" style="stop-color:#FFE600"/>
			<stop  offset="0.2288" style="stop-color:#FFE925"/>
			<stop  offset="0.7008" style="stop-color:#FFF06D"/>
			<stop  offset="1" style="stop-color:#FFF78F"/>
		</linearGradient>
		<path fill="url(#SVGID_7_)" d="M128.53,111.12c-0.33,24.15,7.05,32.89,9.6,52.12c2.4,18.06-6.1,17.2-6.1,17.2l28.31,0.39
			c0,0,8.49,0.86,6.1-17.2c-2.6-19.58-8.43-28.73-8.11-52.53L128.53,111.12z"/>
	</g>
	<g>
		<path fill="#ECD100" d="M157.4,41.47c0,0-23.03,0.32-25.1,0.35c-2.98,0.04-3.26,3.38-3.21,6.37c0.04,2.98-0.26,62.6-0.26,62.6
			l29.54,0.28l-0.02-0.66L157.4,41.47z"/>
		
			<linearGradient id="SVGID_8_" gradientUnits="userSpaceOnUse" x1="66.8529" y1="248.2455" x2="140.1459" y2="248.2455" gradientTransform="matrix(0.7071 -0.7071 0.7071 0.7071 -103.2913 -26.144)">
			<stop  offset="0" style="stop-color:#FFF78F"/>
			<stop  offset="0.2992" style="stop-color:#FFF06D"/>
			<stop  offset="0.7712" style="stop-color:#FFE925"/>
			<stop  offset="1" style="stop-color:#FFE600"/>
		</linearGradient>
		<path fill="url(#SVGID_8_)" d="M128.53,111.13c-0.33-24.15,7.05-32.89,9.6-52.12c2.4-18.06-6.1-17.2-6.1-17.2l28.31-0.39
			c0,0,8.49-0.86,6.1,17.2c-3.55,26.78-8.33,35.89-8.1,52.45L128.53,111.13z"/>
		<g>
			<path fill="#FFE600" d="M213.07,123.61l0,0.29C213.07,123.9,213.08,123.79,213.07,123.61z"/>
			<path fill="#FFE600" d="M74.45,123.9l0-0.29C74.44,123.79,74.45,123.9,74.45,123.9z"/>
			<path fill="#FFE600" d="M132.32,180.44l-0.29,0C132.03,180.44,132.14,180.44,132.32,180.44z"/>
			<path fill="#FFE600" d="M132.03,41.82l0.29,0C132.14,41.81,132.03,41.82,132.03,41.82z"/>
		</g>
	</g>
	<g>
		<defs>
			<path id="SVGID_9_" d="M196.26,89.49c-14.61,1.94-23.41,5.67-36.83,7.31c1.58-9.82,4.58-19.87,7.01-38.18
				c2.4-18.06-6.1-17.2-6.1-17.2l-28.03,0.38c1.46,0.04,7.94,1.13,5.81,17.2c-1.96,14.77-6.76,23.36-8.74,37.48
				c-9.8-1.59-19.85-4.58-38.13-7c-18.06-2.4-17.19,6.1-17.19,6.1l0.38,28.02c0.04-1.46,1.13-7.94,17.2-5.81
				c14.9,1.98,23.51,6.85,37.86,8.79c2.04,13.63,6.7,22.17,8.62,36.64c2.13,16.07-4.35,17.16-5.81,17.2l28.03,0.38
				c0,0,8.49,0.86,6.1-17.2c-1.95-14.73-5.74-23.57-7.36-37.18c13.72-2.03,22.26-6.71,36.79-8.64c16.07-2.13,17.16,4.35,17.2,5.81
				l0.38-28.03C213.45,95.59,214.31,87.1,196.26,89.49z M143.73,111.11L143.73,111.11L143.73,111.11L143.73,111.11L143.73,111.11z"
				/>
		</defs>
		<clipPath id="SVGID_10_">
			<use xlink:href="#SVGID_9_"  overflow="visible"/>
		</clipPath>
		
			<rect x="86.65" y="53.31" opacity="0.7" clip-path="url(#SVGID_10_)" fill="none" stroke="#FFF56D" stroke-width="10" stroke-miterlimit="10" width="115" height="115"/>
	</g>
</g>
<g id="bow">
	<g opacity="0.2">
		<path d="M183.57,170.42l-0.21,0.2C183.36,170.62,183.44,170.55,183.57,170.42z"/>
		<path d="M104.32,51.73l-2.05,2.11l0,0c0,0-9.7,9.97-14.7,15.11l-2.79,2.87c0,0,0,0,0,0c0,0-0.01,0.01-0.02,0.02
			c-2.08,2.14,0.09,4.7,2.23,6.78c1.4,1.36,20.28,19.73,33.09,32.2c2.83,3.96,6.32,8.13,11.02,12.7c4.57,4.69,8.73,8.18,12.68,11.01
			c12.54,12.89,30.86,31.71,32.22,33.11c2.08,2.14,4.63,4.31,6.77,2.23c0.01-0.01,0.03-0.03,0.04-0.04
			c-0.01,0.01-0.02,0.02-0.03,0.03l6.3-6.13c5.21-5.06,11.68-11.36,11.68-11.36l0,0l2.11-2.05c0,0,6.62-5.4-7.85-16.47
			c-15.18-11.62-25.59-14.19-41.3-29.82l-1.04-1.07l-0.54-0.56l-0.1,0.1l0.08-0.08c0,0-0.01-0.01-0.01-0.01l0.02-0.02l-0.48-0.45
			l-0.62-0.61c-10.98-11.1-14.35-20.96-30.26-41.73C109.72,45.12,104.32,51.73,104.32,51.73z"/>
		<path d="M85.34,72.6l0.2-0.21C85.41,72.52,85.34,72.6,85.34,72.6z"/>
	</g>
	<g>
		<path fill="#ECD100" d="M202.73,150.38c0,0-16.51,16.06-18,17.51c-2.14,2.08-4.7-0.09-6.77-2.23
			c-2.08-2.14-43.91-45.12-43.91-45.12l20.07-20.12l0.54,0.56L202.73,150.38z"/>
		<linearGradient id="SVGID_11_" gradientUnits="userSpaceOnUse" x1="133.0518" y1="134.2598" x2="206.3439" y2="134.2598">
			<stop  offset="0" style="stop-color:#FFF78F"/>
			<stop  offset="0.2992" style="stop-color:#FFF06D"/>
			<stop  offset="0.7712" style="stop-color:#FFE925"/>
			<stop  offset="1" style="stop-color:#FFE600"/>
		</linearGradient>
		<path fill="url(#SVGID_11_)" d="M133.05,121.54c16.84,17.31,28.24,18.27,43.64,30.06c14.46,11.07,7.85,16.47,7.85,16.47
			l20.29-19.75c0,0,6.62-5.4-7.85-16.47c-15.68-12.01-26.27-14.35-42.88-31.41L133.05,121.54z"/>
	</g>
	<g>
		<path fill="#ECD100" d="M104.22,51.87c0,0-16.06,16.51-17.51,17.99c-2.08,2.14,0.09,4.7,2.23,6.78
			c2.14,2.08,44.87,43.66,44.87,43.66l20.29-19.9l-0.48-0.45L104.22,51.87z"/>
		<linearGradient id="SVGID_12_" gradientUnits="userSpaceOnUse" x1="86.5254" y1="84.8998" x2="154.1006" y2="84.8998">
			<stop  offset="0" style="stop-color:#FFE600"/>
			<stop  offset="0.2288" style="stop-color:#FFE925"/>
			<stop  offset="0.7008" style="stop-color:#FFF06D"/>
			<stop  offset="1" style="stop-color:#FFF78F"/>
		</linearGradient>
		<path fill="url(#SVGID_12_)" d="M133.06,121.55c-17.31-16.84-18.27-28.24-30.06-43.64c-11.07-14.46-16.47-7.85-16.47-7.85
			l19.75-20.29c0,0,5.39-6.62,16.47,7.85c16.42,21.45,19.49,31.26,31.36,42.82L133.06,121.55z"/>
	</g>
	<g opacity="0.2">
		<path d="M84.8,153.39l-0.2-0.21C84.6,153.18,84.67,153.27,84.8,153.39z"/>
		<path d="M202.91,74.91l-2.11-2.05l0,0c0,0-9.97-9.7-15.11-14.7l-2.87-2.79c0,0,0,0,0,0c0,0-0.01-0.01-0.02-0.02
			c-2.14-2.08-4.7,0.09-6.78,2.23c-1.37,1.4-19.14,20.65-32.2,33.09c-3.96,2.83-18.51,19.16-23.55,23.72
			c-12.89,12.54-31.87,30.85-33.27,32.21c-2.14,2.08-4.31,4.64-2.23,6.77c0.01,0.01,0.03,0.03,0.04,0.04
			c-0.01-0.01-0.02-0.02-0.03-0.02l6.13,6.3c5.06,5.21,11.36,11.68,11.36,11.68l0,0l2.05,2.11c0,0,6.38,5.98,17.46-8.49
			c11.62-15.18,16.47-28.01,32.09-43.72l4.79-4.79c11.1-10.98,15.57-9.75,36.34-25.66C209.48,79.75,202.91,74.91,202.91,74.91z"/>
		<path d="M182.62,55.17l0.21,0.2C182.7,55.23,182.62,55.17,182.62,55.17z"/>
	</g>
	<g>
		<path fill="#ECD100" d="M104.96,168.94c0,0-16.06-16.51-17.51-18c-2.08-2.14,0.09-4.7,2.23-6.77
			c2.14-2.08,45.12-43.91,45.12-43.91l20.12,20.07l-0.56,0.54L104.96,168.94z"/>
		<linearGradient id="SVGID_13_" gradientUnits="userSpaceOnUse" x1="121.081" y1="172.5514" x2="121.081" y2="99.2603">
			<stop  offset="0" style="stop-color:#FFE600"/>
			<stop  offset="0.2288" style="stop-color:#FFE925"/>
			<stop  offset="0.7008" style="stop-color:#FFF06D"/>
			<stop  offset="1" style="stop-color:#FFF78F"/>
		</linearGradient>
		<path fill="url(#SVGID_13_)" d="M133.8,99.26c-17.31,16.84-18.27,28.24-30.06,43.64c-11.07,14.46-16.47,7.85-16.47,7.85
			l19.75,20.29c0,0,5.4,6.62,16.47-7.85c12.01-15.68,14.35-26.27,31.41-42.87L133.8,99.26z"/>
	</g>
	<g>
		<path fill="#ECD100" d="M203.47,70.43c0,0-16.51-16.06-17.99-17.51c-2.14-2.08-4.7,0.09-6.78,2.23
			c-2.08,2.14-43.67,44.87-43.67,44.87l19.9,20.3l0.45-0.48L203.47,70.43z"/>
		<linearGradient id="SVGID_14_" gradientUnits="userSpaceOnUse" x1="133.794" y1="86.52" x2="207.0861" y2="86.52">
			<stop  offset="0" style="stop-color:#FFF78F"/>
			<stop  offset="0.2992" style="stop-color:#FFF06D"/>
			<stop  offset="0.7712" style="stop-color:#FFE925"/>
			<stop  offset="1" style="stop-color:#FFE600"/>
		</linearGradient>
		<path fill="url(#SVGID_14_)" d="M133.79,99.27C150.63,81.96,162.03,81,177.43,69.2c14.46-11.07,7.85-16.47,7.85-16.47l20.29,19.75
			c0,0,6.62,5.4-7.85,16.47c-21.45,16.43-31.26,19.49-42.82,31.36L133.79,99.27z"/>
		<g>
			<path fill="#FFE600" d="M184.75,167.87l-0.21,0.2C184.54,168.07,184.62,168.01,184.75,167.87z"/>
			<path fill="#FFE600" d="M86.53,70.06l0.2-0.21C86.59,69.97,86.53,70.06,86.53,70.06z"/>
			<path fill="#FFE600" d="M87.47,150.96l-0.2-0.21C87.27,150.75,87.34,150.83,87.47,150.96z"/>
			<path fill="#FFE600" d="M185.28,52.73l0.21,0.2C185.37,52.8,185.28,52.73,185.28,52.73z"/>
		</g>
	</g>
	<path opacity="0.2" d="M154.85,121.56c-5.84,5.68-15.17,5.55-20.85-0.29c-5.68-5.84-5.55-15.17,0.28-20.85
		c5.84-5.68,15.17-5.55,20.85,0.28C160.82,106.55,160.69,115.88,154.85,121.56z"/>
	<path fill="#FFE600" d="M156.29,120.36c-5.8,5.64-15.08,5.52-20.72-0.28c-5.64-5.8-5.52-15.08,0.28-20.73
		c5.8-5.64,15.08-5.52,20.72,0.28C162.22,105.43,162.1,114.71,156.29,120.36z"/>
	<g>
		<defs>
			<path id="SVGID_15_" d="M196.99,131.86c-11.7-8.96-20.57-12.54-31.21-20.87c8.06-5.82,17.29-10.81,31.95-22.04
				c14.46-11.07,7.85-16.47,7.85-16.47l-20.09-19.55c1,1.06,4.81,6.41-8.06,16.27c-11.83,9.06-21.3,11.73-32.68,20.33
				c-5.81-8.05-10.8-17.27-22.01-31.92c-11.07-14.46-16.47-7.85-16.47-7.85L86.73,69.85c1.06-1,6.41-4.81,16.27,8.06
				c9.14,11.93,11.78,21.47,20.56,32.99c-8.2,11.08-10.94,20.41-19.82,32c-9.86,12.87-15.21,9.05-16.27,8.06l19.55,20.09
				c0,0,5.4,6.62,16.47-7.85c9.04-11.8,12.6-20.72,21.09-31.49c11.14,8.26,20.49,10.99,32.12,19.9c12.87,9.86,9.05,15.21,8.05,16.27
				l20.09-19.55C204.83,148.33,211.45,142.93,196.99,131.86z M144.56,110L144.56,110L144.56,110L144.56,110L144.56,110z"/>
		</defs>
		<clipPath id="SVGID_16_">
			<use xlink:href="#SVGID_15_"  overflow="visible"/>
		</clipPath>
		
			<rect x="87.57" y="52.58" transform="matrix(0.7071 -0.7071 0.7071 0.7071 -35.3504 134.8236)" opacity="0.7" clip-path="url(#SVGID_16_)" fill="none" stroke="#FFF56D" stroke-width="10" stroke-miterlimit="10" width="115" height="115"/>
	</g>
	<path fill="#FFF56D" d="M134.05,104.46c1.99-4.8,6.65-8.17,12.08-8.17c5.21,0,9.71,3.1,11.82,7.59c0.41,0.87,1.29,4.81-11.92,4.95
		C132.57,108.96,133.71,105.27,134.05,104.46z"/>
</g>
</svg>
