<?xml version="1.0" encoding="utf-8"?>
<!-- Generator: Adobe Illustrator 19.1.0, SVG Export Plug-In . SVG Version: 6.00 Build 0)  -->
<svg version="1.1" xmlns="http://www.w3.org/2000/svg" xmlns:xlink="http://www.w3.org/1999/xlink" x="0px" y="0px"
	 width="285.88px" height="252.02px" viewBox="0 0 285.88 252.02" enable-background="new 0 0 285.88 252.02" xml:space="preserve">
<g id="shadow">
</g>
<g id="window">
	<linearGradient id="SVGID_1_" gradientUnits="userSpaceOnUse" x1="54.1137" y1="253.7729" x2="54.1137" y2="36.3264">
		<stop  offset="0" style="stop-color:#0082BD"/>
		<stop  offset="0.2182" style="stop-color:#0078B4"/>
		<stop  offset="0.6558" style="stop-color:#00609E"/>
		<stop  offset="0.85" style="stop-color:#005495"/>
	</linearGradient>
	<path fill="url(#SVGID_1_)" d="M65.68,70.49c0-11.91,3.03-23.4,8.7-33.65l-1.29-1.29L49.7,58.94c-9.8,10.05-15.86,23.76-15.86,38.9
		v154.19l31.84-31.84V70.49z"/>
	<path fill="#FFFFFF" d="M136.4,0c-18.76,0-36.49,7.39-49.92,20.81C73.07,34.2,65.68,51.85,65.68,70.49v149.7h149.44
		c39.02,0,70.76-31.72,70.76-70.72V0H136.4z"/>
	<linearGradient id="SVGID_2_" gradientUnits="userSpaceOnUse" x1="54.1137" y1="253.772" x2="54.1137" y2="36.3254">
		<stop  offset="0" style="stop-color:#0082BD"/>
		<stop  offset="0.2182" style="stop-color:#0078B4"/>
		<stop  offset="0.6558" style="stop-color:#00609E"/>
		<stop  offset="0.85" style="stop-color:#005495"/>
	</linearGradient>
	<path fill="url(#SVGID_2_)" d="M65.68,70.49c0-11.91,3.03-23.4,8.7-33.65l-1.29-1.29L49.7,58.93c-9.8,10.05-15.86,23.76-15.86,38.9
		v154.19l31.84-31.84V70.49z"/>
	<linearGradient id="SVGID_3_" gradientUnits="userSpaceOnUse" x1="34.6659" y1="231.7637" x2="248.8154" y2="231.7637">
		<stop  offset="0" style="stop-color:#14B1E7"/>
		<stop  offset="0.1118" style="stop-color:#14ADE2"/>
		<stop  offset="0.2581" style="stop-color:#13A3D8"/>
		<stop  offset="0.4237" style="stop-color:#0E92C9"/>
		<stop  offset="0.6033" style="stop-color:#087CB6"/>
		<stop  offset="0.7923" style="stop-color:#0064A1"/>
		<stop  offset="0.9" style="stop-color:#005495"/>
	</linearGradient>
	<path fill="url(#SVGID_3_)" d="M215.12,220.19H65.68l0,0l-31.84,31.84h154.19c15.14,0,28.85-6.06,38.9-15.86l23.39-23.39
		l-1.27-1.27C238.98,217.03,227.41,220.19,215.12,220.19z"/>
	<linearGradient id="SVGID_4_" gradientUnits="userSpaceOnUse" x1="75.3228" y1="210.6094" x2="277.0678" y2="8.8644">
		<stop  offset="0" style="stop-color:#ABE1FA"/>
		<stop  offset="0.1867" style="stop-color:#8CCDF1"/>
		<stop  offset="0.563" style="stop-color:#4EB2E5"/>
		<stop  offset="0.8455" style="stop-color:#00A3DE"/>
		<stop  offset="1" style="stop-color:#009EDB"/>
	</linearGradient>
	<path fill="url(#SVGID_4_)" d="M74.68,211.19V70.49c0-33.51,27.84-61.49,61.72-61.49h140.49v140.48
		c0,34.03-27.74,61.72-61.76,61.72H74.68z"/>
</g>
<g id="graduation_hat">
	<path fill-opacity="0.3" d="M58.59,139.82c0,0-19.84,16.74-25.12,24.01c-0.94,1.3-4.12,5.28-4.67,5.89
		c-2.32,2.6-1.59-1.89-1.59-1.89l10.7-14.95l10.33-10.41l5.4-3.04L58.59,139.82z"/>
	<path fill="#FFE600" d="M59.57,125.54l-0.04,0l-0.04-0.31l-3.8-5.88l-0.15-0.13h0l0.03-0.03c-1.46-1.28-5.24-2.54-9.4,1.33
		c-0.16,0.14-0.32,0.29-0.47,0.44c-10.07,10.07-17.5,8.33-20.61,6.81c-5.08-3.16-12.25-8.56-18.27-13.49
		c-0.28,0.52-0.73,1.38-1.25,2.56c2.82,2.31,5.87,4.7,8.86,6.92l-0.12-0.06c-0.38-0.25-0.75-0.5-1.15-0.76
		c-2.7-1.82-5.41-3.73-7.84-5.52c-0.34,0.79-0.7,1.7-1.06,2.72c3.8,2.78,8.21,5.82,12.37,8.43c-4.4-2.4-9.04-5.16-12.7-7.49
		c-0.29,0.85-0.57,1.78-0.85,2.77c4.56,2.89,10.46,6.38,15.73,9.06c-5.55-2.35-11.81-5.4-16.1-7.63c-0.22,0.89-0.44,1.82-0.63,2.79
		c4.85,2.5,12.27,6.15,18.51,8.58c-6.4-1.89-14.13-4.77-18.01-6.22c-0.31-0.12-0.59-0.22-0.87-0.32c-0.15,0.91-0.29,1.86-0.4,2.84
		c0.1,0.04,0.19,0.07,0.3,0.11c7.44,2.77,14.74,5.37,20.34,6.87c-4.65-0.75-10.22-2-14.27-2.9c-2.86-0.64-5.13-1.15-6.63-1.41
		c-0.07,0.91-0.12,1.86-0.15,2.82c1.46,0.27,3.69,0.77,6.17,1.32c5.94,1.33,11.41,2.5,15.72,3.13c-3.64-0.09-7.94-0.42-11.55-0.69
		c-5.2-0.39-8.61-0.63-10.37-0.47c0.02,0.92,0.05,1.85,0.11,2.8c1.44-0.19,5.81,0.14,10.05,0.46c4.77,0.36,8.92,0.65,12.27,0.71
		c-2.87,0.33-6.19,0.59-9.16,0.82c-5.75,0.45-10.74,0.83-12.85,1.59c0.04,0.32,0.07,0.63,0.11,0.95l0.73,1.72
		c1.53-0.65,7.21-1.09,12.22-1.47c3.23-0.25,6.39-0.5,9.12-0.8c-2.09,0.54-4.45,1.1-6.77,1.65c-6.11,1.45-11.91,2.83-14.44,4.2
		c0.09,0.48,0.2,0.99,0.3,1.52L3.32,157c1.75-1.19,8.27-2.74,14.03-4.1c2.07-0.49,4.09-0.97,5.96-1.44
		c-1.31,0.54-2.7,1.11-4.13,1.69c-6.21,2.52-12.6,5.11-15.64,7.22c0.19,0.82,0.39,1.66,0.61,2.52l0.29,0.31
		c2.01-1.88,9.65-4.97,15.78-7.46c0.9-0.36,1.76-0.71,2.6-1.06c-0.34,0.2-0.67,0.39-1.02,0.59c-5.96,3.47-13.14,7.65-16.81,10.76
		c0.28,0.98,0.58,1.97,0.9,2.97c2.61-2.67,10.12-7.11,16.15-10.62c-5.35,4.12-11.66,9.1-15.39,12.88c0.35,0.98,0.71,1.95,1.1,2.91
		c2.79-3.08,8.28-7.55,13.32-11.49c-4.24,4.16-9.16,9.19-12.57,13.26c0.42,0.95,0.87,1.88,1.34,2.78c2.5-3.11,6.25-7.08,9.98-10.84
		c-3.22,3.96-6.61,8.3-9.31,12.07c0.51,0.89,1.05,1.74,1.61,2.54c1.85-2.63,4.11-5.62,6.45-8.59c-2.05,3.09-4.11,6.29-5.95,9.29
		c0.54,0.72,1.11,1.39,1.7,2.01c1.34-2.15,2.82-4.44,4.34-6.72c-1.32,2.38-2.64,4.8-3.89,7.16c0.52,0.51,1.07,0.98,1.63,1.41
		c1.06-1.9,2.18-3.85,3.31-5.79c-0.96,2.02-1.92,4.08-2.85,6.12c0.78,0.54,1.61,0.99,2.47,1.33c1.82-3.97,3.73-8,5.5-11.63l0,0.07
		l6.93-12.84c8.09-10.54,15.43-17.15,20.84-22.01l0.23-0.22l1.29-1.16C60.67,135.01,59.62,125.92,59.57,125.54z"/>
	<path fill-opacity="0.3" d="M58.17,136.45l-9.42-8.19c3.32-3.81,5.41-5.95,7.1-7.67c1.48-1.52,2.66-2.71,4.3-4.66
		c7.72-9.15,29.8-18.8,75.86-12.79c35.04,4.57,38.13,1.36,38.37,1.33l1.78,12.36c-1.01,0.14-4.88,3.5-41.76-1.31
		c-44.2-5.76-61.39,4.12-65.42,8.34c-2.35,2.46-3.36,3.58-4.93,5.49C62.54,131.16,61.24,132.91,58.17,136.45z"/>
	<path fill-opacity="0.3" d="M61.42,128.42c1.7,6.79-1.09,13.19-6.23,14.29c-5.14,1.1-10.69-3.5-12.39-10.29
		c-1.7-6.79,1.09-13.19,6.23-14.29C54.18,117.02,59.72,121.63,61.42,128.42z"/>
	<path fill="#FFE850" d="M61.93,126.99c1.7,6.79-1.09,13.19-6.23,14.29c-5.14,1.1-10.69-3.5-12.39-10.29
		c-1.7-6.79,1.09-13.19,6.23-14.29C54.68,115.59,60.23,120.2,61.93,126.99z"/>
	<linearGradient id="SVGID_5_" gradientUnits="userSpaceOnUse" x1="50.489" y1="116.1956" x2="179.3292" y2="116.1956">
		<stop  offset="0" style="stop-color:#F7DA00"/>
		<stop  offset="0.1012" style="stop-color:#FBDE00"/>
		<stop  offset="0.1774" style="stop-color:#FFE600"/>
		<stop  offset="1" style="stop-color:#FFE600"/>
	</linearGradient>
	<path fill="url(#SVGID_5_)" d="M55.64,131.64c-1.21,0-2.43-0.43-3.41-1.29c-2.13-1.89-2.33-5.15-0.45-7.28
		c1.87-2.12,3.41-3.6,5.96-6.06c0.73-0.7,1.55-1.49,2.5-2.41c4.79-4.65,22.58-18.81,74.54-12.04c35.34,4.6,38.42,1.36,38.65,1.33
		c2.81-0.41,5.43,1.55,5.84,4.37c0.41,2.82-1.55,5.43-4.37,5.84c-1,0.15-4.73,3.48-41.46-1.31c-31.2-4.07-55.54-0.96-66.02,9.21
		c-0.96,0.93-1.79,1.73-2.52,2.44c-2.52,2.43-3.79,3.65-5.39,5.46C58.49,131.05,57.07,131.64,55.64,131.64z"/>
	<circle fill-opacity="0.3" cx="173.21" cy="111.26" r="19.83"/>
	<circle fill="#FFE600" cx="175.37" cy="109.36" r="19.83"/>
	<path fill="#FFF56D" d="M159.36,102.86c2.63-6.35,8.79-10.81,15.98-10.81c6.89,0,12.84,4.1,15.63,10.04
		c0.54,1.15,1.71,6.36-15.76,6.54C157.4,108.81,158.91,103.93,159.36,102.86z"/>
</g>
</svg>
