<?xml version="1.0" encoding="utf-8"?>
<!-- Generator: Adobe Illustrator 19.1.0, SVG Export Plug-In . SVG Version: 6.00 Build 0)  -->
<svg version="1.1" id="Layer_1" xmlns="http://www.w3.org/2000/svg" xmlns:xlink="http://www.w3.org/1999/xlink" x="0px" y="0px"
	 width="188.31px" height="63.29px" viewBox="0 0 188.31 63.29" style="enable-background:new 0 0 188.31 63.29;"
	 xml:space="preserve">
<style type="text/css">
	.st0{fill:#005495;}
</style>
<path class="st0" d="M50.25,0.84V11.6H31.16v51.68H19.09V11.6H0V0.84H50.25z M55.38,63.29h12.07V32.06V0.84H55.38v31.22V63.29z
	 M129.83,63.29h-12.42l-6.42-15.37H89.84l-6.35,15.37H71.35L97.95,0h5.28L129.83,63.29z M188.31,63.29h-12.42l-6.42-15.37h-21.16
	l-6.35,15.37h-12.14L156.43,0h5.27L188.31,63.29z M106.85,37.72l-6.38-15.55l-6.43,15.55H106.85z M165.33,37.72l-6.38-15.55
	l-6.43,15.55H165.33z"/>
</svg>
