<?xml version="1.0" encoding="utf-8"?>
<!-- Generator: Adobe Illustrator 16.0.4, SVG Export Plug-In . SVG Version: 6.00 Build 0)  -->
<!DOCTYPE svg PUBLIC "-//W3C//DTD SVG 1.1//EN" "http://www.w3.org/Graphics/SVG/1.1/DTD/svg11.dtd">
<svg version="1.1" id="Layer_1" xmlns="http://www.w3.org/2000/svg" xmlns:xlink="http://www.w3.org/1999/xlink" x="0px" y="0px"
	 width="500px" height="85px" viewBox="0 0 500 85" enable-background="new 0 0 500 85" xml:space="preserve">
<g>
	<path d="M28.622,25.282c-5.49,0-9.784,2.041-13.389,4.941v4.511c4.104-3.463,8.055-5.366,13.292-5.366
		c8.949,0,16.829,7.102,16.829,22.569c0,15.661-7.685,22.276-16.633,22.276c-5.042,0-9.237-1.926-13.487-5.424v4.662
		c3.817,2.908,8.06,4.848,13.194,4.848c11.868,0,21.596-8.561,21.596-26.46C50.023,33.94,40.392,25.282,28.622,25.282z"/>
	<path fill="#3E659C" d="M246.794,40.798v-0.195c7.393-1.556,13.327-6.809,13.327-16.635c0-11.964-8.949-17.996-24.611-17.996
		h-19.34v7.587h18.756c11.674,0,16.831,3.501,16.831,11.771s-6.225,12.062-17.025,12.062h-18.561v7.393h19.048
		c11.577,0,18.774,3.893,18.774,12.939c0,8.268-5.254,12.743-17.023,12.743h-20.799v7.49h21.384
		c15.953,0,24.903-7.587,24.903-19.651C262.456,47.802,255.646,42.452,246.794,40.798z"/>
	<path d="M56.734,51.839c0-17.704,10.797-26.557,21.693-26.557c12.062,0,20.234,10.117,20.234,26.167v0.682H61.403
		c0,13.911,7.684,22.277,17.121,22.277c7.977,0,12.549-3.795,16.439-10.604l3.405,2.141c-4.183,7.685-10.213,12.55-20.137,12.55
		C66.752,78.494,56.734,68.668,56.734,51.839z M93.796,48.239c-0.682-10.506-5.641-18.872-15.467-18.872
		c-7.978,0-15.564,6.226-16.829,18.872H93.796z"/>
	<path d="M111.497,66.042V30.534h-8.949v-4.182h8.949V7.771h4.669v18.581h13.329v4.182h-13.329v34.825
		c0,5.449,1.849,8.562,8.269,8.562c1.947,0,3.893-0.195,5.352-0.682v4.378c-1.653,0.291-3.6,0.485-5.741,0.485
		C115.584,78.104,111.497,74.699,111.497,66.042z"/>
	<path d="M134.844,65.652c0-9.727,8.27-17.023,35.117-21.498v-3.113c0-7.782-4.085-11.673-11.091-11.673
		c-8.461,0-14.103,3.307-19.844,8.463l-2.723-2.918c6.323-5.837,12.842-9.631,22.665-9.631c10.605,0,15.662,6.031,15.662,15.467
		v24.028c0,6.225,0.39,10.019,1.459,12.646h-4.959c-0.682-2.141-1.169-4.67-1.169-7.588c-6.226,5.35-13.034,8.463-20.719,8.463
		C139.903,78.299,134.844,73.435,134.844,65.652z M169.961,65.264V47.655c-24.903,4.378-30.447,10.507-30.447,17.704
		c0,5.74,3.792,8.854,10.116,8.854C157.219,74.213,164.125,70.905,169.961,65.264z"/>
	<path fill="#3E659C" d="M268.29,52.276c0-17.705,11.285-26.752,23.93-26.752c12.549,0,23.834,9.048,23.834,26.752
		c0,17.606-11.285,26.752-23.834,26.752C279.672,79.028,268.29,69.883,268.29,52.276z M307.592,52.276
		c0-10.701-5.156-19.553-15.372-19.553c-9.824,0-15.467,7.977-15.467,19.553c0,10.896,5.059,19.65,15.467,19.65
		C301.947,71.927,307.592,64.047,307.592,52.276z"/>
	<path fill="#3E659C" d="M319.358,70.176l5.06-5.059c3.893,4.182,9.046,7.101,16.052,7.101c7.978,0,12.354-2.82,12.354-8.073
		c0-5.156-4.475-7.102-13.231-9.145c-10.896-2.627-18.385-5.545-18.385-15.468c0-7.782,6.811-14.008,17.997-14.008
		c9.046,0,14.884,2.919,19.65,7.394l-4.379,5.545c-3.892-3.599-9.143-6.128-14.884-6.128c-7.489,0-10.408,3.307-10.408,6.907
		c0,4.767,4.085,6.517,12.159,8.366c11.578,2.82,19.554,5.643,19.554,16.244c0,9.825-8.854,15.08-20.526,15.08
		C331.131,78.932,323.544,75.234,319.358,70.176z"/>
	<path fill="#3E659C" d="M371.693,65.506V33.501h-8.949v-6.907h8.949V8.306h8.367v18.289h13.326v6.907h-13.326v30.156
		c0,5.448,1.751,8.173,7.978,8.173c1.846,0,3.89-0.293,5.251-0.682v6.906c-1.458,0.291-4.669,0.584-7.295,0.584
		C375.197,78.639,371.693,74.457,371.693,65.506z"/>
	<path fill="#3E659C" d="M399.027,52.276c0-17.705,11.285-26.752,23.93-26.752c12.549,0,23.835,9.048,23.835,26.752
		c0,17.606-11.286,26.752-23.835,26.752C410.411,79.028,399.027,69.883,399.027,52.276z M438.329,52.276
		c0-10.701-5.156-19.553-15.372-19.553c-9.824,0-15.468,7.977-15.468,19.553c0,10.896,5.061,19.65,15.468,19.65
		C432.687,71.927,438.329,64.047,438.329,52.276z"/>
	<path fill="#3E659C" d="M452.819,77.958V26.594h8.465v7.685c4.475-4.376,10.895-8.755,19.262-8.755
		c9.824,0,15.175,5.643,15.175,15.371v37.063h-8.366V42.743c0-6.809-2.92-10.02-9.437-10.02c-6.128,0-11.283,3.21-16.634,8.268
		v36.967H452.819z"/>
	<rect x="4.279" y="5.972" fill="#3E659C" width="8.464" height="71.986"/>
	<rect x="205.211" y="5.972" fill="#3E659C" width="2.494" height="71.986"/>
</g>
</svg>
