<?xml version="1.0" encoding="utf-8"?>
<!-- Generator: Adobe Illustrator 19.1.0, SVG Export Plug-In . SVG Version: 6.00 Build 0)  -->
<svg version="1.1" id="Layer_1" xmlns="http://www.w3.org/2000/svg" xmlns:xlink="http://www.w3.org/1999/xlink" x="0px" y="0px"
	 width="80px" height="80px" viewBox="0 0 80 80" style="enable-background:new 0 0 80 80;" xml:space="preserve">
<style type="text/css">
	.st0{fill:#FFFFFF;}
	.st1{fill:url(#SVGID_1_);}
	.st2{fill:url(#SVGID_2_);}
	.st3{fill:url(#SVGID_3_);}
</style>
<g>
	<path class="st0" d="M45.97,80c5.35,0,10.2-2.22,13.69-5.77l14.78-14.78c3.41-3.45,5.53-8.19,5.55-13.4V0H34.02
		c-5.35,0-10.2,2.22-13.69,5.77L5.55,20.55C2.14,24,0.02,28.74,0,33.95V80H45.97z"/>
	<linearGradient id="SVGID_1_" gradientUnits="userSpaceOnUse" x1="39.9877" y1="40.014" x2="75.9448" y2="4.0568">
		<stop  offset="0.1" style="stop-color:#9DDCF9"/>
		<stop  offset="0.9" style="stop-color:#009EDB"/>
	</linearGradient>
	<path class="st1" d="M39.39,4.06c-8.34,0-15.11,6.75-15.15,15.08v5.13h31.5v31.49h5.06c8.37,0,15.14-6.78,15.14-15.14V4.06H39.39z"
		/>
	<linearGradient id="SVGID_2_" gradientUnits="userSpaceOnUse" x1="4.0562" y1="66.7056" x2="70.3494" y2="66.7056">
		<stop  offset="0" style="stop-color:#14B1E7"/>
		<stop  offset="0.1118" style="stop-color:#14ADE2"/>
		<stop  offset="0.2581" style="stop-color:#13A3D8"/>
		<stop  offset="0.4237" style="stop-color:#0E92C9"/>
		<stop  offset="0.6033" style="stop-color:#087CB6"/>
		<stop  offset="0.7923" style="stop-color:#0064A1"/>
		<stop  offset="0.9" style="stop-color:#005495"/>
	</linearGradient>
	<path class="st2" d="M70,57.46c-2.73,1.5-5.87,2.35-9.2,2.35H20.19L4.06,75.95h41.92c4.08,0,7.91-1.62,10.8-4.56l13.57-13.58
		L70,57.46z"/>
	<linearGradient id="SVGID_3_" gradientUnits="userSpaceOnUse" x1="13.2976" y1="75.9475" x2="13.2976" y2="9.6534">
		<stop  offset="0" style="stop-color:#0082BD"/>
		<stop  offset="0.2182" style="stop-color:#0078B4"/>
		<stop  offset="0.6558" style="stop-color:#00609E"/>
		<stop  offset="0.85" style="stop-color:#005495"/>
	</linearGradient>
	<path class="st3" d="M22.54,10c-1.5,2.73-2.35,5.87-2.35,9.2v40.61L4.06,75.95V34.03c0-4.08,1.62-7.91,4.56-10.8L22.19,9.65
		L22.54,10z"/>
</g>
</svg>
