<?xml version="1.0" encoding="utf-8"?>
<!-- Generator: Adobe Illustrator 19.1.0, SVG Export Plug-In . SVG Version: 6.00 Build 0)  -->
<svg version="1.1" id="Layer_1" xmlns="http://www.w3.org/2000/svg" xmlns:xlink="http://www.w3.org/1999/xlink" x="0px" y="0px"
	 width="774.69px" height="25px" viewBox="0 0 774.69 25" style="enable-background:new 0 0 774.69 25;" xml:space="preserve">
<style type="text/css">
	.st0{fill:#1E6CA1;}
	.st1{fill:#FFFFFF;}
</style>
<path class="st0" d="M774.69,0H0v25h742.79c7.18,0,11.21-4.16,11.21-4.16L774.69,0"/>
<g>
	<path class="st1" d="M619.58,9.59c-0.45-0.27-1.18-0.5-1.98-0.5c-1.7,0-3.06,1.14-3.06,2.91c0,1.75,1.35,2.92,3.17,2.92
		c0.79,0,1.5-0.15,2-0.42l-0.2,2.03c-0.51,0.24-1.2,0.36-2.17,0.36c-2.48,0-5.13-1.68-5.13-4.92c0-3.24,2.67-4.93,5.13-4.93
		c1.18,0,2.11,0.25,2.68,0.58L619.58,9.59z"/>
	<path class="st1" d="M626.69,16.76l-2.57-3.76h-0.62v3.76h-2.24V7.19h3.5c1.63,0,3.09,1.09,3.09,2.89c0,1.11-0.66,2.03-1.47,2.4
		l3.04,4.27H626.69z M624.43,9.06h-0.92v2.14h0.92c0.6,0,1.2-0.33,1.2-1.06C625.63,9.42,625.02,9.06,624.43,9.06z"/>
	<path class="st1" d="M629.77,16.76V7.19h5.49v1.9h-3.21v1.89h2.64v1.95h-2.64v1.92h3.66v1.91H629.77z"/>
	<path class="st1" d="M642.94,16.76l-0.79-2.16h-3.04l-0.79,2.16h-2.19l3.76-9.64h1.6l3.77,9.64H642.94z M640.91,11.01
		c-0.09-0.25-0.21-0.57-0.28-0.88h-0.03c-0.08,0.32-0.18,0.65-0.27,0.88l-0.65,1.77h1.88L640.91,11.01z"/>
	<path class="st1" d="M649.4,9.09v7.67h-2.32V9.09h-2.75v-1.9h7.82v1.9H649.4z"/>
	<path class="st1" d="M653.03,16.76V7.19h5.49v1.9h-3.21v1.89h2.64v1.95h-2.64v1.92h3.66v1.91H653.03z"/>
	<path class="st1" d="M663.07,16.76h-3.23V7.19h3.23c2.75,0,5.13,1.8,5.13,4.78C668.2,14.94,665.83,16.76,663.07,16.76z
		 M662.84,9.09h-0.75v5.78h0.75c1.65,0,3.02-0.96,3.02-2.88S664.51,9.09,662.84,9.09z"/>
	<path class="st1" d="M677.24,9.09v7.67h-2.32V9.09h-2.75v-1.9h7.82v1.9H677.24z"/>
	<path class="st1" d="M685.25,16.98c-2.64,0-5.16-1.93-5.16-5.02c0-3.06,2.51-5.01,5.16-5.01c2.64,0,5.14,1.93,5.14,5.01
		S687.91,16.98,685.25,16.98z M685.25,9.03c-1.44,0-2.79,1.17-2.79,2.96c0,1.78,1.35,2.96,2.79,2.96c1.43,0,2.79-1.17,2.79-2.96
		C688.04,10.2,686.68,9.03,685.25,9.03z"/>
	<path class="st1" d="M697.76,16.89c-1.08,0-2.11-0.31-2.68-0.66l-0.23-2.17c0.78,0.54,1.8,0.92,2.76,0.92
		c0.83,0,1.35-0.38,1.35-0.96c0-0.55-0.35-0.87-1.23-1.11c-1.88-0.51-2.75-1.54-2.75-3c0-1.59,1.18-2.87,3.25-2.87
		c1.1,0,2.01,0.32,2.4,0.54l-0.42,1.88c-0.39-0.22-1.16-0.5-1.82-0.5c-0.81,0-1.18,0.36-1.18,0.83c0,0.48,0.4,0.74,1.14,0.95
		c1.83,0.51,2.92,1.45,2.92,3.15C701.29,15.72,700.09,16.89,697.76,16.89z"/>
	<path class="st1" d="M702.55,16.76V7.19h5.49v1.9h-3.21v1.89h2.64v1.95h-2.64v1.92h3.66v1.91H702.55z"/>
	<path class="st1" d="M714.77,16.76l-2.56-3.76h-0.62v3.76h-2.23V7.19h3.49c1.63,0,3.09,1.09,3.09,2.89c0,1.11-0.66,2.03-1.47,2.4
		l3.04,4.27H714.77z M712.51,9.06h-0.92v2.14h0.92c0.6,0,1.2-0.33,1.2-1.06C713.71,9.42,713.11,9.06,712.51,9.06z"/>
	<path class="st1" d="M722.12,16.82h-1.91l-3.5-9.63h2.38l1.5,4.21c0.22,0.63,0.45,1.41,0.63,2.13h0.03
		c0.18-0.71,0.4-1.49,0.63-2.13l1.5-4.21h2.19L722.12,16.82z"/>
	<path class="st1" d="M726.52,16.76V7.19h5.49v1.9h-3.21v1.89h2.64v1.95h-2.64v1.92h3.66v1.91H726.52z"/>
	<path class="st1" d="M734.59,16.97c-0.4,0-1.24-0.84-1.24-1.25c0-0.39,0.84-1.23,1.24-1.23c0.41,0,1.25,0.84,1.25,1.23
		C735.83,16.13,734.99,16.97,734.59,16.97z"/>
</g>
</svg>
