<?xml version="1.0" encoding="utf-8"?>
<!-- Generator: Adobe Illustrator 19.1.0, SVG Export Plug-In . SVG Version: 6.00 Build 0)  -->
<svg version="1.1" id="Layer_1" xmlns="http://www.w3.org/2000/svg" xmlns:xlink="http://www.w3.org/1999/xlink" x="0px" y="0px"
	 width="774.69px" height="25px" viewBox="0 0 774.69 25" style="enable-background:new 0 0 774.69 25;" xml:space="preserve">
<style type="text/css">
	.st0{fill:#1CA6DF;}
	.st1{fill:#FFFFFF;}
</style>
<path class="st0" d="M20.31,4.29L0,25l774.69,0V0c0,0-737.48,0-743.64,0C24.66,0,20.31,4.29,20.31,4.29"/>
<g>
	<path class="st1" d="M42.73,17.38h-3.54V7.81h3.14c1.48,0,2.8,0.98,2.8,2.54c0,0.57-0.29,1.29-0.79,1.57
		C45.17,12.19,46,13.18,46,14.4C46,16.26,44.53,17.38,42.73,17.38z M41.96,9.54h-0.69v1.96h0.69c0.56,0,1.06-0.28,1.06-0.97
		C43.03,9.82,42.52,9.54,41.96,9.54z M42.34,13.18h-1.06v2.5h1.06c0.71,0,1.43-0.38,1.43-1.25C43.76,13.59,43.06,13.18,42.34,13.18z
		"/>
	<path class="st1" d="M51.4,17.59c-2.28,0-4.14-1.33-4.14-3.65V7.81h2.33v5.97c0,1.14,0.73,1.8,1.84,1.8c1.1,0,1.85-0.66,1.85-1.8
		V7.81h2.28v6.13C55.55,16.24,53.69,17.59,51.4,17.59z"/>
	<path class="st1" d="M57.25,17.38V7.81h2.32v9.57H57.25z"/>
	<path class="st1" d="M61.27,17.38V7.81h2.33v7.66h3.6v1.91H61.27z"/>
	<path class="st1" d="M71.35,9.72v7.66h-2.32V9.72h-2.75V7.81h7.81v1.91H71.35z"/>
	<path class="st1" d="M82.76,9.72v7.66h-2.32V9.72h-2.75V7.81h7.81v1.91H82.76z"/>
	<path class="st1" d="M90.77,17.61c-2.64,0-5.16-1.93-5.16-5.02c0-3.06,2.5-5.01,5.16-5.01c2.64,0,5.15,1.94,5.15,5.01
		C95.92,15.66,93.43,17.61,90.77,17.61z M90.77,9.66c-1.44,0-2.79,1.17-2.79,2.95s1.35,2.95,2.79,2.95c1.43,0,2.79-1.17,2.79-2.95
		S92.2,9.66,90.77,9.66z"/>
	<path class="st1" d="M104.21,13.62h-1.41v3.76h-2.23V7.81h3.65c1.63,0,3.09,1.1,3.09,2.9S105.86,13.62,104.21,13.62z M103.88,9.69
		h-1.08v2.15h1.08c0.6,0,1.19-0.33,1.19-1.06C105.07,10.05,104.48,9.69,103.88,9.69z"/>
	<path class="st1" d="M108.49,17.38V7.81h5.49v1.91h-3.21v1.89h2.64v1.95h-2.64v1.92h3.66v1.91H108.49z"/>
	<path class="st1" d="M120.71,17.38l-2.56-3.76h-0.62v3.76h-2.23V7.81h3.5c1.63,0,3.09,1.1,3.09,2.9c0,1.11-0.66,2.02-1.47,2.4
		l3.04,4.28H120.71z M118.45,9.69h-0.92v2.15h0.92c0.6,0,1.2-0.33,1.2-1.06C119.65,10.05,119.05,9.69,118.45,9.69z"/>
	<path class="st1" d="M126.07,9.72v1.89h2.71v1.95h-2.71v3.83h-2.28V7.81h5.56v1.91H126.07z"/>
	<path class="st1" d="M135.08,17.61c-2.64,0-5.16-1.93-5.16-5.02c0-3.06,2.5-5.01,5.16-5.01c2.64,0,5.15,1.94,5.15,5.01
		C140.23,15.66,137.74,17.61,135.08,17.61z M135.08,9.66c-1.44,0-2.79,1.17-2.79,2.95s1.35,2.95,2.79,2.95
		c1.43,0,2.79-1.17,2.79-2.95S136.51,9.66,135.08,9.66z"/>
	<path class="st1" d="M146.9,17.38l-2.56-3.76h-0.62v3.76h-2.23V7.81h3.5c1.63,0,3.09,1.1,3.09,2.9c0,1.11-0.66,2.02-1.47,2.4
		l3.04,4.28H146.9z M144.64,9.69h-0.92v2.15h0.92c0.6,0,1.2-0.33,1.2-1.06C145.84,10.05,145.24,9.69,144.64,9.69z"/>
	<path class="st1" d="M158.86,17.38l-0.31-3.53c-0.04-0.52-0.09-1.15-0.09-1.77h-0.03c-0.23,0.6-0.54,1.26-0.81,1.8l-1.8,3.52h-0.93
		l-1.83-3.52c-0.27-0.54-0.57-1.17-0.81-1.78h-0.03c0,0.61-0.03,1.24-0.07,1.75l-0.3,3.53h-2.16l0.83-9.57h1.92l2.08,4.02
		c0.3,0.58,0.71,1.41,0.96,2.04h0.02c0.24-0.63,0.62-1.41,0.93-2.04l2.07-4.02h1.8l0.84,9.57H158.86z"/>
	<path class="st1" d="M163.27,17.59c-0.41,0-1.25-0.84-1.25-1.25c0-0.39,0.84-1.23,1.25-1.23c0.4,0,1.24,0.84,1.24,1.23
		C164.51,16.75,163.67,17.59,163.27,17.59z"/>
</g>
</svg>
