<svg xmlns="http://www.w3.org/2000/svg" viewBox="0 0 67.76 8"><defs><style>.cls-1{fill:#fff;}</style></defs><title>Asset 8</title><g id="Layer_2" data-name="Layer 2"><g id="Grid"><path class="cls-1" d="M5.11,3.93c.25-.38.58-.89.82-1.28L7.5.18H4.45L2.73,3.36V.18H0s0,.07,0,.1C0,2.77,0,5.4,0,7.88H2.7V4.69L4.51,7.88H7.77Z"/><path class="cls-1" d="M20.84.18c0,.07,0,.14,0,.21q0,2.4,0,4.79c0,.07,0,.14,0,.22h2.32V7.88H18V7.61Q18,4,18,.45c0-.09,0-.18,0-.27Z"/><path class="cls-1" d="M14.86.18q0,2.46,0,4.92c0,.09,0,.18,0,.3H17.2V7.88H12.06V7.64q0-3.6,0-7.2c0-.08,0-.17,0-.25Z"/><path class="cls-1" d="M11.1.18V7.88H8.29V.18Z"/><path class="cls-1" d="M27.12,7.07l.85-2c.25.16.47.32.71.46a2.19,2.19,0,0,0,1.21.33,1.39,1.39,0,0,0,.42-.1.36.36,0,0,0,.25-.37.34.34,0,0,0-.3-.33C30,5,29.64,5,29.33,4.89a2.43,2.43,0,0,1-1.54-.84,2.16,2.16,0,0,1-.08-2.46A3,3,0,0,1,29.85.1a4.48,4.48,0,0,1,3.23.52l.09.06-.75,2-.31-.18a2.47,2.47,0,0,0-1.37-.39.73.73,0,0,0-.37.11.42.42,0,0,0-.16.31.36.36,0,0,0,.21.25c.28.09.58.15.87.22a3.44,3.44,0,0,1,1.38.58,2,2,0,0,1,.76,1.83,2.64,2.64,0,0,1-2.09,2.4A7.19,7.19,0,0,1,27.12,7.07Z"/><path class="cls-1" d="M45.66,4.8l1.89,3h-3.3c-.36-.75-.9-2.42-.9-2.42V7.82H40.59V.13h.23c1.1,0,2.21,0,3.31,0a5.11,5.11,0,0,1,1.43.25,2.44,2.44,0,0,1,1.62,2.67A2.09,2.09,0,0,1,45.66,4.8ZM43.35,3.53c.37,0,.75.07,1-.29a.63.63,0,0,0,0-.73c-.25-.34-.63-.28-1-.28Z"/><path class="cls-1" d="M48.06.14H53.3v2.1H50.89V3H53V5H50.89v.75H53.3v2.1H48.06Z"/><path class="cls-1" d="M54.17.14h5.24v2.1H57V3h2.15V5H57v.75h2.41v2.1H54.17Z"/><path class="cls-1" d="M33.85,4A4,4,0,0,0,34.9,6.69a4.05,4.05,0,0,0,3.75,1.25,2.33,2.33,0,0,0,1.18-.46V4.78c-.18.13-.34.27-.52.38a1.79,1.79,0,0,1-1.61.27,1.5,1.5,0,0,1,0-2.84,1.79,1.79,0,0,1,1.61.27c.18.11.34.25.52.38V.54A2.33,2.33,0,0,0,38.65.08,4.05,4.05,0,0,0,34.9,1.33,4,4,0,0,0,33.85,4Z"/><polygon class="cls-1" points="65.27 0.13 65.27 4.19 62.69 0.13 60.2 0.13 60.2 7.82 62.69 7.82 62.69 3.75 65.27 7.82 67.76 7.82 67.76 0.13 65.27 0.13"/></g></g></svg>