<svg xmlns="http://www.w3.org/2000/svg" viewBox="0 0 70.2 8"><defs><style>.cls-1{fill:#fff;}</style></defs><title>Asset 9</title><g id="Layer_2" data-name="Layer 2"><g id="Grid"><path class="cls-1" d="M8,.29C8,.16,8,.11,8.1.11h.54c.12,0,.16.06.2.18l1.87,6.38L12.59.29c0-.12.08-.18.2-.18h.54c.09,0,.14,0,.14.18L11.21,7.67c0,.14-.1.22-.24.22h-.51c-.14,0-.2-.08-.24-.22Z"/><path class="cls-1" d="M16.67.27c0-.11,0-.16.14-.16h4.1c.1,0,.14,0,.14.16V.76c0,.11,0,.16-.14.16H17.47V3.4h2.78c.1,0,.14,0,.14.16V4c0,.11,0,.16-.14.16H17.47V7.09H21c.1,0,.14,0,.14.16v.49c0,.11,0,.16-.14.16H16.8c-.1,0-.14,0-.14-.16Z"/><path class="cls-1" d="M24.72.27c0-.11,0-.16.14-.16h2.41a2,2,0,0,1,2.15,2,1.93,1.93,0,0,1-2,2h-.12l2.2,3.51a.2.2,0,0,1,0,.1.12.12,0,0,1-.13.12h-.58c-.14,0-.19,0-.27-.17L26.35,4.16h-.83V7.73c0,.11,0,.16-.14.16h-.53c-.1,0-.14,0-.14-.16Zm2.56,3.09c.91,0,1.33-.43,1.33-1.22S28.19.91,27.28.91H25.53V3.36Z"/><path class="cls-1" d="M33.06,5.77l.09,0s.06,0,.09.08A2,2,0,0,0,35.12,7.2a1.29,1.29,0,0,0,1.31-1.46c0-.79-.58-1.19-1.67-1.53A2.41,2.41,0,0,1,32.85,2a2,2,0,0,1,2.1-2A2.4,2.4,0,0,1,37,1.17a.19.19,0,0,1,0,.1s0,.07-.06.11l-.37.34s-.07.06-.1.06-.06,0-.1-.07A1.78,1.78,0,0,0,34.95.8a1.14,1.14,0,0,0-1.29,1.13c0,.8.69,1.22,1.55,1.51,1.05.36,2.09.91,2.09,2.23A2.18,2.18,0,0,1,35.08,8a2.72,2.72,0,0,1-2.53-1.72.33.33,0,0,1,0-.13.09.09,0,0,1,.06-.09Z"/><path class="cls-1" d="M40.29,7.24c0-.11,0-.16.14-.16h1.19V.91H40.53c-.1,0-.14,0-.14-.16V.27c0-.11,0-.16.14-.16h3c.1,0,.14,0,.14.16V.76c0,.11,0,.16-.14.16H42.43V7.09h1.19c.1,0,.14,0,.14.16v.49c0,.11,0,.16-.14.16H40.43c-.1,0-.14,0-.14-.16Z"/><path class="cls-1" d="M46.64,4c0-2.57,1.63-4,3.3-4s3.3,1.43,3.3,4-1.6,4-3.3,4-3.3-1.37-3.3-4m5.74,0c0-2.2-1.19-3.2-2.43-3.2S47.5,1.8,47.5,4s1.18,3.2,2.43,3.2,2.43-1,2.43-3.2"/><path class="cls-1" d="M56.84.27c0-.11,0-.16.14-.16h.4c.12,0,.17.06.23.16l3.49,5.9V.27c0-.11,0-.16.14-.16h.53c.1,0,.14,0,.14.16V7.73c0,.11,0,.16-.14.16h-.4c-.12,0-.17-.06-.23-.16l-3.49-5.9v5.9c0,.11,0,.16-.14.16H57c-.1,0-.14,0-.14-.16Z"/><path class="cls-1" d="M66,5.77l.09,0s.06,0,.09.08A2,2,0,0,0,68,7.2a1.29,1.29,0,0,0,1.31-1.46c0-.79-.58-1.19-1.67-1.53A2.41,2.41,0,0,1,65.76,2a2,2,0,0,1,2.1-2,2.4,2.4,0,0,1,2.06,1.17.19.19,0,0,1,0,.1s0,.07-.06.11l-.37.34s-.07.06-.1.06-.06,0-.1-.07A1.78,1.78,0,0,0,67.86.8a1.14,1.14,0,0,0-1.29,1.13c0,.8.69,1.22,1.55,1.51,1.05.36,2.09.91,2.09,2.23A2.18,2.18,0,0,1,68,8a2.72,2.72,0,0,1-2.53-1.72.33.33,0,0,1,0-.13.09.09,0,0,1,.06-.09Z"/><path class="cls-1" d="M7.81,7.89c-.14,0-.2-.08-.24-.22L5.32.29c0-.13,0-.18.14-.18H6c.12,0,.16.06.2.18L8.38,7.72a.13.13,0,0,1-.11.17Z"/><path class="cls-1" d="M5.13,7.89c-.14,0-.2-.08-.24-.22L2.63.29c0-.13,0-.18.14-.18h.54c.12,0,.16.06.2.18L5.69,7.72a.13.13,0,0,1-.11.17Z"/><path class="cls-1" d="M2.49,7.89c-.14,0-.2-.08-.24-.22L0,.29C0,.16,0,.11.14.11H.68C.8.11.84.17.88.29L3.06,7.72a.13.13,0,0,1-.11.17Z"/></g></g></svg>