<svg xmlns="http://www.w3.org/2000/svg" viewBox="0 0 51.78 8"><defs><style>.cls-1{fill:#fff;}</style></defs><title>Asset 10</title><g id="Layer_2" data-name="Layer 2"><g id="Grid"><path class="cls-1" d="M2.88,4.82h-2V4.75l.61,0V.1h-1L.07,1.36H0V0H3.8V1.36H3.74L3.24.1h-1V4.71l.61,0Z"/><path class="cls-1" d="M6.39,2.26H8.54V.11L8,.07V0H9.82V.07l-.54,0V4.71l.54,0v.07H8V4.75l.54,0V2.37H6.39V4.71l.54,0v.07H5.11V4.75l.54,0V.11l-.54,0V0H6.93V.07l-.54,0Z"/><path class="cls-1" d="M11.29,4.75l.54,0V.11l-.54,0V0H15V1.25h-.07L14.46.1H12.57V2.25h1.09l.3-.82H14V3.15H14l-.3-.81H12.57V4.72h1.93L15,3.53H15V4.82H11.29Z"/><path class="cls-1" d="M25.91.56,23.16,8h-.59L19.65.46V7.77l.84.07v.11H18.6V7.83l.88-.07V.32L18.6.26V.14h2.18l2.64,6.61L25.88.14H28V.26l-.89.07V7.77l.89.07v.11H25.13V7.83l.78-.07Z"/><path class="cls-1" d="M29.51,7.83l.88-.07V.32L29.51.26V.14h6v2h-.11L34.64.3H31.59V3.79h1.76l.49-1.33h.11V5.25h-.11l-.49-1.31H31.59V7.79h3.13l.72-1.93h.11V7.94h-6Z"/><path class="cls-1" d="M42,7.94H38.84V7.83l1-.07V.3H38.26l-.8,2h-.11V.14h6.16V2.34H43.4l-.8-2H41V7.77l1,.07Z"/><path class="cls-1" d="M51,7.77l.78.07v.11h-3v-.1l.94-.08-.87-2.64H46l-.92,2.64.95.08v.1H44.12V7.83l.8-.07L47.54.4l.84-.4ZM46.12,5h2.64L47.49,1Z"/><rect class="cls-1" x="7.18" y="0.1" width="0.66" height="15.02" transform="translate(15.12 0.1) rotate(90)"/></g></g></svg>