<?xml version="1.0" encoding="UTF-8" standalone="no"?>
<svg width="138px" height="28px" viewBox="0 0 138 28" version="1.1" xmlns="http://www.w3.org/2000/svg" xmlns:xlink="http://www.w3.org/1999/xlink" xmlns:sketch="http://www.bohemiancoding.com/sketch/ns">
    <!-- Generator: Sketch 3.3.2 (12043) - http://www.bohemiancoding.com/sketch -->
    <title>logo_red</title>
    <desc>Created with Sketch.</desc>
    <defs></defs>
    <g id="Page-1" stroke="none" stroke-width="1" fill="none" fill-rule="evenodd" sketch:type="MSPage">
        <g id="styleguide" sketch:type="MSArtboardGroup" transform="translate(-405.000000, -2070.000000)" fill="#D7262C">
            <g id="Group" sketch:type="MSLayerGroup" transform="translate(384.000000, 2054.000000)">
                <g id="logo_red" transform="translate(21.517241, 16.500000)" sketch:type="MSShapeGroup">
                    <path d="M8.68996552,26.8895172 C4.54375862,26.8895172 1.0142069,23.9272759 0.297931034,19.8484138 C0.247965517,19.5433448 0.449068966,19.2556552 0.753206897,19.2035172 C1.05889655,19.1513793 1.34503448,19.3527931 1.39965517,19.6563103 C2.01910345,23.2007586 5.08593103,25.7753793 8.68996552,25.7753793 C12.7741034,25.7753793 16.0944828,22.4546897 16.0944828,18.3677586 C16.0944828,16.4315172 15.3487241,14.6954483 13.9382069,13.3510345 C12.5962759,12.0752069 10.7044138,11.222069 8.62013793,10.9582759 C7.27851724,10.7891379 6.34096552,9.82396552 6.34096552,8.61362069 C6.34096552,7.31824138 7.39675862,6.26586207 8.68996552,6.26586207 C9.83172414,6.26586207 10.8040345,7.083 11.0004828,8.20893103 C11.0554138,8.51058621 10.854,8.80168966 10.5476897,8.85382759 C10.2472759,8.90782759 9.95617241,8.70206897 9.90496552,8.40010345 C9.80193103,7.80951724 9.29172414,7.38186207 8.68996552,7.38186207 C8.00875862,7.38186207 7.45851724,7.93489655 7.45851724,8.61362069 C7.45851724,9.35627586 8.11055172,9.77182759 8.7597931,9.85375862 C11.0827241,10.1473448 13.1921379,11.1022759 14.7056897,12.5425862 C16.3433793,14.102069 17.2117241,16.1171379 17.2117241,18.3677586 C17.2117241,23.0688621 13.3885862,26.8895172 8.68996552,26.8895172" id="Fill-1"></path>
                    <path d="M8.81193103,20.7186207 C7.66862069,20.7186207 6.69631034,19.9014828 6.49862069,18.7771034 C6.44896552,18.4714138 6.65068966,18.1840345 6.95265517,18.1306552 C7.25710345,18.0769655 7.54603448,18.2811724 7.59786207,18.585931 C7.70368966,19.1765172 8.21234483,19.6041724 8.81193103,19.6041724 C9.49593103,19.6041724 10.0477241,19.0495862 10.0477241,18.3677586 C10.0477241,17.6269655 9.39382759,17.2138966 8.74086207,17.1304138 C6.42413793,16.8358966 4.31255172,15.8806552 2.79775862,14.4406552 C1.1582069,12.8811724 0.292655172,10.8664138 0.292655172,8.61393103 C0.292655172,3.91655172 4.1157931,0.0937241379 8.81193103,0.0937241379 C12.9568966,0.0937241379 16.4861379,3.05472414 17.2030345,7.13762069 C17.2564138,7.44144828 17.0525172,7.72975862 16.7486897,7.78189655 C16.4476552,7.83527586 16.1571724,7.63293103 16.1034828,7.32693103 C15.4843448,3.78372414 12.4159655,1.21065517 8.81193103,1.21065517 C4.73027586,1.21065517 1.40710345,4.53103448 1.40710345,8.61393103 C1.40710345,10.5529655 2.15441379,12.2890345 3.56617241,13.6322069 C4.90934483,14.9108276 6.79965517,15.759 8.88362069,16.0249655 C10.2246207,16.1941034 11.1621724,17.1580345 11.1621724,18.3677586 C11.1621724,19.664069 10.1076207,20.7186207 8.81193103,20.7186207" id="Fill-2"></path>
                    <path d="M27.6982759,15.1519655 L28.9554828,15.1519655 C28.9725517,15.6404483 29.1280345,16.0122414 29.4355862,16.271069 C29.736,16.5308276 30.2092759,16.6614828 30.8507586,16.6614828 C31.1452759,16.6614828 31.4065862,16.6267241 31.6294138,16.5556552 C31.8534828,16.4852069 32.0393793,16.3955172 32.1923793,16.2813103 C32.3432069,16.1702069 32.4577241,16.0435862 32.5322069,15.9005172 C32.6076207,15.7549655 32.6442414,15.6097241 32.6442414,15.4654138 C32.6442414,15.228931 32.5995517,15.0411724 32.5111034,14.8996552 C32.418,14.7612414 32.2705862,14.6395862 32.0623448,14.5412069 C31.8506897,14.4431379 31.5673448,14.355931 31.2138621,14.2752414 C30.8606897,14.1967241 30.4181379,14.0974138 29.8945862,13.9804138 C29.5944828,13.9171034 29.3188966,13.8236897 29.07,13.6992414 C28.8207931,13.5735517 28.6072759,13.418069 28.4316207,13.2340345 C28.2565862,13.0503103 28.1206552,12.8386552 28.0266207,12.6021724 C27.9307241,12.365069 27.8835517,12.0972414 27.8835517,11.8039655 C27.8835517,11.5302414 27.936,11.2565172 28.0421379,10.988069 C28.1467241,10.7196207 28.3186552,10.476931 28.5551379,10.2643448 C28.7891379,10.0480345 29.0873793,9.87113793 29.4526552,9.73831034 C29.8185517,9.60268966 30.2651379,9.53534483 30.7834138,9.53534483 C31.2812069,9.53534483 31.716,9.59989655 32.085931,9.72806897 C32.4602069,9.85655172 32.7711724,10.0402759 33.021931,10.2742759 C33.2736207,10.5079655 33.4626207,10.7888276 33.5929655,11.1122069 C33.7183448,11.4355862 33.7909655,11.7940345 33.8008966,12.1844483 L32.5623103,12.1844483 C32.5486552,11.9457931 32.5073793,11.7316552 32.4375517,11.5417241 C32.3708276,11.349931 32.2600345,11.1873103 32.1082759,11.0526207 C31.9577586,10.9194828 31.7647241,10.8176897 31.5319655,10.746931 C31.3007586,10.6771034 31.0251724,10.6448276 30.7005517,10.6448276 C30.4131724,10.6448276 30.1720345,10.6771034 29.9752759,10.746931 C29.7735517,10.8164483 29.6146552,10.9083103 29.4951724,11.0203448 C29.3710345,11.1323793 29.2801034,11.2617931 29.2242414,11.4061034 C29.1705517,11.5491724 29.1407586,11.6944138 29.1407586,11.8387241 C29.1407586,12.1062414 29.2031379,12.3064138 29.3260345,12.4407931 C29.4504828,12.5773448 29.6394828,12.6782069 29.8945862,12.7415172 C30.1472069,12.8038966 30.4528966,12.8833448 30.8107241,12.9752069 C31.1666897,13.0627241 31.5841034,13.167931 32.0598621,13.2861724 C32.6588276,13.4481724 33.1144138,13.7066897 33.4303448,14.0701034 C33.7456552,14.4332069 33.9026897,14.8996552 33.9026897,15.4666552 C33.9026897,15.7912759 33.8331724,16.092 33.6925862,16.3682069 C33.5544828,16.6465862 33.3505862,16.8892759 33.0895862,17.0972069 C32.8267241,17.3048276 32.5073793,17.4674483 32.1303103,17.5894138 C31.7513793,17.7085862 31.3255862,17.7684828 30.8507586,17.7684828 C30.3057931,17.7684828 29.8393448,17.703931 29.4504828,17.5757586 C29.060069,17.4475862 28.737931,17.2660345 28.4837586,17.0345172 C28.2267931,16.8033103 28.0353103,16.524931 27.9083793,16.2040345 C27.7777241,15.8828276 27.7106897,15.5324483 27.6982759,15.1519655" id="Fill-3"></path>
                    <path d="M35.6614138,14.7004138 L35.6614138,9.65234483 L36.9198621,9.65234483 L36.9198621,14.5775172 C36.9198621,14.9493103 36.9670345,15.2627586 37.0678966,15.525 C37.1662759,15.7835172 37.296931,15.9951724 37.4583103,16.1577931 C37.6234138,16.3210345 37.8164483,16.4392759 38.0293448,16.5162414 C38.2456552,16.5922759 38.4694138,16.6267241 38.6984483,16.6267241 C38.987069,16.6267241 39.2555172,16.5795517 39.4966552,16.4852069 C39.7381034,16.3905517 39.9494483,16.2412759 40.1288276,16.0398621 C40.3038621,15.8384483 40.4382414,15.5848966 40.5415862,15.2798276 C40.644931,14.9741379 40.6933448,14.6122759 40.6933448,14.1917586 L40.6933448,9.65234483 L41.9493103,9.65234483 L41.9493103,17.6505517 L40.6933448,17.6505517 L40.6933448,16.8430345 C40.4283103,17.1403448 40.1086552,17.3681379 39.7331379,17.5285862 C39.3548276,17.6890345 38.9246897,17.7684828 38.4445862,17.7684828 C37.9967586,17.7684828 37.6013793,17.694931 37.2531724,17.550931 C36.9074483,17.4053793 36.6175862,17.1965172 36.3851379,16.9293103 C36.1486552,16.6614828 35.9708276,16.3381034 35.8466897,15.9604138 C35.7234828,15.5848966 35.6614138,15.1643793 35.6614138,14.7004138" id="Fill-4"></path>
                    <path d="M45.4686207,13.6418276 C45.4686207,14.616 45.6566897,15.3505862 46.0309655,15.8483793 C46.4064828,16.3455517 46.9514483,16.5947586 47.6652414,16.5947586 C48.3715862,16.5947586 48.9013448,16.3287931 49.2582414,15.7937586 C49.617931,15.2584138 49.797,14.5098621 49.797,13.5428276 C49.797,13.1182759 49.7544828,12.7331379 49.6675862,12.3861724 C49.580069,12.0385862 49.4484828,11.7418966 49.2718966,11.4933103 C49.0953103,11.2453448 48.8740345,11.0501379 48.6040345,10.916069 C48.3368276,10.7767241 48.0233793,10.7096897 47.6652414,10.7096897 C46.9514483,10.7096897 46.4064828,10.9545517 46.0309655,11.4458276 C45.6566897,11.9395862 45.4686207,12.671069 45.4686207,13.6418276 M44.2325172,19.9188621 L44.2325172,9.65234483 L45.4875517,9.65234483 L45.4875517,10.5576207 C45.7671724,10.223069 46.0983103,9.96827586 46.4806552,9.79665517 C46.863931,9.62255172 47.2844483,9.53565517 47.7508966,9.53565517 C48.2694828,9.53565517 48.7322069,9.63775862 49.14,9.84134483 C49.5481034,10.0467931 49.8938276,10.3264138 50.1771724,10.6848621 C50.4608276,11.0426897 50.6774483,11.4628966 50.8276552,11.9470345 C50.9809655,12.4296207 51.0529655,12.9534828 51.0529655,13.5105517 C51.0529655,14.148 50.9831379,14.7267931 50.8375862,15.2491034 C50.6898621,15.7711034 50.4806897,16.2214138 50.202,16.5947586 C49.9261034,16.9702759 49.580069,17.2588966 49.1697931,17.4627931 C48.7570345,17.6651379 48.2818966,17.7681724 47.7508966,17.7681724 C47.2844483,17.7681724 46.8617586,17.6775517 46.4713448,17.5000345 C46.0831034,17.3206552 45.7547586,17.0568621 45.4875517,16.713931 L45.4875517,19.9188621 L44.2325172,19.9188621" id="Fill-5"></path>
                    <path d="M53.7355862,12.9578276 L58.0298276,12.9578276 C58.005,12.6493448 57.9503793,12.3597931 57.870931,12.0835862 C57.7858966,11.8086207 57.6589655,11.5662414 57.491069,11.3561379 C57.3231724,11.1472759 57.1093448,10.9803103 56.8511379,10.8598966 C56.592,10.7366897 56.2735862,10.6771034 55.898069,10.6771034 C55.5923793,10.6771034 55.3099655,10.7292414 55.0626207,10.8387931 C54.8087586,10.9455517 54.5887241,11.0954483 54.4006552,11.294069 C54.2141379,11.4883448 54.0648621,11.727 53.9506552,12.0118966 C53.8352069,12.2952414 53.765069,12.6124138 53.7355862,12.9578276 M52.4135172,13.6495862 C52.4135172,13.0003448 52.4976207,12.4206207 52.6695517,11.9132069 C52.8461379,11.403931 53.0863448,10.971 53.396069,10.6184483 C53.7082759,10.2668276 54.0723103,9.99806897 54.4990345,9.8127931 C54.9232759,9.62751724 55.3931379,9.53565517 55.898069,9.53565517 C56.4728276,9.53565517 56.9749655,9.63465517 57.4032414,9.83513793 C57.8333793,10.0331379 58.1865517,10.3087241 58.4723793,10.6622069 C58.7585172,11.0153793 58.9661379,11.430931 59.112,11.9119655 C59.2510345,12.3886552 59.3196207,12.9081724 59.3196207,13.4680345 C59.3196207,13.5462414 59.3158966,13.6173103 59.3131034,13.6917931 C59.310931,13.7613103 59.3084483,13.8258621 59.3031724,13.8807931 L59.2857931,14.0623448 L53.703,14.0623448 C53.7278276,14.5337586 53.8047931,14.9282069 53.9307931,15.2487931 C54.0499655,15.5721724 54.2107241,15.8322414 54.4006552,16.0324138 C54.5958621,16.2341379 54.819,16.3781379 55.0722414,16.4637931 C55.3273448,16.5497586 55.602,16.5944483 55.898069,16.5944483 C56.4563793,16.5944483 56.9007931,16.4712414 57.2263448,16.2238966 C57.5531379,15.9725172 57.7759655,15.6168621 57.8945172,15.1519655 L59.1691034,15.1519655 C59.0831379,15.5597586 58.9512414,15.9253448 58.7637931,16.2465517 C58.5822414,16.5683793 58.3482414,16.8421034 58.0745172,17.0695862 C57.7958276,17.2936552 57.4761724,17.4674483 57.1093448,17.5894138 C56.7453103,17.7085862 56.3359655,17.7681724 55.8806897,17.7681724 C55.3512414,17.7681724 54.8733103,17.6741379 54.4453448,17.4876207 C54.0155172,17.3011034 53.6521034,17.0298621 53.3507586,16.6816552 C53.0512759,16.3284828 52.8166552,15.8980345 52.6558966,15.3856552 C52.4907931,14.876069 52.4135172,14.2960345 52.4135172,13.6495862" id="Fill-6"></path>
                    <path d="M61.1292414,17.6505517 L61.1292414,9.65265517 L62.3876897,9.65265517 L62.3876897,10.8946552 C62.6722759,10.4421724 63.0071379,10.1014138 63.3913448,9.87486207 C63.7795862,9.64737931 64.197,9.53565517 64.6485517,9.53565517 C64.7233448,9.53565517 64.7928621,9.53782759 64.8611379,9.54558621 C64.9281724,9.55024138 64.9868276,9.55551724 65.0355517,9.56048276 C65.0988621,9.57289655 65.1537931,9.58034483 65.2056207,9.5877931 L65.2056207,10.8946552 L64.7481724,10.8946552 C64.422,10.8946552 64.115069,10.9446207 63.8304828,11.0454828 C63.5427931,11.1472759 63.2907931,11.3052414 63.0788276,11.5231034 C62.865,11.7406552 62.694931,12.0181034 62.5738966,12.3573103 C62.4497586,12.6955862 62.3876897,13.1024483 62.3876897,13.5775862 L62.3876897,17.6505517 L61.1292414,17.6505517" id="Fill-7"></path>
                    <path d="M67.7355517,13.6418276 C67.7355517,14.616 67.923,15.3505862 68.2972759,15.8483793 C68.6715517,16.3455517 69.2174483,16.5947586 69.9318621,16.5947586 C70.6357241,16.5947586 71.1654828,16.3287931 71.5236207,15.7937586 C71.8814483,15.2584138 72.0605172,14.5098621 72.0605172,13.5428276 C72.0605172,13.1182759 72.0186207,12.7331379 71.9311034,12.3861724 C71.8445172,12.0385862 71.711069,11.7418966 71.5360345,11.4933103 C71.3606897,11.2453448 71.1406552,11.0501379 70.8703448,10.916069 C70.6003448,10.7767241 70.2872069,10.7096897 69.9318621,10.7096897 C69.2174483,10.7096897 68.6715517,10.9545517 68.2972759,11.4458276 C67.923,11.9395862 67.7355517,12.671069 67.7355517,13.6418276 M66.492931,19.9188621 L66.492931,9.65234483 L67.752931,9.65234483 L67.752931,10.5576207 C68.030069,10.223069 68.3596552,9.96827586 68.7441724,9.79665517 C69.128069,9.62255172 69.5507586,9.53565517 70.0141034,9.53565517 C70.5314483,9.53565517 70.9951034,9.63775862 71.4041379,9.84134483 C71.811931,10.0467931 72.1604483,10.3264138 72.4428621,10.6848621 C72.7249655,11.0426897 72.9409655,11.4628966 73.0939655,11.9470345 C73.241069,12.4296207 73.3195862,12.9534828 73.3195862,13.5105517 C73.3195862,14.148 73.2451034,14.7267931 73.1020345,15.2491034 C72.9564828,15.7711034 72.7448276,16.2214138 72.4652069,16.5947586 C72.188069,16.9702759 71.8445172,17.2588966 71.4342414,17.4627931 C71.0211724,17.6651379 70.5482069,17.7681724 70.0141034,17.7681724 C69.5507586,17.7681724 69.1255862,17.6775517 68.7361034,17.5000345 C68.3494138,17.3206552 68.0204483,17.0568621 67.752931,16.713931 L67.752931,19.9188621 L66.492931,19.9188621" id="Fill-8"></path>
                    <path d="M76.0009655,12.9578276 L80.2914828,12.9578276 C80.2688276,12.6493448 80.217,12.3597931 80.1347586,12.0835862 C80.0503448,11.8086207 79.9243448,11.5662414 79.7564483,11.3561379 C79.5901034,11.1472759 79.3762759,10.9803103 79.1162069,10.8598966 C78.8564483,10.7366897 78.5398966,10.6771034 78.1643793,10.6771034 C77.8534138,10.6771034 77.5765862,10.7292414 77.3236552,10.8387931 C77.0728966,10.9455517 76.8528621,11.0954483 76.6644828,11.294069 C76.4807586,11.4883448 76.3286897,11.727 76.2160345,12.0118966 C76.0990345,12.2952414 76.0279655,12.6124138 76.0009655,12.9578276 M74.6776552,13.6495862 C74.6776552,13.0003448 74.7642414,12.4206207 74.9389655,11.9132069 C75.1081034,11.403931 75.3504828,10.971 75.6626897,10.6184483 C75.9708621,10.2668276 76.338931,9.99806897 76.7644138,9.8127931 C77.1886552,9.62751724 77.6538621,9.53565517 78.1643793,9.53565517 C78.7369655,9.53565517 79.2418966,9.63465517 79.667069,9.83513793 C80.0950345,10.0331379 80.4528621,10.3087241 80.7343448,10.6622069 C81.0235862,11.0153793 81.2343103,11.430931 81.3745862,11.9119655 C81.5123793,12.3886552 81.585,12.9081724 81.585,13.4680345 C81.585,13.5462414 81.585,13.6173103 81.5794138,13.6917931 C81.575069,13.7613103 81.5725862,13.8258621 81.567,13.8807931 L81.5521034,14.0623448 L75.9655862,14.0623448 C75.996,14.5337586 76.068931,14.9282069 76.1936897,15.2487931 C76.319069,15.5721724 76.4761034,15.8322414 76.6644828,16.0324138 C76.8615517,16.2341379 77.0828276,16.3781379 77.336069,16.4637931 C77.5914828,16.5497586 77.8658276,16.5944483 78.1643793,16.5944483 C78.7217586,16.5944483 79.1633793,16.4712414 79.4920345,16.2238966 C79.8185172,15.9725172 80.0397931,15.6168621 80.1595862,15.1519655 L81.432,15.1519655 C81.3469655,15.5597586 81.2163103,15.9253448 81.0304138,16.2465517 C80.8488621,16.5683793 80.6161034,16.8421034 80.3383448,17.0695862 C80.0624483,17.2936552 79.7393793,17.4674483 79.3762759,17.5894138 C79.0106897,17.7085862 78.6001034,17.7681724 78.1448276,17.7681724 C77.6163103,17.7681724 77.1377586,17.6741379 76.7073103,17.4876207 C76.2818276,17.3011034 75.9187241,17.0298621 75.6148966,16.6816552 C75.3132414,16.3284828 75.0804828,15.8980345 74.9209655,15.3856552 C74.7598966,14.876069 74.6776552,14.2960345 74.6776552,13.6495862" id="Fill-9"></path>
                    <path d="M84.1791724,13.5425172 C84.1791724,14.5101724 84.3644483,15.2587241 84.7263103,15.7934483 C85.0918966,16.3284828 85.6266207,16.5944483 86.3329655,16.5944483 C87.0442759,16.5944483 87.5842759,16.3458621 87.9476897,15.8483793 C88.317931,15.3508966 88.4994828,14.616 88.4994828,13.6421379 C88.4994828,11.6882069 87.7906552,10.7096897 86.3655517,10.7096897 C85.995,10.7096897 85.6716207,10.7764138 85.4003793,10.9111034 C85.1244828,11.0454828 84.9004138,11.2369655 84.7185517,11.4855517 C84.5397931,11.7341379 84.4054138,12.0326897 84.3166552,12.3808966 C84.2263448,12.7315862 84.1791724,13.1182759 84.1791724,13.5425172 M82.9241379,13.5102414 C82.9241379,12.9531724 83.0001724,12.4283793 83.1516207,11.9417586 C83.3024483,11.4557586 83.5212414,11.0377241 83.8086207,10.6795862 C84.0994138,10.323931 84.4553793,10.0467931 84.8755862,9.84165517 C85.2961034,9.63744828 85.7749655,9.53534483 86.3158966,9.53534483 C87.183931,9.53534483 87.8952414,9.85406897 88.4498276,10.4918276 L88.4498276,7.06531034 L89.7061034,7.06531034 L89.7061034,17.6505517 L88.4498276,17.6505517 L88.4498276,16.7288276 C88.181069,17.0571724 87.8576897,17.3147586 87.4772069,17.4963103 C87.0945517,17.6766207 86.6833448,17.7684828 86.2485517,17.7684828 C85.7187931,17.7684828 85.2486207,17.6654483 84.8383448,17.4624828 C84.4240345,17.2585862 84.0745862,16.9699655 83.7962069,16.5944483 C83.5113103,16.2214138 83.2934483,15.7711034 83.1469655,15.2491034 C83.0001724,14.7264828 82.9241379,14.1483103 82.9241379,13.5102414" id="Fill-10"></path>
                    <path d="M92.852069,12.9578276 L97.145069,12.9578276 C97.1202414,12.6493448 97.0693448,12.3597931 96.9827586,12.0835862 C96.8992759,11.8086207 96.7748276,11.5662414 96.6084828,11.3561379 C96.4390345,11.1472759 96.2264483,10.9803103 95.9642069,10.8598966 C95.7078621,10.7366897 95.3866552,10.6771034 95.0114483,10.6771034 C94.7066897,10.6771034 94.428,10.7292414 94.1756897,10.8387931 C93.923069,10.9455517 93.7055172,11.0954483 93.519,11.294069 C93.330931,11.4883448 93.1794828,11.727 93.0665172,12.0118966 C92.9495172,12.2952414 92.8796897,12.6124138 92.852069,12.9578276 M91.5241034,13.6495862 C91.5241034,13.0003448 91.6137931,12.4206207 91.7866552,11.9132069 C91.9592069,11.403931 92.2009655,10.971 92.511931,10.6184483 C92.8225862,10.2668276 93.186931,9.99806897 93.6142759,9.8127931 C94.0391379,9.62751724 94.5040345,9.53565517 95.0114483,9.53565517 C95.5874483,9.53565517 96.0908276,9.63465517 96.5187931,9.83513793 C96.948,10.0331379 97.3021034,10.3087241 97.5882414,10.6622069 C97.8718966,11.0153793 98.0860345,11.430931 98.2225862,11.9119655 C98.3644138,12.3886552 98.4342414,12.9081724 98.4342414,13.4680345 C98.4342414,13.5462414 98.4342414,13.6173103 98.4277241,13.6917931 C98.4252414,13.7613103 98.4227586,13.8258621 98.4177931,13.8807931 L98.3994828,14.0623448 L92.8176207,14.0623448 C92.844931,14.5337586 92.9194138,14.9282069 93.0438621,15.2487931 C93.1658276,15.5721724 93.3250345,15.8322414 93.519,16.0324138 C93.708,16.2341379 93.9333103,16.3781379 94.1881034,16.4637931 C94.4416552,16.5497586 94.7166207,16.5944483 95.0114483,16.5944483 C95.571,16.5944483 96.0138621,16.4712414 96.3409655,16.2238966 C96.6677586,15.9725172 96.8893448,15.6168621 97.0075862,15.1519655 L98.2821724,15.1519655 C98.1977586,15.5597586 98.0658621,15.9253448 97.8793448,16.2465517 C97.6965517,16.5683793 97.4662759,16.8421034 97.1878966,17.0695862 C96.9126207,17.2936552 96.5904828,17.4674483 96.2264483,17.5894138 C95.8583793,17.7085862 95.4502759,17.7681724 94.9987241,17.7681724 C94.4664828,17.7681724 93.9876207,17.6741379 93.5590345,17.4876207 C93.131069,17.3011034 92.7679655,17.0298621 92.4656897,16.6816552 C92.1658966,16.3284828 91.934069,15.8980345 91.7692759,15.3856552 C91.6085172,14.876069 91.5241034,14.2960345 91.5241034,13.6495862" id="Fill-11"></path>
                    <path d="M99.792,15.1519655 L101.050448,15.1519655 C101.064414,15.6404483 101.227034,16.0122414 101.525586,16.271069 C101.828793,16.5308276 102.303,16.6614828 102.944483,16.6614828 C103.23931,16.6614828 103.497828,16.6267241 103.723138,16.5556552 C103.948448,16.4852069 104.134655,16.3955172 104.281448,16.2813103 C104.436931,16.1702069 104.547724,16.0435862 104.627172,15.9005172 C104.699483,15.7549655 104.740448,15.6097241 104.740448,15.4654138 C104.740448,15.228931 104.694517,15.0411724 104.602345,14.8996552 C104.512966,14.7612414 104.364621,14.6395862 104.152345,14.5412069 C103.945345,14.4431379 103.661069,14.355931 103.306345,14.2752414 C102.951,14.1967241 102.513103,14.0974138 101.988,13.9804138 C101.684793,13.9171034 101.409828,13.8236897 101.161241,13.6992414 C100.916069,13.5735517 100.701,13.418069 100.525655,13.2340345 C100.35031,13.0503103 100.212207,12.8386552 100.117862,12.6021724 C100.021966,12.365069 99.9772759,12.0972414 99.9772759,11.8039655 C99.9772759,11.5302414 100.026931,11.2565172 100.137414,10.988069 C100.242,10.7196207 100.412379,10.476931 100.647621,10.2643448 C100.881621,10.0480345 101.182034,9.87113793 101.54669,9.73831034 C101.912276,9.60268966 102.356379,9.53534483 102.877138,9.53534483 C103.374931,9.53534483 103.808793,9.59989655 104.179655,9.72806897 C104.550207,9.85655172 104.863655,10.0402759 105.115966,10.2742759 C105.368586,10.5079655 105.556034,10.7888276 105.68669,11.1122069 C105.813621,11.4355862 105.882207,11.7940345 105.894621,12.1844483 L104.654483,12.1844483 C104.642069,11.9457931 104.602345,11.7316552 104.531276,11.5417241 C104.464552,11.349931 104.348793,11.1873103 104.202,11.0526207 C104.050241,10.9194828 103.858759,10.8176897 103.626,10.746931 C103.393241,10.6771034 103.117345,10.6448276 102.791483,10.6448276 C102.508138,10.6448276 102.262966,10.6771034 102.065276,10.746931 C101.868828,10.8164483 101.709621,10.9083103 101.585172,11.0203448 C101.462276,11.1323793 101.375069,11.2617931 101.316724,11.4061034 C101.259621,11.5491724 101.234483,11.6944138 101.234483,11.8387241 C101.234483,12.1062414 101.296862,12.3064138 101.417276,12.4407931 C101.541724,12.5773448 101.731966,12.6782069 101.985517,12.7415172 C102.238138,12.8038966 102.547862,12.8833448 102.904759,12.9752069 C103.261655,13.0627241 103.678138,13.167931 104.152345,13.2861724 C104.751621,13.4481724 105.205345,13.7066897 105.520034,14.0701034 C105.836276,14.4332069 105.993931,14.8996552 105.993931,15.4666552 C105.993931,15.7912759 105.924414,16.092 105.78631,16.3682069 C105.644483,16.6465862 105.445862,16.8892759 105.180517,17.0972069 C104.918276,17.3048276 104.599862,17.4674483 104.221552,17.5894138 C103.846034,17.7085862 103.41869,17.7684828 102.944483,17.7684828 C102.398586,17.7684828 101.931207,17.703931 101.541724,17.5757586 C101.152241,17.4475862 100.831655,17.2660345 100.57531,17.0345172 C100.320517,16.8033103 100.130276,16.524931 99.9996207,16.2040345 C99.8714483,15.8828276 99.8016207,15.5324483 99.792,15.1519655" id="Fill-12"></path>
                    <path d="M107.154621,10.7941034 L107.154621,9.65234483 L108.442862,9.65234483 L108.442862,7.11651724 L109.700379,7.11651724 L109.700379,9.65234483 L111.561828,9.65234483 L111.561828,10.7941034 L109.700379,10.7941034 L109.700379,15.7214483 C109.700379,15.9178966 109.72769,16.0721379 109.783552,16.1878966 C109.838172,16.3008621 109.917931,16.3893103 110.019724,16.4464138 C110.122138,16.506 110.233862,16.5447931 110.370414,16.5671379 C110.503552,16.5845172 110.649103,16.5944483 110.806138,16.5944483 L111.260793,16.5944483 L111.260793,17.6505517 C111.174828,17.6617241 111.089483,17.6701034 111.000103,17.6753793 C110.922828,17.6877931 110.838103,17.6927586 110.751207,17.6964828 C110.66431,17.6989655 110.582069,17.7002069 110.503552,17.7002069 C110.256207,17.7002069 110.012276,17.6741379 109.768655,17.6216897 C109.519448,17.5683103 109.299414,17.4674483 109.104517,17.316 C108.906828,17.163931 108.751345,16.9541379 108.626897,16.6816552 C108.505241,16.4116552 108.442862,16.056 108.442862,15.6221379 L108.442862,10.7941034 L107.154621,10.7941034" id="Fill-13"></path>
                    <path d="M113.218138,17.6505517 L113.218138,9.65265517 L114.479379,9.65265517 L114.479379,10.8946552 C114.763345,10.4421724 115.099138,10.1014138 115.484586,9.87486207 C115.870034,9.64737931 116.290241,9.53565517 116.740862,9.53565517 C116.814103,9.53565517 116.884862,9.53782759 116.949414,9.54558621 C117.020483,9.55024138 117.076655,9.55551724 117.127552,9.56048276 C117.189621,9.57289655 117.245793,9.58034483 117.295448,9.5877931 L117.295448,10.8946552 L116.845138,10.8946552 C116.511828,10.8946552 116.205828,10.9446207 115.92,11.0454828 C115.635103,11.1472759 115.384966,11.3052414 115.168655,11.5231034 C114.953586,11.7406552 114.786931,12.0181034 114.660931,12.3573103 C114.538034,12.6955862 114.479379,13.1024483 114.479379,13.5775862 L114.479379,17.6505517 L113.218138,17.6505517" id="Fill-14"></path>
                    <path d="M118.61969,9.65265517 L119.874414,9.65265517 L119.874414,17.6505517 L118.61969,17.6505517 L118.61969,9.65265517 Z" id="Fill-15"></path>
                    <path d="M122.996172,13.5425172 C122.996172,14.5225862 123.175241,15.273931 123.533379,15.8036897 C123.890586,16.3309655 124.428724,16.5944483 125.14531,16.5944483 C125.488552,16.5944483 125.792069,16.5323793 126.062069,16.4091724 C126.329276,16.2884483 126.558,16.1031724 126.746069,15.8607931 C126.933517,15.6168621 127.077828,15.3124138 127.179931,14.9440345 C127.277069,14.5750345 127.329207,14.1421034 127.329207,13.6421379 C127.329207,12.6471724 127.150138,11.9122759 126.790448,11.430931 C126.433862,10.9483448 125.911241,10.7096897 125.228483,10.7096897 C124.852966,10.7096897 124.526172,10.7764138 124.247793,10.9111034 C123.96631,11.0454828 123.733862,11.2357241 123.551069,11.4805862 C123.364241,11.7254483 123.22769,12.0227586 123.134276,12.3734483 C123.042103,12.7216552 122.996172,13.1123793 122.996172,13.5425172 M121.740207,13.5102414 C121.740207,12.9752069 121.812207,12.4643793 121.963966,11.9830345 C122.110759,11.502931 122.333586,11.0827241 122.625931,10.7196207 C122.919207,10.3537241 123.279828,10.0675862 123.702517,9.85406897 C124.132966,9.64241379 124.616793,9.53534483 125.16269,9.53534483 C125.565517,9.53534483 125.941345,9.61013793 126.292034,9.75817241 C126.639931,9.9062069 126.948414,10.1125862 127.212207,10.3738966 L127.212207,9.65234483 L128.468483,9.65234483 L128.468483,16.0224828 C128.468483,16.2412759 128.538,16.3930345 128.674862,16.4727931 C128.812034,16.5534828 128.994517,16.5944483 129.224483,16.5944483 L129.411,16.5944483 L129.411,17.6505517 C129.363517,17.6617241 129.313862,17.6701034 129.259552,17.6753793 C129.157138,17.6915172 129.02431,17.7002069 128.856414,17.7002069 C128.679828,17.7002069 128.515345,17.6837586 128.355207,17.6505517 C128.196,17.6167241 128.050448,17.5633448 127.916069,17.4873103 C127.782,17.4128276 127.665,17.3094828 127.566621,17.1865862 C127.469793,17.0596552 127.396552,16.9066552 127.344103,16.7288276 C127.228655,16.8917586 127.085586,17.0345172 126.918931,17.1617586 C126.751034,17.2858966 126.565759,17.3954483 126.366517,17.4873103 C126.170069,17.5794828 125.956241,17.6493103 125.734655,17.6961724 C125.508724,17.7436552 125.285897,17.7684828 125.060586,17.7684828 C124.519655,17.7684828 124.046069,17.6642069 123.633,17.4603103 C123.222414,17.2498966 122.874207,16.9600345 122.593345,16.587 C122.312172,16.2139655 122.098345,15.7639655 121.955276,15.2413448 C121.810034,14.7181034 121.740207,14.1421034 121.740207,13.5102414" id="Fill-16"></path>
                    <path d="M130.943172,17.6505517 L130.943172,9.65265517 L132.199448,9.65265517 L132.199448,10.4446552 C132.730759,9.84010345 133.47931,9.53565517 134.445724,9.53565517 C134.893552,9.53565517 135.288621,9.60765517 135.634345,9.7532069 C135.985345,9.89844828 136.276138,10.1063793 136.508586,10.3738966 C136.741345,10.6448276 136.921655,10.9644828 137.044862,11.3424828 C137.168069,11.7195517 137.230138,12.1397586 137.230138,12.6049655 L137.230138,17.6505517 L135.972621,17.6505517 L135.972621,12.7281724 C135.972621,12.3573103 135.925759,12.0416897 135.824897,11.7816207 C135.727448,11.5203103 135.594621,11.3102069 135.430759,11.1472759 C135.269069,10.9846552 135.076034,10.8651724 134.860966,10.7903793 C134.645897,10.7143448 134.425552,10.6771034 134.195586,10.6771034 C133.906034,10.6771034 133.637276,10.7245862 133.393345,10.818931 C133.148483,10.9148276 132.940552,11.0625517 132.765517,11.2655172 C132.587379,11.4656897 132.450207,11.7195517 132.351207,12.0227586 C132.251897,12.33 132.199448,12.6931034 132.199448,13.1136207 L132.199448,17.6505517 L130.943172,17.6505517" id="Fill-17"></path>
                </g>
            </g>
        </g>
    </g>
</svg>