<?xml version="1.0" encoding="utf-8"?>
<!-- Generator: Adobe Illustrator 16.0.4, SVG Export Plug-In . SVG Version: 6.00 Build 0)  -->
<!DOCTYPE svg PUBLIC "-//W3C//DTD SVG 1.1//EN" "http://www.w3.org/Graphics/SVG/1.1/DTD/svg11.dtd">
<svg version="1.1" id="Layer_1" xmlns="http://www.w3.org/2000/svg" xmlns:xlink="http://www.w3.org/1999/xlink" x="0px" y="0px"
	 width="240px" height="78.828px" viewBox="0 0 240 78.828" enable-background="new 0 0 240 78.828" xml:space="preserve">
<g>
	<rect x="0.962" fill="#008840" width="240" height="78.828"/>
	<path fill="#FFFFFF" d="M65.913,65.368V33.591c0-4.397-2.897-7.194-8.194-7.194c-5.196,0-8.293,3.197-8.293,7.294v31.677h-8.294
		V33.591c0-4.397-2.797-7.194-8.194-7.194c-5.196,0-8.293,3.197-8.293,7.294v31.677H16.45V20.101h7.294l0.3,4.196
		c2.798-3.297,5.696-5.196,11.691-5.196c4.896,0,8.894,2.698,10.892,5.996c2.599-3.397,6.795-5.996,13.69-5.996
		c8.094,0,13.79,5.796,13.79,13.79v32.476H65.913z"/>
	<path fill="#FFFFFF" d="M117.764,38.387l-6.095,6.295H90.385c0.199,6.495,4.396,14.39,13.39,14.39
		c4.896,0,8.694-1.499,12.091-4.396l-1.799,8.894c-2.598,1.599-6.195,2.798-11.491,2.798c-11.292,0-20.685-9.494-20.685-23.583
		c0-14.988,9.693-23.682,19.186-23.682c10.692,0,16.788,8.594,16.788,17.087C117.864,36.788,117.864,37.788,117.764,38.387z
		 M101.377,26.197c-4.796,0-9.593,5.195-10.592,11.691h18.687c0.1-0.4,0.1-1.1,0.1-1.5
		C109.571,31.592,106.373,26.197,101.377,26.197z"/>
	<path fill="#FFFFFF" d="M149.831,26.796h-12.392v26.38c0,3.497,2.498,5.596,5.797,5.596c1.698,0,3.097-0.199,4.296-0.8
		l-1.399,7.396c-0.898,0.398-2.098,0.6-3.896,0.6c-7.195,0-12.891-4.599-12.891-12.892V26.796h-7.595v-6.695h7.595v-8.594
		l8.093-4.297v12.891h13.591L149.831,26.796z"/>
	<path fill="#FFFFFF" d="M179.184,26.696c-6.495,0-13.689,4.396-13.689,15.587v23.084h-8.294V20.101h7.795l0.3,6.795
		c2.099-5.196,7.294-7.395,13.39-7.395l1.3,7.195C179.686,26.696,179.485,26.696,179.184,26.696z"/>
	<path fill="#FFFFFF" d="M203.833,67.005c-13.779,0-24.705-10.926-24.705-24.706c0-13.779,10.926-24.705,24.705-24.705
		c13.78,0,24.706,10.926,24.706,24.705C228.539,56.08,217.613,67.005,203.833,67.005z M210.652,22.257
		c1.253,1.809,2.437,3.966,3.342,6.193c1.462-0.626,2.783-1.392,3.896-2.087C215.803,24.484,213.367,23.092,210.652,22.257z
		 M219.839,28.312c-1.392,0.904-3.062,1.809-4.941,2.645c1.323,3.549,2.088,7.029,2.297,9.951h7.725
		C224.641,36.037,222.833,31.652,219.839,28.312z M206.825,21.353c-0.557-0.14-1.112-0.209-1.601-0.209v9.743
		c2.019-0.209,4.246-0.695,6.264-1.392C210.236,26.502,208.634,23.788,206.825,21.353z M212.393,31.93
		c-2.436,0.974-4.941,1.601-7.169,1.81v7.168h9.187C214.202,37.916,213.506,34.923,212.393,31.93z M202.441,21.144
		c-0.487,0-1.043,0.069-1.601,0.209c-1.81,2.436-3.41,5.15-4.662,8.142c2.018,0.696,4.244,1.183,6.263,1.392V21.144z
		 M217.195,43.692c-0.14,2.854-0.906,6.402-2.297,9.951c1.879,0.835,3.55,1.74,4.941,2.646c2.993-3.342,4.802-7.726,5.08-12.597
		H217.195z M189.775,26.363c1.114,0.696,2.436,1.461,3.896,2.087c0.906-2.227,2.088-4.384,3.341-6.193
		C194.297,23.092,191.862,24.484,189.775,26.363z M205.224,43.692v7.168c2.228,0.209,4.733,0.836,7.169,1.81
		c1.113-3.062,1.809-6.124,2.018-8.978H205.224z M202.441,33.74c-2.228-0.208-4.732-0.835-7.168-1.81
		c-1.114,2.993-1.81,5.985-2.02,8.978h9.188V33.74z M213.924,56.08c-0.836,2.227-1.949,4.314-3.272,6.264
		c2.715-0.835,5.151-2.228,7.238-4.106C216.777,57.47,215.385,56.706,213.924,56.08z M187.827,28.312
		c-2.993,3.34-4.803,7.725-5.08,12.596h7.724c0.209-2.922,0.976-6.402,2.297-9.951C190.889,30.121,189.218,29.216,187.827,28.312z
		 M205.224,53.712v9.743c0.488,0,1.044-0.069,1.601-0.208c1.81-2.436,3.411-5.289,4.594-8.212
		C209.331,54.34,207.243,53.922,205.224,53.712z M202.441,43.692h-9.188c0.21,2.854,0.905,5.916,2.02,8.978
		c2.436-0.974,4.94-1.601,7.168-1.81V43.692z M202.441,53.712c-2.019,0.21-4.105,0.628-6.194,1.323
		c1.184,2.923,2.784,5.776,4.594,8.212c0.558,0.139,1.113,0.208,1.601,0.208V53.712z M190.47,43.692h-7.724
		c0.277,4.871,2.087,9.255,5.08,12.597c1.392-0.905,3.062-1.811,4.94-2.646C191.375,50.094,190.61,46.545,190.47,43.692z
		 M193.742,56.08c-1.461,0.626-2.853,1.391-3.967,2.157c2.087,1.879,4.522,3.271,7.237,4.106
		C195.69,60.394,194.578,58.306,193.742,56.08z"/>
	<path fill="#FFFFFF" d="M225.542,14.175c-1.557,0-2.785-1.143-2.785-2.769c0-1.614,1.229-2.756,2.785-2.756
		c1.556,0,2.783,1.143,2.783,2.756C228.326,13.033,227.098,14.175,225.542,14.175z M225.542,9.236c-1.243,0-2.213,0.87-2.213,2.17
		c0,1.312,0.97,2.212,2.213,2.212c1.256,0,2.241-0.9,2.241-2.212C227.784,10.106,226.798,9.236,225.542,9.236z M226.442,13.118
		l-0.886-1.342h-0.399v1.328H224.5V9.707h1.056c0.557,0,1.113,0.399,1.113,1.042c0,0.385-0.2,0.685-0.485,0.856l0.8,1.156
		L226.442,13.118z M225.47,10.277h-0.313v0.928h0.313c0.343,0,0.557-0.171,0.557-0.457C226.027,10.463,225.813,10.277,225.47,10.277
		z"/>
</g>
</svg>
