<?xml version="1.0" encoding="utf-8"?>
<!-- Generator: Adobe Illustrator 18.0.0, SVG Export Plug-In . SVG Version: 6.00 Build 0)  -->
<!DOCTYPE svg PUBLIC "-//W3C//DTD SVG 1.1//EN" "http://www.w3.org/Graphics/SVG/1.1/DTD/svg11.dtd">
<svg version="1.1" id="Lager_1" xmlns="http://www.w3.org/2000/svg" xmlns:xlink="http://www.w3.org/1999/xlink" x="0px" y="0px"
	 viewBox="0 0 220 79" enable-background="new 0 0 220 79" xml:space="preserve">
<rect fill="#047F36" width="220" height="79"/>
<path fill="#FFFFFF" d="M59.5,63.3V34.2c0-4-2.7-6.6-7.5-6.6c-4.8,0-7.6,2.9-7.6,6.7v29h-7.6V34.2c0-4-2.6-6.6-7.5-6.6
	c-4.8,0-7.6,2.9-7.6,6.7v29h-7.5V21.8h6.7l0.3,3.9c2.6-3,5.2-4.8,10.7-4.8c4.5,0,8.1,2.5,10,5.5c2.4-3.1,6.2-5.5,12.6-5.5
	c7.4,0,12.7,5.3,12.7,12.7v29.7H59.5z"/>
<path fill="#FFFFFF" d="M107,38.6l-5.6,5.8H81.9c0.2,6,4,13.2,12.2,13.2c4.5,0,8-1.4,11.1-4l-1.6,8.1c-2.4,1.4-5.7,2.6-10.5,2.6
	c-10.3,0-18.9-8.7-18.9-21.6c0-13.7,8.9-21.7,17.6-21.7c9.8,0,15.4,7.9,15.4,15.6C107.1,37.1,107.1,38,107,38.6z M92,27.4
	c-4.4,0-8.8,4.8-9.7,10.7h17.1c0.1-0.4,0.1-1,0.1-1.4C99.5,32.3,96.6,27.4,92,27.4z"/>
<path fill="#FFFFFF" d="M136.4,28h-11.4v24.2c0,3.2,2.3,5.1,5.3,5.1c1.5,0,2.8-0.2,4-0.7l-1.3,6.8c-0.8,0.4-1.9,0.6-3.6,0.6
	c-6.6,0-11.8-4.2-11.8-11.8V28h-6.9v-6.1h6.9V14l7.4-4v11.8h12.5L136.4,28z"/>
<path fill="#FFFFFF" d="M163.3,27.9c-6,0-12.6,4-12.6,14.3v21.2h-7.6V21.8h7.2l0.3,6.2c1.9-4.8,6.7-6.8,12.2-6.8l1.2,6.6
	C163.8,27.9,163.6,27.9,163.3,27.9z"/>
<path fill="#FFFFFF" d="M185.9,64.8c-12.6,0-22.6-10-22.6-22.6s10-22.6,22.6-22.6s22.6,10,22.6,22.6S198.5,64.8,185.9,64.8z
	 M192.2,23.8c1.1,1.6,2.2,3.7,3.1,5.7c1.3-0.6,2.6-1.3,3.6-1.9C196.9,25.8,194.7,24.6,192.2,23.8z M200.6,29.4
	c-1.3,0.8-2.8,1.6-4.5,2.4c1.2,3.2,1.9,6.4,2.1,9.1h7.1C205,36.4,203.3,32.4,200.6,29.4z M188.7,23c-0.5-0.1-1-0.2-1.5-0.2v9
	c1.9-0.2,3.9-0.6,5.8-1.3C191.8,27.7,190.4,25.2,188.7,23z M193.8,32.7c-2.2,0.9-4.5,1.5-6.6,1.6v6.6h8.4
	C195.5,38.2,194.8,35.4,193.8,32.7z M184.6,22.8c-0.5,0-1,0.1-1.5,0.2c-1.6,2.2-3.1,4.7-4.3,7.5c1.9,0.6,3.9,1.1,5.8,1.3V22.8z
	 M198.2,43.5c-0.1,2.6-0.8,5.9-2.1,9.1c1.7,0.8,3.2,1.6,4.5,2.4c2.7-3.1,4.4-7.1,4.6-11.5L198.2,43.5L198.2,43.5z M173.1,27.6
	c1,0.6,2.2,1.3,3.6,1.9c0.8-2.1,1.9-4,3-5.7C177.2,24.6,175,25.8,173.1,27.6z M187.2,43.5V50c2.1,0.2,4.3,0.8,6.6,1.6
	c1-2.8,1.6-5.6,1.9-8.2H187.2z M184.6,34.3c-2.1-0.2-4.3-0.8-6.6-1.6c-1,2.7-1.6,5.5-1.9,8.2h8.4V34.3z M195.2,54.8
	c-0.8,2.1-1.8,4-3,5.8c2.5-0.8,4.7-2.1,6.6-3.8C197.8,56.1,196.5,55.4,195.2,54.8z M171.3,29.4c-2.7,3-4.4,7.1-4.6,11.5h7.1
	c0.2-2.7,0.9-5.9,2.1-9.1C174.1,31,172.6,30.2,171.3,29.4z M187.2,52.6v9c0.5,0,1-0.1,1.5-0.2c1.6-2.2,3.1-4.8,4.2-7.5
	C191,53.2,189.1,52.8,187.2,52.6z M184.6,43.5h-8.4c0.2,2.6,0.8,5.4,1.9,8.2c2.2-0.9,4.5-1.5,6.6-1.6L184.6,43.5L184.6,43.5z
	 M184.6,52.6c-1.9,0.2-3.8,0.6-5.7,1.2c1.1,2.7,2.6,5.3,4.2,7.5c0.5,0.1,1,0.2,1.5,0.2L184.6,52.6L184.6,52.6z M173.7,43.5h-7.1
	c0.3,4.5,1.9,8.5,4.6,11.5c1.3-0.8,2.8-1.6,4.5-2.4C174.5,49.3,173.8,46,173.7,43.5z M176.7,54.8c-1.3,0.6-2.6,1.3-3.7,2
	c1.9,1.7,4.2,3,6.6,3.8C178.5,58.7,177.4,56.8,176.7,54.8z"/>
<path fill="#FFFFFF" d="M205.8,16.4c-1.4,0-2.6-1-2.6-2.5s1.1-2.5,2.6-2.5c1.4,0,2.6,1,2.6,2.5C208.4,15.4,207.2,16.4,205.8,16.4z
	 M205.8,11.9c-1.1,0-2,0.8-2,2c0,1.2,0.9,2,2,2c1.1,0,2.1-0.8,2.1-2C207.9,12.6,207,11.9,205.8,11.9z M206.7,15.4l-0.8-1.2h-0.4v1.2
	h-0.6v-3.1h1c0.5,0,1,0.4,1,1c0,0.4-0.2,0.6-0.5,0.8l0.7,1.1L206.7,15.4z M205.7,12.8h-0.3v0.9h0.3c0.3,0,0.5-0.2,0.5-0.4
	S206.1,12.8,205.7,12.8z"/>
</svg>
