<svg width="110" height="23" xmlns="http://www.w3.org/2000/svg" xmlns:svg="http://www.w3.org/2000/svg">
 <g>
  <path id="svg_1" fill="#1F1F1E" d="m23.71,23l0.15,0l7.84,-19.53c0.76,-1.88 1.48,-2.8 2.16,-3.21l0,-0.2l-4.71,0l0,0.2c0.99,0.53 1.22,2.01 0.53,3.69l-4.81,12.05l-6.53,-16l-0.15,0l-6.88,15.97l-4.94,-12.58c-0.59,-1.5 -0.41,-2.62 0.51,-3.16l0,-0.2l-6.88,0l0,0.2c0.74,0.38 1.27,1.17 1.94,2.8l8.1,19.97l0.15,0l6.83,-16.17l6.69,16.17zm50.84,-11.21l0,-6.34l6.62,0c3.03,0 4.18,0.48 5.27,2.01l0.2,-0.08l-0.41,-3.49l-16.58,0l-0.03,0.15c0.99,0.61 1.27,1.5 1.27,2.78l0,12.56c0,1.3 -0.28,2.16 -1.27,2.78l0.03,0.2l17.45,0l0.64,-3.77l-0.15,-0.08c-1.12,1.5 -2.45,2.27 -5.45,2.27l-7.59,0l0,-7.49l5.07,0c2.16,0 3.26,0.36 3.82,1.27l0.23,0l0,-4.02l-0.23,-0.03c-0.59,0.92 -1.66,1.27 -3.82,1.27l-5.07,0c0,0 0,0.01 0,0.01zm22.21,10.37l0.03,0.2l6.37,0l0,-0.2c-1.04,-0.61 -1.38,-1.55 -1.38,-3.08l0,-4.33l5.6,-8c1.02,-1.48 1.88,-2.37 2.62,-2.67l0,-0.15l-4.97,0l0,0.15c0.89,0.51 1.02,1.76 0.08,3.13l-4.1,5.91l-4.53,-6.67c-0.71,-1.02 -0.59,-1.94 0.25,-2.39l0,-0.15l-6.98,0l0,0.15c0.84,0.36 1.35,0.82 2.24,2.11l6.19,8.84l0,4.08c-0.02,1.51 -0.38,2.46 -1.42,3.07m-30.77,0.2l0.89,-3.9l-0.2,-0.08c-1.1,1.68 -2.75,2.39 -5.2,2.39l-7.21,0l0,-13.65c0,-1.55 0.38,-2.45 1.48,-3.08l0,-0.15l-6.34,0l-0.03,0.15c0.99,0.61 1.27,1.5 1.27,2.78l0,12.56c0,1.3 -0.28,2.16 -1.27,2.78l0.03,0.2l16.58,0l0,0zm-28.09,-3.13c0,1.43 -0.33,2.37 -1.35,2.93l0,0.2l6.32,0l0,-0.2c-1.02,-0.56 -1.35,-1.5 -1.35,-2.93l0,-12.25c0,-1.4 0.31,-2.32 1.35,-2.93l0,-0.15l-6.29,0l0,0.15c1.02,0.61 1.35,1.53 1.35,2.93l0,12.25l-0.03,0z"/>
 </g>
</svg>