<?xml version="1.0" standalone="no"?>
<!DOCTYPE svg PUBLIC "-//W3C//DTD SVG 1.1//EN" "http://www.w3.org/Graphics/SVG/1.1/DTD/svg11.dtd" >
<svg xmlns="http://www.w3.org/2000/svg">
<metadata></metadata>
<defs>
<font id="montserratextra_bold" horiz-adv-x="1243" >
<font-face units-per-em="2048" ascent="1638" descent="-410" />
<missing-glyph horiz-adv-x="448" />
<glyph unicode="&#xfb01;" horiz-adv-x="1501" d="M201 0l170 807h-152l57 266h152l18 86q38 177 182.5 279t342.5 100q133 0 215 -37l-84 -327q-52 40 -117 40q-54 2 -91.5 -25.5t-47.5 -78.5l-8 -37h231l-57 -266h-232l-170 -807h-409zM963 0l235 1114h414l-236 -1114h-413zM1262 1432q20 94 92 153.5t166 59.5 t141 -59.5t27 -153.5t-92 -153.5t-166 -59.5t-141 59.5t-27 153.5z" />
<glyph unicode="&#xfb02;" horiz-adv-x="1527" d="M201 0l170 809h-152l57 264h152l18 92q37 170 181.5 273t345.5 102q122 0 215 -35l-82 -327q-50 41 -113 41q-57 1 -97 -30t-52 -87l-6 -29h233l-59 -264h-232l-170 -809h-409zM979 0l321 1520h414l-321 -1520h-414z" />
<glyph horiz-adv-x="0" />
<glyph horiz-adv-x="682" />
<glyph unicode=" "  horiz-adv-x="448" />
<glyph unicode="&#x09;" horiz-adv-x="448" />
<glyph unicode="&#xa0;" horiz-adv-x="448" />
<glyph unicode="!" horiz-adv-x="565" d="M125 178q19 85 83.5 138t149.5 53q86 0 129.5 -53t24.5 -138q-19 -86 -84.5 -140t-151.5 -54q-85 0 -127.5 54t-23.5 140zM274 512l41 547l80 373h393l-79 -373l-187 -547h-248z" />
<glyph unicode="&#x22;" horiz-adv-x="978" d="M301 842l127 594h309l-127 -594h-309zM725 842l127 594h309l-127 -594h-309z" />
<glyph unicode="#" horiz-adv-x="1517" d="M82 299l94 283h270l86 256h-268l92 282h273l106 316h295l-106 -316h245l107 316h297l-107 -316h271l-95 -282h-272l-86 -256h270l-94 -283h-270l-100 -299h-297l100 299h-246l-100 -299h-295l100 299h-270zM741 582h246l86 256h-246z" />
<glyph unicode="$" horiz-adv-x="1341" d="M70 215l227 324q89 -92 233 -156t256 -64q147 0 168 97q8 38 -18.5 66.5t-75.5 45.5t-112.5 35t-129.5 37t-126.5 51t-104 76t-61 112.5t1.5 161.5q35 164 164 277.5t321 155.5l70 323h309l-66 -309q133 -12 253 -54.5t204 -105.5l-227 -327q-100 65 -227.5 112 t-215.5 47q-120 0 -135 -78q-8 -37 18.5 -65t75.5 -45.5t112 -37t129 -39.5t126.5 -54t103 -80t59.5 -117t-3 -166q-41 -195 -200 -308t-382 -136l-69 -322h-310l72 334q-130 25 -244.5 79t-195.5 130z" />
<glyph unicode="%" horiz-adv-x="2146" d="M270 1008q43 200 179 317t325 117q188 0 274.5 -117.5t43.5 -316.5q-43 -201 -180 -321t-324 -120q-189 0 -275 120t-43 321zM373 0l1315 1436h385l-1313 -1436h-387zM530 1008q-22 -101 6.5 -160.5t98.5 -59.5q69 0 121.5 59.5t74.5 160.5q22 100 -5.5 158.5t-96.5 58.5 q-70 0 -123.5 -58.5t-75.5 -158.5zM1360 430q43 200 179 318t325 118q188 0 274 -118.5t43 -317.5q-43 -201 -178.5 -319.5t-323.5 -118.5q-189 0 -275.5 118.5t-43.5 319.5zM1620 430q-22 -101 6 -160t98 -59q69 0 122 59t75 160q22 100 -5.5 158.5t-96.5 58.5 q-70 0 -123.5 -58.5t-75.5 -158.5z" />
<glyph unicode="&#x26;" horiz-adv-x="1427" d="M197 406q14 68 47 125.5t83 103t102 79.5t120 68q-77 162 -47 314q35 164 171.5 261t332.5 97q190 0 292.5 -94t71.5 -240q-12 -58 -42.5 -110t-68 -90t-92 -75.5t-101 -62.5t-110.5 -55q69 -97 144 -192q72 92 129 213l221 -187q-74 -128 -174 -242l164 -190l-252 -201 l-154 185q-211 -131 -422 -131q-145 0 -249 54t-148 151t-18 219zM539 436q-17 -75 25.5 -121.5t123.5 -46.5q86 0 180 51q-116 143 -202 267q-111 -67 -127 -150zM823 1098q-16 -85 23 -176q87 44 137 89.5t61 104.5q10 49 -12.5 78t-70.5 29q-52 0 -89 -34.5t-49 -90.5z " />
<glyph unicode="'" horiz-adv-x="555" d="M301 842l127 594h309l-127 -594h-309z" />
<glyph unicode="(" horiz-adv-x="735" d="M210.5 157q-20.5 228 31.5 476q52 246 170 474.5t286 412.5h371q-157 -190 -272 -418.5t-166 -468.5q-50 -254 -32.5 -475.5t93.5 -411.5h-370q-91 183 -111.5 411z" />
<glyph unicode=")" horiz-adv-x="747" d="M-20 -254q156 191 270.5 419.5t165.5 467.5q50 254 32 475.5t-94 411.5h371q91 -183 111.5 -411t-31.5 -476q-52 -246 -170.5 -474.5t-286.5 -412.5h-368z" />
<glyph unicode="*" horiz-adv-x="806" d="M260 1024l184 92l-147 88l141 180l140 -100l34 189h205l-43 -189l180 96l64 -176l-187 -88l150 -92l-141 -178l-142 98l-32 -186h-205l47 188l-182 -96z" />
<glyph unicode="+" horiz-adv-x="1054" d="M178 543l55 258h336l70 336h258l-70 -336h334l-55 -258h-334l-72 -336h-258l72 336h-336z" />
<glyph unicode="," horiz-adv-x="520" d="M0 -213l150 242q-64 52 -44 147q17 84 84 138.5t152 54.5q79 0 124 -51.5t26 -139.5q-16 -76 -84 -151l-218 -240h-190z" />
<glyph unicode="-" horiz-adv-x="772" d="M213 502l53 258h559l-53 -258h-559z" />
<glyph unicode="." horiz-adv-x="522" d="M104 178q19 85 84 138t150 53q86 0 129.5 -53t24.5 -138q-19 -86 -84.5 -140t-151.5 -54q-85 0 -128 54t-24 140z" />
<glyph unicode="/" horiz-adv-x="745" d="M-135 -219l1065 1874h346l-1067 -1874h-344z" />
<glyph unicode="0" horiz-adv-x="1449" d="M229 719q75 352 282.5 540.5t522.5 188.5q311 0 439 -189t53 -540q-75 -353 -283.5 -542t-519.5 -189q-315 0 -442 188.5t-52 542.5zM644.5 393q27.5 -96 143.5 -96q113 0 181.5 96t117.5 326t22 325t-140 95q-116 0 -185 -95t-118 -325t-21.5 -326z" />
<glyph unicode="1" horiz-adv-x="870" d="M240 1096l73 340h684l-305 -1436h-428l232 1096h-256z" />
<glyph unicode="2" horiz-adv-x="1239" d="M82 0l57 270l615 529q148 127 166 211q10 47 -17.5 72.5t-87.5 25.5q-84 0 -195 -48t-231 -134l-96 307q363 221 661 221q219 0 339 -106.5t85 -276.5q-24 -113 -120.5 -229.5t-256.5 -253.5l-305 -256h555l-69 -332h-1100z" />
<glyph unicode="3" horiz-adv-x="1161" d="M25 164l237 323q123 -188 318 -188q88 0 141 39t67 113q34 149 -147 149h-246l47 225l355 291h-498l68 316h983l-52 -240l-399 -330l59 -14q144 -29 213.5 -132t36.5 -261q-45 -211 -225.5 -342t-435.5 -131q-155 0 -295.5 49.5t-226.5 132.5z" />
<glyph unicode="4" horiz-adv-x="1331" d="M115 293l59 282l619 861h407l-586 -830h244l62 289h395l-62 -289h189l-66 -313h-188l-62 -293h-395l62 293h-678z" />
<glyph unicode="5" horiz-adv-x="1236" d="M51 168l236 321q120 -188 317 -188q89 0 144.5 40.5t70.5 115.5q15 70 -23.5 106.5t-127.5 36.5q-226 0 -402 -4l180 840h975l-71 -332h-584l-39 -186h92q253 0 379.5 -118.5t85.5 -314.5q-50 -229 -239 -366t-459 -137q-146 0 -292 50.5t-243 135.5z" />
<glyph unicode="6" horiz-adv-x="1312" d="M225 700q74 343 303 548.5t541 205.5q127 0 251 -33.5t206 -89.5l-226 -299q-105 94 -274 94q-152 0 -244.5 -77.5t-122.5 -225.5q136 129 342 129q211 0 311 -129.5t56 -339.5q-49 -229 -228.5 -365t-428.5 -136q-297 0 -427 193.5t-59 524.5zM625 481q-14 -73 21 -116 t120 -43q173 0 207 163q15 75 -19.5 115.5t-115.5 40.5q-85 0 -140 -42.5t-73 -117.5z" />
<glyph unicode="7" d="M254 903l115 533h1155l-62 -289l-753 -1147h-451l725 1104h-311l-43 -201h-375z" />
<glyph unicode="8" horiz-adv-x="1331" d="M143 399q25 118 117 218t223 151q-73 55 -106.5 136.5t-14.5 166.5q37 174 203 278.5t406 104.5q243 0 364.5 -107.5t83.5 -287.5q-19 -87 -80 -165.5t-147 -125.5q100 -51 145.5 -148.5t20.5 -213.5q-41 -194 -230 -309t-466 -115t-418 113.5t-101 303.5zM553 442 q-15 -75 28.5 -114t143.5 -39t161.5 39t76.5 114q17 77 -26.5 117.5t-143.5 40.5t-161.5 -40.5t-78.5 -117.5zM713 1036q-14 -65 22.5 -99t120.5 -34q85 0 136 34t65 99q14 68 -22.5 103t-121.5 35q-172 0 -200 -138z" />
<glyph unicode="9" horiz-adv-x="1312" d="M92 104l225 299q105 -94 275 -94q152 0 244 77.5t122 225.5q-136 -129 -342 -129q-211 0 -310.5 129.5t-55.5 339.5q49 229 228.5 365.5t428.5 136.5q297 0 427 -194t59 -525q-74 -343 -303 -548t-541 -205q-127 0 -251 33t-206 89zM645 950q-15 -75 19.5 -115t115.5 -40 q85 0 140 42t73 117q14 73 -21 116.5t-120 43.5q-172 0 -207 -164z" />
<glyph unicode=":" horiz-adv-x="520" d="M104 178q19 85 84 138t150 53q86 0 129.5 -53t24.5 -138q-19 -86 -84.5 -140t-151.5 -54q-85 0 -128 54t-24 140zM233 786q19 85 84 138t150 53q86 0 129.5 -53t24.5 -138q-19 -86 -84.5 -140t-151.5 -54q-85 0 -128 54t-24 140z" />
<glyph unicode=";" horiz-adv-x="522" d="M0 -213l150 242q-64 52 -44 147q17 84 84 138.5t152 54.5q79 0 124 -51.5t26 -139.5q-16 -76 -84 -151l-218 -240h-190zM233 786q19 85 84 138t150 53q86 0 129.5 -53t24.5 -138q-19 -86 -84.5 -140t-151.5 -54q-85 0 -128 54t-24 140z" />
<glyph unicode="&#x3c;" horiz-adv-x="1054" d="M168 498l70 329l1009 379l-61 -288l-717 -254l608 -256l-61 -289z" />
<glyph unicode="=" horiz-adv-x="1054" d="M131 319l53 259h928l-53 -259h-928zM225 766l56 258h927l-55 -258h-928z" />
<glyph unicode="&#x3e;" horiz-adv-x="1054" d="M92 137l62 289l714 254l-606 256l62 289l845 -379l-69 -330z" />
<glyph unicode="?" horiz-adv-x="995" d="M205 950q53 235 209.5 366.5t386.5 131.5q215 0 315.5 -95.5t63.5 -269.5q-13 -61 -42 -115t-64.5 -93t-76 -75t-80.5 -69t-74 -66t-60 -75t-35 -88h-310q18 86 57 154.5t82.5 111t86 79t76 79t44.5 90.5q23 106 -92 106q-133 0 -170 -172h-317zM326 178q19 85 82.5 138 t148.5 53q86 0 129.5 -53t24.5 -138q-19 -86 -84.5 -140t-151.5 -54q-85 0 -126.5 54t-22.5 140z" />
<glyph unicode="@" horiz-adv-x="1818" d="M138.5 273.5q-12.5 128.5 15.5 275.5q39 183 143 347t247 281t321 186t360 69q145 0 268 -42.5t210.5 -119.5t144 -185t68 -239.5t-17.5 -282.5q-49 -225 -188 -362.5t-311 -137.5q-197 0 -209 154v21q-136 -154 -320 -154q-83 0 -153.5 33.5t-118 95t-65.5 148.5t4 194 q43 200 184.5 338.5t322.5 138.5q43 0 82 -11.5t64.5 -27.5t44.5 -34t27.5 -30t9.5 -16l20 95h264l-143 -676q-21 -94 49 -94q61 0 128.5 91.5t95.5 227.5q41 192 -1 345t-171 244t-330 91q-182 0 -356.5 -92.5t-298.5 -250.5t-164 -345q-38 -185 15 -334.5t183 -234 t311 -84.5q94 0 203.5 32t204.5 95l64 -170q-102 -69 -247 -111.5t-268 -42.5q-144 0 -267 41.5t-211 117.5t-145 181.5t-69.5 234zM829 565q-21 -101 10.5 -172t110.5 -71q83 0 145 69t85 172q21 97 -15 161t-121 64q-74 0 -134 -64.5t-81 -158.5z" />
<glyph unicode="A" horiz-adv-x="1609" d="M-16 0l917 1436h438l287 -1436h-455l-36 229h-580l-133 -229h-438zM741 541h349l-74 469z" />
<glyph unicode="B" horiz-adv-x="1474" d="M121 0l305 1436h704q252 0 380 -98q101 -77 101 -197q0 -32 -7 -68q-23 -109 -107.5 -193t-202.5 -116q126 -28 183 -127q38 -66 38 -148q0 -42 -10 -88q-38 -184 -214 -292.5t-435 -108.5h-735zM610 317h258q82 0 137.5 37.5t69.5 100.5q3 14 3 26q0 41 -31 67 q-40 34 -121 34h-258zM729 872h258q63 0 107.5 34t56.5 91q3 15 3 29q0 35 -22 58q-31 32 -94 32h-258z" />
<glyph unicode="C" horiz-adv-x="1413" d="M190 721q44 206 179.5 372.5t332.5 260.5t416 94q163 0 309.5 -68.5t229.5 -185.5l-307 -291q-50 87 -131 139t-170 52q-146 0 -266 -105.5t-154 -263.5q-11 -49 -10 -94q0 -99 51 -171q75 -106 221 -106q83 0 185 45.5t192 120.5l190 -262q-143 -126 -323 -201t-342 -75 q-215 0 -369 96q-154 94 -216 264q-37 99 -36 213q0 80 18 166z" />
<glyph unicode="D" horiz-adv-x="1560" d="M121 0l305 1436h629q230 0 386 -88.5t217 -251.5q35 -93 34 -202q0 -83 -19 -175q-69 -324 -326.5 -521.5t-611.5 -197.5h-614zM616 334h215q146 0 258.5 105t149.5 276q12 58 12 108q-1 100 -49 171q-74 106 -227 106h-195z" />
<glyph unicode="E" horiz-adv-x="1398" d="M121 0l305 1436h1173l-71 -328h-748l-47 -225h678l-70 -328h-677l-48 -227h768l-69 -328h-1194z" />
<glyph unicode="F" horiz-adv-x="1267" d="M121 0l305 1436h1114l-72 -328h-688l-59 -287h639l-70 -327h-639l-104 -494h-426z" />
<glyph unicode="G" horiz-adv-x="1515" d="M186 424q-15 64 -15 132q0 77 19 161q43 207 182 374.5t343 262t432 94.5q164 0 315.5 -58.5t243.5 -158.5l-303 -293q-59 71 -150 113.5t-184 42.5q-155 0 -281.5 -108t-160.5 -269q-10 -49 -10 -93q0 -103 57 -178q82 -108 239 -108q96 0 228 55l76 350h366l-123 -577 q-135 -80 -317.5 -132t-335.5 -52q-164 0 -296.5 55.5t-212.5 154t-112 232.5z" />
<glyph unicode="H" horiz-adv-x="1603" d="M121 0l305 1436h426l-123 -572h510l123 572h426l-305 -1436h-426l112 535h-510l-112 -535h-426z" />
<glyph unicode="I" horiz-adv-x="667" d="M121 0l305 1436h426l-305 -1436h-426z" />
<glyph unicode="J" horiz-adv-x="1134" d="M31 221l256 281q60 -79 132 -120.5t134 -41.5q60 0 101.5 37t56.5 108l129 611h-488l74 340h917l-204 -961q-51 -233 -218.5 -363t-408.5 -130q-314 0 -481 239z" />
<glyph unicode="K" horiz-adv-x="1558" d="M121 0l305 1436h426l-119 -553l600 553h492l-645 -584l372 -852h-510l-223 524l-201 -180l-71 -344h-426z" />
<glyph unicode="L" horiz-adv-x="1175" d="M121 0l305 1436h426l-231 -1080h602l-74 -356h-1028z" />
<glyph unicode="M" horiz-adv-x="1847" d="M121 0l305 1436h457l176 -795l516 795h457l-306 -1436h-372l178 850l-440 -709h-279l-137 709l-180 -850h-375z" />
<glyph unicode="N" horiz-adv-x="1603" d="M121 0l305 1436h365l436 -803l172 803h389l-305 -1436h-363l-440 799l-168 -799h-391z" />
<glyph unicode="O" horiz-adv-x="1642" d="M186 425q-15 64 -15 134q0 77 19 160q33 156 121.5 291.5t212 231.5t280.5 151t324 55t301 -55t215.5 -152t113.5 -231q15 -64 16 -132q0 -76 -19 -159q-33 -156 -121.5 -293t-212 -234.5t-280.5 -153.5t-324 -56t-301 55.5t-216 154t-114 233.5zM627 717 q-10 -46 -10 -89q0 -54 17 -104q30 -88 101 -137t164 -49q142 0 263.5 108.5t156.5 270.5q10 49 10 93q-1 101 -53 175q-76 107 -217 107q-145 0 -272 -107.5t-160 -267.5z" />
<glyph unicode="P" horiz-adv-x="1398" d="M121 0l305 1436h651q278 0 402 -133q88 -94 87 -244q0 -62 -14 -133q-56 -257 -238 -398t-460 -141h-225l-82 -387h-426zM698 715h205q96 0 159 51t83 147q6 30 6 56q0 54 -28 88q-42 51 -138 51h-205z" />
<glyph unicode="Q" horiz-adv-x="1644" d="M190 719q33 156 121.5 291.5t212 231.5t280.5 151t324 55t301 -55t215.5 -152t113.5 -231q16 -64 16 -132q0 -76 -19 -159q-49 -230 -212 -411t-390 -267q47 -80 125 -80q46 0 116.5 27.5t143.5 74.5l90 -256q-98 -72 -225 -115.5t-238 -43.5q-155 0 -258.5 90 t-134.5 246q-210 10 -357.5 107t-206.5 261q-35 97 -35 206q0 77 17 161zM627 717q-10 -46 -10 -89q0 -55 17 -104q30 -88 101 -137t164 -49q142 0 263.5 108.5t156.5 270.5q10 49 10 93q0 101 -53 175q-75 107 -217 107q-145 0 -272 -107.5t-160 -267.5z" />
<glyph unicode="R" horiz-adv-x="1484" d="M121 0l305 1436h670q288 0 418 -133q93 -95 93 -248q0 -60 -14 -129q-71 -321 -340 -457l193 -469h-483l-109 387h-225l-82 -387h-426zM698 715h244q96 0 159 51t83 147q6 30 6 56q0 54 -28 88q-42 51 -138 51h-244z" />
<glyph unicode="S" horiz-adv-x="1341" d="M70 215l227 324q89 -92 233 -156t256 -64q147 0 168 97q2 9 2 17q0 27 -20 49q-26 28 -75.5 45.5t-113 35.5t-129.5 37t-126.5 51t-103.5 76q-44 45 -62 113q-8 33 -8 71q0 42 10 90q44 207 232.5 330t457.5 123q162 0 313 -45t252 -121l-227 -327q-100 65 -227.5 112 t-215.5 47q-120 0 -135 -78q-2 -9 -2 -17q0 -27 20 -48q26 -28 75.5 -45.5t112.5 -37t129 -39.5t126.5 -54t103 -80t59.5 -117q8 -33 8 -70q0 -44 -11 -96q-24 -111 -89.5 -198.5t-159 -141.5t-205 -82t-234.5 -28q-184 0 -356.5 61t-284.5 166z" />
<glyph unicode="T" horiz-adv-x="1286" d="M244 1096l73 340h1262l-74 -340h-418l-231 -1096h-428l231 1096h-415z" />
<glyph unicode="U" horiz-adv-x="1546" d="M225 606l178 830h426l-178 -830q-8 -38 -8 -70q1 -74 41 -125q58 -73 168 -73q108 0 189.5 72t107.5 196l178 830h426l-178 -830q-60 -286 -277 -455t-524 -169q-310 0 -460 170q-107 121 -106 300q0 72 17 154z" />
<glyph unicode="V" horiz-adv-x="1531" d="M299 1436h455l114 -994l541 994h436l-860 -1436h-442z" />
<glyph unicode="W" horiz-adv-x="2258" d="M299 1436h455l32 -994l451 992l418 2l33 -994l452 994h436l-776 -1436h-438l-35 915l-428 -915h-438z" />
<glyph unicode="X" horiz-adv-x="1548" d="M-2 0l661 731l-323 705h495l158 -375l320 375h501l-616 -686l354 -750h-512l-186 410l-354 -410h-498z" />
<glyph unicode="Y" horiz-adv-x="1437" d="M289 1436h426l188 -586l430 586h424l-725 -981l-96 -455h-426l94 446z" />
<glyph unicode="Z" horiz-adv-x="1390" d="M49 0l55 268l891 836h-688l72 332h1255l-59 -271l-889 -833h727l-70 -332h-1294z" />
<glyph unicode="[" horiz-adv-x="757" d="M66 -254l376 1774h611l-64 -306h-244l-247 -1163h243l-65 -305h-610z" />
<glyph unicode="\" horiz-adv-x="837" d="M254 1655h346l272 -1874h-348z" />
<glyph unicode="]" horiz-adv-x="845" d="M59 -254l66 305h242l247 1163h-241l63 306h611l-377 -1774h-611z" />
<glyph unicode="^" horiz-adv-x="1214" d="M123 289l547 784h329l211 -784h-288l-136 559l-374 -559h-289z" />
<glyph unicode="_" horiz-adv-x="1212" d="M-88 -418l47 223h1210l-47 -223h-1210z" />
<glyph unicode="`" horiz-adv-x="716" d="M379 1468l383 119l141 -368h-303z" />
<glyph unicode="a" d="M111 332q34 161 162.5 248t338.5 90h273v4q4 19 4 36q1 44 -29 72q-40 38 -135 39q-150 0 -354 -80l-43 275q307 114 561 114q235 0 345 -107q80 -78 80 -203q0 -45 -11 -97l-154 -723h-406l25 123q-135 -141 -354 -141q-176 0 -256 96q-57 67 -57 165q0 42 10 89z M506 362q-3 -16 -3 -29q1 -33 19 -53q26 -28 86 -28q63 0 120.5 31t92.5 84l21 100h-189q-126 0 -147 -105z" />
<glyph unicode="b" horiz-adv-x="1409" d="M135 0l322 1520h413l-112 -535q143 143 336 143q232 0 340 -158q71 -105 71 -254q0 -77 -18 -165q-56 -257 -226.5 -411t-400.5 -154q-200 0 -285 143l-26 -129h-414zM668 561q-9 -41 -9 -77q-1 -59 25 -102q42 -69 131 -69q91 0 161 68.5t95 179.5q8 40 8 74 q0 61 -26 105q-41 68 -133 69q-89 0 -159 -69t-93 -179z" />
<glyph unicode="c" horiz-adv-x="1150" d="M156 553q56 260 249 417.5t457 157.5q175 0 293 -76t158 -214l-350 -156q-36 111 -154 111q-83 0 -148 -66t-88 -172q-9 -42 -9 -77q0 -56 23 -98q37 -66 120 -67q124 0 202 123l287 -162q-94 -138 -245.5 -213t-336.5 -75q-263 0 -388 156q-87 108 -87 264q0 69 17 147z " />
<glyph unicode="d" horiz-adv-x="1409" d="M158 563q54 256 225.5 410.5t400.5 154.5q196 0 285 -143l113 535h413l-321 -1520h-414l27 127q-147 -141 -336 -141q-233 0 -341 158q-71 104 -71 254q0 76 19 165zM573 553q-9 -42 -10 -79q1 -60 27 -102q42 -68 133 -69q90 0 159.5 68.5t94.5 181.5q8 40 8 75 q1 60 -25 104q-40 68 -131 69q-92 0 -162.5 -68.5t-93.5 -179.5z" />
<glyph unicode="e" horiz-adv-x="1247" d="M156 553q55 260 250 417.5t460 157.5q291 0 406 -180q66 -104 67 -252q0 -108 -36 -239h-750q7 -79 54.5 -122.5t127.5 -43.5q132 0 269 106l170 -211q-225 -200 -539 -200q-279 0 -407 154q-89 108 -89 266q0 69 17 147zM588 659h350q7 28 7 53q-1 48 -25 83 q-36 53 -111 53q-70 0 -128 -51t-93 -138z" />
<glyph unicode="f" horiz-adv-x="837" d="M201 0l168 793h-152l55 264h152l22 102q36 176 181 279q142 100 336 100h8q91 0 178.5 -21t146.5 -59l-202 -284q-49 43 -109 43q-53 0 -91 -28.5t-48 -78.5l-12 -53h231l-55 -264h-232l-168 -793h-409z" />
<glyph unicode="g" horiz-adv-x="1333" d="M29 -270l196 278q64 -49 149 -75.5t173 -26.5q112 0 184.5 48t89.5 130l25 113q-140 -134 -328 -134q-205 0 -304 149q-66 97 -66 235q0 72 18 155q51 236 210 381t361 145q196 0 279 -135l24 121h410l-217 -1018q-49 -233 -247 -372.5t-474 -139.5q-147 0 -273 41 t-210 105zM551 590q-9 -39 -9 -72q0 -55 24 -94q39 -64 124 -64q86 0 151.5 63.5t88.5 166.5q8 38 8 71q0 58 -25 99q-39 63 -125 63q-85 0 -150 -64.5t-87 -168.5z" />
<glyph unicode="h" horiz-adv-x="1398" d="M135 0l322 1520h413l-122 -578q159 188 395 188q181 0 267 -115q58 -78 58 -191q0 -54 -14 -117l-149 -707h-414l125 588q6 28 6 52q0 48 -22 80q-33 48 -107 48q-84 -1 -145.5 -61t-81.5 -156l-117 -551h-414z" />
<glyph unicode="i" horiz-adv-x="663" d="M125 0l235 1114h414l-235 -1114h-414zM424 1432q20 94 92 153.5t166 59.5q94 1 141 -59q33 -42 33 -101q0 -25 -6 -53q-20 -94 -92 -153.5t-166 -59.5q-94 -1 -141 59q-33 42 -33 101q0 25 6 53z" />
<glyph unicode="j" horiz-adv-x="686" d="M-252 -344l158 287q53 -35 108 -35q100 0 121 106l234 1100h413l-243 -1149q-38 -177 -177 -279q-137 -100 -322 -100h-7q-173 0 -285 70zM414 1432q20 94 96.5 153.5t177.5 59.5t152 -59q38 -43 38 -104q0 -24 -6 -50q-20 -94 -96.5 -153.5t-177.5 -59.5t-152 59 q-38 43 -38 104q0 24 6 50z" />
<glyph unicode="k" horiz-adv-x="1327" d="M135 0l322 1520h413l-157 -740l379 334h467l-500 -430l266 -684h-489l-121 387l-103 -88l-63 -299h-414z" />
<glyph unicode="l" horiz-adv-x="686" d="M135 0l322 1520h413l-321 -1520h-414z" />
<glyph unicode="m" horiz-adv-x="2117" d="M125 0l235 1114h414l-37 -170q157 186 387 186q130 0 212 -63t104 -178q78 117 188 179t240 62q178 0 262 -115q56 -77 57 -190q0 -55 -14 -118l-150 -707h-413l125 588q6 29 6 53q0 47 -21 79q-32 48 -102 48q-79 -1 -139 -61t-80 -156l-117 -551h-414l125 588 q6 29 6 53q0 47 -21 79q-32 48 -101 48q-81 -1 -141.5 -61t-80.5 -156l-116 -551h-414z" />
<glyph unicode="n" horiz-adv-x="1388" d="M125 0l235 1114h414l-37 -172q159 188 396 188q180 0 266 -116q58 -78 59 -191q0 -54 -14 -116l-150 -707h-413l125 588q6 28 6 52q0 48 -22 80q-34 48 -107 48q-84 -1 -146 -61t-82 -156l-116 -551h-414z" />
<glyph unicode="o" horiz-adv-x="1316" d="M156 557q55 259 258.5 415t484.5 156t417 -156q96 -110 95 -272q0 -67 -16 -143q-54 -258 -256.5 -414.5t-483.5 -156.5t-417 156q-97 112 -97 277q0 65 15 138zM573 553q-9 -42 -9 -78q0 -60 26 -102q42 -68 133 -68t160 67.5t94 180.5q8 40 8 75q1 60 -25 104 q-40 68 -131 69q-92 0 -162.5 -68.5t-93.5 -179.5z" />
<glyph unicode="p" horiz-adv-x="1409" d="M49 -397l322 1511h413l-26 -129q143 143 336 143q233 0 340 -158q72 -105 72 -254q0 -77 -19 -165q-56 -257 -226.5 -411t-400.5 -154q-200 0 -285 143l-112 -526h-414zM668 561q-9 -41 -9 -77q0 -59 25 -102q42 -69 131 -69q91 0 161 68.5t95 179.5q8 40 8 74 q0 62 -26 105q-41 69 -133 69q-89 0 -159 -69t-93 -179z" />
<glyph unicode="q" horiz-adv-x="1409" d="M158 563q54 256 225.5 410.5t400.5 154.5q196 0 285 -143l27 129h413l-321 -1511h-414l113 524q-147 -141 -336 -141q-233 0 -341 158q-71 104 -71 254q0 76 19 165zM573 553q-9 -42 -9 -79q0 -60 26 -102q41 -69 133 -69q90 0 159.5 68.5t94.5 181.5q8 40 8 75 q0 61 -25 104q-41 69 -131 69q-92 0 -162.5 -68.5t-93.5 -179.5z" />
<glyph unicode="r" horiz-adv-x="909" d="M125 0l235 1114h414l-37 -176q162 192 391 192l-79 -372q-38 5 -73 5q-108 0 -190 -47q-108 -62 -135 -184l-112 -532h-414z" />
<glyph unicode="s" horiz-adv-x="1095" d="M57 139l183 260q184 -137 374 -137q91 0 103 51q5 22 -16 40t-58.5 30t-85.5 27t-97.5 31.5t-95 43t-78.5 62.5q-32 35 -46 89q-6 25 -6 55q0 32 8 69q38 173 190 273t365 100q254 0 460 -136l-192 -260q-203 117 -340 117q-85 0 -94 -53q-5 -25 22.5 -44t75.5 -34 t106.5 -31.5t114.5 -43.5t100 -63.5t63 -96.5q10 -33 10 -70q0 -32 -7 -68q-36 -170 -191 -269t-376 -99q-306 0 -492 157z" />
<glyph unicode="t" horiz-adv-x="919" d="M195 793l55 264h153l66 309h412l-66 -309h275l-56 -264h-274l-82 -381q-3 -18 -4 -33q0 -29 13 -47q19 -27 63 -27q38 0 135 33l12 -285q-139 -71 -324 -71h-7q-176 0 -262 96q-61 69 -61 175q0 44 11 95l94 445h-153z" />
<glyph unicode="u" horiz-adv-x="1368" d="M180 408l150 706h413l-125 -590q-6 -30 -6 -55q0 -44 19 -75q30 -48 98 -48q81 1 139.5 60.5t79.5 156.5l117 551h414l-236 -1114h-414l35 166q-158 -184 -381 -184q-176 0 -260 116q-56 78 -56 191q0 55 13 119z" />
<glyph unicode="v" horiz-adv-x="1216" d="M219 1114h426l49 -737l363 737h413l-651 -1114h-422z" />
<glyph unicode="w" horiz-adv-x="1964" d="M219 1114h420l49 -711l344 711h389l47 -711l349 711h401l-641 -1114h-408l-49 639l-323 -639h-408z" />
<glyph unicode="x" horiz-adv-x="1296" d="M-2 0l494 569l-236 545h475l92 -289l234 289h450l-463 -543l252 -571h-475l-106 315l-262 -315h-455z" />
<glyph unicode="y" horiz-adv-x="1239" d="M-94 -293l229 277q58 -64 135 -64q87 0 138 72l28 39l-231 1083h424l98 -682l352 682h412l-723 -1208q-198 -322 -532 -322q-195 0 -330 123z" />
<glyph unicode="z" horiz-adv-x="1148" d="M59 0l52 244l618 559h-479l65 311h1000l-51 -246l-619 -559h520l-65 -309h-1041z" />
<glyph unicode="{" horiz-adv-x="757" d="M139 475l66 313h86q37 0 56.5 18t29.5 62l74 355q37 168 134.5 234.5t309.5 66.5h162l-66 -305q-102 0 -142.5 -27t-55.5 -98l-43 -199q-25 -119 -80 -179t-162 -83q97 -25 126.5 -84.5t4.5 -177.5l-43 -199q-14 -71 15 -98t130 -27l-63 -305h-162q-212 0 -281 66 t-34 235l75 354q9 44 -2.5 61t-48.5 17h-86z" />
<glyph unicode="|" horiz-adv-x="643" d="M121 -217l393 1853h307l-393 -1853h-307z" />
<glyph unicode="}" horiz-adv-x="788" d="M16 -258l64 305q102 0 143.5 27t55.5 98l43 199q25 118 79.5 177.5t161.5 84.5q-97 23 -126.5 83t-4.5 179l43 199q15 71 -14 98t-131 27l65 305h162q212 0 281 -66.5t32 -234.5l-73 -355q-10 -44 1 -62t48 -18h86l-66 -313h-86q-37 0 -56 -17t-28 -61l-75 -354 q-35 -169 -133 -235t-310 -66h-162z" />
<glyph unicode="~" horiz-adv-x="1054" d="M205 481q41 195 122.5 289t209.5 94q46 0 87 -15t64 -33t48 -33t44 -15q60 0 78 88h275q-41 -195 -121.5 -289t-206.5 -94q-48 0 -89.5 15t-64.5 33t-48 33t-44 15q-57 0 -78 -88h-276z" />
<glyph unicode="&#xa1;" horiz-adv-x="565" d="M23 -319l79 370l189 549h248l-43 -549l-80 -370h-393zM299 934q19 86 85.5 140t152.5 54q85 0 126.5 -54t22.5 -140q-17 -85 -82.5 -139t-150.5 -54q-86 0 -128.5 54t-25.5 139z" />
<glyph unicode="&#xa2;" horiz-adv-x="1146" d="M156 553q47 223 198 373t365 190l72 334h311l-74 -342q109 -31 182.5 -100t102.5 -170l-350 -156q-36 111 -154 111q-83 0 -148 -66t-88 -172q-23 -109 14 -175.5t120 -66.5q124 0 202 123l287 -162q-139 -207 -401 -268l-72 -334h-311l69 326q-196 38 -284 186.5 t-41 368.5z" />
<glyph unicode="&#xa3;" horiz-adv-x="1150" d="M49 0l68 319h147l49 238h-147l59 279h148l26 122q51 236 213 366t406 130q128 0 237 -44.5t179 -127.5l-226 -313q-102 129 -219 129q-134 0 -164 -148l-24 -114h334l-60 -279h-334l-49 -238h506l-68 -319h-1081z" />
<glyph unicode="&#xa4;" horiz-adv-x="1427" d="M82 207l252 207q-35 113 -8 245q26 123 104 234l-160 201l281 231l156 -201q126 60 256 60q134 0 231 -60l244 201l182 -231l-246 -203q31 -107 4 -232q-26 -126 -112 -243l166 -209l-281 -232l-168 213q-118 -53 -242 -53q-129 0 -221 53l-256 -213zM647 659 q-19 -83 29 -141.5t133 -58.5t158 58.5t92 141.5q19 84 -30 144.5t-134 60.5t-157 -60t-91 -145z" />
<glyph unicode="&#xa5;" horiz-adv-x="1400" d="M199 299l30 154h371l-33 110h-313l33 152h231l-229 721h426l188 -586l430 586h426l-534 -721h200l-32 -152h-281l-82 -110h338l-31 -154h-338l-63 -299h-426l63 299h-374z" />
<glyph unicode="&#xa6;" horiz-adv-x="643" d="M121 -217l147 698h307l-147 -698h-307zM367 940l147 696h307l-147 -696h-307z" />
<glyph unicode="&#xa7;" horiz-adv-x="1163" d="M23 -23l167 256q192 -139 373 -139q53 0 83.5 14.5t35.5 38.5q5 25 -23.5 46t-77.5 38t-109 36t-118 47t-103 64.5t-65.5 95t-5.5 132.5q43 190 260 279q-60 40 -75.5 84.5t-2.5 107.5q33 153 180 248.5t361 95.5q244 0 463 -133l-176 -256q-212 117 -340 117 q-46 0 -75 -14.5t-34 -38.5q-6 -27 23 -48.5t79 -39t111 -37t120 -48t105 -65t67 -95t5 -132.5q-20 -91 -86 -163.5t-166 -115.5q51 -41 67.5 -81.5t2.5 -110.5q-33 -153 -183.5 -247.5t-371.5 -94.5q-140 0 -268 40.5t-223 118.5zM559 633q-7 -38 39.5 -61t124.5 -23 q63 0 99 16t42 43q7 37 -43 61.5t-127 24.5q-122 0 -135 -61z" />
<glyph unicode="&#xa8;" horiz-adv-x="733" d="M279 1425q17 77 77 125.5t136 48.5q78 0 116 -48.5t21 -125.5q-15 -78 -75 -127t-138 -49q-76 0 -114 49t-23 127zM690 1425q17 76 77.5 125t137.5 49t114.5 -49t20.5 -125q-15 -78 -74.5 -127t-136.5 -49t-115.5 49t-23.5 127z" />
<glyph unicode="&#xa9;" horiz-adv-x="1464" d="M176.5 495q-9.5 103 11.5 218q30 140 112 268.5t194 223t253 150.5t285 56q115 0 214 -35.5t169 -99t116.5 -150.5t56.5 -190.5t-11 -218.5q-40 -187 -166 -348t-307 -256t-373 -95q-115 0 -214 36t-168.5 99.5t-116 151t-56 190.5zM375 713q-28 -138 13 -254.5 t142.5 -185t241.5 -68.5q142 0 274.5 69.5t224 187t120.5 255.5t-12.5 254.5t-143.5 185t-242 68.5q-141 0 -273 -69.5t-224 -187t-121 -255.5zM545 715q31 145 150.5 239.5t273.5 94.5q74 0 141.5 -31.5t103.5 -85.5l-141 -133q-22 40 -58 64t-77 24q-68 0 -124 -48 t-71 -120q-15 -74 19.5 -122t101.5 -48q82 0 172 74l88 -119q-66 -59 -148 -93t-157 -34q-151 0 -228.5 96t-45.5 242z" />
<glyph unicode="&#xaa;" horiz-adv-x="813" d="M272 1137q44 199 318 202h168q6 37 -19.5 57.5t-81.5 20.5q-88 0 -225 -43l-24 180q208 64 358 64q153 0 225.5 -64t46.5 -182l-92 -434h-274l16 76q-88 -88 -223 -88q-111 0 -162 57.5t-31 153.5zM543 1159q-13 -61 53 -61q69 0 121 55l14 61h-108q-33 0 -54.5 -14.5 t-25.5 -40.5z" />
<glyph unicode="&#xab;" horiz-adv-x="1077" d="M98 553l334 387h332l-299 -387l135 -389h-332zM596 553l332 387h334l-301 -387l137 -389h-334z" />
<glyph unicode="&#xac;" horiz-adv-x="1202" d="M199 639l55 260h1020l-133 -629h-295l78 369h-725z" />
<glyph unicode="&#xad;" horiz-adv-x="772" d="M213 502l53 258h559l-53 -258h-559z" />
<glyph unicode="&#xae;" horiz-adv-x="1464" d="M176.5 495q-9.5 103 11.5 218q30 140 112 268.5t194 223t253 150.5t285 56q115 0 214 -35.5t169 -99t116.5 -150.5t56.5 -190.5t-11 -218.5q-40 -187 -166 -348t-307 -256t-373 -95q-115 0 -214 36t-168.5 99.5t-116 151t-56 190.5zM375 713q-28 -138 13 -254.5 t142.5 -185t241.5 -68.5q142 0 274.5 69.5t224 187t120.5 255.5t-12.5 254.5t-143.5 185t-242 68.5q-141 0 -273 -69.5t-224 -187t-121 -255.5zM555 422l135 635h287q128 0 186 -58.5t35 -164.5q-30 -145 -151 -205l86 -207h-211l-50 172h-94l-37 -172h-186zM809 735h100 q43 0 71.5 23.5t37.5 66.5t-9 66.5t-61 23.5h-100z" />
<glyph unicode="&#xaf;" horiz-adv-x="716" d="M334 1286l57 273h594l-57 -273h-594z" />
<glyph unicode="&#xb0;" horiz-adv-x="796" d="M479 1436q22 101 109 173t188 72q102 0 159.5 -72t35.5 -173q-23 -101 -110.5 -172.5t-188.5 -71.5q-102 0 -159 71.5t-34 172.5zM635 1436q-9 -36 12 -62t58 -26t69 25.5t41 62.5q7 37 -14 63.5t-58 26.5t-68.5 -26.5t-39.5 -63.5z" />
<glyph unicode="&#xb1;" horiz-adv-x="1054" d="M59 -16l56 260h927l-55 -260h-928zM213 709l53 247h336l68 320h258l-68 -320h334l-53 -247h-334l-68 -320h-258l68 320h-336z" />
<glyph unicode="&#xb2;" horiz-adv-x="802" d="M182 575l37 175l381 311q80 70 92 115q4 23 -10.5 35t-46.5 12q-104 0 -264 -111l-66 201q226 133 426 133q140 0 217.5 -64.5t55.5 -167.5q-29 -124 -236 -288l-170 -135h330l-47 -216h-699z" />
<glyph unicode="&#xb3;" horiz-adv-x="757" d="M147 678l160 211q70 -119 193 -119q99 0 114 78q9 39 -10.5 58.5t-68.5 19.5h-160l31 145l206 160h-303l43 201h631l-33 -156l-237 -180l37 -11q87 -20 128.5 -81t20.5 -156q-27 -126 -142 -205.5t-276 -79.5q-100 0 -191 31.5t-143 83.5z" />
<glyph unicode="&#xb4;" horiz-adv-x="716" d="M328 1219l297 368l333 -119l-327 -249h-303z" />
<glyph unicode="&#xb5;" horiz-adv-x="1409" d="M49 -397l322 1511h413l-125 -590q-17 -82 13.5 -130t99.5 -48q79 1 138 61t79 156l117 551h414l-236 -1114h-414l35 166q-149 -175 -360 -184l-82 -379h-414z" />
<glyph unicode="&#xb6;" horiz-adv-x="1368" d="M198 987.5q3 39.5 11 77.5q19 90 64.5 169t118 144.5t183.5 103.5t246 38h748l-369 -1737h-305l319 1507h-174l-319 -1507h-305l180 846h-49q-71 0 -128 15.5t-95 41t-65 61.5t-40.5 75t-18.5 82.5t-2 83z" />
<glyph unicode="&#xb7;" horiz-adv-x="520" d="M193 596q19 83 83.5 136.5t147.5 53.5q86 0 128 -53t23 -137q-19 -86 -83 -139.5t-150 -53.5q-84 0 -126 53.5t-23 139.5z" />
<glyph unicode="&#xb8;" horiz-adv-x="716" d="M29 -428l110 168q30 -41 82 -41q36 0 62 19.5t32 50.5q8 33 -11.5 52t-61.5 19q-26 0 -76 -8l143 201h228l-101 -137q59 -20 86 -65t15 -103q-22 -101 -110 -162.5t-212 -61.5q-46 0 -97 18.5t-89 49.5z" />
<glyph unicode="&#xb9;" horiz-adv-x="575" d="M272 1214l47 222h447l-184 -861h-289l137 639h-158z" />
<glyph unicode="&#xba;" horiz-adv-x="851" d="M301 1272q34 158 160.5 251t306.5 93t268 -93t54 -251q-32 -155 -159.5 -248.5t-307.5 -93.5t-267 93t-55 249zM584 1270q-12 -61 9.5 -97t72.5 -36q50 0 88.5 36.5t50.5 96.5q13 60 -9.5 96.5t-72.5 36.5q-51 0 -88 -36t-51 -97z" />
<glyph unicode="&#xbb;" horiz-adv-x="1081" d="M63 164l299 387l-135 389h332l170 -389l-334 -387h-332zM561 164l299 387l-135 389h332l170 -389l-334 -387h-332z" />
<glyph unicode="&#xbc;" horiz-adv-x="1867" d="M156 0l1314 1436h385l-1312 -1436h-387zM272 1214l47 222h447l-184 -861h-289l137 639h-158zM1077 168l39 182l373 508h276l-354 -493h131l37 167h268l-37 -167h115l-41 -197h-115l-34 -168h-269l35 168h-424z" />
<glyph unicode="&#xbd;" horiz-adv-x="1912" d="M156 0l1314 1436h385l-1312 -1436h-387zM272 1214l47 222h447l-184 -861h-289l137 639h-158zM1171 0l37 174l379 309q80 70 92 115q4 23 -10.5 35t-46.5 12q-104 0 -264 -108l-66 198q233 135 426 135q140 0 217.5 -64t55.5 -167q-29 -127 -236 -291l-170 -135h330 l-45 -213h-699z" />
<glyph unicode="&#xbe;" horiz-adv-x="1988" d="M147 678l160 211q70 -119 193 -119q99 0 114 78q9 39 -10.5 58.5t-68.5 19.5h-160l31 145l206 160h-303l43 201h631l-33 -156l-237 -180l37 -11q87 -20 128.5 -81t20.5 -156q-27 -126 -142 -205.5t-276 -79.5q-100 0 -191 31.5t-143 83.5zM276 0l1315 1436h385 l-1312 -1436h-388zM1198 168l39 182l373 508h276l-354 -493h131l37 167h268l-37 -167h115l-41 -197h-115l-35 -168h-268l35 168h-424z" />
<glyph unicode="&#xbf;" horiz-adv-x="995" d="M51 31q13 61 41 115t64 93t76.5 75t81 68.5t75 65.5t60.5 74.5t36 87.5h308q-13 -63 -37.5 -116t-53.5 -90t-61.5 -69.5t-63.5 -59.5t-58 -53t-47 -58t-28 -68q-21 -106 95 -106q66 0 108 42.5t64 131.5l315 -2q-51 -235 -208 -366.5t-386 -131.5q-216 0 -317.5 96.5 t-63.5 270.5zM520 936q19 86 84.5 140t151.5 54q85 0 127.5 -54t23.5 -140q-19 -85 -84 -139t-149 -54q-86 0 -129.5 54t-24.5 139z" />
<glyph unicode="&#xc0;" horiz-adv-x="1609" d="M-16 0l917 1436h438l287 -1436h-455l-36 229h-580l-133 -229h-438zM741 541h349l-74 469zM815 1790l385 119l139 -369h-303z" />
<glyph unicode="&#xc1;" horiz-adv-x="1609" d="M-16 0l917 1436h438l287 -1436h-455l-36 229h-580l-133 -229h-438zM741 541h349l-74 469zM932 1540l299 369l332 -119l-328 -250h-303z" />
<glyph unicode="&#xc2;" horiz-adv-x="1609" d="M-16 0l917 1436h438l287 -1436h-455l-36 229h-580l-133 -229h-438zM739 1567l308 321h319l172 -321h-285l-77 170l-152 -170h-285zM741 541h349l-74 469z" />
<glyph unicode="&#xc3;" horiz-adv-x="1609" d="M-16 0l917 1436h438l287 -1436h-455l-36 229h-580l-133 -229h-438zM741 541h349l-74 469zM760 1585q38 178 112.5 264t190.5 86q42 0 78 -13.5t56 -30.5t41.5 -30.5t37.5 -13.5q56 0 74 82h249q-38 -178 -112.5 -264t-190.5 -86q-43 0 -79 13.5t-55.5 30.5t-40.5 30.5 t-38 13.5q-53 0 -71 -82h-252z" />
<glyph unicode="&#xc4;" horiz-adv-x="1609" d="M-16 0l917 1436h438l287 -1436h-455l-36 229h-580l-133 -229h-438zM741 541h349l-74 469zM795 1747q15 76 75.5 125t137.5 49q76 0 115 -48.5t24 -125.5q-17 -77 -77 -126.5t-136 -49.5q-77 0 -116.5 50t-22.5 126zM1208 1747q15 76 75.5 125t137.5 49t116 -49t24 -125 q-17 -77 -77 -126.5t-136 -49.5q-77 0 -117 50t-23 126z" />
<glyph unicode="&#xc5;" horiz-adv-x="1609" d="M-16 0l905 1417q-29 70 -12 148q23 112 117.5 190t207.5 78q114 0 175 -77.5t38 -190.5q-18 -81 -74 -146l285 -1419h-455l-36 229h-580l-133 -229h-438zM741 541h349l-74 469zM1047 1565q-9 -41 13.5 -69t63.5 -28t75.5 28t43.5 69t-13.5 68.5t-64.5 27.5 q-41 0 -75 -27.5t-43 -68.5z" />
<glyph unicode="&#xc6;" horiz-adv-x="2308" d="M-16 0l1112 1436h1413l-72 -328h-747l-48 -225h678l-69 -328h-678l-47 -227h768l-70 -328h-1194l57 272h-464l-197 -272h-442zM846 580h307l113 530h-37z" />
<glyph unicode="&#xc7;" horiz-adv-x="1413" d="M190 721q44 206 179.5 372.5t332.5 260.5t416 94q163 0 309.5 -68.5t229.5 -185.5l-307 -291q-50 87 -131 139t-170 52q-146 0 -266 -105.5t-154 -263.5t41 -264.5t221 -106.5q83 0 185 45.5t192 120.5l190 -262q-118 -104 -263.5 -174t-287.5 -92l-69 -96 q59 -20 85.5 -65t14.5 -103q-22 -101 -110 -162.5t-212 -61.5q-46 0 -97 18.5t-89 49.5l111 168q30 -41 82 -41q36 0 62 19.5t32 50.5q8 33 -12 52t-62 19q-26 0 -76 -8l111 158q-275 37 -412 239.5t-76 491.5z" />
<glyph unicode="&#xc8;" horiz-adv-x="1398" d="M121 0l305 1436h1173l-71 -328h-748l-47 -225h678l-70 -328h-677l-48 -227h768l-69 -328h-1194zM721 1790l385 119l139 -369h-303z" />
<glyph unicode="&#xc9;" horiz-adv-x="1398" d="M121 0l305 1436h1173l-71 -328h-748l-47 -225h678l-70 -328h-677l-48 -227h768l-69 -328h-1194zM838 1540l299 369l331 -119l-327 -250h-303z" />
<glyph unicode="&#xca;" horiz-adv-x="1398" d="M121 0l305 1436h1173l-71 -328h-748l-47 -225h678l-70 -328h-677l-48 -227h768l-69 -328h-1194zM643 1569l309 321h320l170 -321h-285l-78 170l-151 -170h-285z" />
<glyph unicode="&#xcb;" horiz-adv-x="1398" d="M121 0l305 1436h1173l-71 -328h-748l-47 -225h678l-70 -328h-677l-48 -227h768l-69 -328h-1194zM698 1747q15 76 75.5 125t137.5 49t116 -49t24 -125q-17 -77 -77 -126.5t-136 -49.5q-77 0 -117 50t-23 126zM1112 1747q15 76 75.5 125t137.5 49q76 0 115 -48.5t24 -125.5 q-17 -77 -77 -126.5t-136 -49.5q-77 0 -116.5 50t-22.5 126z" />
<glyph unicode="&#xcc;" horiz-adv-x="667" d="M121 0l305 1436h426l-305 -1436h-426zM342 1790l385 119l139 -369h-303z" />
<glyph unicode="&#xcd;" horiz-adv-x="667" d="M121 0l305 1436h426l-305 -1436h-426zM459 1540l299 369l332 -119l-328 -250h-303z" />
<glyph unicode="&#xce;" horiz-adv-x="667" d="M121 0l305 1436h426l-305 -1436h-426zM266 1567l307 321h320l172 -321h-285l-78 170l-151 -170h-285z" />
<glyph unicode="&#xcf;" horiz-adv-x="667" d="M121 0l305 1436h426l-305 -1436h-426zM322 1747q15 76 75.5 125t137.5 49q76 0 115 -48.5t24 -125.5q-17 -77 -77 -126.5t-136 -49.5q-77 0 -116.5 50t-22.5 126zM735 1747q15 76 75.5 125t137.5 49q76 0 115 -48.5t24 -125.5q-17 -77 -77 -126.5t-136 -49.5 q-77 0 -116.5 50t-22.5 126z" />
<glyph unicode="&#xd0;" horiz-adv-x="1640" d="M129 608l47 221h199l129 607h631q347 0 517 -196.5t101 -520.5q-46 -214 -178 -377.5t-330 -252.5t-432 -89h-614l129 608h-199zM694 334h215q146 0 258.5 105t149.5 276q37 173 -36.5 279t-227.5 106h-195l-57 -271h284l-47 -221h-284z" />
<glyph unicode="&#xd1;" horiz-adv-x="1603" d="M121 0l305 1436h365l436 -803l172 803h389l-305 -1436h-363l-440 799l-168 -799h-391zM756 1585q38 178 112.5 264t190.5 86q42 0 78 -13.5t56 -30.5t41.5 -30.5t37.5 -13.5q56 0 74 82h249q-38 -178 -112.5 -264t-190.5 -86q-43 0 -79 13.5t-55.5 30.5t-40.5 30.5 t-38 13.5q-53 0 -71 -82h-252z" />
<glyph unicode="&#xd2;" horiz-adv-x="1642" d="M186.5 425q-32.5 135 3.5 294q33 156 121.5 291.5t212 231.5t280.5 151t324 55t301 -55t215.5 -152t114 -231t-3.5 -291q-33 -156 -121.5 -293t-212 -234.5t-280.5 -153.5t-324 -56t-301 55.5t-215.5 154t-114 233.5zM627 717q-23 -106 7 -193.5t101 -136.5t164 -49 q142 0 263.5 108.5t156.5 270.5q33 161 -42.5 268t-217.5 107q-145 0 -272 -107.5t-160 -267.5zM813 1790l385 119l139 -369h-303z" />
<glyph unicode="&#xd3;" horiz-adv-x="1642" d="M186.5 425q-32.5 135 3.5 294q33 156 121.5 291.5t212 231.5t280.5 151t324 55t301 -55t215.5 -152t114 -231t-3.5 -291q-33 -156 -121.5 -293t-212 -234.5t-280.5 -153.5t-324 -56t-301 55.5t-215.5 154t-114 233.5zM627 717q-23 -106 7 -193.5t101 -136.5t164 -49 q142 0 263.5 108.5t156.5 270.5q33 161 -42.5 268t-217.5 107q-145 0 -272 -107.5t-160 -267.5zM930 1540l299 369l332 -119l-328 -250h-303z" />
<glyph unicode="&#xd4;" horiz-adv-x="1642" d="M186.5 425q-32.5 135 3.5 294q33 156 121.5 291.5t212 231.5t280.5 151t324 55t301 -55t215.5 -152t114 -231t-3.5 -291q-33 -156 -121.5 -293t-212 -234.5t-280.5 -153.5t-324 -56t-301 55.5t-215.5 154t-114 233.5zM627 717q-23 -106 7 -193.5t101 -136.5t164 -49 q142 0 263.5 108.5t156.5 270.5q33 161 -42.5 268t-217.5 107q-145 0 -272 -107.5t-160 -267.5zM735 1569l309 321h320l170 -321h-285l-78 170l-151 -170h-285z" />
<glyph unicode="&#xd5;" horiz-adv-x="1642" d="M186.5 425q-32.5 135 3.5 294q33 156 121.5 291.5t212 231.5t280.5 151t324 55t301 -55t215.5 -152t114 -231t-3.5 -291q-33 -156 -121.5 -293t-212 -234.5t-280.5 -153.5t-324 -56t-301 55.5t-215.5 154t-114 233.5zM627 717q-23 -106 7 -193.5t101 -136.5t164 -49 q142 0 263.5 108.5t156.5 270.5q33 161 -42.5 268t-217.5 107q-145 0 -272 -107.5t-160 -267.5zM756 1585q38 178 112.5 264t190.5 86q42 0 78 -13.5t56 -30.5t41.5 -30.5t37.5 -13.5q56 0 74 82h249q-38 -178 -112.5 -264t-190.5 -86q-43 0 -79 13.5t-55.5 30.5t-40.5 30.5 t-38 13.5q-53 0 -71 -82h-252z" />
<glyph unicode="&#xd6;" horiz-adv-x="1642" d="M186.5 425q-32.5 135 3.5 294q33 156 121.5 291.5t212 231.5t280.5 151t324 55t301 -55t215.5 -152t114 -231t-3.5 -291q-33 -156 -121.5 -293t-212 -234.5t-280.5 -153.5t-324 -56t-301 55.5t-215.5 154t-114 233.5zM627 717q-23 -106 7 -193.5t101 -136.5t164 -49 q142 0 263.5 108.5t156.5 270.5q33 161 -42.5 268t-217.5 107q-145 0 -272 -107.5t-160 -267.5zM791 1747q15 76 75.5 125t137.5 49q76 0 115 -48.5t24 -125.5q-17 -77 -77 -126.5t-136 -49.5q-77 0 -116.5 50t-22.5 126zM1204 1747q15 76 75.5 125t137.5 49q76 0 115 -48.5 t24 -125.5q-17 -77 -77 -126.5t-136 -49.5q-77 0 -116.5 50t-22.5 126z" />
<glyph unicode="&#xd7;" horiz-adv-x="1054" d="M201 436l284 236l-184 235l221 185l187 -236l286 236l146 -185l-287 -235l186 -236l-223 -184l-186 235l-287 -235z" />
<glyph unicode="&#xd8;" horiz-adv-x="1642" d="M190 719q33 156 121.5 291.5t212 231.5t280.5 151t324 55q43 0 129 -8l121 211h236l-154 -271q183 -88 263.5 -262.5t31.5 -398.5q-33 -156 -121.5 -293t-212 -234.5t-280.5 -153.5t-324 -56q-77 0 -145 12l-125 -217h-236l160 280q-174 91 -251 266t-30 396zM627 717 q-37 -173 57 -285l375 660q-145 0 -272 -107.5t-160 -267.5zM868 340l31 -2q142 0 263.5 108.5t156.5 270.5q19 96 1 171t-67 128z" />
<glyph unicode="&#xd9;" horiz-adv-x="1546" d="M225 606l178 830h426l-178 -830q-26 -122 32.5 -195t168.5 -73q108 0 189.5 72t107.5 196l178 830h426l-178 -830q-60 -286 -277 -455t-524 -169q-310 0 -459.5 169.5t-89.5 454.5zM784 1790l385 119l140 -369h-303z" />
<glyph unicode="&#xda;" horiz-adv-x="1546" d="M225 606l178 830h426l-178 -830q-26 -122 32.5 -195t168.5 -73q108 0 189.5 72t107.5 196l178 830h426l-178 -830q-60 -286 -277 -455t-524 -169q-310 0 -459.5 169.5t-89.5 454.5zM901 1540l299 369l332 -119l-328 -250h-303z" />
<glyph unicode="&#xdb;" horiz-adv-x="1546" d="M225 606l178 830h426l-178 -830q-26 -122 32.5 -195t168.5 -73q108 0 189.5 72t107.5 196l178 830h426l-178 -830q-60 -286 -277 -455t-524 -169q-310 0 -459.5 169.5t-89.5 454.5zM707 1567l307 321h319l172 -321h-284l-78 170l-152 -170h-284z" />
<glyph unicode="&#xdc;" horiz-adv-x="1546" d="M225 606l178 830h426l-178 -830q-26 -122 32.5 -195t168.5 -73q108 0 189.5 72t107.5 196l178 830h426l-178 -830q-60 -286 -277 -455t-524 -169q-310 0 -459.5 169.5t-89.5 454.5zM762 1747q15 76 75.5 125t137.5 49q76 0 115 -48.5t24 -125.5q-17 -77 -77 -126.5 t-136 -49.5q-77 0 -116.5 50t-22.5 126zM1176 1747q15 76 75.5 125t137.5 49q76 0 115 -48.5t24 -125.5q-17 -77 -77 -126.5t-136 -49.5q-77 0 -116.5 50t-22.5 126z" />
<glyph unicode="&#xdd;" horiz-adv-x="1437" d="M289 1436h426l188 -586l430 586h424l-725 -981l-96 -455h-426l94 446zM846 1540l299 369l332 -119l-328 -250h-303z" />
<glyph unicode="&#xde;" horiz-adv-x="1421" d="M121 0l305 1436h426l-39 -183h225q280 0 414.5 -134.5t85.5 -366.5q-54 -246 -247.5 -389.5t-473.5 -143.5h-225l-45 -219h-426zM662 543h206q88 0 148 52t80 144q19 88 -20 138.5t-126 50.5h-207z" />
<glyph unicode="&#xdf;" horiz-adv-x="1366" d="M98 0l215 1012q51 241 236 383.5t446 142.5q252 0 379.5 -113.5t87.5 -302.5q-22 -100 -89 -191t-159 -145q112 -37 164.5 -129.5t26.5 -214.5q-41 -200 -226 -321t-450 -121h-98l61 291h64q214 0 250 158q17 76 -32.5 113.5t-164.5 37.5h-43l61 291q184 0 222 170 q35 170 -115 170q-160 0 -201 -189l-221 -1042h-414z" />
<glyph unicode="&#xe0;" d="M111 332q34 161 162.5 248t338.5 90h273v4q15 70 -25.5 108.5t-134.5 38.5q-150 0 -354 -80l-43 275q307 114 561 114q235 0 344.5 -107t69.5 -300l-154 -723h-406l25 123q-135 -141 -354 -141q-176 0 -256.5 95.5t-46.5 254.5zM506 362q-11 -53 15.5 -81.5t86.5 -28.5 q63 0 120.5 31t92.5 84l21 100h-189q-126 0 -147 -105zM565 1468l383 119l142 -368h-304z" />
<glyph unicode="&#xe1;" d="M111 332q34 161 162.5 248t338.5 90h273v4q15 70 -25.5 108.5t-134.5 38.5q-150 0 -354 -80l-43 275q307 114 561 114q235 0 344.5 -107t69.5 -300l-154 -723h-406l25 123q-135 -141 -354 -141q-176 0 -256.5 95.5t-46.5 254.5zM506 362q-11 -53 15.5 -81.5t86.5 -28.5 q63 0 120.5 31t92.5 84l21 100h-189q-126 0 -147 -105zM682 1219l297 368l334 -119l-328 -249h-303z" />
<glyph unicode="&#xe2;" d="M111 332q34 161 162.5 248t338.5 90h273v4q15 70 -25.5 108.5t-134.5 38.5q-150 0 -354 -80l-43 275q307 114 561 114q235 0 344.5 -107t69.5 -300l-154 -723h-406l25 123q-135 -141 -354 -141q-176 0 -256.5 95.5t-46.5 254.5zM487 1245l308 322h319l172 -322h-285 l-79 170l-150 -170h-285zM506 362q-11 -53 15.5 -81.5t86.5 -28.5q63 0 120.5 31t92.5 84l21 100h-189q-126 0 -147 -105z" />
<glyph unicode="&#xe3;" d="M111 332q34 161 162.5 248t338.5 90h273v4q15 70 -25.5 108.5t-134.5 38.5q-150 0 -354 -80l-43 275q307 114 561 114q235 0 344.5 -107t69.5 -300l-154 -723h-406l25 123q-135 -141 -354 -141q-176 0 -256.5 95.5t-46.5 254.5zM506 362q-11 -53 15.5 -81.5t86.5 -28.5 q63 0 120.5 31t92.5 84l21 100h-189q-126 0 -147 -105zM508 1264q72 350 303 350q42 0 78 -14t56 -30t41.5 -30t37.5 -14q57 0 72 82h250q-72 -351 -302 -351q-55 0 -97 22.5t-70 44.5t-48 22q-54 0 -69 -82h-252z" />
<glyph unicode="&#xe4;" d="M111 332q34 161 162.5 248t338.5 90h273v4q15 70 -25.5 108.5t-134.5 38.5q-150 0 -354 -80l-43 275q307 114 561 114q235 0 344.5 -107t69.5 -300l-154 -723h-406l25 123q-135 -141 -354 -141q-176 0 -256.5 95.5t-46.5 254.5zM506 362q-11 -53 15.5 -81.5t86.5 -28.5 q63 0 120.5 31t92.5 84l21 100h-189q-126 0 -147 -105zM541 1425q17 76 77.5 125t137.5 49t115.5 -49t21.5 -125q-15 -76 -75.5 -126t-137.5 -50q-76 0 -115 49.5t-24 126.5zM954 1425q17 76 77.5 125t137.5 49t116 -49t22 -125q-15 -76 -75.5 -126t-137.5 -50 q-76 0 -115.5 49.5t-24.5 126.5z" />
<glyph unicode="&#xe5;" d="M111 332q34 161 162.5 248t338.5 90h273v4q15 70 -25.5 108.5t-134.5 38.5q-150 0 -354 -80l-43 275q307 114 561 114q235 0 344.5 -107t69.5 -300l-154 -723h-406l25 123q-135 -141 -354 -141q-176 0 -256.5 95.5t-46.5 254.5zM506 362q-11 -53 15.5 -81.5t86.5 -28.5 q63 0 120.5 31t92.5 84l21 100h-189q-126 0 -147 -105zM674 1432q23 104 112 176.5t193 72.5q105 0 163.5 -72.5t35.5 -176.5q-22 -104 -111.5 -177t-194.5 -73q-104 0 -162 73t-36 177zM834 1432q-8 -38 13.5 -65.5t59.5 -27.5t70.5 27.5t40.5 65.5t-13 65t-59 27 t-71.5 -27t-40.5 -65z" />
<glyph unicode="&#xe6;" horiz-adv-x="1968" d="M111 330q34 161 162.5 246t338.5 88h275l2 10q15 70 -25.5 108.5t-134.5 38.5q-152 0 -367 -80l-34 277q313 112 563 112q232 0 340 -102q152 100 352 100q188 0 308 -83t153.5 -230t-16.5 -350h-760q4 -84 52.5 -129t131.5 -45q134 0 268 106l170 -211 q-225 -200 -540 -200q-156 0 -258.5 56t-147.5 161q-185 -223 -498 -223q-190 0 -279.5 96t-55.5 254zM506 362q-11 -54 15.5 -85t86.5 -31q128 0 217 114l23 109h-191q-62 0 -101.5 -27.5t-49.5 -79.5zM1303 659h352q20 83 -16.5 137t-112.5 54q-70 0 -129 -52t-94 -139z " />
<glyph unicode="&#xe7;" horiz-adv-x="1150" d="M156 553q56 260 249 417.5t457 157.5q175 0 293 -76t158 -214l-350 -156q-36 111 -154 111q-83 0 -148 -66t-88 -172q-23 -109 14 -175.5t120 -66.5q124 0 202 123l287 -162q-76 -113 -192 -183.5t-259 -94.5l-73 -100q59 -20 85.5 -65t14.5 -103q-22 -101 -109.5 -162.5 t-211.5 -61.5q-46 0 -97.5 18.5t-89.5 49.5l111 168q30 -41 82 -41q36 0 62 19.5t32 50.5q8 33 -12 52t-62 19q-26 0 -76 -8l115 160q-214 29 -311.5 180t-48.5 381z" />
<glyph unicode="&#xe8;" horiz-adv-x="1247" d="M156 553q55 260 250 417.5t460 157.5q291 0 406 -180.5t31 -490.5h-750q7 -79 54.5 -122.5t127.5 -43.5q132 0 269 106l170 -211q-225 -200 -539 -200q-278 0 -406.5 154.5t-72.5 412.5zM561 1468l383 119l141 -368h-303zM588 659h350q19 83 -17.5 136t-111.5 53 q-70 0 -128 -51t-93 -138z" />
<glyph unicode="&#xe9;" horiz-adv-x="1247" d="M156 553q55 260 250 417.5t460 157.5q291 0 406 -180.5t31 -490.5h-750q7 -79 54.5 -122.5t127.5 -43.5q132 0 269 106l170 -211q-225 -200 -539 -200q-278 0 -406.5 154.5t-72.5 412.5zM588 659h350q19 83 -17.5 136t-111.5 53q-70 0 -128 -51t-93 -138zM678 1219 l297 368l334 -119l-328 -249h-303z" />
<glyph unicode="&#xea;" horiz-adv-x="1247" d="M156 553q55 260 250 417.5t460 157.5q291 0 406 -180.5t31 -490.5h-750q7 -79 54.5 -122.5t127.5 -43.5q132 0 269 106l170 -211q-225 -200 -539 -200q-278 0 -406.5 154.5t-72.5 412.5zM483 1245l308 322h319l172 -322h-285l-79 170l-150 -170h-285zM588 659h350 q19 83 -17.5 136t-111.5 53q-70 0 -128 -51t-93 -138z" />
<glyph unicode="&#xeb;" horiz-adv-x="1247" d="M156 553q55 260 250 417.5t460 157.5q291 0 406 -180.5t31 -490.5h-750q7 -79 54.5 -122.5t127.5 -43.5q132 0 269 106l170 -211q-225 -200 -539 -200q-278 0 -406.5 154.5t-72.5 412.5zM537 1425q17 76 77.5 125t137.5 49t115.5 -49t21.5 -125q-15 -76 -75.5 -126 t-137.5 -50q-76 0 -115 49.5t-24 126.5zM588 659h350q19 83 -17.5 136t-111.5 53q-70 0 -128 -51t-93 -138zM950 1425q17 76 77.5 125t137.5 49t116 -49t22 -125q-15 -76 -75.5 -126t-137.5 -50q-76 0 -115.5 49.5t-24.5 126.5z" />
<glyph unicode="&#xec;" horiz-adv-x="663" d="M125 0l235 1114h414l-235 -1114h-414zM274 1468l383 119l142 -368h-303z" />
<glyph unicode="&#xed;" horiz-adv-x="663" d="M125 0l235 1114h414l-235 -1114h-414zM391 1219l297 368l334 -119l-328 -249h-303z" />
<glyph unicode="&#xee;" horiz-adv-x="663" d="M125 0l235 1114h414l-235 -1114h-414zM199 1245l307 322h319l172 -322h-284l-80 170l-150 -170h-284z" />
<glyph unicode="&#xef;" horiz-adv-x="663" d="M125 0l235 1114h414l-235 -1114h-414zM252 1425q17 76 77.5 125t137.5 49t115.5 -49t21.5 -125q-15 -76 -75.5 -126t-137.5 -50q-76 0 -115 49.5t-24 126.5zM666 1425q17 76 77.5 125t137.5 49t115.5 -49t21.5 -125q-15 -76 -75.5 -126t-137.5 -50q-76 0 -115 49.5 t-24 126.5z" />
<glyph unicode="&#xf0;" horiz-adv-x="1251" d="M129 463q43 205 196 328.5t365 123.5q92 0 170.5 -27t118.5 -73q-21 135 -125 266l-373 -118l-22 186l248 80q-101 81 -228 143l312 166q182 -72 305 -186l325 104l21 -188l-213 -68q87 -129 115.5 -280.5t-5.5 -317.5q-60 -283 -267 -451.5t-494 -168.5 q-252 0 -374 130.5t-75 350.5zM528 483q-17 -73 21 -117t115 -44q80 0 135.5 43t70.5 116q15 72 -22.5 116t-116.5 44q-78 0 -133 -43t-70 -115z" />
<glyph unicode="&#xf1;" horiz-adv-x="1388" d="M125 0l235 1114h414l-37 -172q159 188 396 188q180 0 266 -115.5t45 -307.5l-150 -707h-413l125 588q17 83 -16.5 131.5t-106.5 48.5q-84 -1 -146 -61t-82 -156l-116 -551h-414zM616 1264q72 350 304 350q42 0 78 -14t56 -30t41.5 -30t37.5 -14q56 0 71 82h250 q-37 -178 -111 -264.5t-190 -86.5q-55 0 -97 22.5t-70 44.5t-48 22q-55 0 -70 -82h-252z" />
<glyph unicode="&#xf2;" horiz-adv-x="1316" d="M156 557q55 259 258.5 415t484.5 156t416.5 -155.5t79.5 -415.5q-54 -258 -256.5 -414.5t-483.5 -156.5t-417 156.5t-82 414.5zM573 553q-25 -112 16.5 -180t133.5 -68q91 0 160 67.5t94 180.5q23 111 -17.5 179.5t-130.5 68.5q-92 0 -162.5 -68.5t-93.5 -179.5z M600 1468l383 119l141 -368h-303z" />
<glyph unicode="&#xf3;" horiz-adv-x="1316" d="M156 557q55 259 258.5 415t484.5 156t416.5 -155.5t79.5 -415.5q-54 -258 -256.5 -414.5t-483.5 -156.5t-417 156.5t-82 414.5zM573 553q-25 -112 16.5 -180t133.5 -68q91 0 160 67.5t94 180.5q23 111 -17.5 179.5t-130.5 68.5q-92 0 -162.5 -68.5t-93.5 -179.5z M717 1219l297 368l334 -119l-328 -249h-303z" />
<glyph unicode="&#xf4;" horiz-adv-x="1316" d="M156 557q55 259 258.5 415t484.5 156t416.5 -155.5t79.5 -415.5q-54 -258 -256.5 -414.5t-483.5 -156.5t-417 156.5t-82 414.5zM524 1245l307 322h320l172 -322h-285l-80 170l-149 -170h-285zM573 553q-25 -112 16.5 -180t133.5 -68q91 0 160 67.5t94 180.5 q23 111 -17.5 179.5t-130.5 68.5q-92 0 -162.5 -68.5t-93.5 -179.5z" />
<glyph unicode="&#xf5;" horiz-adv-x="1316" d="M156 557q55 259 258.5 415t484.5 156t416.5 -155.5t79.5 -415.5q-54 -258 -256.5 -414.5t-483.5 -156.5t-417 156.5t-82 414.5zM545 1264q72 350 303 350q42 0 78 -14t56 -30t41.5 -30t37.5 -14q57 0 72 82h249q-37 -178 -111 -264.5t-190 -86.5q-55 0 -97 22.5t-70 44.5 t-48 22q-54 0 -69 -82h-252zM573 553q-25 -112 16.5 -180t133.5 -68q91 0 160 67.5t94 180.5q23 111 -17.5 179.5t-130.5 68.5q-92 0 -162.5 -68.5t-93.5 -179.5z" />
<glyph unicode="&#xf6;" horiz-adv-x="1316" d="M156 557q55 259 258.5 415t484.5 156t416.5 -155.5t79.5 -415.5q-54 -258 -256.5 -414.5t-483.5 -156.5t-417 156.5t-82 414.5zM573 553q-25 -112 16.5 -180t133.5 -68q91 0 160 67.5t94 180.5q23 111 -17.5 179.5t-130.5 68.5q-92 0 -162.5 -68.5t-93.5 -179.5z M578 1425q17 76 77.5 125t137.5 49t115.5 -49t21.5 -125q-15 -76 -75.5 -126t-137.5 -50q-76 0 -115 49.5t-24 126.5zM991 1425q17 76 77.5 125t137.5 49t115.5 -49t21.5 -125q-15 -76 -75.5 -126t-137.5 -50q-76 0 -115 49.5t-24 126.5z" />
<glyph unicode="&#xf7;" horiz-adv-x="1054" d="M178 543l55 258h928l-55 -258h-928zM399 305q17 77 76 125.5t135 48.5q78 0 117.5 -49t22.5 -125q-15 -77 -75 -126.5t-138 -49.5q-76 0 -114.5 49.5t-23.5 126.5zM555 1040q17 77 77 125.5t136 48.5q78 0 116 -48.5t21 -125.5q-15 -78 -75 -127t-138 -49q-76 0 -114 49 t-23 127z" />
<glyph unicode="&#xf8;" horiz-adv-x="1316" d="M156 557q55 259 258.5 415t484.5 156q53 0 102 -6l140 258h164l-160 -293q158 -60 224.5 -199t25.5 -331q-54 -258 -256.5 -414.5t-483.5 -156.5q-53 0 -100 6l-149 -279h-164l168 314q-158 61 -225.5 199.5t-28.5 330.5zM547 553q-31 -147 28 -221l271 502h-10 q-104 0 -182.5 -76.5t-106.5 -204.5zM707 270h10q103 0 182 77t107 206q30 141 -29 219z" />
<glyph unicode="&#xf9;" horiz-adv-x="1368" d="M180 408l150 706h413l-125 -590q-17 -82 13 -130t98 -48q81 1 139.5 60.5t79.5 156.5l117 551h414l-236 -1114h-414l35 166q-158 -184 -381 -184q-176 0 -260 116t-43 310zM614 1468l383 119l142 -368h-303z" />
<glyph unicode="&#xfa;" horiz-adv-x="1368" d="M180 408l150 706h413l-125 -590q-17 -82 13 -130t98 -48q81 1 139.5 60.5t79.5 156.5l117 551h414l-236 -1114h-414l35 166q-158 -184 -381 -184q-176 0 -260 116t-43 310zM731 1219l297 368l334 -119l-328 -249h-303z" />
<glyph unicode="&#xfb;" horiz-adv-x="1368" d="M180 408l150 706h413l-125 -590q-17 -82 13 -130t98 -48q81 1 139.5 60.5t79.5 156.5l117 551h414l-236 -1114h-414l35 166q-158 -184 -381 -184q-176 0 -260 116t-43 310zM539 1245l307 322h319l172 -322h-284l-80 170l-150 -170h-284z" />
<glyph unicode="&#xfc;" horiz-adv-x="1368" d="M180 408l150 706h413l-125 -590q-17 -82 13 -130t98 -48q81 1 139.5 60.5t79.5 156.5l117 551h414l-236 -1114h-414l35 166q-158 -184 -381 -184q-176 0 -260 116t-43 310zM592 1425q17 76 77.5 125t137.5 49t115.5 -49t21.5 -125q-15 -76 -75.5 -126t-137.5 -50 q-76 0 -115 49.5t-24 126.5zM1006 1425q17 76 77.5 125t137.5 49t115.5 -49t21.5 -125q-15 -76 -75.5 -126t-137.5 -50q-76 0 -115 49.5t-24 126.5z" />
<glyph unicode="&#xfd;" horiz-adv-x="1239" d="M-94 -293l229 277q58 -64 135 -64q87 0 138 72l28 39l-231 1083h424l98 -682l352 682h412l-723 -1208q-198 -322 -532 -322q-195 0 -330 123zM678 1219l297 368l334 -119l-328 -249h-303z" />
<glyph unicode="&#xfe;" horiz-adv-x="1409" d="M49 -397l408 1917h413l-112 -535q143 143 336 143q233 0 340.5 -158t52.5 -419q-56 -257 -226.5 -411t-400.5 -154q-200 0 -285 143l-112 -526h-414zM668 561q-25 -110 16.5 -179t130.5 -69q91 0 161 68.5t95 179.5q23 111 -18 179.5t-133 68.5q-89 0 -159 -69t-93 -179z " />
<glyph unicode="&#xff;" horiz-adv-x="1239" d="M-94 -293l229 277q58 -64 135 -64q87 0 138 72l28 39l-231 1083h424l98 -682l352 682h412l-723 -1208q-198 -322 -532 -322q-195 0 -330 123zM539 1425q17 76 77.5 125t137.5 49t115.5 -49t21.5 -125q-15 -76 -75.5 -126t-137.5 -50q-76 0 -115 49.5t-24 126.5zM952 1425 q17 76 77.5 125t137.5 49t116 -49t22 -125q-15 -76 -75.5 -126t-137.5 -50q-76 0 -115.5 49.5t-24.5 126.5z" />
<glyph unicode="&#x152;" horiz-adv-x="2295" d="M188.5 429q-33.5 131 1.5 286q42 203 178 368t335 259t421 94h1373l-72 -328h-748l-47 -225h678l-70 -328h-677l-48 -227h768l-69 -328h-1393q-165 0 -299 53.5t-216 149t-115.5 226.5zM625 713q-34 -161 42 -267t224 -106l199 2l159 748h-198q-148 0 -269.5 -107 t-156.5 -270z" />
<glyph unicode="&#x153;" horiz-adv-x="2064" d="M156 557q55 259 258.5 415t484.5 156q255 0 365 -163q166 163 411 163q285 0 406 -180.5t41 -482.5h-766q6 -84 55 -129t133 -45q134 0 271 106l170 -211q-225 -200 -543 -200q-259 0 -355 161q-178 -161 -432 -161q-281 0 -417 156.5t-82 414.5zM573 553 q-25 -112 16.5 -180t133.5 -68q91 0 160 67.5t94 180.5q23 111 -17.5 179.5t-130.5 68.5q-92 0 -162.5 -68.5t-93.5 -179.5zM1391 659h358q20 83 -16.5 137t-112.5 54q-73 0 -133.5 -52t-95.5 -139z" />
<glyph unicode="&#x178;" horiz-adv-x="1437" d="M289 1436h426l188 -586l430 586h424l-725 -981l-96 -455h-426l94 446zM707 1747q15 76 75.5 125t137.5 49q76 0 115 -48.5t24 -125.5q-17 -77 -77 -126.5t-136 -49.5q-77 0 -116.5 50t-22.5 126zM1120 1747q15 76 75.5 125t137.5 49t116 -49t24 -125q-17 -77 -77 -126.5 t-136 -49.5q-77 0 -117 50t-23 126z" />
<glyph unicode="&#x2c6;" horiz-adv-x="716" d="M223 1247l307 322h320l172 -322h-285l-78 170l-151 -170h-285z" />
<glyph unicode="&#x2dc;" horiz-adv-x="716" d="M244 1264q72 350 303 350q42 0 78 -14t56 -30t41.5 -30t37.5 -14q56 0 71 82h250q-37 -178 -111 -264.5t-190 -86.5q-55 0 -97 22.5t-70 44.5t-48 22q-54 0 -69 -82h-252z" />
<glyph unicode="&#x2000;" horiz-adv-x="967" />
<glyph unicode="&#x2001;" horiz-adv-x="1935" />
<glyph unicode="&#x2002;" horiz-adv-x="967" />
<glyph unicode="&#x2003;" horiz-adv-x="1935" />
<glyph unicode="&#x2004;" horiz-adv-x="645" />
<glyph unicode="&#x2005;" horiz-adv-x="483" />
<glyph unicode="&#x2006;" horiz-adv-x="322" />
<glyph unicode="&#x2007;" horiz-adv-x="322" />
<glyph unicode="&#x2008;" horiz-adv-x="241" />
<glyph unicode="&#x2009;" horiz-adv-x="387" />
<glyph unicode="&#x200a;" horiz-adv-x="107" />
<glyph unicode="&#x2010;" horiz-adv-x="772" d="M213 502l53 258h559l-53 -258h-559z" />
<glyph unicode="&#x2011;" horiz-adv-x="772" d="M213 502l53 258h559l-53 -258h-559z" />
<glyph unicode="&#x2012;" horiz-adv-x="772" d="M213 502l53 258h559l-53 -258h-559z" />
<glyph unicode="&#x2013;" horiz-adv-x="837" d="M92 434l55 260h838l-55 -260h-838z" />
<glyph unicode="&#x2014;" horiz-adv-x="1284" d="M92 434l55 260h1285l-56 -260h-1284z" />
<glyph unicode="&#x2018;" horiz-adv-x="520" d="M266 1047q16 80 84 151l217 240h193l-150 -240q60 -54 41 -149q-17 -84 -83.5 -138.5t-151.5 -54.5q-79 0 -124 51.5t-26 139.5z" />
<glyph unicode="&#x2019;" horiz-adv-x="520" d="M225 854l150 242q-63 54 -41 147q17 84 83.5 138.5t151.5 54.5q79 0 123.5 -51t26.5 -140q-16 -76 -84 -151l-217 -240h-193z" />
<glyph unicode="&#x201a;" horiz-adv-x="520" d="M0 -213l150 242q-64 52 -44 147q17 84 84 138.5t152 54.5q79 0 124 -51.5t26 -139.5q-16 -76 -84 -151l-218 -240h-190z" />
<glyph unicode="&#x201c;" horiz-adv-x="909" d="M266 1047q16 76 84 151l217 240h193l-152 -242q63 -51 43 -147q-17 -84 -83.5 -138.5t-151.5 -54.5q-79 0 -124 51.5t-26 139.5zM682 1047q16 76 84 151l217 240h193l-152 -242q63 -51 43 -147q-17 -84 -84 -138.5t-152 -54.5q-79 0 -123.5 51.5t-25.5 139.5z" />
<glyph unicode="&#x201d;" horiz-adv-x="925" d="M225 854l152 242q-63 51 -43 147q17 84 83.5 138.5t151.5 54.5q79 0 123.5 -51t26.5 -140q-16 -76 -84 -151l-217 -240h-193zM643 854l152 242q-63 51 -43 147q17 84 83.5 138.5t151.5 54.5q79 0 123.5 -51t26.5 -140q-16 -76 -84 -151l-217 -240h-193z" />
<glyph unicode="&#x201e;" horiz-adv-x="937" d="M0 -213l150 242q-64 52 -44 147q17 84 84 138.5t152 54.5q79 0 124 -51.5t26 -139.5q-16 -76 -84 -151l-218 -240h-190zM416 -213l151 242q-63 51 -43 147q17 84 84 138.5t152 54.5q79 0 123.5 -51.5t25.5 -139.5q-16 -76 -84 -151l-217 -240h-192z" />
<glyph unicode="&#x2022;" horiz-adv-x="716" d="M188 573q28 127 126.5 208t224.5 81q129 0 193 -80.5t36 -208.5q-28 -129 -125.5 -209.5t-226.5 -80.5q-127 0 -191.5 81t-36.5 209z" />
<glyph unicode="&#x2026;" horiz-adv-x="1466" d="M104 176q17 83 83 137t149 54q86 0 127 -53.5t24 -137.5q-19 -86 -83 -139t-150 -53q-84 0 -126.5 53t-23.5 139zM580 176q17 84 82 137.5t149 53.5t125.5 -53.5t24.5 -137.5q-19 -86 -83 -139t-149 -53t-126.5 53t-22.5 139zM1053 176q17 84 82 137.5t149 53.5 t125.5 -53.5t24.5 -137.5q-19 -86 -83 -139t-149 -53t-126.5 53t-22.5 139z" />
<glyph unicode="&#x202f;" horiz-adv-x="387" />
<glyph unicode="&#x2039;" horiz-adv-x="579" d="M98 553l334 387h332l-299 -387l135 -389h-332z" />
<glyph unicode="&#x203a;" horiz-adv-x="585" d="M63 164l302 387l-138 389h334l168 -389l-332 -387h-334z" />
<glyph unicode="&#x205f;" horiz-adv-x="483" />
<glyph unicode="&#x20ac;" horiz-adv-x="1591" d="M154 500l34 164h170q2 15 11 57q7 37 14 59h-170l35 162h201q121 228 351 367t498 139q162 0 309 -69t230 -185l-309 -291q-50 87 -131 139t-168 52q-88 0 -170.5 -40.5t-143.5 -111.5h435l-35 -162h-492q-2 -9 -7 -27.5t-7 -27.5q-8 -39 -10 -61h491l-35 -164h-430 q33 -69 96.5 -107.5t149.5 -38.5q83 0 185 45.5t190 120.5l192 -262q-143 -126 -323.5 -201t-343.5 -75q-264 0 -431.5 142.5t-187.5 375.5h-198z" />
<glyph unicode="&#x2122;" horiz-adv-x="1871" d="M233 1198l52 238h731l-51 -238h-217l-134 -625h-297l134 625h-218zM905 573l185 863h323l90 -428l277 428h323l-184 -863h-266l94 441l-215 -357h-203l-63 357l-95 -441h-266z" />
<glyph unicode="&#x25fc;" horiz-adv-x="1116" d="M0 0v1116h1116v-1116h-1116z" />
</font>
</defs>
</svg>
